<?xml version="1.0" encoding="UTF-8" standalone="no"?><!-- Generator: Gravit.io --><svg xmlns="http://www.w3.org/2000/svg" xmlns:xlink="http://www.w3.org/1999/xlink" style="isolation:isolate" viewBox="0 0 1024 1450" width="1024pt" height="1450pt"><defs><clipPath id="_clipPath_FvZvzL43iFdgXknLOkQzlhnAI4s4sLAc"><rect width="1024" height="1450"/></clipPath></defs><g clip-path="url(#_clipPath_FvZvzL43iFdgXknLOkQzlhnAI4s4sLAc)"><clipPath id="_clipPath_TnciXcAMQ3AczxHr8WvZCflAiAQ9DHyS"><rect x="0" y="0" width="1024" height="1700" transform="matrix(1,0,0,1,0,0)" fill="rgb(255,255,255)"/></clipPath><g clip-path="url(#_clipPath_TnciXcAMQ3AczxHr8WvZCflAiAQ9DHyS)"><g><g><rect x="0" y="6.809" width="1024" height="539.191" transform="matrix(1,0,0,1,0,0)" fill="rgb(255,255,255)"/><g><linearGradient id="_lgradient_92" x1="0.5000000389593185" y1="-1.0152469143154264e-15" x2="0.4970588588745256" y2="0.9203104879204393" gradientTransform="matrix(730.106,0,0,253.866,293.894,0)" gradientUnits="userSpaceOnUse"><stop offset="0%" stop-opacity="1" style="stop-color:rgb(102,21,178)"/><stop offset="26.427574723753157%" stop-opacity="1" style="stop-color:rgb(141,40,195)"/><stop offset="52.80298068687691%" stop-opacity="1" style="stop-color:rgb(172,55,208)"/><stop offset="74.7610615213078%" stop-opacity="1" style="stop-color:rgb(191,64,216)"/><stop offset="100%" stop-opacity="1" style="stop-color:rgb(198,67,219)"/></linearGradient><path d=" M 1024 0 L 1024 184.143 C 1024 184.143 622.94 329.57 428.089 200.366 C 414.054 191.059 413.548 191.119 403.627 184.143 C 352.203 147.984 330.579 113.106 293.894 0 L 1024 0 Z " fill="url(#_lgradient_92)"/><linearGradient id="_lgradient_93" x1="0.5000001708744501" y1="0.9999994762172522" x2="0.5000629637820041" y2="0.06330473681052806" gradientTransform="matrix(850,0,0,212.663,0,0)" gradientUnits="userSpaceOnUse"><stop offset="0%" stop-opacity="1" style="stop-color:rgb(249,121,90)"/><stop offset="5.300625792435835e-14%" stop-opacity="1" style="stop-color:rgb(238,67,101)"/><stop offset="4.2365818356992575%" stop-opacity="1" style="stop-color:rgb(246,106,93)"/><stop offset="32.16701235176558%" stop-opacity="1" style="stop-color:rgb(244,95,95)"/><stop offset="58.76852829037057%" stop-opacity="1" style="stop-color:rgb(241,83,98)"/><stop offset="100%" stop-opacity="1" style="stop-color:rgb(235,54,104)"/></linearGradient><path d=" M 0 166.021 C 0 166.021 217.303 260.201 404.784 180.902 C 433.162 168.899 461.027 153.915 488.381 135.949 C 710.12 -9.685 850 0.14 850 0.14 L 0 0 L 0 166.021 Z " fill="url(#_lgradient_93)"/></g></g><g><g><path d=" M 610.569 1328.67 C 613.024 1328.734 615.443 1328.456 617.76 1328.042 C 615.026 1325.855 609.267 1321.327 604.578 1318.14 C 598.185 1313.809 594.562 1306.509 603.578 1305.266 C 611.261 1304.207 617.3 1322.412 618.924 1327.824 C 619.975 1327.615 621.005 1327.384 622.001 1327.149 C 620.765 1323.3 618.059 1315.142 615.494 1309.452 C 612.032 1301.772 599.786 1288.799 612.032 1287.322 C 622.925 1286.002 625.816 1318.815 626.32 1326.115 C 628.507 1325.616 630.419 1325.27 631.933 1325.393 C 635.419 1325.671 638.751 1329.793 636.78 1331.608 L 600.003 1331.608 C 601.194 1330.524 604.271 1328.507 610.569 1328.67 Z " fill="rgb(36,46,108)"/><g><g><path d=" M 570.507 909.887 C 573.221 908.35 584.731 911.707 584.731 911.707 C 584.731 911.707 613.688 895.262 617.024 893.032 C 620.879 890.452 631.155 859.663 638.692 842.697 C 642.661 833.761 654.588 833.889 658.145 843.03 C 658.786 844.674 659.081 846.494 658.857 848.485 C 657.614 859.514 631.835 898.82 628.672 902.152 C 622.913 908.221 588.115 917.632 588.115 917.632 C 588.115 917.632 581.281 920.502 576.71 920.852 C 572.143 921.203 567.792 911.425 570.507 909.887 Z " fill="rgb(255,125,120)"/><path d=" M 628.621 848.139 C 628.928 844.478 631.206 841.244 632.417 839.762 C 625.451 848.724 636.544 866.429 636.544 866.429 C 634.605 856.84 664.824 842.325 666.036 830.732 C 667.247 819.144 657.342 818.426 654.801 814.842 C 652.256 811.258 657.452 792.378 649.093 784.852 C 640.73 777.326 633.047 782.225 633.047 782.225 C 634.935 780.072 638.586 779 638.586 779 C 629.317 779 627.764 785.928 627.539 789.128 C 619.813 791.366 617.221 807.769 617.221 807.769 L 641.383 818.866 C 641.76 819.703 642 820.271 642.051 820.481 C 642.492 822.292 638.33 832.436 633.247 835.209 C 627.504 838.34 628.621 848.139 628.621 848.139 Z  M 632.972 839.113 C 633.098 838.972 633.173 838.899 633.173 838.899 C 633.102 838.968 633.039 839.04 632.972 839.113 Z " fill="rgb(242,75,70)"/><path d=" M 661.366 1043.893 L 667.358 1042.936 C 667.358 1042.936 687.499 1025.555 690.5 993.126 C 690.807 989.824 690.87 986.475 690.642 983.101 C 690.614 982.712 690.654 982.323 690.85 981.995 C 690.85 981.99 690.85 981.99 690.858 981.986 C 691.503 980.914 693.108 978.223 695.28 974.4 C 697.42 970.632 701.086 963.512 705.118 955.52 C 712.38 941.129 720.838 923.919 723.737 918.435 C 732.978 900.964 728.525 889.218 728.525 889.218 C 728.525 889.218 702.746 886.45 695.681 879.739 L 693.136 883.998 C 693.136 883.998 687.55 910.848 687.814 910.972 C 687.538 911.886 687.259 912.813 686.976 913.762 C 682.566 928.537 677.499 946.998 674.734 962.038 C 673.18 970.5 672.358 977.873 672.798 982.896 C 672.952 984.617 672.767 987.266 672.342 990.533 C 669.844 1009.806 661.366 1043.893 661.366 1043.893 Z " fill="rgb(249,121,90)"/><path d=" M 648.802 1052.124 L 673.793 1052.124 C 673.793 1052.124 674.391 1047.989 673.085 1044.85 C 671.834 1041.838 670.052 1041.744 672.857 1037.024 C 671.268 1038.801 666.162 1039.536 662.55 1039.006 C 662.106 1039.784 659.695 1045.016 658.215 1046.17 C 656.587 1047.438 649.301 1046.985 648.802 1052.124 Z " fill="rgb(34,41,86)"/><path d=" M 686.972 913.762 C 689.155 926.837 694.312 948.596 705.115 955.52 C 712.376 941.129 720.834 923.919 723.733 918.435 C 732.974 900.964 728.521 889.218 728.521 889.218 C 728.521 889.218 702.742 886.45 695.677 879.739 L 693.132 883.998 C 693.132 883.998 687.546 910.848 687.81 910.972 C 687.534 911.886 687.255 912.818 686.972 913.762 Z " fill="rgb(242,75,70)"/><path d=" M 704.501 891.238 L 704.414 886.163 C 713.726 887.441 736.526 874.079 736.526 874.079 C 736.526 874.079 746.27 881.115 747.604 901.212 C 748.257 911.019 752.376 952.5 752.828 964.887 C 752.993 969.377 753.048 972.58 753.068 973.862 C 753.068 973.866 753.068 973.87 753.068 973.874 C 753.072 974.263 753.241 974.609 753.465 974.917 C 755.393 977.578 757.065 980.393 758.512 983.314 C 772.725 1012.023 765.294 1051.035 765.294 1051.035 L 761.994 1050.125 C 761.994 1050.125 749.976 1009.682 742.124 992.191 C 740.79 989.222 739.579 986.915 738.568 985.578 C 735.614 981.683 732.502 975.07 729.433 967.113 C 723.631 952.064 718.002 932.21 713.985 916.837 C 713.694 916.888 704.501 891.238 704.501 891.238 Z " fill="rgb(249,121,90)"/><path d=" M 650.002 857.361 C 665.225 853.568 655.501 830.335 654.616 830.745 C 652.507 830.279 647.873 826.256 643.727 818.4 L 643.168 818.926 L 633.818 827.828 C 633.818 827.828 635.981 831.292 637.799 834.679 C 639.219 837.332 640.427 839.95 640.238 840.847 C 639.482 841.496 645.938 858.377 650.002 857.361 Z " fill="rgb(255,163,159)"/><path d=" M 640.045 839.583 C 640.045 839.583 636.623 844.828 634.538 849.514 C 632.453 854.2 626.78 869.261 626.78 869.261 C 626.78 869.261 632.834 879.47 643.047 880.581 C 643.047 880.581 649.769 872.191 648.991 863.512 C 648.212 854.832 640.045 839.583 640.045 839.583 Z " fill="rgb(27,34,81)"/><path d=" M 633.818 827.836 C 633.818 827.836 635.981 831.296 637.799 834.688 C 643.613 830.796 643.617 822.979 643.172 818.934 L 633.818 827.836 Z " fill="rgb(255,125,120)"/><path d=" M 633.562 832.296 C 633.562 832.296 647.677 823.765 642.649 814.304 C 637.622 804.838 636.06 797.367 626.835 802.412 C 617.61 807.457 617.791 812.155 618.763 815.756 C 619.731 819.357 629.758 834.269 633.562 832.296 Z " fill="rgb(255,163,159)"/><path d=" M 616.375 810.233 C 617.02 806.03 618.987 805.629 620.356 805.91 C 625.569 796.547 634.085 800.204 634.085 800.204 C 638.633 806.402 645.21 807.461 645.21 807.461 C 645.21 807.461 643.574 810.771 636.823 812.817 C 634.762 813.445 632.421 813.065 630.163 812.241 C 634.844 815.077 639.742 816.162 639.742 816.162 C 630.848 817.046 622.386 808.217 621.509 807.273 C 621.1 808.64 620.38 811.506 620.809 813.599 C 621.395 816.444 623.72 821.6 622.3 822.266 C 622.307 822.266 615.407 816.538 616.375 810.233 Z " fill="rgb(242,75,70)"/><path d=" M 745.413 1052.124 L 770.404 1052.124 C 770.404 1052.124 771.002 1047.989 769.696 1044.85 C 768.445 1041.838 766.486 1040.471 766.954 1036.828 C 765.365 1038.601 762.777 1040.591 759.165 1040.066 C 758.721 1040.843 756.309 1045.016 754.83 1046.17 C 753.198 1047.438 745.916 1046.985 745.413 1052.124 Z " fill="rgb(34,41,86)"/><path d=" M 648.208 875.779 C 651.426 876.997 655.938 877.667 660.552 878.21 C 667.126 878.987 673.911 879.521 677.464 881.063 C 678.16 881.362 680.178 882.281 682.204 883.874 L 682.204 883.878 C 682.204 883.878 682.255 883.912 682.346 883.994 C 683.018 884.523 683.687 885.138 684.305 885.83 C 685.249 886.881 686.071 888.116 686.598 889.525 C 687.9 893.023 686.177 902.716 685.068 908.016 C 684.623 910.148 685.548 912.352 687.338 913.36 C 689.836 914.761 692.29 916.06 694.706 917.243 C 694.831 917.307 694.957 917.367 695.087 917.427 C 695.064 916.888 695.056 916.354 695.056 915.829 C 695.052 912.173 695.477 909.131 695.477 909.131 C 696.071 912.822 698.309 916.807 700.398 919.874 C 733.938 934.487 757.372 928.135 756.986 920.857 C 755.664 895.582 739.964 874.084 739.964 874.084 C 710.689 837.118 651.469 827.388 651.469 827.388 C 651.469 827.388 648.633 827.016 645.21 831.484 C 640.285 837.917 640.041 839.591 640.041 839.591 C 640.041 839.591 638.747 872.196 648.208 875.779 Z " fill="rgb(36,46,108)"/><path d=" M 660.556 878.21 C 667.126 878.987 673.911 879.521 677.468 881.059 C 678.919 857.493 668.679 839.766 668.679 839.766 C 668.679 839.766 661.996 869.291 660.556 878.21 Z " fill="rgb(27,34,81)"/><g><path d=" M 587.694 922.454 L 587.694 922.454 C 588.484 921.139 588.138 919.357 586.926 918.499 L 571.215 907.376 C 570.003 906.517 568.363 906.893 567.572 908.209 L 567.572 908.209 C 566.781 909.524 567.128 911.306 568.339 912.164 L 584.051 923.287 C 585.262 924.146 586.903 923.77 587.694 922.454 Z " fill="rgb(36,46,108)"/><g><path d=" M 570.109 910.725 L 570.715 909.717 L 556.864 900.473 C 555.2 899.294 553.115 899.106 551.294 899.973 L 545.13 902.903 L 545.48 903.506 L 551.392 900.221 C 553.139 899.392 555.133 899.572 556.726 900.699 L 570.109 910.725 Z " fill="rgb(36,46,108)"/></g></g><path d=" M 606.733 938.562 C 612.036 938.28 617.772 943.197 617.772 943.197 C 617.772 943.197 636.406 908.943 639.29 905.74 C 643.818 900.708 648.216 839.237 653.794 835.209 C 653.794 835.209 670.265 836.977 671.583 848.596 C 672.904 860.214 655.792 907.547 653.341 911.835 C 648.88 919.639 622.61 946.383 622.61 946.383 C 622.61 946.383 619.923 952.043 616.572 951.462 C 613.22 950.877 598.464 940.147 598.464 940.147 C 598.464 940.147 601.431 938.84 606.733 938.562 Z " fill="rgb(255,163,159)"/><path d=" M 685.068 908.008 C 684.623 910.139 685.548 912.343 687.338 913.352 C 689.836 914.753 692.29 916.051 694.706 917.234 C 694.831 916.79 694.95 916.32 695.056 915.825 C 695.433 913.979 695.61 911.771 695.477 909.127 C 694.918 897.94 687.9 889.465 684.305 885.826 C 685.249 886.877 686.071 888.111 686.598 889.521 C 687.9 893.015 686.173 902.711 685.068 908.008 Z " fill="rgb(27,34,81)"/><path d=" M 651.473 827.379 C 651.473 827.379 648.896 823.838 647.153 823.953 C 647.153 823.953 640.104 834.666 640.049 839.583 C 640.045 839.583 648.837 826.884 651.473 827.379 Z " fill="rgb(27,34,81)"/><path d=" M 645.214 857.408 C 645.214 857.408 643.523 827.447 664.643 834.692 C 685.764 841.936 661.366 893.472 661.366 893.472 C 661.366 893.472 648.971 892.806 644.573 881.063 L 645.214 857.408 Z " fill="rgb(36,46,108)"/></g><path d=" M 452.704 1193.848 C 455.773 1217.055 461.123 1238.298 469.325 1255.802 C 514.434 1352.035 541.266 1264.554 561.274 1224.736 C 580.101 1187.257 599.845 1172.777 629.451 1195.138 C 651.233 1211.579 658.204 1325.718 693.278 1331.075 C 721.684 1335.41 827.39 1229.212 802.485 1003.267 C 802.005 998.914 801.112 994.096 799.586 989.162 C 792.343 965.763 770.837 939.89 711.413 949.826 C 657.047 958.916 653.294 969.859 619.506 953.188 C 585.715 936.52 539.162 884.976 497.184 922.176 C 471.264 945.153 438.908 1089.427 452.704 1193.848 Z " fill="rgb(133,169,221)"/><path d=" M 452.704 1193.844 C 455.816 1208.598 460.068 1222.181 465.631 1234.047 C 510.744 1330.284 537.573 1242.8 557.58 1202.981 C 576.403 1165.503 596.147 1151.022 625.761 1173.384 C 647.539 1189.825 654.514 1303.959 689.584 1309.316 C 717.27 1313.54 818.373 1212.775 800.439 998.504 C 800.183 995.411 799.896 992.293 799.589 989.154 C 792.347 965.754 770.841 939.882 711.42 949.817 C 657.051 958.907 653.302 969.846 619.51 953.183 C 585.719 936.512 539.166 884.972 497.192 922.172 C 479.588 937.772 459.026 1009.268 451.953 1086.245 C 448.605 1122.668 448.275 1160.313 452.704 1193.844 Z " fill="rgb(192,211,248)"/><path d=" M 499.127 954.226 C 488.451 975.036 490.76 1018.234 504.123 1020.489 C 517.49 1022.745 529.036 984.959 543.93 970.145 C 565.456 948.737 550.212 933.355 536.845 931.1 C 523.478 928.844 508.954 935.068 499.127 954.226 Z " fill="rgb(236,235,252)"/><path d=" M 451.725 1185.583 C 452.016 1188.364 452.346 1191.119 452.704 1193.844 C 455.816 1208.602 460.068 1222.181 465.631 1234.047 C 499.611 1306.535 523.214 1274.785 541.345 1237.682 C 541.349 1237.682 541.349 1237.678 541.349 1237.678 C 547.289 1225.53 552.639 1212.801 557.576 1202.976 C 568.178 1181.875 579.075 1168.061 591.852 1164.016 L 591.856 1164.016 C 598.61 1161.876 605.895 1162.466 613.948 1166.148 C 617.713 1167.869 621.643 1170.27 625.761 1173.379 C 639.624 1183.849 647.488 1233.902 660.426 1270.283 C 667.806 1291.055 676.842 1307.368 689.584 1309.311 C 712.408 1312.801 785.129 1244.931 799.912 1100.939 L 799.916 1100.935 C 801.576 1084.775 802.508 1067.66 802.556 1049.574 C 802.595 1035.662 802.111 1021.169 801.029 1006.103 C 800.852 1003.587 800.652 1001.05 800.439 998.504 C 795.896 1004.655 790.762 1011.19 785.038 1017.914 C 748.1 1061.304 686.409 1112.412 597.784 1117.149 C 583.657 1117.905 568.847 1117.482 553.339 1115.663 C 522.337 1112.023 488.565 1102.797 451.949 1086.236 C 450.761 1099.145 449.954 1112.203 449.604 1125.18 L 449.604 1125.184 C 449.05 1145.858 449.651 1166.306 451.725 1185.583 Z " fill="rgb(177,201,246)"/><path d=" M 591.86 1164.02 C 598.614 1161.88 605.899 1162.47 613.952 1166.152 C 617.717 1167.873 621.646 1170.274 625.765 1173.384 C 634.86 1180.252 641.372 1204.156 648.43 1230.06 C 652.13 1243.642 655.98 1257.773 660.43 1270.287 C 667.81 1291.059 676.846 1307.372 689.588 1309.316 C 712.412 1312.805 785.133 1244.935 799.916 1100.943 C 785.203 1131.916 747.934 1247.994 685.823 1225.005 C 644.62 1209.755 648.802 1160.129 591.86 1164.02 Z " fill="rgb(154,192,239)"/><path d=" M 451.725 1185.583 C 452.016 1188.364 452.346 1191.119 452.704 1193.844 C 455.816 1208.602 460.367 1222.023 465.631 1234.047 C 511.629 1339.165 543.442 1232.514 561.569 1195.412 C 561.113 1196.223 529.858 1253.226 496.366 1233.71 C 468.408 1217.418 450.108 1177.266 449.608 1125.192 C 449.05 1145.858 449.651 1166.306 451.725 1185.583 Z " fill="rgb(154,192,239)"/><g><path d=" M 780.837 1051.163 C 780.837 1048.989 779.212 1047.229 777.21 1047.229 C 775.208 1047.229 773.587 1048.989 773.587 1051.163 C 773.587 1053.337 775.211 1055.097 777.21 1055.097 C 779.216 1055.097 780.837 1053.333 780.837 1051.163 Z " fill="rgb(239,236,234)"/><path d=" M 771.116 1031.296 C 771.116 1030.211 770.306 1029.327 769.303 1029.327 C 768.3 1029.327 767.489 1030.207 767.489 1031.296 C 767.489 1032.386 768.3 1033.265 769.303 1033.265 C 770.306 1033.265 771.116 1032.381 771.116 1031.296 Z " fill="rgb(239,236,234)"/><path d=" M 757.316 1055.097 C 757.316 1054.012 756.506 1053.128 755.503 1053.128 C 754.5 1053.128 753.689 1054.008 753.689 1055.097 C 753.689 1056.186 754.5 1057.066 755.503 1057.066 C 756.506 1057.066 757.316 1056.186 757.316 1055.097 Z " fill="rgb(239,236,234)"/></g></g><g><g><path d=" M 160.594 1260.924 C 160.594 1260.924 170.979 1247.767 161.235 1239.412 C 161.235 1239.412 154.118 1234.735 148.316 1235.115 C 148.316 1235.115 156.538 1250.087 153.878 1251.578 C 151.219 1253.068 145.822 1234.176 145.822 1234.176 C 145.822 1234.176 129.626 1232.471 124.414 1235.188 C 124.414 1235.188 138.261 1247.49 135.342 1248.224 C 132.427 1248.955 117.471 1236.879 117.471 1236.879 C 117.471 1236.879 102.396 1239.664 103.199 1249.651 C 104.001 1259.638 109.198 1262.718 111.48 1262.453 C 113.761 1262.188 127.117 1256.652 127.408 1258.685 C 127.699 1260.719 119.662 1267.357 114.033 1267.664 C 114.033 1267.664 124.662 1280.389 131.723 1276.715 C 138.784 1273.042 139.39 1267.22 143.792 1265.037 C 148.194 1262.854 151.955 1262.859 150.137 1265.088 C 148.32 1267.314 140.35 1269.479 137.832 1274.315 C 135.315 1279.15 133.057 1282.414 140.362 1281.218 C 147.671 1280.026 159.547 1274.217 160.07 1267.57 C 160.594 1260.924 160.594 1260.924 160.594 1260.924 Z " fill="rgb(27,34,81)"/><g><path d=" M 110.606 1249.92 C 110.606 1249.92 151.55 1248.207 160.59 1260.919 C 160.59 1260.919 162.588 1267.421 168.74 1273.345 L 169.7 1276.181 C 169.7 1276.181 162.604 1268.057 160.066 1267.566 C 160.07 1267.57 164.04 1251.821 110.606 1249.92 Z " fill="rgb(27,34,81)"/><path d=" M 168.744 1273.345 C 168.744 1273.345 177.533 1280.402 178.142 1293.011 L 176.549 1293.165 C 176.549 1293.165 173.744 1280.128 168.67 1275.028 C 163.595 1269.932 168.744 1273.345 168.744 1273.345 Z " fill="rgb(27,34,81)"/></g></g><g><path d=" M 196.899 1244.38 C 196.899 1244.38 180.381 1234.338 188.091 1220.703 C 188.091 1220.703 194.259 1212.331 200.864 1210.183 C 200.864 1210.183 197.339 1230.511 200.864 1230.989 C 204.389 1231.467 203.287 1208.03 203.287 1208.03 C 203.287 1208.03 220.687 1198.944 227.516 1199.658 C 227.516 1199.658 216.725 1219.507 220.246 1219.029 C 223.771 1218.55 235.883 1198.461 235.883 1198.461 C 235.883 1198.461 253.723 1194.873 256.587 1206.355 C 259.451 1217.833 254.825 1223.574 252.181 1224.291 C 249.537 1225.009 232.579 1224.77 233.019 1227.162 C 233.46 1229.554 244.911 1233.381 251.3 1231.228 C 251.3 1231.228 244.25 1250.121 235.002 1249.164 C 225.754 1248.207 222.89 1241.988 217.162 1241.51 C 211.434 1241.031 207.253 1242.706 210.113 1244.38 C 212.976 1246.055 222.665 1244.927 227.292 1249.198 C 231.918 1253.466 235.663 1256.097 227.071 1258.011 C 218.484 1259.924 203.063 1258.728 199.983 1251.552 C 196.899 1244.38 196.899 1244.38 196.899 1244.38 Z " fill="rgb(36,46,108)"/><g><path d=" M 248.436 1209.943 C 248.436 1209.943 202.186 1226.205 196.899 1244.38 C 196.899 1244.38 197.119 1252.513 192.493 1261.838 L 192.493 1265.426 C 192.493 1265.426 197.339 1253.231 199.983 1251.556 C 199.983 1251.552 189.629 1235.769 248.436 1209.943 Z " fill="rgb(27,34,81)"/><path d=" M 192.493 1261.838 C 192.493 1261.838 185.361 1273.597 189.429 1287.915 L 191.262 1287.381 C 191.262 1287.381 189.48 1271.611 193.213 1263.683 C 196.946 1255.751 192.493 1261.838 192.493 1261.838 Z " fill="rgb(27,34,81)"/></g></g><g><path d=" M 170.621 1230.528 C 170.621 1230.528 192.395 1217.286 182.234 1199.32 C 182.234 1199.32 174.102 1188.287 165.393 1185.451 C 165.393 1185.451 170.039 1212.246 165.393 1212.878 C 160.747 1213.51 162.199 1182.614 162.199 1182.614 C 162.199 1182.614 139.264 1170.637 130.264 1171.581 C 130.264 1171.581 144.488 1197.748 139.843 1197.116 C 135.197 1196.484 119.229 1170.005 119.229 1170.005 C 119.229 1170.005 95.713 1165.276 91.94 1180.406 C 88.168 1195.54 94.261 1203.105 97.747 1204.049 C 101.232 1204.993 123.584 1204.681 123.006 1207.833 C 122.424 1210.986 107.329 1216.03 98.911 1213.194 C 98.911 1213.194 108.203 1238.097 120.394 1236.837 C 132.589 1235.577 136.361 1227.38 143.91 1226.747 C 151.459 1226.119 156.974 1228.324 153.202 1230.532 C 149.429 1232.74 136.652 1231.254 130.559 1236.884 C 124.461 1242.513 119.528 1245.978 130.85 1248.502 C 142.171 1251.022 162.494 1249.446 166.561 1239.989 C 170.621 1230.528 170.621 1230.528 170.621 1230.528 Z " fill="rgb(36,46,108)"/><g><path d=" M 102.684 1185.13 C 102.684 1185.13 163.65 1206.565 170.621 1230.523 C 170.621 1230.523 170.33 1241.241 176.427 1253.534 L 176.427 1258.263 C 176.427 1258.263 170.039 1242.185 166.557 1239.976 C 166.553 1239.985 180.2 1219.178 102.684 1185.13 Z " fill="rgb(27,34,81)"/><path d=" M 176.427 1253.538 C 176.427 1253.538 185.829 1269.04 180.467 1287.915 L 178.048 1287.21 C 178.048 1287.21 180.396 1266.425 175.475 1255.969 C 170.558 1245.516 176.427 1253.538 176.427 1253.538 Z " fill="rgb(27,34,81)"/></g></g><path d=" M 128.466 1283.947 L 127.475 1283.947 L 127.475 1282.525 L 215.152 1282.525 L 215.152 1283.947 L 213.728 1283.947 C 213.205 1302.78 202.328 1318.785 187.064 1325.483 L 209.338 1325.483 C 212.245 1325.483 214.601 1328.042 214.601 1331.198 L 128.12 1331.198 C 128.12 1328.042 130.476 1325.483 133.383 1325.483 L 155.137 1325.483 C 139.866 1318.785 128.985 1302.78 128.466 1283.947 Z " fill="rgb(249,121,90)"/><path d=" M 171.537 1325.479 L 182.135 1325.479 C 197.383 1318.785 208.248 1302.797 208.779 1283.986 L 198.185 1283.986 C 197.654 1302.801 186.785 1318.781 171.537 1325.479 Z " fill="rgb(239,236,234)"/></g><g><g><g><path d=" M 299.804 1146.879 C 294.092 1146.853 290.107 1137.242 286.256 1127.952 C 283.734 1121.869 281.398 1115.804 279.336 1114.125 C 277.306 1112.468 273.325 1112.711 271.13 1113.629 C 268.282 1114.821 265.942 1118.26 263.766 1124.462 C 263.29 1125.825 262.806 1127.384 262.295 1129.037 C 259.99 1136.508 257.374 1144.978 252.268 1145.768 C 248.778 1146.306 244.86 1143.081 240.277 1135.91 C 237.74 1131.933 235.631 1126.803 234.018 1120.656 C 227.122 1094.403 230.777 1056.669 236.812 1049.647 L 236.812 1049.647 C 244.368 1040.852 254.427 1045.742 262.511 1049.677 C 264.99 1050.881 267.326 1052.017 269.407 1052.696 C 275.634 1054.721 277.676 1053.901 283.136 1051.706 C 285.398 1050.796 288.211 1049.664 292.105 1048.412 C 307.345 1043.508 313.761 1049.531 316.46 1055.452 C 316.971 1056.575 317.384 1057.788 317.691 1059.052 C 322.042 1077.219 322.962 1094.258 320.421 1109.695 C 317.821 1125.504 312.302 1135.038 309.245 1139.314 C 305.854 1144.055 302.333 1146.883 299.82 1146.883 C 299.816 1146.879 299.808 1146.879 299.804 1146.879 Z  M 283.636 1053.149 C 278.014 1055.409 275.686 1056.344 269.002 1054.17 C 266.831 1053.465 264.451 1052.308 261.929 1051.082 C 253.861 1047.156 244.719 1042.71 237.854 1050.697 C 232.162 1057.318 228.739 1094.907 235.391 1120.229 C 236.965 1126.209 239.254 1130.216 241.705 1134.052 C 245.891 1140.604 248.707 1143.146 251.571 1142.701 C 255.808 1142.048 258.884 1135.243 260.953 1128.541 C 261.469 1126.871 261.953 1125.299 262.444 1123.907 C 264.773 1117.269 267.373 1113.54 270.627 1112.181 C 273.223 1111.096 277.224 1111.37 279.714 1113.471 C 282.141 1115.522 284.82 1120.699 287.562 1127.315 C 291.059 1135.752 295.02 1145.311 299.82 1145.333 C 299.824 1145.333 299.828 1145.333 299.828 1145.333 C 301.358 1145.333 304.446 1143.509 308.128 1138.361 C 323.096 1117.435 322.246 1053.705 302.916 1049.386 C 294.91 1047.601 285.878 1052.248 283.636 1053.149 Z " fill="rgb(127,34,186)"/></g><g><path d=" M 251.288 1064.358 L 251.575 1063.952 L 225.415 1042.261 L 172.198 1042.261 L 172.198 1042.774 L 225.254 1042.774 L 251.288 1064.358 Z " fill="rgb(127,34,186)"/></g><g><path d=" M 172.198 1133.962 L 225.415 1133.962 L 225.478 1133.911 L 251.575 1112.271 L 251.288 1111.861 L 225.254 1133.445 L 172.198 1133.445 L 172.198 1133.962 Z " fill="rgb(127,34,186)"/></g><g><rect x="170.617" y="1088.282" width="80.817" height="0.517" transform="matrix(1,0,0,1,0,0)" fill="rgb(127,34,186)"/></g></g><g><path d=" M 173.068 1078.338 L 196.922 1078.338 C 197.402 1078.338 197.792 1077.911 197.792 1077.394 L 197.792 1077.394 C 197.792 1076.873 197.402 1076.45 196.922 1076.45 L 173.068 1076.45 C 172.588 1076.45 172.198 1076.873 172.198 1077.394 L 172.198 1077.394 C 172.198 1077.915 172.588 1078.338 173.068 1078.338 Z " fill="rgb(127,34,186)"/><path d=" M 173.068 1082.119 L 196.922 1082.119 C 197.402 1082.119 197.792 1081.696 197.792 1081.175 L 197.792 1081.175 C 197.792 1080.653 197.402 1080.231 196.922 1080.231 L 173.068 1080.231 C 172.588 1080.231 172.198 1080.658 172.198 1081.175 L 172.198 1081.175 C 172.198 1081.691 172.588 1082.119 173.068 1082.119 Z " fill="rgb(127,34,186)"/></g><g><path d=" M 173.068 1035.235 L 196.922 1035.235 C 197.402 1035.235 197.792 1034.812 197.792 1034.291 L 197.792 1034.291 C 197.792 1033.769 197.402 1033.347 196.922 1033.347 L 173.068 1033.347 C 172.588 1033.347 172.198 1033.769 172.198 1034.291 L 172.198 1034.291 C 172.198 1034.812 172.588 1035.235 173.068 1035.235 Z " fill="rgb(127,34,186)"/><path d=" M 173.068 1039.015 L 196.922 1039.015 C 197.402 1039.015 197.792 1038.592 197.792 1038.071 L 197.792 1038.071 C 197.792 1037.55 197.402 1037.127 196.922 1037.127 L 173.068 1037.127 C 172.588 1037.127 172.198 1037.554 172.198 1038.071 L 172.198 1038.071 C 172.198 1038.588 172.588 1039.015 173.068 1039.015 Z " fill="rgb(127,34,186)"/></g><g><path d=" M 173.068 1125.906 L 196.922 1125.906 C 197.402 1125.906 197.792 1125.483 197.792 1124.962 L 197.792 1124.962 C 197.792 1124.441 197.402 1124.018 196.922 1124.018 L 173.068 1124.018 C 172.588 1124.018 172.198 1124.445 172.198 1124.962 L 172.198 1124.962 C 172.198 1125.483 172.588 1125.906 173.068 1125.906 Z " fill="rgb(127,34,186)"/><path d=" M 173.068 1129.686 L 196.922 1129.686 C 197.402 1129.686 197.792 1129.259 197.792 1128.742 L 197.792 1128.742 C 197.792 1128.221 197.402 1127.798 196.922 1127.798 L 173.068 1127.798 C 172.588 1127.798 172.198 1128.221 172.198 1128.742 L 172.198 1128.742 C 172.198 1129.259 172.588 1129.686 173.068 1129.686 Z " fill="rgb(127,34,186)"/></g></g><g><path d=" M 326.888 1306.761 C 326.888 1306.761 321.979 1311.626 322.935 1315.086 C 323.895 1318.542 328.324 1320.849 328.926 1325.077 C 329.524 1329.302 331.92 1331.608 334.076 1331.608 C 336.231 1331.608 344.355 1331.608 344.355 1331.608 C 344.355 1331.608 345.94 1328.636 342.108 1327.739 C 338.277 1326.841 336.829 1321.874 337.069 1317.265 C 337.309 1312.656 336.711 1306.509 336.711 1306.509 L 328.564 1304.459 L 326.888 1306.761 Z " fill="rgb(34,41,86)"/><path d=" M 326.888 1303.707 C 327.785 1306.59 337.671 1310.815 337.671 1310.815 C 337.671 1310.815 343.056 1301.597 360.31 1268.553 C 361.793 1265.703 363.347 1262.581 364.944 1259.258 C 381.883 1223.924 403.791 1165.204 403.791 1165.204 L 361.923 1152.526 C 361.923 1152.526 359.948 1170.774 359.59 1179.996 C 359.37 1185.63 356.42 1197.671 352.671 1208.188 C 350.287 1214.881 347.572 1220.955 345.039 1224.368 C 333.485 1239.921 326.888 1303.707 326.888 1303.707 Z " fill="rgb(249,121,90)"/><path d=" M 352.667 1208.188 C 355.299 1222.681 360.129 1246.947 364.94 1259.258 C 381.879 1223.924 403.787 1165.204 403.787 1165.204 L 361.919 1152.526 C 361.919 1152.526 359.944 1170.774 359.586 1179.996 C 359.37 1185.63 356.416 1197.671 352.667 1208.188 Z " fill="rgb(242,75,70)"/><g><path d=" M 419.9 1144.542 L 423.193 1144.354 C 423.193 1144.354 427.103 1137.277 433.515 1142.795 C 433.515 1142.795 436.048 1145.333 434.298 1146.964 C 432.547 1148.596 433.023 1147.609 430.596 1149.984 C 428.169 1152.359 425.065 1152.923 423.094 1151.193 L 420.545 1150.544 L 419.9 1144.542 Z " fill="rgb(255,163,159)"/><path d=" M 385.554 1066.498 C 385.554 1066.498 359.437 1093.455 370.652 1136.538 C 374.153 1149.988 423.535 1152.398 423.535 1152.398 C 423.535 1152.398 426.19 1149.331 422.182 1144.132 C 422.182 1144.132 392.339 1129.391 388.85 1127.358 C 385.75 1125.551 395.589 1093.148 394.039 1082.477 C 392.485 1071.803 385.554 1066.498 385.554 1066.498 Z " fill="rgb(177,201,246)"/></g><path d=" M 387.139 1319.349 C 387.139 1319.349 386.258 1330.425 388.414 1331.579 L 416.005 1331.519 C 416.005 1331.519 416.005 1328.059 411.572 1327.294 C 407.139 1326.525 399.354 1323.71 398.036 1317.431 C 396.722 1311.152 387.139 1319.349 387.139 1319.349 Z " fill="rgb(34,41,86)"/><path d=" M 410.435 1162.897 C 410.435 1162.897 408.98 1182.311 407.268 1205.646 C 404.943 1237.345 402.147 1276.284 401.871 1283.661 C 401.395 1296.471 399.475 1316.962 399.475 1316.962 C 399.475 1316.962 394.928 1321.831 385.821 1319.776 C 385.821 1319.776 377.706 1290.525 375.389 1259.578 C 375.353 1259.07 375.318 1258.562 375.282 1258.049 C 373.127 1226.542 369.775 1160.202 369.775 1160.202 L 410.435 1162.897 Z " fill="rgb(249,121,90)"/><path d=" M 372.281 1056.853 C 372.281 1056.853 388.657 1068.548 398.889 1065.097 C 398.889 1065.097 396.045 1060.419 393.335 1056.682 C 393.689 1054.452 393.964 1052.517 394.122 1050.877 C 394.554 1047.088 394.554 1044.944 394.554 1044.944 L 387.705 1039.096 L 381.211 1033.5 C 381.726 1049.237 372.281 1056.853 372.281 1056.853 Z " fill="rgb(255,163,159)"/><path d=" M 349.17 1199.636 C 369.98 1214.894 412.036 1210.537 412.351 1210.242 C 413.051 1200.533 413.448 1184.519 413.669 1169.697 C 413.94 1151.287 413.944 1134.722 413.92 1134.372 C 413.92 1134.372 413.909 1133.812 413.885 1132.873 C 413.814 1129.883 413.649 1123.023 413.468 1117.91 C 413.437 1116.953 413.401 1116.064 413.37 1115.265 C 413.366 1115.223 413.366 1115.18 413.362 1115.133 C 413.232 1112.839 411.938 1106.705 410.12 1099.555 C 407.453 1089.073 403.665 1076.429 400.754 1070.547 C 399.259 1067.527 394.243 1058.792 394.243 1058.792 C 390.699 1059.552 388.146 1058.416 384.405 1056.438 C 380.314 1054.294 375.904 1051.979 375.196 1052.568 C 369.842 1056.818 366.223 1066.37 364.291 1078.573 C 363.19 1085.604 348.143 1198.88 349.17 1199.636 Z " fill="rgb(36,46,108)"/><path d=" M 381.097 1039.515 C 381.097 1039.515 385.581 1048.391 394.122 1050.877 C 394.554 1047.088 394.554 1044.944 394.554 1044.944 L 387.705 1039.096 L 381.097 1039.515 Z " fill="rgb(255,125,120)"/><path d=" M 397.678 1044.687 C 397.678 1044.687 380.746 1047.695 379.157 1036.392 C 377.568 1025.09 374.311 1017.867 385.054 1015.466 C 395.797 1013.07 398.508 1017.042 399.896 1020.677 C 401.285 1024.312 402.04 1043.615 397.678 1044.687 Z " fill="rgb(255,163,159)"/><path d=" M 373.001 1014.116 C 372.847 1013.924 372.493 1013.77 371.703 1013.723 C 371.703 1013.723 372.332 1013.296 373.178 1013.271 C 373.343 1012.079 373.925 1009.969 375.813 1009.46 C 375.813 1009.46 374.799 1010.046 374.665 1011.314 C 376.852 1008.875 381.537 1007.098 394.515 1008.213 C 411.615 1009.678 405.982 1021.57 403.767 1022.984 C 401.553 1024.402 395.978 1020.515 391.856 1020.87 C 387.729 1021.224 386.946 1027.695 385.546 1028.584 C 384.145 1029.472 384.696 1027.9 382.804 1026.974 C 380.912 1026.042 380.731 1029.451 381.278 1031.664 C 381.824 1033.881 379.224 1036.802 379.224 1036.802 C 379.224 1036.802 379.224 1036.802 376.596 1033.727 C 373.968 1030.651 371.49 1017.632 372.686 1014.855 C 372.788 1014.612 372.895 1014.364 373.001 1014.116 Z " fill="rgb(38,45,90)"/><path d=" M 413.669 1169.697 C 413.94 1151.287 413.944 1134.722 413.92 1134.372 C 413.92 1134.372 413.909 1133.812 413.885 1132.873 C 397.568 1110.943 376.545 1088.171 376.545 1088.171 C 376.545 1088.171 371.994 1152.492 413.669 1169.697 Z " fill="rgb(27,34,81)"/><g><path d=" M 283.062 1215.548 L 603.248 1067.463 C 605.659 1066.348 606.792 1063.294 605.766 1060.676 L 604.688 1057.925 C 603.661 1055.306 600.848 1054.076 598.437 1055.191 L 278.25 1203.275 C 275.839 1204.39 274.706 1207.444 275.733 1210.063 L 276.811 1212.814 C 277.837 1215.432 280.65 1216.662 283.062 1215.548 Z " fill="rgb(198,67,219)"/><path d=" M 532.404 1057.912 L 541.64 1081.461 L 596.195 1056.229 L 586.958 1032.68 C 586.073 1030.421 583.642 1029.357 581.561 1030.322 L 534.575 1052.051 C 532.494 1053.017 531.518 1055.652 532.404 1057.912 Z " fill="rgb(36,46,108)"/><g><path d=" M 516.605 1043.671 C 519.328 1049.796 524.626 1055.973 534.579 1052.051 C 552.222 1045.106 582.56 1027.161 591.86 1028.392 C 591.86 1028.392 591.848 1028.366 591.832 1028.31 C 591.765 1028.118 591.576 1027.601 591.242 1026.88 C 588.76 1021.523 578.229 1004.71 549.567 1023.142 C 527.278 1037.473 513.926 1034.227 513.926 1034.227 C 513.926 1034.227 513.926 1034.231 513.93 1034.235 L 513.926 1034.239 C 513.926 1034.244 513.926 1034.244 513.93 1034.248 C 513.93 1034.256 513.934 1034.265 513.934 1034.274 C 513.938 1034.295 513.942 1034.325 513.946 1034.363 C 514.056 1035.171 514.709 1039.408 516.605 1043.671 Z " fill="rgb(102,21,178)"/><path d=" M 514.658 1037.212 C 514.221 1035.568 513.981 1034.496 513.934 1034.274 C 513.934 1034.274 513.93 1034.274 513.934 1034.278 C 513.938 1034.299 513.942 1034.329 513.946 1034.367 C 514.005 1034.731 514.202 1035.794 514.658 1037.212 Z " fill="rgb(196,214,248)"/><linearGradient id="_lgradient_94" x1="0.000012619888945408775" y1="0.5000065033003622" x2="1.0000232205956578" y2="0.5000065033003622" gradientTransform="matrix(77.929,0,0,27.913,513.926,1018.949)" gradientUnits="userSpaceOnUse"><stop offset="0%" stop-opacity="1" style="stop-color:rgb(249,121,90)"/><stop offset="100%" stop-opacity="1" style="stop-color:rgb(235,54,104)"/></linearGradient><path d=" M 591.856 1028.396 C 591.856 1028.396 582.654 1012.224 565.892 1022.198 C 549.13 1032.176 522.113 1042.919 513.926 1034.231 C 513.926 1034.231 520.673 1051.74 537.604 1045.529 C 554.539 1039.314 580.613 1018.089 591.856 1028.396 Z " fill="url(#_lgradient_94)"/><g><linearGradient id="_lgradient_95" x1="-0.00005249210070523702" y1="0.5000766368418468" x2="0.9999887880949938" y2="0.5000766368418468" gradientTransform="matrix(77.19,0,0,26.177,514.67,1027.104)" gradientUnits="userSpaceOnUse"><stop offset="0%" stop-opacity="1" style="stop-color:rgb(249,121,90)"/><stop offset="100%" stop-opacity="1" style="stop-color:rgb(235,54,104)"/></linearGradient><path d=" M 516.605 1043.671 C 519.328 1049.796 524.626 1055.973 534.579 1052.051 C 552.222 1045.106 582.56 1027.161 591.86 1028.392 C 591.86 1028.392 582.745 1022.437 561.774 1036.14 C 523.073 1061.419 517.073 1044.709 514.67 1037.238 C 515.107 1038.904 515.752 1041.146 516.605 1043.671 Z " fill="url(#_lgradient_95)"/><linearGradient id="_lgradient_96" x1="-0.000008079175923825233" y1="0.5001528415310155" x2="0.9999868713391251" y2="0.5001528415310155" gradientTransform="matrix(77.906,0,0,21.09,513.926,1014.728)" gradientUnits="userSpaceOnUse"><stop offset="0%" stop-opacity="1" style="stop-color:rgb(249,121,90)"/><stop offset="100%" stop-opacity="1" style="stop-color:rgb(235,54,104)"/></linearGradient><path d=" M 513.926 1034.231 C 529.201 1041.189 552.627 1023.347 569.574 1017.798 C 585.821 1012.485 591.399 1027.097 591.832 1028.31 C 591.765 1028.118 591.576 1027.601 591.242 1026.88 C 588.76 1021.523 578.229 1004.71 549.567 1023.142 C 527.274 1037.473 513.926 1034.231 513.926 1034.231 Z " fill="url(#_lgradient_96)"/></g></g><path d=" M 532.404 1057.912 L 536.479 1068.3 C 553.406 1047.733 579.59 1037.413 587.682 1034.534 L 586.954 1032.68 C 586.069 1030.421 583.638 1029.357 581.557 1030.322 L 534.571 1052.051 C 532.494 1053.017 531.518 1055.652 532.404 1057.912 Z " fill="rgb(27,34,81)"/></g><path d=" M 391.529 1084.429 C 391.753 1084.822 396.922 1117.952 410.183 1118.32 C 411.474 1118.358 412.563 1118.213 413.472 1117.914 C 413.441 1116.957 413.405 1116.068 413.374 1115.27 C 413.37 1115.227 413.37 1115.184 413.366 1115.137 C 413.236 1112.844 411.942 1106.71 410.124 1099.559 C 404.704 1098.35 398.354 1092.951 391.529 1084.429 Z " fill="rgb(27,34,81)"/><path d=" M 375.149 1052.573 C 375.149 1052.573 376.722 1047.609 378.005 1047.05 C 378.005 1047.05 395.825 1051.513 401.769 1072.896 C 401.769 1072.896 394.834 1059.774 375.149 1052.573 Z " fill="rgb(27,34,81)"/><path d=" M 453.322 1129.515 C 453.322 1129.515 453.542 1128.934 454.388 1128.315 C 455.009 1127.572 455.706 1126.653 455.879 1126.068 C 456.209 1124.953 457.484 1124.876 457.712 1125.957 C 457.787 1126.32 457.775 1126.696 457.684 1127.08 C 459.781 1126.739 462.846 1126.803 467.314 1127.841 C 467.314 1127.841 470.8 1128.486 467.79 1130.912 C 465.78 1132.535 464.51 1132.155 461.642 1134.393 C 458.774 1136.632 455.19 1137.242 452.983 1135.73 L 450.076 1135.222 L 449.533 1129.784 L 453.322 1129.515 Z " fill="rgb(255,163,159)"/><path d=" M 371.231 1069.108 C 371.231 1069.108 365.267 1103.07 401.021 1129.314 C 410.675 1136.401 453.562 1137.2 453.562 1137.2 C 453.562 1137.2 454.84 1131.433 451.98 1128.998 C 451.98 1128.998 415.325 1114.902 411.741 1115.599 C 408.563 1116.214 391.765 1082.17 385.196 1075.485 C 378.63 1068.8 371.231 1069.108 371.231 1069.108 Z " fill="rgb(36,46,108)"/></g><g><g><path d=" M 829.105 1112.895 C 829.105 1112.895 828.861 1112.322 827.992 1111.75 C 827.339 1111.037 825.686 1108.499 825.486 1107.923 C 825.112 1106.825 824.062 1107.786 823.881 1108.875 C 823.818 1109.238 824.546 1110.298 824.648 1110.674 C 822.539 1110.434 819.483 1110.644 815.057 1111.895 C 815.057 1111.895 811.603 1112.707 814.707 1114.988 C 816.78 1116.513 818.035 1116.073 820.989 1118.17 C 823.948 1120.267 827.551 1120.707 829.695 1119.093 L 832.579 1118.443 L 832.901 1112.984 L 829.105 1112.895 Z " fill="rgb(255,163,159)"/><path d=" M 907.026 1053.376 C 907.026 1053.376 918.128 1082.161 883.471 1110.088 C 874.116 1117.628 831.3 1120.477 831.3 1120.477 C 831.3 1120.477 829.789 1114.779 832.547 1112.207 C 832.547 1112.207 862.755 1100.657 868.455 1099.337 C 871.614 1098.607 877.157 1071.158 883.443 1064.165 C 889.737 1057.173 907.026 1053.376 907.026 1053.376 Z " fill="rgb(27,34,81)"/></g><path d=" M 932.045 1317.354 C 932.045 1317.354 931.271 1330.946 928.847 1331.143 C 928.525 1331.169 916.566 1331.169 916.566 1331.169 L 901.35 1331.169 C 901.35 1331.169 901.397 1327.076 905.862 1326.235 C 910.327 1325.393 917.797 1321.985 920.5 1315.578 C 923.34 1308.837 932.045 1317.354 932.045 1317.354 Z " fill="rgb(27,34,81)"/><path d=" M 932.927 1318.619 C 932.927 1318.619 928.285 1320.306 924.662 1320.306 C 920.618 1320.306 916.944 1319.11 916.944 1319.11 C 916.944 1319.11 916.07 1309.935 911.259 1289.714 C 908.738 1279.116 905.138 1265.49 900.016 1248.558 C 885.854 1201.763 881.547 1174.387 881.154 1171.799 C 881.134 1171.662 881.126 1171.594 881.126 1171.594 L 881.173 1171.572 L 924.717 1150.813 C 924.717 1150.813 919.335 1215.304 926.2 1240.062 C 927.16 1243.522 927.986 1247.554 928.694 1251.919 C 933.029 1278.804 932.927 1318.619 932.927 1318.619 Z " fill="rgb(102,21,178)"/><path d=" M 928.69 1251.919 L 911.259 1289.714 C 908.738 1279.116 905.138 1265.49 900.016 1248.558 C 885.854 1201.763 881.547 1174.387 881.154 1171.799 C 881.157 1171.722 881.161 1171.649 881.169 1171.572 L 924.713 1150.813 C 924.713 1150.813 919.331 1215.304 926.196 1240.062 C 927.16 1243.517 927.986 1247.55 928.69 1251.919 Z " fill="rgb(102,21,178)"/><path d=" M 898.99 1317.354 C 898.99 1317.354 898.215 1330.946 895.791 1331.143 C 895.469 1331.169 883.506 1331.169 883.506 1331.169 L 868.239 1331.07 C 868.239 1331.07 868.341 1327.076 872.802 1326.231 C 877.263 1325.385 884.737 1321.981 887.44 1315.573 C 890.284 1308.837 898.99 1317.354 898.99 1317.354 Z " fill="rgb(27,34,81)"/><path d=" M 873.353 1152.329 C 873.353 1152.329 872.786 1194.122 879.446 1245.435 C 886.106 1296.749 883.848 1318.529 883.848 1318.529 C 883.848 1318.529 888.423 1320.14 890.268 1320.302 C 894.973 1320.716 899.796 1319.106 899.796 1319.106 C 899.796 1319.106 909.328 1267.775 906.594 1242.091 C 903.86 1216.406 919.646 1153.961 919.646 1153.961 L 873.353 1152.329 Z " fill="rgb(127,34,186)"/><path d=" M 904.225 1054.533 L 895.728 1060.582 L 883.447 1058.096 C 883.616 1057.019 884.426 1052.556 885.166 1048.515 C 885.209 1048.275 885.256 1048.036 885.296 1047.806 C 885.929 1044.367 886.476 1041.411 886.476 1041.411 L 897.947 1035.914 L 902.223 1033.863 C 902.211 1033.936 901.893 1037.678 901.845 1038.225 C 901.043 1047.938 904.225 1054.533 904.225 1054.533 Z " fill="rgb(255,163,159)"/><path d=" M 870.811 1154.14 C 870.985 1176.198 872.342 1227.802 873.337 1228.853 C 883.919 1239.942 930.46 1225.812 932.927 1213.595 C 935.389 1201.379 923.548 1056.934 905.476 1051.163 C 901.727 1049.967 881.677 1057.006 881.677 1057.006 C 881.677 1057.006 878.534 1065.938 876.472 1077.322 C 875.709 1081.538 873.211 1111.622 871.756 1131.728 C 871.37 1137.089 871.055 1141.736 870.87 1144.995 C 870.796 1146.336 870.78 1149.621 870.811 1154.14 Z " fill="rgb(36,46,108)"/><path d=" M 900.984 1038.404 C 898.466 1043.039 889.08 1047.045 885.166 1048.515 C 885.209 1048.275 885.256 1048.036 885.296 1047.806 C 885.929 1044.367 886.476 1041.411 886.476 1041.411 L 897.947 1035.914 C 900.48 1035.88 902.026 1036.499 900.984 1038.404 Z " fill="rgb(255,147,143)"/><path d=" M 882.153 1040.655 C 882.153 1040.655 900.63 1046.913 904.041 1034.359 C 907.451 1021.805 912.136 1014.159 900.484 1009.631 C 888.832 1005.103 885.229 1009.157 883.152 1013.048 C 881.071 1016.94 877.432 1038.703 882.153 1040.655 Z " fill="rgb(255,163,159)"/><path d=" M 883.876 1011.84 C 883.876 1011.84 885.056 1026.448 887.837 1025.816 C 890.618 1025.184 893.144 1024.71 892.735 1029.114 C 892.326 1033.517 888.47 1038.601 897.042 1039.382 C 905.618 1040.16 917.943 1016.15 915.59 1011.605 C 908.793 998.483 874.049 995.839 883.876 1011.84 Z " fill="rgb(242,75,70)"/><path d=" M 886.594 1051.479 C 886.834 1051.368 900.347 1044.786 901.928 1045.354 C 903.509 1045.922 905.48 1051.163 905.48 1051.163 L 881.681 1057.006 C 881.681 1057.006 883.553 1052.867 886.594 1051.479 Z " fill="rgb(27,34,81)"/><path d=" M 807.917 1105.317 L 846.245 1210.37 C 846.996 1212.429 849.164 1213.446 851.06 1212.63 L 857.094 1210.033 C 858.99 1209.217 859.927 1206.864 859.175 1204.805 L 820.848 1099.751 C 820.097 1097.692 817.929 1096.676 816.033 1097.492 L 809.998 1100.089 C 808.102 1100.905 807.162 1103.258 807.917 1105.317 Z " fill="rgb(198,67,219)"/><g><path d=" M 807.917 1105.317 L 812.162 1116.948 C 820.195 1114.813 828.889 1121.797 828.889 1121.797 L 820.848 1099.756 C 820.097 1097.697 817.929 1096.68 816.033 1097.496 L 809.998 1100.093 C 808.102 1100.905 807.162 1103.258 807.917 1105.317 Z " fill="rgb(102,21,178)"/></g><path d=" M 829.424 1164.272 L 846.245 1210.37 C 846.996 1212.429 849.164 1213.446 851.06 1212.63 L 857.094 1210.033 C 858.99 1209.217 859.927 1206.864 859.175 1204.805 L 842.354 1158.707 L 829.424 1164.272 Z " fill="rgb(127,34,186)"/><path d=" M 737.541 1070.269 C 749.618 1103.378 784.133 1119.584 814.625 1106.47 C 824.609 1102.178 832.925 1095.271 839.164 1086.762 C 851.992 1069.287 856.083 1045.038 847.96 1022.77 C 835.883 989.662 801.371 973.46 770.88 986.574 C 770.479 986.749 770.078 986.924 769.684 987.108 C 740 1000.678 725.622 1037.597 737.541 1070.269 Z  M 773.921 994.903 C 780.727 991.977 787.76 990.751 794.633 991.025 C 797.524 991.144 800.384 991.533 803.185 992.165 C 819.436 995.851 833.715 1008.055 840.289 1026.068 C 845.899 1041.45 844.746 1057.921 838.365 1071.602 C 832.925 1083.285 823.68 1092.934 811.588 1098.132 C 794.999 1105.27 777.025 1102.323 763.418 1091.994 C 755.495 1085.976 749.048 1077.458 745.22 1066.963 C 734.819 1038.464 747.667 1006.201 773.921 994.903 Z " fill="rgb(198,67,219)"/><path d=" M 769.684 987.112 C 779.255 986.779 787.513 988.227 794.633 991.029 C 797.524 991.148 800.384 991.537 803.185 992.169 C 819.436 995.856 833.715 1008.059 840.289 1026.072 C 845.899 1041.454 844.746 1057.925 838.365 1071.606 C 838.884 1077.497 839.089 1082.7 839.168 1086.762 C 851.996 1069.287 856.087 1045.038 847.964 1022.77 C 835.887 989.662 801.375 973.46 770.884 986.574 C 770.479 986.749 770.082 986.924 769.684 987.112 Z " fill="rgb(127,34,186)"/><g style="opacity:0.5;"><g style="opacity:0.5;"><g opacity="0.5"><path d=" M 745.216 1066.972 C 749.044 1077.467 755.491 1085.984 763.414 1092.007 C 777.021 1102.336 794.995 1105.283 811.584 1098.145 C 837.838 1086.851 850.69 1054.589 840.285 1026.076 C 833.715 1008.064 819.432 995.86 803.181 992.169 C 793.712 990.016 783.579 990.751 773.917 994.907 C 747.667 1006.201 734.819 1038.464 745.216 1066.972 Z " fill="rgb(237,236,252)"/></g></g><g style="opacity:0.5;"><g opacity="0.5"><path d=" M 745.216 1066.972 C 749.044 1077.467 755.491 1085.984 763.414 1092.007 C 772.879 1094.156 783.012 1093.421 792.674 1089.265 C 818.928 1077.971 831.78 1045.704 821.379 1017.2 C 817.551 1006.71 811.108 998.188 803.185 992.174 C 793.716 990.021 783.583 990.755 773.921 994.912 C 747.667 1006.201 734.819 1038.464 745.216 1066.972 Z " fill="rgb(192,211,248)"/></g></g><g style="opacity:0.5;"><g opacity="0.5"><path d=" M 784.393 1001.874 C 758.579 1012.98 745.834 1044.41 755.924 1072.072 C 757.45 1076.258 759.417 1080.12 761.738 1083.618 C 757.297 1078.842 753.674 1073.016 751.223 1066.301 C 741.739 1040.309 753.457 1010.887 777.395 1000.593 C 786.018 996.881 795.054 996.163 803.531 997.979 C 797.174 997.919 790.683 999.166 784.393 1001.874 Z " fill="rgb(239,236,234)"/></g></g></g><path d=" M 870.811 1154.14 C 914.969 1121.668 911.373 1077.01 911.373 1077.01 C 894.143 1087.565 877.062 1112.549 871.756 1131.724 C 871.37 1137.084 871.055 1141.732 870.87 1144.991 C 870.796 1146.336 870.78 1149.621 870.811 1154.14 Z " fill="rgb(27,34,81)"/><g><path d=" M 832.346 1139.865 C 832.346 1139.865 831.988 1139.37 831.021 1139.024 C 830.238 1138.49 828.118 1136.738 827.799 1136.23 C 826.792 1134.624 826.044 1135.858 826.642 1137.439 C 826.772 1137.781 827.358 1138.46 827.539 1138.801 C 825.439 1139.088 822.5 1140.049 818.456 1142.36 C 818.456 1142.36 815.262 1144.004 818.763 1145.456 C 821.104 1146.43 822.229 1145.691 825.549 1147.003 C 828.869 1148.318 832.472 1147.853 834.219 1145.755 L 836.89 1144.41 L 836.06 1139.015 L 832.346 1139.865 Z " fill="rgb(255,163,159)"/><path d=" M 898.419 1057.006 C 898.419 1057.006 935.932 1064.763 887.381 1123.744 C 879.615 1133.18 836.076 1146.708 836.076 1146.708 C 836.076 1146.708 833.413 1141.531 835.556 1138.349 C 835.556 1138.349 867.346 1114.031 870.969 1113.651 C 874.183 1113.313 881.889 1075.605 886.551 1067.241 C 891.212 1058.877 898.419 1057.006 898.419 1057.006 Z " fill="rgb(36,46,108)"/></g></g><path d=" M 569.24 1014.078 L 564.744 1016.76 L 569.818 1015.569 C 570.393 1015.517 570.951 1015.799 571.282 1016.316 L 575.2 1025.278 L 572.733 1015.71 C 572.67 1015.107 572.95 1014.526 573.441 1014.236 L 579.008 1010.955 L 573.068 1012.395 C 572.383 1012.561 571.679 1012.233 571.317 1011.583 L 568.461 1005.744 L 569.873 1012.378 C 569.976 1013.031 569.732 1013.689 569.24 1014.078 Z " fill="rgb(255,255,255)"/><linearGradient id="_lgradient_97" x1="-0.000010018785225440752" y1="0.5000725002517372" x2="1.0000087664370625" y2="0.5000725002517372" gradientTransform="matrix(31.412,0,0,42.42,758.233,935.948)" gradientUnits="userSpaceOnUse"><stop offset="0%" stop-opacity="1" style="stop-color:rgb(249,121,90)"/><stop offset="100%" stop-opacity="1" style="stop-color:rgb(255,239,233)"/></linearGradient><path d=" M 767.419 955.733 L 758.233 965.917 L 769.85 958.916 C 771.223 958.322 772.784 958.574 773.941 959.569 L 789.645 978.368 L 777.08 956.912 C 776.518 955.49 776.805 953.837 777.808 952.739 L 789.204 940.228 L 775.632 948.532 C 774.071 949.488 772.123 949.254 770.79 947.951 L 759.814 935.948 L 767.796 951.065 C 768.5 952.577 768.351 954.384 767.419 955.733 Z " fill="url(#_lgradient_97)"/><path d=" M 481.398 1228.234 L 473.534 1236.956 L 483.479 1230.963 C 484.655 1230.455 485.992 1230.669 486.98 1231.523 L 500.425 1247.618 L 489.666 1229.25 C 489.186 1228.033 489.43 1226.619 490.292 1225.675 L 500.052 1214.962 L 488.431 1222.07 C 487.094 1222.886 485.426 1222.689 484.285 1221.575 L 474.887 1211.297 L 481.72 1224.24 C 482.322 1225.53 482.196 1227.081 481.398 1228.234 Z " fill="rgb(236,235,252)"/><path d=" M 794.491 1323.467 L 794.491 1323.467 C 799.554 1310.208 810.459 1284.81 818.755 1287.813 C 826.953 1290.781 808.519 1312.775 798.142 1324.257 C 800.203 1324.727 802.068 1325.193 803.787 1325.62 C 811.784 1317.713 824.994 1304.754 826.198 1310.084 C 827.252 1314.757 815.919 1321.818 807.249 1326.47 C 812.646 1327.747 816.729 1328.354 821.796 1327.102 C 830.144 1325.043 834.408 1331.194 834.408 1331.194 L 770.703 1331.194 C 770.707 1331.194 781.203 1320.746 794.491 1323.467 Z " fill="rgb(36,46,108)"/></g></g></g></g></g></svg>