<?xml version="1.0" encoding="UTF-8" standalone="no"?><!-- Generator: Gravit.io --><svg xmlns="http://www.w3.org/2000/svg" xmlns:xlink="http://www.w3.org/1999/xlink" style="isolation:isolate" viewBox="0 0 1024 768" width="1024pt" height="768pt"><defs><clipPath id="_clipPath_8SDXNiFWplPiNKOfPLKHnGLKKtzVAUKk"><rect width="1024" height="768"/></clipPath></defs><g clip-path="url(#_clipPath_8SDXNiFWplPiNKOfPLKHnGLKKtzVAUKk)"><clipPath id="_clipPath_ktGlUuws8FGw8p2m2zlVpB3fg7l4GLz0"><rect x="0" y="0" width="1024" height="1000" transform="matrix(1,0,0,1,0,0)" fill="rgb(255,255,255)"/></clipPath><g clip-path="url(#_clipPath_ktGlUuws8FGw8p2m2zlVpB3fg7l4GLz0)"><g><g><rect x="0" y="6.809" width="1024" height="539.191" transform="matrix(1,0,0,1,0,0)" fill="rgb(255,255,255)"/><g><linearGradient id="_lgradient_14" x1="0.5000000389593185" y1="-1.0152469143154264e-15" x2="0.4970588588745256" y2="0.9203104879204393" gradientTransform="matrix(730.106,0,0,193.669,293.894,0)" gradientUnits="userSpaceOnUse"><stop offset="0%" stop-opacity="1" style="stop-color:rgb(102,21,178)"/><stop offset="26.427574723753157%" stop-opacity="1" style="stop-color:rgb(141,40,195)"/><stop offset="52.80298068687691%" stop-opacity="1" style="stop-color:rgb(172,55,208)"/><stop offset="74.7610615213078%" stop-opacity="1" style="stop-color:rgb(191,64,216)"/><stop offset="100%" stop-opacity="1" style="stop-color:rgb(198,67,219)"/></linearGradient><path d=" M 1024 0 L 1024 140.479 C 1024 140.479 622.94 251.423 428.089 152.855 C 414.054 145.755 413.548 145.801 403.627 140.479 C 352.203 112.894 330.579 86.286 293.894 0 L 1024 0 Z " fill="url(#_lgradient_14)"/><linearGradient id="_lgradient_15" x1="0.5000001708744501" y1="0.9999994762172522" x2="0.5000629637820041" y2="0.06330473681052806" gradientTransform="matrix(850,0,0,159.832,0,0)" gradientUnits="userSpaceOnUse"><stop offset="0%" stop-opacity="1" style="stop-color:rgb(249,121,90)"/><stop offset="5.300625792435835e-14%" stop-opacity="1" style="stop-color:rgb(238,67,101)"/><stop offset="4.2365818356992575%" stop-opacity="1" style="stop-color:rgb(246,106,93)"/><stop offset="32.16701235176558%" stop-opacity="1" style="stop-color:rgb(244,95,95)"/><stop offset="58.76852829037057%" stop-opacity="1" style="stop-color:rgb(241,83,98)"/><stop offset="100%" stop-opacity="1" style="stop-color:rgb(235,54,104)"/></linearGradient><path d=" M 0 126.655 C 0 126.655 266.641 214.816 488.381 103.713 C 710.12 -7.389 850 0.107 850 0.107 L 0 0 L 0 126.655 Z " fill="url(#_lgradient_15)"/></g></g><g><g><path d=" M 742.94 617.898 C 744.843 617.944 746.718 617.745 748.514 617.449 C 746.395 615.885 741.931 612.646 738.296 610.367 C 733.341 607.269 730.532 602.048 737.522 601.159 C 743.477 600.402 748.158 613.422 749.417 617.293 C 750.231 617.143 751.03 616.979 751.802 616.81 C 750.844 614.058 748.746 608.223 746.758 604.153 C 744.075 598.66 734.582 589.382 744.075 588.325 C 752.518 587.381 754.759 610.85 755.15 616.071 C 756.845 615.714 758.327 615.466 759.501 615.555 C 762.203 615.753 764.786 618.702 763.258 620 L 734.75 620 C 735.674 619.224 738.058 617.782 742.94 617.898 Z " fill="rgb(36,46,108)"/><g><g><path d=" M 711.886 318.373 C 713.99 317.273 722.912 319.675 722.912 319.675 C 722.912 319.675 745.358 307.913 747.944 306.318 C 750.932 304.472 758.897 282.451 764.74 270.316 C 767.817 263.925 777.062 264.017 779.819 270.555 C 780.316 271.731 780.545 273.032 780.371 274.456 C 779.407 282.344 759.425 310.457 756.973 312.84 C 752.509 317.182 725.535 323.912 725.535 323.912 C 725.535 323.912 720.238 325.965 716.695 326.216 C 713.154 326.466 709.782 319.473 711.886 318.373 Z " fill="rgb(255,125,120)"/><path d=" M 756.934 274.209 C 757.171 271.59 758.937 269.278 759.876 268.218 C 754.476 274.627 763.075 287.291 763.075 287.291 C 761.572 280.432 784.997 270.051 785.936 261.759 C 786.875 253.471 779.197 252.957 777.227 250.394 C 775.254 247.831 779.282 234.327 772.802 228.944 C 766.319 223.561 760.364 227.065 760.364 227.065 C 761.828 225.526 764.658 224.759 764.658 224.759 C 757.473 224.759 756.269 229.714 756.095 232.002 C 750.106 233.603 748.097 245.335 748.097 245.335 L 766.826 253.272 C 767.118 253.871 767.304 254.277 767.344 254.427 C 767.685 255.722 764.459 262.978 760.52 264.961 C 756.068 267.2 756.934 274.209 756.934 274.209 Z  M 760.306 267.753 C 760.404 267.652 760.462 267.6 760.462 267.6 C 760.407 267.649 760.358 267.701 760.306 267.753 Z " fill="rgb(242,75,70)"/><path d=" M 782.316 414.218 L 786.96 413.533 C 786.96 413.533 802.573 401.102 804.9 377.908 C 805.137 375.546 805.186 373.151 805.009 370.738 C 804.988 370.46 805.018 370.182 805.171 369.946 C 805.171 369.943 805.171 369.943 805.177 369.94 C 805.677 369.173 806.921 367.249 808.604 364.514 C 810.263 361.82 813.105 356.727 816.231 351.011 C 821.86 340.718 828.416 328.409 830.663 324.486 C 837.826 311.991 834.374 303.59 834.374 303.59 C 834.374 303.59 814.392 301.61 808.915 296.81 L 806.943 299.856 C 806.943 299.856 802.613 319.061 802.817 319.149 C 802.603 319.803 802.387 320.466 802.167 321.144 C 798.749 331.712 794.821 344.916 792.678 355.673 C 791.473 361.725 790.836 366.998 791.178 370.591 C 791.296 371.822 791.153 373.716 790.824 376.053 C 788.887 389.838 782.316 414.218 782.316 414.218 Z " fill="rgb(249,121,90)"/><path d=" M 772.577 420.105 L 791.949 420.105 C 791.949 420.105 792.413 417.148 791.4 414.902 C 790.43 412.748 789.049 412.681 791.223 409.305 C 789.991 410.576 786.033 411.102 783.234 410.723 C 782.889 411.279 781.02 415.021 779.874 415.846 C 778.611 416.753 772.964 416.43 772.577 420.105 Z " fill="rgb(34,41,86)"/><path d=" M 802.164 321.144 C 803.857 330.496 807.854 346.058 816.228 351.011 C 821.857 340.718 828.413 328.409 830.66 324.486 C 837.823 311.991 834.371 303.59 834.371 303.59 C 834.371 303.59 814.389 301.61 808.912 296.81 L 806.94 299.856 C 806.94 299.856 802.609 319.061 802.814 319.149 C 802.6 319.803 802.384 320.469 802.164 321.144 Z " fill="rgb(242,75,70)"/><path d=" M 815.752 305.035 L 815.685 301.405 C 822.903 302.319 840.577 292.762 840.577 292.762 C 840.577 292.762 848.13 297.794 849.164 312.168 C 849.67 319.183 852.862 348.851 853.213 357.711 C 853.341 360.922 853.384 363.213 853.399 364.129 C 853.399 364.132 853.399 364.135 853.399 364.139 C 853.402 364.417 853.533 364.664 853.707 364.884 C 855.201 366.787 856.497 368.801 857.619 370.89 C 868.637 391.424 862.876 419.326 862.876 419.326 L 860.318 418.675 C 860.318 418.675 851.002 389.749 844.916 377.239 C 843.882 375.116 842.943 373.466 842.159 372.51 C 839.869 369.723 837.457 364.994 835.079 359.302 C 830.581 348.539 826.217 334.339 823.104 323.344 C 822.878 323.38 815.752 305.035 815.752 305.035 Z " fill="rgb(249,121,90)"/><path d=" M 773.507 280.805 C 785.308 278.092 777.77 261.475 777.084 261.768 C 775.449 261.435 771.857 258.557 768.643 252.939 L 768.21 253.315 L 760.962 259.682 C 760.962 259.682 762.639 262.159 764.048 264.582 C 765.148 266.479 766.085 268.352 765.938 268.994 C 765.353 269.458 770.357 281.532 773.507 280.805 Z " fill="rgb(255,163,159)"/><path d=" M 765.789 268.089 C 765.789 268.089 763.136 271.841 761.52 275.192 C 759.904 278.544 755.506 289.316 755.506 289.316 C 755.506 289.316 760.199 296.618 768.115 297.412 C 768.115 297.412 773.327 291.412 772.723 285.204 C 772.119 278.996 765.789 268.089 765.789 268.089 Z " fill="rgb(27,34,81)"/><path d=" M 760.962 259.688 C 760.962 259.688 762.639 262.162 764.048 264.588 C 768.555 261.805 768.558 256.214 768.213 253.321 L 760.962 259.688 Z " fill="rgb(255,125,120)"/><path d=" M 760.764 262.877 C 760.764 262.877 771.705 256.776 767.807 250.009 C 763.91 243.239 762.7 237.896 755.549 241.504 C 748.398 245.112 748.539 248.472 749.292 251.048 C 750.042 253.623 757.815 264.289 760.764 262.877 Z " fill="rgb(255,163,159)"/><path d=" M 747.441 247.098 C 747.941 244.091 749.466 243.804 750.527 244.006 C 754.567 237.309 761.169 239.924 761.169 239.924 C 764.694 244.357 769.793 245.115 769.793 245.115 C 769.793 245.115 768.524 247.483 763.291 248.946 C 761.694 249.395 759.879 249.123 758.129 248.534 C 761.758 250.562 765.554 251.338 765.554 251.338 C 758.659 251.971 752.1 245.656 751.42 244.981 C 751.103 245.958 750.545 248.008 750.878 249.505 C 751.332 251.54 753.134 255.227 752.033 255.704 C 752.039 255.704 746.691 251.607 747.441 247.098 Z " fill="rgb(242,75,70)"/><path d=" M 847.465 420.105 L 866.837 420.105 C 866.837 420.105 867.301 417.148 866.289 414.902 C 865.319 412.748 863.8 411.771 864.163 409.165 C 862.931 410.432 860.925 411.856 858.126 411.48 C 857.781 412.036 855.912 415.021 854.765 415.846 C 853.5 416.753 847.855 416.43 847.465 420.105 Z " fill="rgb(34,41,86)"/><path d=" M 772.116 293.978 C 774.611 294.849 778.108 295.329 781.685 295.717 C 786.78 296.273 792.04 296.654 794.794 297.757 C 795.334 297.971 796.898 298.628 798.468 299.768 L 798.468 299.771 C 798.468 299.771 798.508 299.795 798.578 299.853 C 799.1 300.232 799.618 300.672 800.097 301.167 C 800.829 301.918 801.466 302.801 801.875 303.81 C 802.884 306.312 801.548 313.244 800.688 317.035 C 800.344 318.56 801.06 320.136 802.448 320.857 C 804.384 321.859 806.287 322.788 808.159 323.634 C 808.257 323.68 808.354 323.723 808.455 323.765 C 808.437 323.38 808.431 322.999 808.431 322.623 C 808.428 320.008 808.757 317.832 808.757 317.832 C 809.217 320.472 810.952 323.322 812.572 325.516 C 838.57 335.967 856.735 331.425 856.436 326.219 C 855.412 308.142 843.242 292.765 843.242 292.765 C 820.549 266.326 774.644 259.367 774.644 259.367 C 774.644 259.367 772.445 259.101 769.793 262.297 C 765.975 266.898 765.786 268.095 765.786 268.095 C 765.786 268.095 764.783 291.415 772.116 293.978 Z " fill="rgb(36,46,108)"/><path d=" M 781.688 295.717 C 786.78 296.273 792.04 296.654 794.797 297.754 C 795.922 280.899 787.985 268.221 787.985 268.221 C 787.985 268.221 782.804 289.338 781.688 295.717 Z " fill="rgb(27,34,81)"/><g><path d=" M 725.208 327.361 L 725.208 327.361 C 725.821 326.42 725.553 325.146 724.614 324.532 L 712.435 316.577 C 711.495 315.963 710.224 316.232 709.611 317.173 L 709.611 317.173 C 708.998 318.113 709.266 319.387 710.206 320.002 L 722.385 327.957 C 723.324 328.571 724.595 328.302 725.208 327.361 Z " fill="rgb(36,46,108)"/><g><path d=" M 711.578 318.972 L 712.047 318.251 L 701.311 311.64 C 700.021 310.797 698.405 310.662 696.993 311.282 L 692.215 313.378 L 692.486 313.809 L 697.069 311.459 C 698.423 310.867 699.969 310.995 701.204 311.802 L 711.578 318.972 Z " fill="rgb(36,46,108)"/></g></g><path d=" M 739.967 338.882 C 744.078 338.68 748.524 342.197 748.524 342.197 C 748.524 342.197 762.968 317.698 765.203 315.407 C 768.713 311.808 772.122 267.842 776.446 264.961 C 776.446 264.961 789.214 266.226 790.235 274.536 C 791.26 282.845 777.995 316.699 776.096 319.766 C 772.638 325.348 752.274 344.476 752.274 344.476 C 752.274 344.476 750.191 348.524 747.593 348.108 C 744.995 347.69 733.557 340.015 733.557 340.015 C 733.557 340.015 735.857 339.081 739.967 338.882 Z " fill="rgb(255,163,159)"/><path d=" M 800.688 317.029 C 800.344 318.553 801.06 320.13 802.448 320.851 C 804.384 321.853 806.287 322.782 808.159 323.628 C 808.257 323.31 808.348 322.974 808.431 322.62 C 808.723 321.3 808.861 319.72 808.757 317.829 C 808.324 309.828 802.884 303.767 800.097 301.164 C 800.829 301.915 801.466 302.798 801.875 303.806 C 802.884 306.306 801.545 313.241 800.688 317.029 Z " fill="rgb(27,34,81)"/><path d=" M 774.647 259.361 C 774.647 259.361 772.65 256.828 771.299 256.911 C 771.299 256.911 765.835 264.573 765.792 268.089 C 765.789 268.089 772.604 259.006 774.647 259.361 Z " fill="rgb(27,34,81)"/><path d=" M 769.796 280.838 C 769.796 280.838 768.484 259.41 784.856 264.591 C 801.228 269.773 782.316 306.632 782.316 306.632 C 782.316 306.632 772.708 306.156 769.299 297.757 L 769.796 280.838 Z " fill="rgb(36,46,108)"/></g><path d=" M 620.571 521.47 C 622.949 538.068 627.096 553.261 633.454 565.781 C 668.421 634.609 689.22 572.041 704.729 543.561 C 719.323 516.756 734.628 506.399 757.577 522.393 C 774.461 534.152 779.865 615.787 807.052 619.618 C 829.072 622.719 911.01 546.763 891.705 385.161 C 891.333 382.048 890.641 378.601 889.457 375.073 C 883.844 358.337 867.173 339.832 821.11 346.938 C 778.968 353.44 776.059 361.267 749.868 349.343 C 723.675 337.422 687.589 300.556 655.049 327.163 C 634.957 343.596 609.877 446.785 620.571 521.47 Z " fill="rgb(133,169,221)"/><path d=" M 620.571 521.467 C 622.983 532.019 626.279 541.734 630.591 550.222 C 665.56 619.053 686.357 556.481 701.866 528.002 C 716.457 501.196 731.761 490.84 754.717 506.833 C 771.598 518.592 777.004 600.224 804.189 604.055 C 825.65 607.077 904.021 535.007 890.119 381.754 C 889.921 379.542 889.698 377.312 889.46 375.067 C 883.847 358.331 867.176 339.826 821.116 346.932 C 778.971 353.433 776.065 361.258 749.871 349.34 C 723.678 337.416 687.592 300.553 655.055 327.16 C 641.41 338.317 625.471 389.453 619.988 444.509 C 617.393 470.56 617.137 497.484 620.571 521.467 Z " fill="rgb(192,211,248)"/><path d=" M 656.556 350.085 C 648.28 364.97 650.07 395.866 660.428 397.479 C 670.79 399.092 679.74 372.067 691.285 361.471 C 707.97 346.159 696.154 335.158 685.793 333.545 C 675.431 331.932 664.173 336.383 656.556 350.085 Z " fill="rgb(236,235,252)"/><path d=" M 619.811 515.558 C 620.037 517.547 620.293 519.518 620.571 521.467 C 622.983 532.022 626.279 541.734 630.591 550.222 C 656.931 602.067 675.227 579.358 689.281 552.821 C 689.284 552.821 689.284 552.818 689.284 552.818 C 693.889 544.13 698.036 535.025 701.863 527.999 C 710.081 512.907 718.527 503.026 728.431 500.133 L 728.435 500.133 C 733.67 498.603 739.318 499.024 745.56 501.658 C 748.478 502.889 751.524 504.606 754.717 506.83 C 765.463 514.318 771.558 550.118 781.587 576.138 C 787.308 590.995 794.312 602.662 804.189 604.052 C 821.881 606.548 878.251 558.006 889.711 455.019 L 889.714 455.016 C 891 443.458 891.723 431.216 891.76 418.281 C 891.79 408.331 891.415 397.965 890.577 387.189 C 890.439 385.39 890.284 383.575 890.119 381.754 C 886.597 386.154 882.618 390.828 878.181 395.637 C 849.548 426.67 801.728 463.225 733.03 466.613 C 722.08 467.153 710.599 466.851 698.579 465.549 C 674.547 462.947 648.368 456.348 619.985 444.503 C 619.064 453.735 618.439 463.075 618.168 472.356 L 618.168 472.359 C 617.738 487.146 618.204 501.771 619.811 515.558 Z " fill="rgb(177,201,246)"/><path d=" M 728.438 500.136 C 733.673 498.606 739.321 499.027 745.563 501.661 C 748.481 502.892 751.527 504.609 754.72 506.833 C 761.769 511.745 766.818 528.843 772.288 547.37 C 775.156 557.084 778.141 567.191 781.59 576.141 C 787.311 590.998 794.315 602.665 804.192 604.055 C 821.884 606.551 878.254 558.009 889.714 455.022 C 878.309 477.174 849.42 560.196 801.274 543.754 C 769.335 532.847 772.577 497.353 728.438 500.136 Z " fill="rgb(154,192,239)"/><path d=" M 619.811 515.558 C 620.037 517.547 620.293 519.518 620.571 521.467 C 622.983 532.022 626.511 541.621 630.591 550.222 C 666.246 625.404 690.906 549.125 704.958 522.588 C 704.604 523.169 680.377 563.939 654.415 549.98 C 632.744 538.328 618.558 509.61 618.171 472.365 C 617.738 487.146 618.204 501.771 619.811 515.558 Z " fill="rgb(154,192,239)"/><g><path d=" M 874.924 419.417 C 874.924 417.862 873.665 416.604 872.113 416.604 C 870.561 416.604 869.304 417.862 869.304 419.417 C 869.304 420.973 870.564 422.231 872.113 422.231 C 873.668 422.231 874.924 420.969 874.924 419.417 Z " fill="rgb(239,236,234)"/><path d=" M 867.389 405.208 C 867.389 404.432 866.761 403.8 865.984 403.8 C 865.206 403.8 864.578 404.429 864.578 405.208 C 864.578 405.987 865.206 406.617 865.984 406.617 C 866.761 406.617 867.389 405.984 867.389 405.208 Z " fill="rgb(239,236,234)"/><path d=" M 856.692 422.231 C 856.692 421.455 856.064 420.823 855.287 420.823 C 854.509 420.823 853.881 421.452 853.881 422.231 C 853.881 423.01 854.509 423.64 855.287 423.64 C 856.064 423.64 856.692 423.01 856.692 422.231 Z " fill="rgb(239,236,234)"/></g></g><g><g><path d=" M 394.14 569.444 C 394.14 569.444 402.19 560.035 394.637 554.059 C 394.637 554.059 389.12 550.713 384.623 550.985 C 384.623 550.985 390.996 561.693 388.934 562.76 C 386.873 563.826 382.689 550.313 382.689 550.313 C 382.689 550.313 370.135 549.094 366.095 551.037 C 366.095 551.037 376.829 559.836 374.566 560.361 C 372.306 560.884 360.713 552.247 360.713 552.247 C 360.713 552.247 349.028 554.239 349.65 561.382 C 350.272 568.525 354.3 570.727 356.069 570.538 C 357.837 570.349 368.19 566.389 368.415 567.843 C 368.641 569.298 362.411 574.045 358.048 574.265 C 358.048 574.265 366.287 583.366 371.761 580.739 C 377.234 578.112 377.704 573.947 381.116 572.386 C 384.528 570.825 387.443 570.828 386.034 572.423 C 384.626 574.015 378.448 575.564 376.496 579.022 C 374.545 582.48 372.794 584.814 378.457 583.959 C 384.123 583.107 393.328 578.952 393.734 574.198 C 394.14 569.444 394.14 569.444 394.14 569.444 Z " fill="rgb(27,34,81)"/><g><path d=" M 355.392 561.574 C 355.392 561.574 387.129 560.349 394.137 569.441 C 394.137 569.441 395.686 574.091 400.455 578.328 L 401.199 580.357 C 401.199 580.357 395.698 574.546 393.731 574.195 C 393.734 574.198 396.811 562.934 355.392 561.574 Z " fill="rgb(27,34,81)"/><path d=" M 400.458 578.328 C 400.458 578.328 407.27 583.375 407.743 592.394 L 406.508 592.504 C 406.508 592.504 404.333 583.18 400.4 579.532 C 396.466 575.887 400.458 578.328 400.458 578.328 Z " fill="rgb(27,34,81)"/></g></g><g><path d=" M 422.282 557.612 C 422.282 557.612 409.478 550.429 415.454 540.677 C 415.454 540.677 420.236 534.689 425.356 533.153 C 425.356 533.153 422.623 547.692 425.356 548.034 C 428.088 548.376 427.234 531.613 427.234 531.613 C 427.234 531.613 440.721 525.115 446.015 525.625 C 446.015 525.625 437.65 539.822 440.38 539.48 C 443.112 539.138 452.501 524.77 452.501 524.77 C 452.501 524.77 466.329 522.203 468.549 530.415 C 470.769 538.624 467.183 542.73 465.134 543.244 C 463.085 543.757 449.939 543.586 450.281 545.297 C 450.622 547.008 459.499 549.745 464.451 548.205 C 464.451 548.205 458.987 561.718 451.818 561.034 C 444.649 560.349 442.429 555.901 437.989 555.559 C 433.549 555.217 430.308 556.414 432.525 557.612 C 434.744 558.809 442.255 558.003 445.841 561.058 C 449.427 564.11 452.33 565.992 445.67 567.361 C 439.013 568.729 427.06 567.874 424.672 562.741 C 422.282 557.612 422.282 557.612 422.282 557.612 Z " fill="rgb(36,46,108)"/><g><path d=" M 462.231 532.982 C 462.231 532.982 426.38 544.612 422.282 557.612 C 422.282 557.612 422.453 563.429 418.867 570.098 L 418.867 572.664 C 418.867 572.664 422.623 563.942 424.672 562.744 C 424.672 562.741 416.647 551.453 462.231 532.982 Z " fill="rgb(27,34,81)"/><path d=" M 418.867 570.098 C 418.867 570.098 413.338 578.509 416.491 588.749 L 417.912 588.368 C 417.912 588.368 416.531 577.088 419.425 571.418 C 422.318 565.745 418.867 570.098 418.867 570.098 Z " fill="rgb(27,34,81)"/></g></g><g><path d=" M 401.912 547.704 C 401.912 547.704 418.79 538.233 410.914 525.384 C 410.914 525.384 404.611 517.492 397.86 515.464 C 397.86 515.464 401.461 534.628 397.86 535.08 C 394.258 535.533 395.384 513.435 395.384 513.435 C 395.384 513.435 377.606 504.869 370.629 505.544 C 370.629 505.544 381.656 524.259 378.054 523.807 C 374.453 523.355 362.076 504.416 362.076 504.416 C 362.076 504.416 343.847 501.034 340.923 511.856 C 337.998 522.68 342.722 528.09 345.423 528.766 C 348.125 529.441 365.451 529.218 365.003 531.472 C 364.552 533.727 352.852 537.335 346.326 535.307 C 346.326 535.307 353.529 553.118 362.978 552.217 C 372.431 551.315 375.356 545.453 381.207 545 C 387.059 544.551 391.334 546.128 388.41 547.707 C 385.486 549.287 375.581 548.224 370.858 552.25 C 366.131 556.277 362.308 558.754 371.084 560.56 C 379.86 562.363 395.612 561.235 398.765 554.471 C 401.912 547.704 401.912 547.704 401.912 547.704 Z " fill="rgb(36,46,108)"/><g><path d=" M 349.25 515.235 C 349.25 515.235 396.509 530.565 401.912 547.701 C 401.912 547.701 401.687 555.366 406.413 564.159 L 406.413 567.541 C 406.413 567.541 401.461 556.042 398.762 554.462 C 398.759 554.468 409.337 539.587 349.25 515.235 Z " fill="rgb(27,34,81)"/><path d=" M 406.413 564.162 C 406.413 564.162 413.701 575.249 409.545 588.749 L 407.669 588.245 C 407.669 588.245 409.49 573.379 405.675 565.9 C 401.864 558.424 406.413 564.162 406.413 564.162 Z " fill="rgb(27,34,81)"/></g></g><path d=" M 369.236 585.911 L 368.467 585.911 L 368.467 584.894 L 436.431 584.894 L 436.431 585.911 L 435.327 585.911 C 434.921 599.381 426.49 610.829 414.658 615.619 L 431.924 615.619 C 434.177 615.619 436.004 617.449 436.004 619.707 L 368.967 619.707 C 368.967 617.449 370.794 615.619 373.047 615.619 L 389.91 615.619 C 378.073 610.829 369.638 599.381 369.236 585.911 Z " fill="rgb(249,121,90)"/><path d=" M 402.623 615.616 L 410.838 615.616 C 422.657 610.829 431.079 599.393 431.491 585.939 L 423.279 585.939 C 422.867 599.396 414.442 610.826 402.623 615.616 Z " fill="rgb(239,236,234)"/></g><g><g><g><path d=" M 502.049 487.876 C 497.622 487.858 494.533 480.984 491.547 474.339 C 489.593 469.989 487.781 465.65 486.184 464.45 C 484.61 463.264 481.524 463.438 479.823 464.095 C 477.615 464.948 475.801 467.407 474.114 471.843 C 473.745 472.818 473.37 473.933 472.974 475.115 C 471.187 480.458 469.159 486.517 465.201 487.082 C 462.496 487.467 459.459 485.16 455.907 480.031 C 453.94 477.186 452.306 473.517 451.055 469.121 C 445.71 450.344 448.543 423.356 453.22 418.333 L 453.22 418.333 C 459.078 412.042 466.875 415.541 473.142 418.354 C 475.063 419.216 476.874 420.029 478.487 420.514 C 483.314 421.962 484.897 421.376 489.129 419.805 C 490.883 419.155 493.063 418.345 496.082 417.45 C 507.895 413.943 512.868 418.25 514.96 422.485 C 515.357 423.288 515.677 424.156 515.915 425.06 C 519.287 438.054 520.001 450.24 518.031 461.282 C 516.015 472.588 511.737 479.407 509.368 482.466 C 506.739 485.857 504.01 487.879 502.061 487.879 C 502.058 487.876 502.052 487.876 502.049 487.876 Z  M 489.516 420.838 C 485.159 422.454 483.354 423.123 478.173 421.568 C 476.49 421.064 474.645 420.236 472.69 419.359 C 466.436 416.552 459.349 413.371 454.028 419.084 C 449.616 423.82 446.963 450.705 452.12 468.815 C 453.339 473.093 455.114 475.958 457.014 478.702 C 460.258 483.388 462.441 485.206 464.661 484.888 C 467.946 484.421 470.33 479.554 471.934 474.761 C 472.334 473.566 472.709 472.442 473.09 471.446 C 474.895 466.698 476.911 464.031 479.432 463.06 C 481.445 462.284 484.546 462.479 486.476 463.982 C 488.358 465.449 490.434 469.151 492.56 473.884 C 495.271 479.918 498.341 486.755 502.061 486.77 C 502.064 486.77 502.068 486.77 502.068 486.77 C 503.254 486.77 505.647 485.466 508.502 481.784 C 520.104 466.817 519.446 421.235 504.461 418.147 C 498.256 416.87 491.255 420.193 489.516 420.838 Z " fill="rgb(127,34,186)"/></g><g><path d=" M 464.442 428.855 L 464.664 428.564 L 444.386 413.051 L 403.135 413.051 L 403.135 413.417 L 444.261 413.417 L 464.442 428.855 Z " fill="rgb(127,34,186)"/></g><g><path d=" M 403.135 478.638 L 444.386 478.638 L 444.435 478.601 L 464.664 463.124 L 464.442 462.83 L 444.261 478.268 L 403.135 478.268 L 403.135 478.638 Z " fill="rgb(127,34,186)"/></g><g><rect x="401.909" y="445.966" width="62.645" height="0.37" transform="matrix(1,0,0,1,0,0)" fill="rgb(127,34,186)"/></g></g><g><path d=" M 403.809 438.854 L 422.3 438.854 C 422.672 438.854 422.974 438.549 422.974 438.179 L 422.974 438.179 C 422.974 437.806 422.672 437.504 422.3 437.504 L 403.809 437.504 C 403.437 437.504 403.135 437.806 403.135 438.179 L 403.135 438.179 C 403.135 438.552 403.437 438.854 403.809 438.854 Z " fill="rgb(127,34,186)"/><path d=" M 403.809 441.558 L 422.3 441.558 C 422.672 441.558 422.974 441.255 422.974 440.883 L 422.974 440.883 C 422.974 440.51 422.672 440.207 422.3 440.207 L 403.809 440.207 C 403.437 440.207 403.135 440.513 403.135 440.883 L 403.135 440.883 C 403.135 441.252 403.437 441.558 403.809 441.558 Z " fill="rgb(127,34,186)"/></g><g><path d=" M 403.809 408.025 L 422.3 408.025 C 422.672 408.025 422.974 407.723 422.974 407.35 L 422.974 407.35 C 422.974 406.977 422.672 406.675 422.3 406.675 L 403.809 406.675 C 403.437 406.675 403.135 406.977 403.135 407.35 L 403.135 407.35 C 403.135 407.723 403.437 408.025 403.809 408.025 Z " fill="rgb(127,34,186)"/><path d=" M 403.809 410.729 L 422.3 410.729 C 422.672 410.729 422.974 410.426 422.974 410.054 L 422.974 410.054 C 422.974 409.681 422.672 409.378 422.3 409.378 L 403.809 409.378 C 403.437 409.378 403.135 409.684 403.135 410.054 L 403.135 410.054 C 403.135 410.423 403.437 410.729 403.809 410.729 Z " fill="rgb(127,34,186)"/></g><g><path d=" M 403.809 472.876 L 422.3 472.876 C 422.672 472.876 422.974 472.573 422.974 472.2 L 422.974 472.2 C 422.974 471.828 422.672 471.525 422.3 471.525 L 403.809 471.525 C 403.437 471.525 403.135 471.831 403.135 472.2 L 403.135 472.2 C 403.135 472.573 403.437 472.876 403.809 472.876 Z " fill="rgb(127,34,186)"/><path d=" M 403.809 475.579 L 422.3 475.579 C 422.672 475.579 422.974 475.274 422.974 474.904 L 422.974 474.904 C 422.974 474.531 422.672 474.229 422.3 474.229 L 403.809 474.229 C 403.437 474.229 403.135 474.531 403.135 474.904 L 403.135 474.904 C 403.135 475.274 403.437 475.579 403.809 475.579 Z " fill="rgb(127,34,186)"/></g></g><g><path d=" M 523.044 602.228 C 523.044 602.228 519.238 605.708 519.979 608.183 C 520.723 610.654 524.157 612.304 524.623 615.329 C 525.087 618.35 526.944 620 528.615 620 C 530.286 620 536.583 620 536.583 620 C 536.583 620 537.812 617.874 534.842 617.232 C 531.872 616.591 530.75 613.037 530.936 609.741 C 531.122 606.445 530.658 602.048 530.658 602.048 L 524.343 600.582 L 523.044 602.228 Z " fill="rgb(34,41,86)"/><path d=" M 523.044 600.044 C 523.739 602.106 531.402 605.128 531.402 605.128 C 531.402 605.128 535.577 598.535 548.951 574.901 C 550.101 572.863 551.305 570.63 552.543 568.253 C 565.673 542.981 582.655 500.983 582.655 500.983 L 550.201 491.915 C 550.201 491.915 548.67 504.966 548.393 511.562 C 548.222 515.592 545.935 524.204 543.029 531.726 C 541.181 536.513 539.077 540.858 537.113 543.299 C 528.158 554.422 523.044 600.044 523.044 600.044 Z " fill="rgb(249,121,90)"/><path d=" M 543.026 531.726 C 545.066 542.092 548.811 559.448 552.54 568.253 C 565.67 542.981 582.652 500.983 582.652 500.983 L 550.198 491.915 C 550.198 491.915 548.667 504.966 548.39 511.562 C 548.222 515.592 545.932 524.204 543.026 531.726 Z " fill="rgb(242,75,70)"/><g><path d=" M 595.142 486.205 L 597.695 486.071 C 597.695 486.071 600.726 481.008 605.696 484.955 C 605.696 484.955 607.66 486.77 606.303 487.937 C 604.946 489.104 605.315 488.399 603.433 490.097 C 601.552 491.796 599.146 492.199 597.618 490.962 L 595.642 490.497 L 595.142 486.205 Z " fill="rgb(255,163,159)"/><path d=" M 568.519 430.385 C 568.519 430.385 548.274 449.666 556.968 480.48 C 559.682 490.1 597.96 491.823 597.96 491.823 C 597.96 491.823 600.018 489.63 596.911 485.912 C 596.911 485.912 573.779 475.369 571.074 473.914 C 568.671 472.622 576.297 449.446 575.096 441.814 C 573.891 434.18 568.519 430.385 568.519 430.385 Z " fill="rgb(177,201,246)"/></g><path d=" M 569.747 611.232 C 569.747 611.232 569.064 619.154 570.735 619.979 L 592.123 619.936 C 592.123 619.936 592.123 617.461 588.687 616.914 C 585.25 616.364 579.216 614.351 578.194 609.86 C 577.176 605.369 569.747 611.232 569.747 611.232 Z " fill="rgb(34,41,86)"/><path d=" M 587.806 499.333 C 587.806 499.333 586.677 513.218 585.351 529.908 C 583.549 552.58 581.381 580.43 581.167 585.707 C 580.798 594.869 579.31 609.524 579.31 609.524 C 579.31 609.524 575.785 613.007 568.726 611.537 C 568.726 611.537 562.435 590.616 560.639 568.482 C 560.612 568.118 560.584 567.755 560.557 567.388 C 558.886 544.854 556.288 497.405 556.288 497.405 L 587.806 499.333 Z " fill="rgb(249,121,90)"/><path d=" M 558.23 423.487 C 558.23 423.487 570.924 431.852 578.856 429.383 C 578.856 429.383 576.651 426.038 574.55 423.365 C 574.825 421.77 575.038 420.386 575.16 419.213 C 575.495 416.503 575.495 414.969 575.495 414.969 L 570.187 410.787 L 565.152 406.785 C 565.552 418.04 558.23 423.487 558.23 423.487 Z " fill="rgb(255,163,159)"/><path d=" M 540.315 525.61 C 556.446 536.522 589.047 533.406 589.291 533.195 C 589.833 526.251 590.141 514.798 590.312 504.196 C 590.522 491.029 590.526 479.181 590.507 478.931 C 590.507 478.931 590.498 478.531 590.48 477.858 C 590.425 475.72 590.297 470.813 590.157 467.156 C 590.132 466.472 590.105 465.837 590.08 465.265 C 590.077 465.235 590.077 465.204 590.074 465.171 C 589.974 463.53 588.97 459.143 587.562 454.029 C 585.494 446.531 582.558 437.488 580.301 433.282 C 579.142 431.122 575.254 424.874 575.254 424.874 C 572.507 425.418 570.528 424.605 567.628 423.191 C 564.457 421.657 561.039 420.001 560.49 420.423 C 556.34 423.462 553.534 430.294 552.037 439.022 C 551.183 444.051 539.519 525.069 540.315 525.61 Z " fill="rgb(36,46,108)"/><path d=" M 565.064 411.086 C 565.064 411.086 568.54 417.435 575.16 419.213 C 575.495 416.503 575.495 414.969 575.495 414.969 L 570.187 410.787 L 565.064 411.086 Z " fill="rgb(255,125,120)"/><path d=" M 577.917 414.786 C 577.917 414.786 564.792 416.937 563.56 408.853 C 562.328 400.769 559.804 395.603 568.131 393.886 C 576.459 392.172 578.56 395.013 579.636 397.613 C 580.713 400.213 581.298 414.019 577.917 414.786 Z " fill="rgb(255,163,159)"/><path d=" M 558.788 392.921 C 558.669 392.783 558.395 392.673 557.782 392.64 C 557.782 392.64 558.27 392.334 558.925 392.316 C 559.053 391.463 559.505 389.954 560.968 389.591 C 560.968 389.591 560.182 390.009 560.078 390.916 C 561.773 389.172 565.405 387.901 575.465 388.698 C 588.72 389.746 584.354 398.252 582.637 399.263 C 580.92 400.277 576.599 397.497 573.404 397.751 C 570.205 398.004 569.598 402.633 568.512 403.268 C 567.427 403.904 567.854 402.779 566.387 402.116 C 564.92 401.45 564.78 403.888 565.204 405.471 C 565.628 407.057 563.612 409.146 563.612 409.146 C 563.612 409.146 563.612 409.146 561.575 406.947 C 559.538 404.747 557.617 395.435 558.544 393.449 C 558.623 393.275 558.706 393.098 558.788 392.921 Z " fill="rgb(38,45,90)"/><path d=" M 590.312 504.196 C 590.522 491.029 590.526 479.181 590.507 478.931 C 590.507 478.931 590.498 478.531 590.48 477.858 C 577.831 462.174 561.536 445.887 561.536 445.887 C 561.536 445.887 558.007 491.891 590.312 504.196 Z " fill="rgb(27,34,81)"/><g><path d=" M 489.071 536.99 L 737.265 431.076 C 739.135 430.278 740.013 428.094 739.217 426.221 L 738.381 424.254 C 737.586 422.381 735.405 421.501 733.536 422.298 L 485.342 528.213 C 483.473 529.01 482.595 531.194 483.39 533.067 L 484.226 535.035 C 485.022 536.907 487.202 537.787 489.071 536.99 Z " fill="rgb(198,67,219)"/><path d=" M 682.35 424.245 L 689.51 441.087 L 731.798 423.041 L 724.638 406.198 C 723.952 404.582 722.068 403.821 720.454 404.512 L 684.033 420.053 C 682.42 420.743 681.664 422.628 682.35 424.245 Z " fill="rgb(36,46,108)"/><g><path d=" M 670.104 414.059 C 672.214 418.44 676.321 422.858 684.036 420.053 C 697.713 415.085 721.229 402.251 728.438 403.131 C 728.438 403.131 728.428 403.112 728.416 403.073 C 728.364 402.935 728.218 402.566 727.959 402.049 C 726.035 398.218 717.872 386.193 695.654 399.376 C 678.377 409.626 668.027 407.304 668.027 407.304 C 668.027 407.304 668.027 407.307 668.03 407.31 L 668.027 407.313 C 668.027 407.316 668.027 407.316 668.03 407.319 C 668.03 407.325 668.033 407.332 668.033 407.338 C 668.036 407.353 668.039 407.374 668.043 407.402 C 668.128 407.979 668.634 411.01 670.104 414.059 Z " fill="rgb(102,21,178)"/><path d=" M 668.594 409.44 C 668.256 408.263 668.07 407.496 668.033 407.338 C 668.033 407.338 668.03 407.338 668.033 407.341 C 668.036 407.356 668.039 407.377 668.043 407.405 C 668.088 407.665 668.241 408.425 668.594 409.44 Z " fill="rgb(196,214,248)"/><linearGradient id="_lgradient_16" x1="0.000012619888945408775" y1="0.5000065033003622" x2="1.0000232205956578" y2="0.5000065033003622" gradientTransform="matrix(60.407,0,0,19.964,668.027,396.377)" gradientUnits="userSpaceOnUse"><stop offset="0%" stop-opacity="1" style="stop-color:rgb(249,121,90)"/><stop offset="100%" stop-opacity="1" style="stop-color:rgb(235,54,104)"/></linearGradient><path d=" M 728.435 403.134 C 728.435 403.134 721.302 391.567 708.309 398.701 C 695.316 405.838 674.373 413.521 668.027 407.307 C 668.027 407.307 673.257 419.83 686.381 415.388 C 699.509 410.943 719.72 395.762 728.435 403.134 Z " fill="url(#_lgradient_16)"/><g><linearGradient id="_lgradient_17" x1="-0.00005249210070523702" y1="0.5000766368418468" x2="0.9999887880949938" y2="0.5000766368418468" gradientTransform="matrix(59.834,0,0,18.723,668.604,402.21)" gradientUnits="userSpaceOnUse"><stop offset="0%" stop-opacity="1" style="stop-color:rgb(249,121,90)"/><stop offset="100%" stop-opacity="1" style="stop-color:rgb(235,54,104)"/></linearGradient><path d=" M 670.104 414.059 C 672.214 418.44 676.321 422.858 684.036 420.053 C 697.713 415.085 721.229 402.251 728.438 403.131 C 728.438 403.131 721.372 398.872 705.116 408.673 C 675.117 426.753 670.467 414.801 668.604 409.458 C 668.942 410.649 669.442 412.253 670.104 414.059 Z " fill="url(#_lgradient_17)"/><linearGradient id="_lgradient_18" x1="-0.000008079175923825233" y1="0.5001528415310155" x2="0.9999868713391251" y2="0.5001528415310155" gradientTransform="matrix(60.389,0,0,15.084,668.027,393.358)" gradientUnits="userSpaceOnUse"><stop offset="0%" stop-opacity="1" style="stop-color:rgb(249,121,90)"/><stop offset="100%" stop-opacity="1" style="stop-color:rgb(235,54,104)"/></linearGradient><path d=" M 668.027 407.307 C 679.868 412.284 698.027 399.523 711.163 395.554 C 723.757 391.754 728.081 402.205 728.416 403.073 C 728.364 402.935 728.218 402.566 727.959 402.049 C 726.035 398.218 717.872 386.193 695.654 399.376 C 678.374 409.626 668.027 407.307 668.027 407.307 Z " fill="url(#_lgradient_18)"/></g></g><path d=" M 682.35 424.245 L 685.509 431.675 C 698.63 416.964 718.927 409.583 725.199 407.524 L 724.635 406.198 C 723.949 404.582 722.064 403.821 720.451 404.512 L 684.03 420.053 C 682.42 420.743 681.664 422.628 682.35 424.245 Z " fill="rgb(27,34,81)"/></g><path d=" M 573.15 443.211 C 573.324 443.492 577.331 467.187 587.61 467.45 C 588.611 467.477 589.455 467.373 590.16 467.16 C 590.135 466.475 590.108 465.84 590.083 465.268 C 590.08 465.238 590.08 465.207 590.077 465.174 C 589.977 463.533 588.973 459.146 587.565 454.032 C 583.363 453.167 578.441 449.306 573.15 443.211 Z " fill="rgb(27,34,81)"/><path d=" M 560.453 420.426 C 560.453 420.426 561.673 416.876 562.667 416.475 C 562.667 416.475 576.48 419.668 581.088 434.962 C 581.088 434.962 575.712 425.577 560.453 420.426 Z " fill="rgb(27,34,81)"/><path d=" M 621.049 475.457 C 621.049 475.457 621.22 475.042 621.876 474.599 C 622.357 474.067 622.897 473.41 623.031 472.992 C 623.288 472.194 624.276 472.139 624.452 472.912 C 624.51 473.172 624.501 473.441 624.431 473.716 C 626.056 473.471 628.432 473.517 631.896 474.26 C 631.896 474.26 634.597 474.721 632.265 476.456 C 630.707 477.617 629.722 477.345 627.499 478.946 C 625.276 480.547 622.498 480.984 620.787 479.902 L 618.534 479.539 L 618.113 475.65 L 621.049 475.457 Z " fill="rgb(255,163,159)"/><path d=" M 557.416 432.252 C 557.416 432.252 552.793 456.543 580.508 475.314 C 587.992 480.382 621.235 480.953 621.235 480.953 C 621.235 480.953 622.226 476.829 620.01 475.088 C 620.01 475.088 591.596 465.006 588.818 465.504 C 586.354 465.944 573.333 441.594 568.241 436.813 C 563.152 432.032 557.416 432.252 557.416 432.252 Z " fill="rgb(36,46,108)"/></g><g><g><path d=" M 912.34 463.57 C 912.34 463.57 912.151 463.16 911.477 462.751 C 910.97 462.241 909.69 460.426 909.534 460.014 C 909.245 459.228 908.43 459.916 908.29 460.695 C 908.241 460.955 908.805 461.712 908.885 461.981 C 907.25 461.81 904.881 461.96 901.45 462.855 C 901.45 462.855 898.773 463.435 901.179 465.067 C 902.786 466.157 903.759 465.843 906.049 467.343 C 908.342 468.843 911.135 469.158 912.797 468.003 L 915.032 467.538 L 915.282 463.634 L 912.34 463.57 Z " fill="rgb(255,163,159)"/><path d=" M 972.741 421 C 972.741 421 981.346 441.588 954.481 461.563 C 947.23 466.955 914.041 468.993 914.041 468.993 C 914.041 468.993 912.87 464.917 915.008 463.078 C 915.008 463.078 938.424 454.817 942.842 453.873 C 945.291 453.35 949.587 433.718 954.46 428.717 C 959.339 423.716 972.741 421 972.741 421 Z " fill="rgb(27,34,81)"/></g><path d=" M 992.134 609.805 C 992.134 609.805 991.534 619.526 989.655 619.667 C 989.405 619.685 980.135 619.685 980.135 619.685 L 968.341 619.685 C 968.341 619.685 968.377 616.759 971.838 616.157 C 975.299 615.555 981.09 613.117 983.185 608.534 C 985.386 603.713 992.134 609.805 992.134 609.805 Z " fill="rgb(27,34,81)"/><path d=" M 992.817 610.709 C 992.817 610.709 989.219 611.916 986.411 611.916 C 983.276 611.916 980.428 611.061 980.428 611.061 C 980.428 611.061 979.751 604.498 976.022 590.036 C 974.067 582.456 971.277 572.71 967.307 560.6 C 956.329 527.131 952.99 507.551 952.685 505.7 C 952.67 505.602 952.664 505.553 952.664 505.553 L 952.701 505.538 L 986.454 490.69 C 986.454 490.69 982.282 536.816 987.603 554.523 C 988.347 556.998 988.988 559.882 989.536 563.004 C 992.897 582.233 992.817 610.709 992.817 610.709 Z " fill="rgb(102,21,178)"/><path d=" M 989.533 563.004 L 976.022 590.036 C 974.067 582.456 971.277 572.71 967.307 560.6 C 956.329 527.131 952.99 507.551 952.685 505.7 C 952.688 505.645 952.691 505.593 952.697 505.538 L 986.45 490.69 C 986.45 490.69 982.279 536.816 987.6 554.523 C 988.347 556.995 988.988 559.879 989.533 563.004 Z " fill="rgb(102,21,178)"/><path d=" M 966.511 609.805 C 966.511 609.805 965.91 619.526 964.032 619.667 C 963.782 619.685 954.509 619.685 954.509 619.685 L 942.674 619.615 C 942.674 619.615 942.754 616.759 946.212 616.154 C 949.669 615.549 955.463 613.114 957.558 608.531 C 959.763 603.713 966.511 609.805 966.511 609.805 Z " fill="rgb(27,34,81)"/><path d=" M 946.638 491.774 C 946.638 491.774 946.199 521.666 951.362 558.366 C 956.524 595.067 954.774 610.645 954.774 610.645 C 954.774 610.645 958.32 611.797 959.751 611.913 C 963.398 612.209 967.136 611.058 967.136 611.058 C 967.136 611.058 974.525 574.345 972.405 555.974 C 970.286 537.604 982.523 492.941 982.523 492.941 L 946.638 491.774 Z " fill="rgb(127,34,186)"/><path d=" M 970.57 421.828 L 963.983 426.154 L 954.463 424.376 C 954.594 423.606 955.222 420.413 955.796 417.523 C 955.829 417.352 955.866 417.181 955.896 417.016 C 956.387 414.557 956.811 412.443 956.811 412.443 L 965.703 408.511 L 969.017 407.044 C 969.008 407.096 968.761 409.773 968.725 410.164 C 968.103 417.111 970.57 421.828 970.57 421.828 Z " fill="rgb(255,163,159)"/><path d=" M 944.669 493.07 C 944.803 508.846 945.855 545.755 946.626 546.507 C 954.829 554.438 990.906 544.331 992.817 535.594 C 994.726 526.856 985.548 423.545 971.539 419.417 C 968.633 418.562 953.091 423.597 953.091 423.597 C 953.091 423.597 950.654 429.985 949.057 438.127 C 948.465 441.142 946.529 462.659 945.4 477.04 C 945.102 480.874 944.858 484.198 944.714 486.529 C 944.656 487.488 944.644 489.838 944.669 493.07 Z " fill="rgb(36,46,108)"/><path d=" M 968.057 410.292 C 966.105 413.607 958.83 416.472 955.796 417.523 C 955.829 417.352 955.866 417.181 955.896 417.016 C 956.387 414.557 956.811 412.443 956.811 412.443 L 965.703 408.511 C 967.667 408.486 968.865 408.929 968.057 410.292 Z " fill="rgb(255,147,143)"/><path d=" M 953.46 411.902 C 953.46 411.902 967.783 416.378 970.426 407.399 C 973.07 398.42 976.702 392.951 967.67 389.713 C 958.638 386.474 955.844 389.374 954.234 392.157 C 952.621 394.94 949.801 410.506 953.46 411.902 Z " fill="rgb(255,163,159)"/><path d=" M 954.795 391.292 C 954.795 391.292 955.71 401.741 957.866 401.289 C 960.022 400.836 961.98 400.497 961.662 403.647 C 961.345 406.797 958.357 410.432 965.002 410.992 C 971.649 411.548 981.203 394.375 979.379 391.124 C 974.11 381.739 947.178 379.848 954.795 391.292 Z " fill="rgb(242,75,70)"/><path d=" M 956.902 419.644 C 957.089 419.564 967.563 414.856 968.789 415.263 C 970.015 415.669 971.542 419.417 971.542 419.417 L 953.094 423.597 C 953.094 423.597 954.545 420.636 956.902 419.644 Z " fill="rgb(27,34,81)"/><path d=" M 895.916 458.15 L 925.626 533.287 C 926.208 534.76 927.888 535.487 929.358 534.903 L 934.036 533.046 C 935.505 532.462 936.231 530.779 935.649 529.306 L 905.939 454.169 C 905.357 452.697 903.676 451.97 902.207 452.553 L 897.529 454.411 C 896.059 454.994 895.33 456.677 895.916 458.15 Z " fill="rgb(198,67,219)"/><g><path d=" M 895.916 458.15 L 899.206 466.469 C 905.433 464.942 912.172 469.937 912.172 469.937 L 905.939 454.172 C 905.357 452.7 903.676 451.973 902.207 452.556 L 897.529 454.414 C 896.059 454.994 895.33 456.677 895.916 458.15 Z " fill="rgb(102,21,178)"/></g><path d=" M 912.587 500.317 L 925.626 533.287 C 926.208 534.76 927.888 535.487 929.358 534.903 L 934.036 533.046 C 935.505 532.462 936.231 530.779 935.649 529.306 L 922.61 496.336 L 912.587 500.317 Z " fill="rgb(127,34,186)"/><path d=" M 841.363 433.083 C 850.725 456.763 877.48 468.354 901.115 458.975 C 908.854 455.905 915.3 450.964 920.137 444.879 C 930.081 432.38 933.252 415.036 926.955 399.11 C 917.594 375.43 890.842 363.842 867.206 373.221 C 866.895 373.347 866.584 373.472 866.279 373.603 C 843.269 383.309 832.124 409.715 841.363 433.083 Z  M 869.564 379.179 C 874.839 377.086 880.291 376.209 885.618 376.405 C 887.86 376.49 890.076 376.768 892.248 377.22 C 904.844 379.857 915.913 388.585 921.009 401.469 C 925.357 412.47 924.464 424.251 919.518 434.036 C 915.3 442.392 908.135 449.293 898.761 453.011 C 885.902 458.116 871.97 456.008 861.422 448.621 C 855.281 444.317 850.283 438.225 847.316 430.718 C 839.253 410.335 849.212 387.26 869.564 379.179 Z " fill="rgb(198,67,219)"/><path d=" M 866.279 373.606 C 873.698 373.368 880.099 374.404 885.618 376.408 C 887.86 376.493 890.076 376.771 892.248 377.224 C 904.844 379.86 915.913 388.588 921.009 401.472 C 925.357 412.473 924.464 424.254 919.518 434.039 C 919.92 438.252 920.079 441.973 920.14 444.879 C 930.084 432.38 933.255 415.036 926.958 399.11 C 917.597 375.43 890.845 363.842 867.21 373.221 C 866.895 373.347 866.587 373.472 866.279 373.606 Z " fill="rgb(127,34,186)"/><g style="opacity:0.5;"><g style="opacity:0.5;"><g opacity="0.5"><path d=" M 847.313 430.724 C 850.28 438.231 855.277 444.323 861.419 448.63 C 871.966 456.018 885.899 458.126 898.758 453.021 C 919.109 444.943 929.071 421.868 921.006 401.475 C 915.913 388.592 904.841 379.863 892.245 377.224 C 884.905 375.684 877.05 376.209 869.561 379.182 C 849.212 387.26 839.253 410.335 847.313 430.724 Z " fill="rgb(237,236,252)"/></g></g><g style="opacity:0.5;"><g opacity="0.5"><path d=" M 847.313 430.724 C 850.28 438.231 855.277 444.323 861.419 448.63 C 868.756 450.167 876.611 449.642 884.1 446.669 C 904.451 438.591 914.413 415.513 906.351 395.126 C 903.384 387.623 898.389 381.528 892.248 377.227 C 884.908 375.687 877.053 376.212 869.564 379.185 C 849.212 387.26 839.253 410.335 847.313 430.724 Z " fill="rgb(192,211,248)"/></g></g><g style="opacity:0.5;"><g opacity="0.5"><path d=" M 877.681 384.165 C 857.671 392.108 847.791 414.587 855.613 434.372 C 856.796 437.366 858.321 440.128 860.12 442.63 C 856.677 439.215 853.869 435.047 851.969 430.245 C 844.617 411.654 853.701 390.611 872.256 383.248 C 878.94 380.593 885.945 380.08 892.516 381.378 C 887.588 381.336 882.557 382.228 877.681 384.165 Z " fill="rgb(239,236,234)"/></g></g></g><path d=" M 944.669 493.07 C 978.897 469.845 976.11 437.904 976.11 437.904 C 962.754 445.453 949.514 463.322 945.4 477.037 C 945.102 480.871 944.858 484.195 944.714 486.526 C 944.656 487.488 944.644 489.838 944.669 493.07 Z " fill="rgb(27,34,81)"/><g><path d=" M 914.852 482.86 C 914.852 482.86 914.575 482.505 913.825 482.258 C 913.218 481.876 911.574 480.623 911.327 480.26 C 910.547 479.111 909.967 479.994 910.431 481.124 C 910.531 481.369 910.986 481.855 911.126 482.099 C 909.498 482.304 907.22 482.991 904.085 484.644 C 904.085 484.644 901.609 485.82 904.323 486.859 C 906.137 487.555 907.009 487.027 909.583 487.965 C 912.157 488.906 914.95 488.573 916.304 487.073 L 918.374 486.11 L 917.731 482.252 L 914.852 482.86 Z " fill="rgb(255,163,159)"/><path d=" M 966.069 423.597 C 966.069 423.597 995.147 429.145 957.512 471.33 C 951.493 478.078 917.743 487.754 917.743 487.754 C 917.743 487.754 915.679 484.051 917.34 481.775 C 917.34 481.775 941.982 464.382 944.791 464.111 C 947.282 463.869 953.255 436.899 956.869 430.917 C 960.482 424.935 966.069 423.597 966.069 423.597 Z " fill="rgb(36,46,108)"/></g></g><path d=" M 710.904 392.893 L 707.419 394.812 L 711.352 393.959 C 711.797 393.923 712.23 394.124 712.487 394.494 L 715.524 400.904 L 713.612 394.06 C 713.563 393.629 713.779 393.214 714.161 393.006 L 718.475 390.66 L 713.871 391.689 C 713.34 391.809 712.795 391.573 712.514 391.109 L 710.3 386.933 L 711.395 391.677 C 711.474 392.145 711.285 392.615 710.904 392.893 Z " fill="rgb(255,255,255)"/><linearGradient id="_lgradient_19" x1="-0.000010018785225440752" y1="0.5000725002517372" x2="1.0000087664370625" y2="0.5000725002517372" gradientTransform="matrix(24.349,0,0,30.34,857.403,337.012)" gradientUnits="userSpaceOnUse"><stop offset="0%" stop-opacity="1" style="stop-color:rgb(249,121,90)"/><stop offset="100%" stop-opacity="1" style="stop-color:rgb(255,239,233)"/></linearGradient><path d=" M 864.523 351.164 L 857.403 358.447 L 866.408 353.44 C 867.472 353.015 868.682 353.195 869.579 353.907 L 881.752 367.353 L 872.012 352.007 C 871.576 350.989 871.799 349.807 872.576 349.022 L 881.41 340.074 L 870.89 346.013 C 869.679 346.697 868.17 346.529 867.136 345.597 L 858.629 337.012 L 864.816 347.824 C 865.362 348.906 865.246 350.198 864.523 351.164 Z " fill="url(#_lgradient_19)"/><path d=" M 642.812 546.064 L 636.717 552.302 L 644.425 548.016 C 645.337 547.652 646.374 547.805 647.139 548.416 L 657.562 559.928 L 649.222 546.791 C 648.85 545.92 649.039 544.909 649.707 544.234 L 657.272 536.571 L 648.265 541.655 C 647.228 542.239 645.935 542.098 645.051 541.301 L 637.766 533.95 L 643.062 543.207 C 643.529 544.13 643.431 545.239 642.812 546.064 Z " fill="rgb(236,235,252)"/><path d=" M 885.509 614.177 L 885.509 614.177 C 889.433 604.694 897.886 586.528 904.317 588.676 C 910.672 590.799 896.382 606.53 888.338 614.742 C 889.936 615.078 891.382 615.411 892.714 615.717 C 898.913 610.062 909.153 600.793 910.086 604.605 C 910.903 607.948 902.118 612.998 895.398 616.325 C 899.581 617.238 902.746 617.672 906.674 616.777 C 913.145 615.304 916.45 619.704 916.45 619.704 L 867.069 619.704 C 867.072 619.704 875.208 612.231 885.509 614.177 Z " fill="rgb(36,46,108)"/></g></g></g></g></g></svg>