<?xml version="1.0" encoding="UTF-8" standalone="no"?><!-- Generator: Gravit.io --><svg xmlns="http://www.w3.org/2000/svg" xmlns:xlink="http://www.w3.org/1999/xlink" style="isolation:isolate" viewBox="0 0 1024 768" width="1024pt" height="768pt"><defs><clipPath id="_clipPath_BvJo7ZY4ZqKvn1N9xsZotYcZx3k2JJc7"><rect width="1024" height="768"/></clipPath></defs><g clip-path="url(#_clipPath_BvJo7ZY4ZqKvn1N9xsZotYcZx3k2JJc7)"><clipPath id="_clipPath_aWoegCAm6HwaVAcbVbL32xPjCNEfdycD"><rect x="0" y="0" width="1024" height="1000" transform="matrix(1,0,0,1,0,0)" fill="rgb(255,255,255)"/></clipPath><g clip-path="url(#_clipPath_aWoegCAm6HwaVAcbVbL32xPjCNEfdycD)"><g><g><rect x="0" y="6.809" width="1024" height="539.191" transform="matrix(1,0,0,1,0,0)" fill="rgb(255,255,255)"/><g><linearGradient id="_lgradient_44" x1="0.5000000389593185" y1="-1.0152469143154264e-15" x2="0.4970588588745256" y2="0.9203104879204393" gradientTransform="matrix(730.106,0,0,193.669,293.894,0)" gradientUnits="userSpaceOnUse"><stop offset="0%" stop-opacity="1" style="stop-color:rgb(102,21,178)"/><stop offset="26.427574723753157%" stop-opacity="1" style="stop-color:rgb(141,40,195)"/><stop offset="52.80298068687691%" stop-opacity="1" style="stop-color:rgb(172,55,208)"/><stop offset="74.7610615213078%" stop-opacity="1" style="stop-color:rgb(191,64,216)"/><stop offset="100%" stop-opacity="1" style="stop-color:rgb(198,67,219)"/></linearGradient><path d=" M 1024 0 L 1024 140.479 C 1024 140.479 622.94 251.423 428.089 152.855 C 414.054 145.755 413.548 145.801 403.627 140.479 C 352.203 112.894 330.579 86.286 293.894 0 L 1024 0 Z " fill="url(#_lgradient_44)"/><linearGradient id="_lgradient_45" x1="0.5000001708744501" y1="0.9999994762172522" x2="0.5000629637820041" y2="0.06330473681052806" gradientTransform="matrix(850,0,0,159.832,0,0)" gradientUnits="userSpaceOnUse"><stop offset="0%" stop-opacity="1" style="stop-color:rgb(249,121,90)"/><stop offset="5.300625792435835e-14%" stop-opacity="1" style="stop-color:rgb(238,67,101)"/><stop offset="4.2365818356992575%" stop-opacity="1" style="stop-color:rgb(246,106,93)"/><stop offset="32.16701235176558%" stop-opacity="1" style="stop-color:rgb(244,95,95)"/><stop offset="58.76852829037057%" stop-opacity="1" style="stop-color:rgb(241,83,98)"/><stop offset="100%" stop-opacity="1" style="stop-color:rgb(235,54,104)"/></linearGradient><path d=" M 0 126.655 C 0 126.655 266.641 214.816 488.381 103.713 C 710.12 -7.389 850 0.107 850 0.107 L 0 0 L 0 126.655 Z " fill="url(#_lgradient_45)"/></g></g><g><g><path d=" M 776.113 735.212 C 777.771 735.251 779.405 735.082 780.97 734.83 C 779.123 733.499 775.233 730.744 772.066 728.805 C 767.748 726.17 765.301 721.728 771.391 720.972 C 776.58 720.327 780.659 731.404 781.756 734.697 C 782.466 734.57 783.162 734.43 783.834 734.287 C 783 731.945 781.172 726.981 779.439 723.519 C 777.101 718.846 768.829 710.952 777.101 710.053 C 784.459 709.25 786.412 729.216 786.752 733.658 C 788.229 733.354 789.52 733.143 790.543 733.218 C 792.898 733.387 795.148 735.895 793.817 737 L 768.976 737 C 769.781 736.34 771.859 735.113 776.113 735.212 Z " fill="rgb(36,46,108)"/><g><g><path d=" M 749.053 480.399 C 750.886 479.463 758.661 481.506 758.661 481.506 C 758.661 481.506 778.22 471.5 780.473 470.143 C 783.077 468.573 790.017 449.839 795.108 439.516 C 797.789 434.079 805.846 434.157 808.248 439.719 C 808.681 440.719 808.88 441.826 808.729 443.038 C 807.889 449.748 790.477 473.665 788.341 475.692 C 784.451 479.385 760.946 485.111 760.946 485.111 C 760.946 485.111 756.33 486.857 753.243 487.071 C 750.158 487.284 747.219 481.334 749.053 480.399 Z " fill="rgb(255,125,120)"/><path d=" M 788.306 442.827 C 788.513 440.6 790.052 438.632 790.87 437.73 C 786.164 443.183 793.657 453.956 793.657 453.956 C 792.348 448.121 812.759 439.29 813.578 432.236 C 814.396 425.185 807.706 424.748 805.989 422.567 C 804.27 420.387 807.78 408.899 802.134 404.32 C 796.485 399.74 791.295 402.721 791.295 402.721 C 792.571 401.411 795.037 400.759 795.037 400.759 C 788.776 400.759 787.727 404.974 787.575 406.921 C 782.357 408.283 780.606 418.263 780.606 418.263 L 796.926 425.016 C 797.181 425.525 797.343 425.871 797.377 425.998 C 797.675 427.1 794.864 433.273 791.431 434.96 C 787.551 436.865 788.306 442.827 788.306 442.827 Z  M 791.245 437.335 C 791.33 437.249 791.38 437.205 791.38 437.205 C 791.332 437.247 791.29 437.291 791.245 437.335 Z " fill="rgb(242,75,70)"/><path d=" M 810.424 561.936 L 814.471 561.354 C 814.471 561.354 828.075 550.778 830.102 531.046 C 830.31 529.037 830.352 527 830.198 524.946 C 830.179 524.71 830.206 524.473 830.339 524.273 C 830.339 524.271 830.339 524.271 830.344 524.268 C 830.78 523.616 831.864 521.978 833.331 519.652 C 834.776 517.36 837.253 513.027 839.976 508.164 C 844.881 499.408 850.594 488.937 852.552 485.599 C 858.794 474.969 855.786 467.822 855.786 467.822 C 855.786 467.822 838.374 466.138 833.602 462.055 L 831.883 464.646 C 831.883 464.646 828.11 480.984 828.288 481.059 C 828.102 481.615 827.913 482.179 827.722 482.756 C 824.743 491.746 821.321 502.979 819.453 512.131 C 818.403 517.279 817.848 521.765 818.145 524.822 C 818.249 525.869 818.124 527.481 817.837 529.469 C 816.15 541.196 810.424 561.936 810.424 561.936 Z " fill="rgb(249,121,90)"/><path d=" M 801.937 566.944 L 818.818 566.944 C 818.818 566.944 819.222 564.429 818.339 562.518 C 817.494 560.686 816.291 560.629 818.185 557.757 C 817.112 558.838 813.663 559.285 811.224 558.963 C 810.923 559.436 809.295 562.62 808.296 563.321 C 807.195 564.093 802.274 563.818 801.937 566.944 Z " fill="rgb(34,41,86)"/><path d=" M 827.719 482.756 C 829.194 490.712 832.677 503.951 839.974 508.164 C 844.879 499.408 850.591 488.937 852.55 485.599 C 858.791 474.969 855.783 467.822 855.783 467.822 C 855.783 467.822 838.371 466.138 833.599 462.055 L 831.88 464.646 C 831.88 464.646 828.107 480.984 828.285 481.059 C 828.099 481.615 827.91 482.182 827.719 482.756 Z " fill="rgb(242,75,70)"/><path d=" M 839.559 469.051 L 839.501 465.964 C 845.79 466.741 861.191 458.611 861.191 458.611 C 861.191 458.611 867.772 462.892 868.673 475.12 C 869.114 481.088 871.896 506.327 872.202 513.864 C 872.313 516.596 872.351 518.545 872.364 519.325 C 872.364 519.327 872.364 519.33 872.364 519.332 C 872.366 519.569 872.481 519.78 872.632 519.967 C 873.934 521.586 875.063 523.299 876.041 525.076 C 885.641 542.545 880.622 566.282 880.622 566.282 L 878.393 565.728 C 878.393 565.728 870.275 541.12 864.972 530.477 C 864.071 528.671 863.253 527.267 862.57 526.454 C 860.574 524.084 858.472 520.06 856.4 515.218 C 852.481 506.062 848.678 493.981 845.965 484.627 C 845.769 484.659 839.559 469.051 839.559 469.051 Z " fill="rgb(249,121,90)"/><path d=" M 802.747 448.438 C 813.03 446.13 806.462 431.994 805.864 432.244 C 804.44 431.96 801.31 429.512 798.509 424.732 L 798.132 425.052 L 791.816 430.469 C 791.816 430.469 793.278 432.576 794.505 434.637 C 795.464 436.251 796.28 437.845 796.152 438.39 C 795.642 438.785 800.003 449.057 802.747 448.438 Z " fill="rgb(255,163,159)"/><path d=" M 796.022 437.621 C 796.022 437.621 793.711 440.813 792.302 443.664 C 790.894 446.515 787.063 455.679 787.063 455.679 C 787.063 455.679 791.152 461.891 798.05 462.567 C 798.05 462.567 802.591 457.462 802.065 452.181 C 801.538 446.9 796.022 437.621 796.022 437.621 Z " fill="rgb(27,34,81)"/><path d=" M 791.816 430.474 C 791.816 430.474 793.278 432.579 794.505 434.643 C 798.432 432.275 798.435 427.519 798.135 425.057 L 791.816 430.474 Z " fill="rgb(255,125,120)"/><path d=" M 791.643 433.187 C 791.643 433.187 801.177 427.997 797.781 422.24 C 794.386 416.48 793.331 411.935 787.1 415.004 C 780.869 418.074 780.991 420.933 781.647 423.124 C 782.301 425.315 789.074 434.388 791.643 433.187 Z " fill="rgb(255,163,159)"/><path d=" M 780.034 419.763 C 780.47 417.206 781.799 416.961 782.723 417.133 C 786.244 411.436 791.997 413.66 791.997 413.66 C 795.068 417.432 799.511 418.076 799.511 418.076 C 799.511 418.076 798.406 420.091 793.846 421.335 C 792.454 421.718 790.873 421.486 789.348 420.985 C 792.51 422.71 795.818 423.371 795.818 423.371 C 789.81 423.909 784.095 418.536 783.502 417.962 C 783.226 418.794 782.739 420.538 783.029 421.811 C 783.425 423.542 784.995 426.679 784.036 427.085 C 784.041 427.085 779.381 423.599 780.034 419.763 Z " fill="rgb(242,75,70)"/><path d=" M 867.193 566.944 L 884.074 566.944 C 884.074 566.944 884.478 564.429 883.595 562.518 C 882.75 560.686 881.427 559.854 881.743 557.637 C 880.67 558.716 878.922 559.927 876.482 559.607 C 876.182 560.08 874.553 562.62 873.554 563.321 C 872.452 564.093 867.533 563.818 867.193 566.944 Z " fill="rgb(34,41,86)"/><path d=" M 801.536 459.645 C 803.709 460.386 806.757 460.794 809.874 461.124 C 814.314 461.597 818.897 461.922 821.297 462.86 C 821.767 463.042 823.13 463.601 824.499 464.571 L 824.499 464.573 C 824.499 464.573 824.533 464.594 824.594 464.643 C 825.049 464.966 825.5 465.34 825.917 465.761 C 826.555 466.4 827.111 467.151 827.467 468.009 C 828.346 470.138 827.182 476.035 826.433 479.26 C 826.133 480.557 826.757 481.898 827.966 482.512 C 829.653 483.364 831.311 484.154 832.943 484.874 C 833.028 484.913 833.113 484.95 833.201 484.986 C 833.185 484.659 833.179 484.334 833.179 484.014 C 833.177 481.789 833.464 479.939 833.464 479.939 C 833.865 482.184 835.377 484.609 836.788 486.475 C 859.442 495.367 875.271 491.502 875.01 487.073 C 874.118 471.695 863.513 458.614 863.513 458.614 C 843.739 436.121 803.739 430.201 803.739 430.201 C 803.739 430.201 801.823 429.975 799.511 432.693 C 796.184 436.607 796.02 437.626 796.02 437.626 C 796.02 437.626 795.145 457.465 801.536 459.645 Z " fill="rgb(36,46,108)"/><path d=" M 809.876 461.124 C 814.314 461.597 818.897 461.922 821.299 462.858 C 822.28 448.519 815.363 437.733 815.363 437.733 C 815.363 437.733 810.849 455.697 809.876 461.124 Z " fill="rgb(27,34,81)"/><g><path d=" M 760.661 488.045 L 760.661 488.045 C 761.196 487.245 760.962 486.161 760.143 485.638 L 749.531 478.871 C 748.712 478.348 747.604 478.577 747.07 479.377 L 747.07 479.377 C 746.536 480.178 746.77 481.262 747.588 481.784 L 758.201 488.552 C 759.019 489.074 760.127 488.846 760.661 488.045 Z " fill="rgb(36,46,108)"/><g><path d=" M 748.784 480.908 L 749.193 480.295 L 739.838 474.67 C 738.714 473.953 737.305 473.839 736.075 474.366 L 731.911 476.149 L 732.148 476.516 L 736.142 474.517 C 737.321 474.013 738.668 474.122 739.745 474.808 L 748.784 480.908 Z " fill="rgb(36,46,108)"/></g></g><path d=" M 773.522 497.846 C 777.104 497.675 780.978 500.666 780.978 500.666 C 780.978 500.666 793.564 479.824 795.512 477.875 C 798.57 474.813 801.541 437.411 805.309 434.96 C 805.309 434.96 816.434 436.036 817.324 443.105 C 818.217 450.174 806.659 478.975 805.003 481.584 C 801.99 486.332 784.246 502.605 784.246 502.605 C 784.246 502.605 782.431 506.049 780.167 505.695 C 777.903 505.339 767.937 498.81 767.937 498.81 C 767.937 498.81 769.94 498.015 773.522 497.846 Z " fill="rgb(255,163,159)"/><path d=" M 826.433 479.255 C 826.133 480.552 826.757 481.893 827.966 482.507 C 829.653 483.359 831.311 484.149 832.943 484.869 C 833.028 484.599 833.108 484.313 833.179 484.011 C 833.434 482.889 833.554 481.545 833.464 479.936 C 833.086 473.129 828.346 467.973 825.917 465.758 C 826.555 466.398 827.111 467.149 827.467 468.007 C 828.346 470.133 827.18 476.032 826.433 479.255 Z " fill="rgb(27,34,81)"/><path d=" M 803.741 430.196 C 803.741 430.196 802.001 428.041 800.824 428.111 C 800.824 428.111 796.062 434.63 796.025 437.621 C 796.022 437.621 801.961 429.894 803.741 430.196 Z " fill="rgb(27,34,81)"/><path d=" M 799.514 448.467 C 799.514 448.467 798.371 430.237 812.637 434.645 C 826.903 439.053 810.424 470.411 810.424 470.411 C 810.424 470.411 802.051 470.005 799.081 462.86 L 799.514 448.467 Z " fill="rgb(36,46,108)"/></g><path d=" M 669.483 653.178 C 671.555 667.299 675.169 680.224 680.709 690.875 C 711.178 749.429 729.302 696.2 742.816 671.972 C 755.533 649.168 768.869 640.357 788.867 653.963 C 803.579 663.967 808.288 733.416 831.978 736.675 C 851.165 739.313 922.565 674.696 905.743 537.217 C 905.418 534.568 904.815 531.636 903.784 528.634 C 898.892 514.397 884.366 498.654 844.228 504.7 C 807.506 510.231 804.971 516.889 782.15 506.745 C 759.325 496.604 727.881 465.241 699.527 487.876 C 682.019 501.857 660.164 589.642 669.483 653.178 Z " fill="rgb(133,169,221)"/><path d=" M 669.483 653.176 C 671.584 662.153 674.457 670.418 678.214 677.638 C 708.686 736.194 726.807 682.963 740.321 658.735 C 753.036 635.931 766.372 627.12 786.374 640.726 C 801.084 650.73 805.795 720.176 829.483 723.436 C 848.184 726.006 916.475 664.695 904.361 534.319 C 904.188 532.437 903.994 530.54 903.787 528.629 C 898.895 514.392 884.369 498.649 844.233 504.695 C 807.509 510.225 804.977 516.882 782.152 506.743 C 759.328 496.599 727.883 465.239 699.532 487.874 C 687.641 497.365 673.753 540.868 668.975 587.706 C 666.714 609.868 666.491 632.773 669.483 653.176 Z " fill="rgb(192,211,248)"/><path d=" M 700.839 507.377 C 693.628 520.039 695.187 546.324 704.214 547.696 C 713.243 549.068 721.041 526.077 731.101 517.064 C 745.641 504.037 735.344 494.678 726.316 493.306 C 717.287 491.933 707.477 495.72 700.839 507.377 Z " fill="rgb(236,235,252)"/><path d=" M 668.821 648.149 C 669.018 649.841 669.241 651.517 669.483 653.176 C 671.584 662.155 674.457 670.418 678.214 677.638 C 701.166 721.744 717.109 702.425 729.355 679.85 C 729.358 679.85 729.358 679.847 729.358 679.847 C 733.37 672.455 736.984 664.71 740.319 658.732 C 747.479 645.893 754.84 637.488 763.47 635.026 L 763.473 635.026 C 768.035 633.724 772.956 634.083 778.395 636.323 C 780.938 637.371 783.592 638.831 786.374 640.724 C 795.738 647.094 801.05 677.549 809.789 699.685 C 814.774 712.325 820.877 722.25 829.483 723.433 C 844.9 725.556 894.019 684.26 904.005 596.646 L 904.007 596.644 C 905.129 586.812 905.758 576.397 905.79 565.393 C 905.817 556.928 905.49 548.109 904.759 538.942 C 904.64 537.411 904.504 535.868 904.361 534.319 C 901.292 538.061 897.824 542.038 893.958 546.129 C 869.008 572.53 827.339 603.627 767.477 606.51 C 757.935 606.97 747.931 606.712 737.457 605.605 C 716.516 603.391 693.705 597.777 668.972 587.7 C 668.17 595.555 667.625 603.5 667.389 611.396 L 667.389 611.399 C 667.014 623.978 667.421 636.42 668.821 648.149 Z " fill="rgb(177,201,246)"/><path d=" M 763.475 635.029 C 768.038 633.727 772.959 634.086 778.398 636.326 C 780.941 637.373 783.595 638.834 786.377 640.726 C 792.52 644.905 796.919 659.45 801.686 675.212 C 804.185 683.476 806.785 692.074 809.791 699.688 C 814.776 712.327 820.88 722.253 829.486 723.436 C 844.903 725.559 894.022 684.263 904.007 596.649 C 894.07 615.495 868.896 686.124 826.943 672.136 C 799.113 662.857 801.937 632.661 763.475 635.029 Z " fill="rgb(154,192,239)"/><path d=" M 668.821 648.149 C 669.018 649.841 669.241 651.517 669.483 653.176 C 671.584 662.155 674.659 670.321 678.214 677.638 C 709.283 741.598 730.772 676.705 743.016 654.129 C 742.707 654.623 721.597 689.308 698.974 677.432 C 680.09 667.52 667.729 643.089 667.391 611.404 C 667.014 623.978 667.421 636.42 668.821 648.149 Z " fill="rgb(154,192,239)"/><g><path d=" M 891.12 566.36 C 891.12 565.037 890.023 563.966 888.671 563.966 C 887.318 563.966 886.223 565.037 886.223 566.36 C 886.223 567.683 887.321 568.753 888.671 568.753 C 890.026 568.753 891.12 567.68 891.12 566.36 Z " fill="rgb(239,236,234)"/><path d=" M 884.555 554.271 C 884.555 553.611 884.007 553.073 883.33 553.073 C 882.652 553.073 882.105 553.609 882.105 554.271 C 882.105 554.934 882.652 555.47 883.33 555.47 C 884.007 555.47 884.555 554.932 884.555 554.271 Z " fill="rgb(239,236,234)"/><path d=" M 875.234 568.753 C 875.234 568.093 874.686 567.555 874.009 567.555 C 873.331 567.555 872.784 568.091 872.784 568.753 C 872.784 569.416 873.331 569.952 874.009 569.952 C 874.686 569.952 875.234 569.416 875.234 568.753 Z " fill="rgb(239,236,234)"/></g></g><g><g><path d=" M 472.176 693.991 C 472.176 693.991 479.191 685.986 472.609 680.902 C 472.609 680.902 467.802 678.056 463.883 678.288 C 463.883 678.288 469.436 687.397 467.64 688.304 C 465.844 689.211 462.198 677.716 462.198 677.716 C 462.198 677.716 451.259 676.679 447.738 678.332 C 447.738 678.332 457.091 685.817 455.12 686.264 C 453.151 686.708 443.049 679.361 443.049 679.361 C 443.049 679.361 432.867 681.056 433.409 687.132 C 433.951 693.209 437.461 695.083 439.002 694.921 C 440.543 694.76 449.564 691.392 449.761 692.629 C 449.957 693.866 444.529 697.905 440.726 698.092 C 440.726 698.092 447.906 705.835 452.675 703.6 C 457.445 701.364 457.854 697.822 460.827 696.494 C 463.801 695.166 466.341 695.168 465.113 696.525 C 463.886 697.879 458.502 699.197 456.802 702.139 C 455.101 705.081 453.576 707.067 458.51 706.339 C 463.447 705.614 471.469 702.079 471.823 698.035 C 472.176 693.991 472.176 693.991 472.176 693.991 Z " fill="rgb(27,34,81)"/><g><path d=" M 438.412 687.296 C 438.412 687.296 466.067 686.254 472.173 693.988 C 472.173 693.988 473.523 697.944 477.679 701.549 L 478.327 703.275 C 478.327 703.275 473.534 698.331 471.82 698.033 C 471.823 698.035 474.504 688.452 438.412 687.296 Z " fill="rgb(27,34,81)"/><path d=" M 477.681 701.549 C 477.681 701.549 483.617 705.843 484.029 713.515 L 482.953 713.609 C 482.953 713.609 481.059 705.676 477.631 702.573 C 474.203 699.472 477.681 701.549 477.681 701.549 Z " fill="rgb(27,34,81)"/></g></g><g><path d=" M 496.698 683.925 C 496.698 683.925 485.541 677.815 490.749 669.518 C 490.749 669.518 494.916 664.424 499.377 663.117 C 499.377 663.117 496.996 675.486 499.377 675.777 C 501.758 676.068 501.014 661.807 501.014 661.807 C 501.014 661.807 512.766 656.279 517.379 656.713 C 517.379 656.713 510.09 668.791 512.468 668.5 C 514.849 668.208 523.03 655.985 523.03 655.985 C 523.03 655.985 535.08 653.802 537.015 660.788 C 538.949 667.772 535.824 671.265 534.039 671.702 C 532.253 672.138 520.798 671.993 521.096 673.448 C 521.394 674.904 529.129 677.232 533.444 675.922 C 533.444 675.922 528.682 687.418 522.435 686.836 C 516.188 686.254 514.254 682.469 510.385 682.178 C 506.516 681.887 503.692 682.906 505.624 683.925 C 507.558 684.944 514.103 684.258 517.227 686.857 C 520.352 689.453 522.882 691.054 517.078 692.218 C 511.278 693.383 500.862 692.655 498.782 688.289 C 496.698 683.925 496.698 683.925 496.698 683.925 Z " fill="rgb(36,46,108)"/><g><path d=" M 531.509 662.971 C 531.509 662.971 500.27 672.866 496.698 683.925 C 496.698 683.925 496.847 688.873 493.722 694.547 L 493.722 696.73 C 493.722 696.73 496.996 689.31 498.782 688.291 C 498.782 688.289 491.788 678.685 531.509 662.971 Z " fill="rgb(27,34,81)"/><path d=" M 493.722 694.547 C 493.722 694.547 488.905 701.702 491.653 710.414 L 492.891 710.089 C 492.891 710.089 491.687 700.494 494.209 695.67 C 496.73 690.844 493.722 694.547 493.722 694.547 Z " fill="rgb(27,34,81)"/></g></g><g><path d=" M 478.949 675.496 C 478.949 675.496 493.656 667.439 486.793 656.508 C 486.793 656.508 481.3 649.794 475.418 648.068 C 475.418 648.068 478.556 664.372 475.418 664.757 C 472.28 665.142 473.26 646.343 473.26 646.343 C 473.26 646.343 457.769 639.055 451.69 639.629 C 451.69 639.629 461.298 655.551 458.16 655.166 C 455.022 654.782 444.236 638.67 444.236 638.67 C 444.236 638.67 428.352 635.793 425.804 644.999 C 423.256 654.207 427.372 658.81 429.726 659.385 C 432.08 659.959 447.178 659.769 446.787 661.687 C 446.394 663.606 436.199 666.675 430.512 664.949 C 430.512 664.949 436.788 680.102 445.023 679.335 C 453.26 678.568 455.808 673.581 460.907 673.196 C 466.006 672.814 469.731 674.155 467.183 675.499 C 464.635 676.842 456.005 675.938 451.889 679.364 C 447.77 682.789 444.438 684.897 452.085 686.433 C 459.733 687.966 473.459 687.007 476.207 681.253 C 478.949 675.496 478.949 675.496 478.949 675.496 Z " fill="rgb(36,46,108)"/><g><path d=" M 433.061 647.874 C 433.061 647.874 474.241 660.916 478.949 675.494 C 478.949 675.494 478.752 682.015 482.871 689.495 L 482.871 692.372 C 482.871 692.372 478.556 682.589 476.204 681.245 C 476.201 681.25 485.419 668.591 433.061 647.874 Z " fill="rgb(27,34,81)"/><path d=" M 482.871 689.497 C 482.871 689.497 489.221 698.929 485.6 710.414 L 483.966 709.986 C 483.966 709.986 485.552 697.339 482.228 690.976 C 478.906 684.616 482.871 689.497 482.871 689.497 Z " fill="rgb(27,34,81)"/></g></g><path d=" M 450.475 708 L 449.806 708 L 449.806 707.134 L 509.027 707.134 L 509.027 708 L 508.066 708 C 507.712 719.459 500.365 729.198 490.056 733.273 L 505.1 733.273 C 507.064 733.273 508.655 734.83 508.655 736.75 L 450.241 736.75 C 450.241 734.83 451.833 733.273 453.797 733.273 L 468.491 733.273 C 458.176 729.198 450.826 719.459 450.475 708 Z " fill="rgb(249,121,90)"/><path d=" M 479.568 733.27 L 486.726 733.27 C 497.025 729.198 504.364 719.469 504.723 708.023 L 497.567 708.023 C 497.209 719.472 489.867 729.195 479.568 733.27 Z " fill="rgb(239,236,234)"/></g><g><g><g><path d=" M 566.206 624.599 C 562.348 624.583 559.656 618.736 557.055 613.083 C 555.352 609.382 553.773 605.691 552.381 604.67 C 551.01 603.661 548.321 603.809 546.838 604.368 C 544.914 605.093 543.333 607.185 541.864 610.959 C 541.543 611.788 541.216 612.737 540.87 613.743 C 539.313 618.289 537.546 623.442 534.097 623.923 C 531.74 624.251 529.094 622.289 525.998 617.925 C 524.285 615.505 522.86 612.384 521.771 608.644 C 517.113 592.67 519.581 569.71 523.658 565.437 L 523.658 565.437 C 528.762 560.086 535.556 563.061 541.016 565.455 C 542.69 566.188 544.269 566.879 545.674 567.293 C 549.881 568.525 551.26 568.026 554.948 566.69 C 556.476 566.136 558.375 565.447 561.006 564.686 C 571.3 561.702 575.633 565.367 577.456 568.969 C 577.802 569.653 578.081 570.391 578.288 571.16 C 581.227 582.214 581.848 592.581 580.132 601.974 C 578.375 611.593 574.648 617.395 572.583 619.996 C 570.293 622.881 567.914 624.602 566.217 624.602 C 566.214 624.599 566.209 624.599 566.206 624.599 Z  M 555.285 567.568 C 551.488 568.943 549.915 569.512 545.401 568.189 C 543.934 567.761 542.326 567.056 540.623 566.31 C 535.173 563.922 528.998 561.216 524.362 566.076 C 520.517 570.105 518.205 592.976 522.698 608.384 C 523.761 612.022 525.308 614.46 526.963 616.794 C 529.79 620.781 531.693 622.327 533.627 622.057 C 536.489 621.66 538.567 617.519 539.964 613.441 C 540.312 612.425 540.639 611.469 540.971 610.621 C 542.544 606.582 544.301 604.314 546.498 603.487 C 548.252 602.827 550.954 602.993 552.636 604.272 C 554.275 605.519 556.085 608.67 557.937 612.695 C 560.299 617.829 562.975 623.645 566.217 623.658 C 566.219 623.658 566.222 623.658 566.222 623.658 C 567.255 623.658 569.341 622.548 571.828 619.417 C 581.939 606.684 581.365 567.906 568.308 565.278 C 562.9 564.192 556.8 567.02 555.285 567.568 Z " fill="rgb(127,34,186)"/></g><g><path d=" M 533.436 574.388 L 533.63 574.141 L 515.96 560.943 L 480.014 560.943 L 480.014 561.255 L 515.851 561.255 L 533.436 574.388 Z " fill="rgb(127,34,186)"/></g><g><path d=" M 480.014 616.74 L 515.96 616.74 L 516.002 616.708 L 533.63 603.542 L 533.436 603.292 L 515.851 616.425 L 480.014 616.425 L 480.014 616.74 Z " fill="rgb(127,34,186)"/></g><g><rect x="478.946" y="588.945" width="54.588" height="0.314" transform="matrix(1,0,0,1,0,0)" fill="rgb(127,34,186)"/></g></g><g><path d=" M 480.602 582.895 L 496.714 582.895 C 497.039 582.895 497.302 582.635 497.302 582.32 L 497.302 582.32 C 497.302 582.003 497.039 581.746 496.714 581.746 L 480.602 581.746 C 480.277 581.746 480.014 582.003 480.014 582.32 L 480.014 582.32 C 480.014 582.637 480.277 582.895 480.602 582.895 Z " fill="rgb(127,34,186)"/><path d=" M 480.602 585.195 L 496.714 585.195 C 497.039 585.195 497.302 584.938 497.302 584.621 L 497.302 584.621 C 497.302 584.303 497.039 584.046 496.714 584.046 L 480.602 584.046 C 480.277 584.046 480.014 584.306 480.014 584.621 L 480.014 584.621 C 480.014 584.935 480.277 585.195 480.602 585.195 Z " fill="rgb(127,34,186)"/></g><g><path d=" M 480.602 556.668 L 496.714 556.668 C 497.039 556.668 497.302 556.41 497.302 556.093 L 497.302 556.093 C 497.302 555.776 497.039 555.519 496.714 555.519 L 480.602 555.519 C 480.277 555.519 480.014 555.776 480.014 556.093 L 480.014 556.093 C 480.014 556.41 480.277 556.668 480.602 556.668 Z " fill="rgb(127,34,186)"/><path d=" M 480.602 558.968 L 496.714 558.968 C 497.039 558.968 497.302 558.711 497.302 558.394 L 497.302 558.394 C 497.302 558.076 497.039 557.819 496.714 557.819 L 480.602 557.819 C 480.277 557.819 480.014 558.079 480.014 558.394 L 480.014 558.394 C 480.014 558.708 480.277 558.968 480.602 558.968 Z " fill="rgb(127,34,186)"/></g><g><path d=" M 480.602 611.838 L 496.714 611.838 C 497.039 611.838 497.302 611.58 497.302 611.263 L 497.302 611.263 C 497.302 610.946 497.039 610.689 496.714 610.689 L 480.602 610.689 C 480.277 610.689 480.014 610.949 480.014 611.263 L 480.014 611.263 C 480.014 611.58 480.277 611.838 480.602 611.838 Z " fill="rgb(127,34,186)"/><path d=" M 480.602 614.138 L 496.714 614.138 C 497.039 614.138 497.302 613.878 497.302 613.564 L 497.302 613.564 C 497.302 613.246 497.039 612.989 496.714 612.989 L 480.602 612.989 C 480.277 612.989 480.014 613.246 480.014 613.564 L 480.014 613.564 C 480.014 613.878 480.277 614.138 480.602 614.138 Z " fill="rgb(127,34,186)"/></g></g><g><path d=" M 584.5 721.881 C 584.5 721.881 581.184 724.842 581.83 726.947 C 582.478 729.05 585.47 730.453 585.876 733.026 C 586.28 735.597 587.899 737 589.355 737 C 590.811 737 596.298 737 596.298 737 C 596.298 737 597.369 735.191 594.78 734.645 C 592.192 734.099 591.215 731.077 591.377 728.272 C 591.539 725.468 591.135 721.728 591.135 721.728 L 585.632 720.48 L 584.5 721.881 Z " fill="rgb(34,41,86)"/><path d=" M 584.5 720.023 C 585.106 721.777 591.783 724.348 591.783 724.348 C 591.783 724.348 595.421 718.739 607.075 698.633 C 608.077 696.899 609.126 694.999 610.205 692.977 C 621.647 671.478 636.444 635.749 636.444 635.749 L 608.164 628.035 C 608.164 628.035 606.83 639.138 606.589 644.749 C 606.44 648.178 604.447 655.504 601.915 661.903 C 600.305 665.976 598.471 669.672 596.76 671.748 C 588.956 681.211 584.5 720.023 584.5 720.023 Z " fill="rgb(249,121,90)"/><path d=" M 601.912 661.903 C 603.69 670.722 606.953 685.487 610.202 692.977 C 621.644 671.478 636.441 635.749 636.441 635.749 L 608.162 628.035 C 608.162 628.035 606.828 639.138 606.586 644.749 C 606.44 648.178 604.444 655.504 601.912 661.903 Z " fill="rgb(242,75,70)"/><g><path d=" M 647.325 623.177 L 649.549 623.063 C 649.549 623.063 652.19 618.756 656.521 622.114 C 656.521 622.114 658.232 623.658 657.05 624.651 C 655.868 625.644 656.189 625.043 654.55 626.489 C 652.91 627.934 650.814 628.277 649.482 627.224 L 647.761 626.829 L 647.325 623.177 Z " fill="rgb(255,163,159)"/><path d=" M 624.126 575.69 C 624.126 575.69 606.485 592.093 614.06 618.307 C 616.425 626.491 649.78 627.957 649.78 627.957 C 649.78 627.957 651.574 626.091 648.866 622.928 C 648.866 622.928 628.709 613.959 626.352 612.721 C 624.258 611.622 630.904 591.906 629.857 585.413 C 628.807 578.918 624.126 575.69 624.126 575.69 Z " fill="rgb(177,201,246)"/></g><path d=" M 625.196 729.541 C 625.196 729.541 624.601 736.28 626.057 736.982 L 644.694 736.945 C 644.694 736.945 644.694 734.84 641.7 734.375 C 638.705 733.907 633.447 732.194 632.557 728.374 C 631.669 724.553 625.196 729.541 625.196 729.541 Z " fill="rgb(34,41,86)"/><path d=" M 640.932 634.345 C 640.932 634.345 639.949 646.158 638.793 660.357 C 637.223 679.644 635.333 703.337 635.147 707.826 C 634.826 715.62 633.529 728.088 633.529 728.088 C 633.529 728.088 630.458 731.051 624.306 729.801 C 624.306 729.801 618.825 712.002 617.26 693.172 C 617.236 692.863 617.212 692.554 617.188 692.242 C 615.732 673.071 613.468 632.705 613.468 632.705 L 640.932 634.345 Z " fill="rgb(249,121,90)"/><path d=" M 615.161 569.822 C 615.161 569.822 626.222 576.938 633.133 574.838 C 633.133 574.838 631.212 571.992 629.381 569.718 C 629.621 568.361 629.807 567.184 629.913 566.186 C 630.205 563.88 630.205 562.575 630.205 562.575 L 625.579 559.017 L 621.192 555.613 C 621.54 565.187 615.161 569.822 615.161 569.822 Z " fill="rgb(255,163,159)"/><path d=" M 599.55 656.7 C 613.606 665.984 642.013 663.333 642.226 663.153 C 642.699 657.246 642.967 647.502 643.116 638.483 C 643.299 627.281 643.302 617.202 643.286 616.989 C 643.286 616.989 643.278 616.649 643.262 616.077 C 643.214 614.257 643.103 610.083 642.981 606.972 C 642.959 606.39 642.935 605.85 642.914 605.364 C 642.911 605.338 642.911 605.312 642.909 605.283 C 642.821 603.887 641.947 600.155 640.719 595.804 C 638.918 589.426 636.359 581.733 634.393 578.154 C 633.383 576.317 629.995 571.002 629.995 571.002 C 627.601 571.464 625.877 570.773 623.35 569.569 C 620.586 568.265 617.608 566.856 617.129 567.215 C 613.513 569.801 611.069 575.612 609.764 583.038 C 609.02 587.316 598.856 656.24 599.55 656.7 Z " fill="rgb(36,46,108)"/><path d=" M 621.115 559.272 C 621.115 559.272 624.144 564.673 629.913 566.186 C 630.205 563.88 630.205 562.575 630.205 562.575 L 625.579 559.017 L 621.115 559.272 Z " fill="rgb(255,125,120)"/><path d=" M 632.315 562.419 C 632.315 562.419 620.879 564.249 619.805 557.372 C 618.732 550.495 616.532 546.1 623.788 544.639 C 631.045 543.181 632.876 545.598 633.813 547.81 C 634.751 550.022 635.262 561.767 632.315 562.419 Z " fill="rgb(255,163,159)"/><path d=" M 615.647 543.818 C 615.543 543.701 615.304 543.608 614.77 543.579 C 614.77 543.579 615.195 543.319 615.766 543.303 C 615.878 542.578 616.271 541.294 617.547 540.985 C 617.547 540.985 616.861 541.341 616.771 542.113 C 618.248 540.629 621.413 539.548 630.179 540.226 C 641.729 541.118 637.924 548.353 636.428 549.214 C 634.932 550.077 631.167 547.711 628.382 547.927 C 625.595 548.143 625.066 552.08 624.12 552.621 C 623.174 553.162 623.546 552.205 622.268 551.641 C 620.99 551.075 620.868 553.149 621.237 554.495 C 621.607 555.844 619.85 557.622 619.85 557.622 C 619.85 557.622 619.85 557.622 618.075 555.75 C 616.3 553.879 614.626 545.957 615.434 544.268 C 615.503 544.12 615.575 543.969 615.647 543.818 Z " fill="rgb(38,45,90)"/><path d=" M 643.116 638.483 C 643.299 627.281 643.302 617.202 643.286 616.989 C 643.286 616.989 643.278 616.649 643.262 616.077 C 632.24 602.733 618.041 588.878 618.041 588.878 C 618.041 588.878 614.967 628.014 643.116 638.483 Z " fill="rgb(27,34,81)"/><g><path d=" M 554.897 666.381 L 771.168 576.278 C 772.796 575.599 773.562 573.741 772.868 572.148 L 772.14 570.474 C 771.447 568.881 769.547 568.132 767.918 568.811 L 551.648 658.914 C 550.019 659.593 549.253 661.451 549.947 663.044 L 550.675 664.718 C 551.369 666.311 553.268 667.06 554.897 666.381 Z " fill="rgb(198,67,219)"/><path d=" M 723.316 570.466 L 729.555 584.795 L 766.403 569.442 L 760.165 555.114 C 759.567 553.739 757.925 553.092 756.519 553.679 L 724.782 566.9 C 723.377 567.488 722.718 569.091 723.316 570.466 Z " fill="rgb(36,46,108)"/><g><path d=" M 712.645 561.801 C 714.483 565.528 718.063 569.286 724.785 566.9 C 736.702 562.674 757.194 551.756 763.475 552.504 C 763.475 552.504 763.467 552.489 763.457 552.455 C 763.412 552.338 763.284 552.023 763.058 551.584 C 761.382 548.325 754.268 538.095 734.909 549.31 C 719.853 558.03 710.835 556.054 710.835 556.054 C 710.835 556.054 710.835 556.057 710.838 556.06 L 710.835 556.062 C 710.835 556.065 710.835 556.065 710.838 556.067 C 710.838 556.073 710.841 556.078 710.841 556.083 C 710.843 556.096 710.846 556.114 710.849 556.138 C 710.923 556.629 711.364 559.207 712.645 561.801 Z " fill="rgb(102,21,178)"/><path d=" M 711.329 557.871 C 711.035 556.871 710.872 556.218 710.841 556.083 C 710.841 556.083 710.838 556.083 710.841 556.086 C 710.843 556.099 710.846 556.117 710.849 556.14 C 710.888 556.361 711.021 557.008 711.329 557.871 Z " fill="rgb(196,214,248)"/><linearGradient id="_lgradient_46" x1="0.000012619888945408775" y1="0.5000065033003622" x2="1.0000232205956578" y2="0.5000065033003622" gradientTransform="matrix(52.637,0,0,16.984,710.835,546.759)" gradientUnits="userSpaceOnUse"><stop offset="0%" stop-opacity="1" style="stop-color:rgb(249,121,90)"/><stop offset="100%" stop-opacity="1" style="stop-color:rgb(235,54,104)"/></linearGradient><path d=" M 763.473 552.507 C 763.473 552.507 757.258 542.667 745.936 548.736 C 734.614 554.807 716.365 561.343 710.835 556.057 C 710.835 556.057 715.392 566.711 726.828 562.931 C 738.267 559.15 755.879 546.235 763.473 552.507 Z " fill="url(#_lgradient_46)"/><g><linearGradient id="_lgradient_47" x1="-0.00005249210070523702" y1="0.5000766368418468" x2="0.9999887880949938" y2="0.5000766368418468" gradientTransform="matrix(52.138,0,0,15.928,711.337,551.721)" gradientUnits="userSpaceOnUse"><stop offset="0%" stop-opacity="1" style="stop-color:rgb(249,121,90)"/><stop offset="100%" stop-opacity="1" style="stop-color:rgb(235,54,104)"/></linearGradient><path d=" M 712.645 561.801 C 714.483 565.528 718.063 569.286 724.785 566.9 C 736.702 562.674 757.194 551.756 763.475 552.504 C 763.475 552.504 757.319 548.881 743.154 557.219 C 717.013 572.6 712.961 562.432 711.337 557.887 C 711.632 558.9 712.068 560.265 712.645 561.801 Z " fill="url(#_lgradient_47)"/><linearGradient id="_lgradient_48" x1="-0.000008079175923825233" y1="0.5001528415310155" x2="0.9999868713391251" y2="0.5001528415310155" gradientTransform="matrix(52.621,0,0,12.832,710.835,544.19)" gradientUnits="userSpaceOnUse"><stop offset="0%" stop-opacity="1" style="stop-color:rgb(249,121,90)"/><stop offset="100%" stop-opacity="1" style="stop-color:rgb(235,54,104)"/></linearGradient><path d=" M 710.835 556.057 C 721.153 560.291 736.976 549.435 748.423 546.058 C 759.397 542.825 763.164 551.717 763.457 552.455 C 763.412 552.338 763.284 552.023 763.058 551.584 C 761.382 548.325 754.268 538.095 734.909 549.31 C 719.851 558.03 710.835 556.057 710.835 556.057 Z " fill="url(#_lgradient_48)"/></g></g><path d=" M 723.316 570.466 L 726.068 576.787 C 737.502 564.273 755.188 557.993 760.653 556.242 L 760.162 555.114 C 759.564 553.739 757.922 553.092 756.516 553.679 L 724.78 566.9 C 723.377 567.488 722.718 569.091 723.316 570.466 Z " fill="rgb(27,34,81)"/></g><path d=" M 628.162 586.601 C 628.313 586.84 631.805 606.998 640.762 607.222 C 641.633 607.245 642.369 607.157 642.983 606.975 C 642.962 606.393 642.938 605.852 642.917 605.366 C 642.914 605.34 642.914 605.314 642.911 605.286 C 642.824 603.89 641.95 600.158 640.722 595.807 C 637.06 595.071 632.772 591.786 628.162 586.601 Z " fill="rgb(27,34,81)"/><path d=" M 617.098 567.217 C 617.098 567.217 618.16 564.197 619.027 563.857 C 619.027 563.857 631.063 566.573 635.078 579.584 C 635.078 579.584 630.394 571.599 617.098 567.217 Z " fill="rgb(27,34,81)"/><path d=" M 669.9 614.034 C 669.9 614.034 670.049 613.68 670.62 613.304 C 671.04 612.851 671.51 612.293 671.627 611.937 C 671.85 611.258 672.711 611.211 672.865 611.869 C 672.916 612.09 672.908 612.319 672.846 612.552 C 674.263 612.345 676.333 612.384 679.351 613.015 C 679.351 613.015 681.705 613.408 679.673 614.884 C 678.315 615.871 677.457 615.64 675.52 617.002 C 673.582 618.364 671.162 618.736 669.671 617.816 L 667.708 617.506 L 667.341 614.198 L 669.9 614.034 Z " fill="rgb(255,163,159)"/><path d=" M 614.451 577.278 C 614.451 577.278 610.423 597.943 634.573 613.912 C 641.094 618.224 670.062 618.71 670.062 618.71 C 670.062 618.71 670.925 615.201 668.994 613.719 C 668.994 613.719 644.235 605.143 641.814 605.566 C 639.667 605.941 628.321 585.226 623.884 581.159 C 619.449 577.091 614.451 577.278 614.451 577.278 Z " fill="rgb(36,46,108)"/></g><g><g><path d=" M 923.723 603.921 C 923.723 603.921 923.558 603.573 922.971 603.225 C 922.53 602.79 921.414 601.247 921.279 600.896 C 921.026 600.228 920.317 600.813 920.195 601.475 C 920.152 601.696 920.644 602.341 920.713 602.57 C 919.288 602.424 917.224 602.551 914.235 603.313 C 914.235 603.313 911.902 603.807 913.998 605.195 C 915.398 606.122 916.246 605.855 918.242 607.131 C 920.24 608.407 922.674 608.675 924.122 607.692 L 926.069 607.297 L 926.287 603.976 L 923.723 603.921 Z " fill="rgb(255,163,159)"/><path d=" M 976.355 567.706 C 976.355 567.706 983.854 585.221 960.445 602.213 C 954.126 606.801 925.206 608.534 925.206 608.534 C 925.206 608.534 924.186 605.067 926.048 603.503 C 926.048 603.503 946.452 596.475 950.302 595.672 C 952.436 595.227 956.18 578.526 960.426 574.271 C 964.677 570.016 976.355 567.706 976.355 567.706 Z " fill="rgb(27,34,81)"/></g><path d=" M 993.255 728.327 C 993.255 728.327 992.731 736.597 991.094 736.717 C 990.876 736.732 982.799 736.732 982.799 736.732 L 972.521 736.732 C 972.521 736.732 972.553 734.242 975.569 733.73 C 978.585 733.218 983.63 731.144 985.456 727.246 C 987.374 723.144 993.255 728.327 993.255 728.327 Z " fill="rgb(27,34,81)"/><path d=" M 993.85 729.096 C 993.85 729.096 990.714 730.123 988.267 730.123 C 985.536 730.123 983.054 729.395 983.054 729.395 C 983.054 729.395 982.464 723.812 979.214 711.509 C 977.511 705.06 975.08 696.769 971.62 686.467 C 962.055 657.994 959.145 641.337 958.879 639.762 C 958.866 639.679 958.861 639.637 958.861 639.637 L 958.893 639.624 L 988.304 626.993 C 988.304 626.993 984.669 666.233 989.306 681.297 C 989.954 683.402 990.512 685.856 990.991 688.512 C 993.919 704.871 993.85 729.096 993.85 729.096 Z " fill="rgb(102,21,178)"/><path d=" M 990.988 688.512 L 979.214 711.509 C 977.511 705.06 975.08 696.769 971.62 686.467 C 962.055 657.994 959.145 641.337 958.879 639.762 C 958.882 639.715 958.885 639.671 958.89 639.624 L 988.302 626.993 C 988.302 626.993 984.667 666.233 989.303 681.297 C 989.954 683.4 990.512 685.853 990.988 688.512 Z " fill="rgb(102,21,178)"/><path d=" M 970.927 728.327 C 970.927 728.327 970.403 736.597 968.767 736.717 C 968.549 736.732 960.468 736.732 960.468 736.732 L 950.156 736.673 C 950.156 736.673 950.225 734.242 953.238 733.728 C 956.252 733.213 961.3 731.142 963.126 727.243 C 965.047 723.144 970.927 728.327 970.927 728.327 Z " fill="rgb(27,34,81)"/><path d=" M 953.61 627.915 C 953.61 627.915 953.228 653.345 957.726 684.567 C 962.225 715.789 960.7 729.042 960.7 729.042 C 960.7 729.042 963.79 730.022 965.036 730.12 C 968.214 730.372 971.472 729.393 971.472 729.393 C 971.472 729.393 977.91 698.16 976.063 682.532 C 974.216 666.904 984.879 628.908 984.879 628.908 L 953.61 627.915 Z " fill="rgb(127,34,186)"/><path d=" M 974.463 568.41 L 968.724 572.091 L 960.429 570.578 C 960.543 569.923 961.09 567.207 961.59 564.748 C 961.619 564.603 961.651 564.457 961.677 564.317 C 962.105 562.225 962.475 560.426 962.475 560.426 L 970.223 557.081 L 973.111 555.834 C 973.103 555.878 972.888 558.154 972.856 558.487 C 972.314 564.397 974.463 568.41 974.463 568.41 Z " fill="rgb(255,163,159)"/><path d=" M 951.894 629.017 C 952.011 642.439 952.928 673.838 953.6 674.477 C 960.747 681.224 992.184 672.627 993.85 665.194 C 995.513 657.76 987.515 569.871 975.308 566.36 C 972.776 565.632 959.233 569.915 959.233 569.915 C 959.233 569.915 957.11 575.35 955.717 582.276 C 955.202 584.841 953.515 603.147 952.532 615.38 C 952.271 618.642 952.059 621.47 951.934 623.453 C 951.883 624.269 951.873 626.268 951.894 629.017 Z " fill="rgb(36,46,108)"/><path d=" M 972.274 558.596 C 970.573 561.416 964.234 563.854 961.59 564.748 C 961.619 564.603 961.651 564.457 961.677 564.317 C 962.105 562.225 962.475 560.426 962.475 560.426 L 970.223 557.081 C 971.934 557.06 972.978 557.437 972.274 558.596 Z " fill="rgb(255,147,143)"/><path d=" M 959.554 559.966 C 959.554 559.966 972.035 563.774 974.339 556.135 C 976.642 548.496 979.807 543.844 971.937 541.089 C 964.066 538.334 961.632 540.801 960.229 543.168 C 958.824 545.536 956.366 558.778 959.554 559.966 Z " fill="rgb(255,163,159)"/><path d=" M 960.718 542.433 C 960.718 542.433 961.515 551.322 963.394 550.937 C 965.272 550.552 966.978 550.264 966.702 552.943 C 966.426 555.623 963.822 558.716 969.612 559.191 C 975.404 559.664 983.729 545.055 982.14 542.29 C 977.548 534.306 954.081 532.697 960.718 542.433 Z " fill="rgb(242,75,70)"/><path d=" M 962.554 566.552 C 962.716 566.484 971.844 562.479 972.912 562.825 C 973.98 563.171 975.311 566.36 975.311 566.36 L 959.236 569.915 C 959.236 569.915 960.5 567.397 962.554 566.552 Z " fill="rgb(27,34,81)"/><path d=" M 909.412 599.31 L 935.3 663.231 C 935.808 664.484 937.272 665.103 938.553 664.606 L 942.629 663.026 C 943.909 662.53 944.542 661.097 944.034 659.845 L 918.146 595.924 C 917.638 594.671 916.174 594.052 914.894 594.549 L 910.818 596.129 C 909.537 596.626 908.902 598.058 909.412 599.31 Z " fill="rgb(198,67,219)"/><g><path d=" M 909.412 599.31 L 912.279 606.388 C 917.705 605.088 923.577 609.337 923.577 609.337 L 918.146 595.926 C 917.638 594.674 916.174 594.055 914.894 594.551 L 910.818 596.132 C 909.537 596.626 908.902 598.058 909.412 599.31 Z " fill="rgb(102,21,178)"/></g><path d=" M 923.938 635.182 L 935.3 663.231 C 935.808 664.484 937.272 665.103 938.553 664.606 L 942.629 663.026 C 943.909 662.53 944.542 661.097 944.034 659.845 L 932.672 631.796 L 923.938 635.182 Z " fill="rgb(127,34,186)"/><path d=" M 861.876 577.985 C 870.034 598.13 893.347 607.991 913.942 600.012 C 920.686 597.4 926.303 593.197 930.517 588.02 C 939.182 577.387 941.946 562.633 936.459 549.084 C 928.301 528.939 904.991 519.08 884.395 527.059 C 884.124 527.166 883.853 527.273 883.587 527.384 C 863.537 535.642 853.825 558.105 861.876 577.985 Z  M 886.449 532.128 C 891.046 530.347 895.797 529.601 900.439 529.768 C 902.392 529.84 904.324 530.077 906.215 530.462 C 917.192 532.705 926.837 540.13 931.277 551.09 C 935.066 560.449 934.288 570.471 929.978 578.796 C 926.303 585.904 920.059 591.776 911.891 594.939 C 900.686 599.282 888.546 597.488 879.355 591.204 C 874.003 587.542 869.648 582.359 867.063 575.974 C 860.037 558.633 868.716 539.002 886.449 532.128 Z " fill="rgb(198,67,219)"/><path d=" M 883.587 527.387 C 890.052 527.184 895.63 528.065 900.439 529.77 C 902.392 529.843 904.324 530.08 906.215 530.464 C 917.192 532.707 926.837 540.133 931.277 551.093 C 935.066 560.452 934.288 570.474 929.978 578.799 C 930.329 582.383 930.467 585.548 930.52 588.02 C 939.185 577.387 941.948 562.633 936.461 549.084 C 928.304 528.939 904.993 519.08 884.398 527.059 C 884.124 527.166 883.856 527.273 883.587 527.387 Z " fill="rgb(127,34,186)"/><g style="opacity:0.5;"><g style="opacity:0.5;"><g opacity="0.5"><path d=" M 867.06 575.979 C 869.646 582.365 874.001 587.547 879.352 591.212 C 888.543 597.496 900.683 599.29 911.888 594.947 C 929.622 588.075 938.303 568.444 931.275 551.095 C 926.837 540.135 917.189 532.71 906.213 530.464 C 899.817 529.154 892.972 529.601 886.447 532.13 C 868.716 539.002 860.037 558.633 867.06 575.979 Z " fill="rgb(237,236,252)"/></g></g><g style="opacity:0.5;"><g opacity="0.5"><path d=" M 867.06 575.979 C 869.646 582.365 874.001 587.547 879.352 591.212 C 885.745 592.519 892.59 592.072 899.116 589.543 C 916.849 582.671 925.53 563.038 918.505 545.695 C 915.919 539.311 911.567 534.126 906.215 530.467 C 899.82 529.157 892.975 529.604 886.449 532.133 C 868.716 539.002 860.037 558.633 867.06 575.979 Z " fill="rgb(192,211,248)"/></g></g><g style="opacity:0.5;"><g opacity="0.5"><path d=" M 893.522 536.369 C 876.086 543.127 867.477 562.251 874.293 579.082 C 875.324 581.629 876.652 583.979 878.22 586.107 C 875.22 583.201 872.773 579.656 871.118 575.571 C 864.711 559.755 872.627 541.853 888.795 535.59 C 894.62 533.331 900.723 532.894 906.449 533.999 C 902.155 533.963 897.771 534.721 893.522 536.369 Z " fill="rgb(239,236,234)"/></g></g></g><path d=" M 951.894 629.017 C 981.72 609.259 979.291 582.086 979.291 582.086 C 967.653 588.509 956.116 603.711 952.532 615.378 C 952.271 618.639 952.059 621.467 951.934 623.45 C 951.883 624.269 951.873 626.268 951.894 629.017 Z " fill="rgb(27,34,81)"/><g><path d=" M 925.913 620.331 C 925.913 620.331 925.671 620.03 925.017 619.819 C 924.488 619.495 923.056 618.429 922.841 618.12 C 922.161 617.142 921.656 617.894 922.06 618.855 C 922.148 619.063 922.543 619.476 922.666 619.684 C 921.247 619.858 919.262 620.443 916.53 621.849 C 916.53 621.849 914.373 622.85 916.738 623.734 C 918.319 624.326 919.079 623.877 921.321 624.674 C 923.564 625.475 925.998 625.192 927.177 623.916 L 928.982 623.097 L 928.421 619.814 L 925.913 620.331 Z " fill="rgb(255,163,159)"/><path d=" M 970.542 569.915 C 970.542 569.915 995.88 574.635 963.086 610.523 C 957.841 616.264 928.432 624.495 928.432 624.495 C 928.432 624.495 926.633 621.345 928.081 619.409 C 928.081 619.409 949.553 604.612 952 604.381 C 954.171 604.176 959.376 581.231 962.525 576.142 C 965.674 571.054 970.542 569.915 970.542 569.915 Z " fill="rgb(36,46,108)"/></g></g><path d=" M 748.197 543.795 L 745.16 545.427 L 748.588 544.702 C 748.975 544.671 749.353 544.842 749.576 545.157 L 752.222 550.609 L 750.556 544.788 C 750.514 544.421 750.703 544.068 751.035 543.891 L 754.795 541.895 L 750.782 542.771 C 750.32 542.872 749.844 542.672 749.6 542.277 L 747.671 538.724 L 748.625 542.76 C 748.694 543.158 748.529 543.558 748.197 543.795 Z " fill="rgb(255,255,255)"/><linearGradient id="_lgradient_49" x1="-0.000010018785225440752" y1="0.5000725002517372" x2="1.0000087664370625" y2="0.5000725002517372" gradientTransform="matrix(21.217,0,0,25.811,875.853,496.256)" gradientUnits="userSpaceOnUse"><stop offset="0%" stop-opacity="1" style="stop-color:rgb(249,121,90)"/><stop offset="100%" stop-opacity="1" style="stop-color:rgb(255,239,233)"/></linearGradient><path d=" M 882.057 508.294 L 875.853 514.49 L 883.699 510.231 C 884.626 509.869 885.681 510.023 886.462 510.628 L 897.07 522.067 L 888.583 509.012 C 888.203 508.146 888.397 507.14 889.074 506.472 L 896.772 498.86 L 887.605 503.912 C 886.55 504.495 885.235 504.352 884.334 503.559 L 876.921 496.256 L 882.312 505.454 C 882.788 506.374 882.687 507.473 882.057 508.294 Z " fill="url(#_lgradient_49)"/><path d=" M 688.864 674.1 L 683.552 679.408 L 690.269 675.761 C 691.064 675.452 691.967 675.582 692.634 676.102 L 701.716 685.895 L 694.449 674.719 C 694.125 673.978 694.289 673.118 694.871 672.544 L 701.464 666.025 L 693.614 670.35 C 692.711 670.846 691.584 670.727 690.814 670.049 L 684.466 663.795 L 689.081 671.67 C 689.488 672.455 689.403 673.399 688.864 674.1 Z " fill="rgb(236,235,252)"/><path d=" M 900.343 732.046 L 900.343 732.046 C 903.763 723.979 911.128 708.525 916.732 710.352 C 922.27 712.158 909.819 725.541 902.809 732.527 C 904.201 732.813 905.461 733.096 906.622 733.356 C 912.024 728.545 920.947 720.66 921.76 723.903 C 922.472 726.747 914.817 731.043 908.96 733.873 C 912.606 734.65 915.364 735.02 918.786 734.258 C 924.425 733.005 927.305 736.748 927.305 736.748 L 884.276 736.748 C 884.278 736.748 891.368 730.391 900.343 732.046 Z " fill="rgb(36,46,108)"/></g></g></g></g></g></svg>