<?xml version="1.0" encoding="UTF-8" standalone="no"?><!-- Generator: Gravit.io --><svg xmlns="http://www.w3.org/2000/svg" xmlns:xlink="http://www.w3.org/1999/xlink" style="isolation:isolate" viewBox="0 0 1024 1700" width="1024pt" height="1700pt"><defs><clipPath id="_clipPath_PmgzTwyw1v7zqHYlSNEjTBO3CV731UEN"><rect width="1024" height="1700"/></clipPath></defs><g clip-path="url(#_clipPath_PmgzTwyw1v7zqHYlSNEjTBO3CV731UEN)"><clipPath id="_clipPath_Nl7yOCEqqBFCT8dSgFVfGMzxe0ZvsOWj"><rect x="0" y="0" width="1024" height="1700" transform="matrix(1,0,0,1,0,0)" fill="rgb(255,255,255)"/></clipPath><g clip-path="url(#_clipPath_Nl7yOCEqqBFCT8dSgFVfGMzxe0ZvsOWj)"><g><g><rect x="0" y="6.809" width="1024" height="539.191" transform="matrix(1,0,0,1,0,0)" fill="rgb(255,255,255)"/><g><linearGradient id="_lgradient_86" x1="0.5000000389593185" y1="-1.0152469143154264e-15" x2="0.4970588588745256" y2="0.9203104879204393" gradientTransform="matrix(730.106,0,0,253.866,293.894,0)" gradientUnits="userSpaceOnUse"><stop offset="0%" stop-opacity="1" style="stop-color:rgb(102,21,178)"/><stop offset="26.427574723753157%" stop-opacity="1" style="stop-color:rgb(141,40,195)"/><stop offset="52.80298068687691%" stop-opacity="1" style="stop-color:rgb(172,55,208)"/><stop offset="74.7610615213078%" stop-opacity="1" style="stop-color:rgb(191,64,216)"/><stop offset="100%" stop-opacity="1" style="stop-color:rgb(198,67,219)"/></linearGradient><path d=" M 1024 0 L 1024 184.143 C 1024 184.143 622.94 329.57 428.089 200.366 C 414.054 191.059 413.548 191.119 403.627 184.143 C 352.203 147.984 330.579 113.106 293.894 0 L 1024 0 Z " fill="url(#_lgradient_86)"/><linearGradient id="_lgradient_87" x1="0.5000001708744501" y1="0.9999994762172522" x2="0.5000629637820041" y2="0.06330473681052806" gradientTransform="matrix(850,0,0,212.663,0,0)" gradientUnits="userSpaceOnUse"><stop offset="0%" stop-opacity="1" style="stop-color:rgb(249,121,90)"/><stop offset="5.300625792435835e-14%" stop-opacity="1" style="stop-color:rgb(238,67,101)"/><stop offset="4.2365818356992575%" stop-opacity="1" style="stop-color:rgb(246,106,93)"/><stop offset="32.16701235176558%" stop-opacity="1" style="stop-color:rgb(244,95,95)"/><stop offset="58.76852829037057%" stop-opacity="1" style="stop-color:rgb(241,83,98)"/><stop offset="100%" stop-opacity="1" style="stop-color:rgb(235,54,104)"/></linearGradient><path d=" M 0 166.021 C 0 166.021 217.303 260.201 404.784 180.902 C 433.162 168.899 461.027 153.915 488.381 135.949 C 710.12 -9.685 850 0.14 850 0.14 L 0 0 L 0 166.021 Z " fill="url(#_lgradient_87)"/></g></g><g><g><path d=" M 610.569 1671.061 C 613.024 1671.125 615.443 1670.848 617.76 1670.433 C 615.026 1668.246 609.267 1663.718 604.578 1660.532 C 598.185 1656.201 594.562 1648.901 603.578 1647.658 C 611.261 1646.598 617.3 1664.803 618.924 1670.215 C 619.975 1670.006 621.005 1669.775 622.001 1669.541 C 620.765 1665.692 618.059 1657.533 615.494 1651.844 C 612.032 1644.164 599.786 1631.191 612.032 1629.713 C 622.925 1628.393 625.816 1661.207 626.32 1668.507 C 628.507 1668.007 630.419 1667.661 631.933 1667.785 C 635.419 1668.063 638.751 1672.185 636.78 1674 L 600.003 1674 C 601.194 1672.915 604.271 1670.899 610.569 1671.061 Z " fill="rgb(36,46,108)"/><g><g><path d=" M 570.507 1252.279 C 573.221 1250.741 584.731 1254.099 584.731 1254.099 C 584.731 1254.099 613.688 1237.653 617.024 1235.424 C 620.879 1232.844 631.155 1202.055 638.692 1185.088 C 642.661 1176.152 654.588 1176.28 658.145 1185.421 C 658.786 1187.066 659.081 1188.886 658.857 1190.876 C 657.614 1201.905 631.835 1241.211 628.672 1244.543 C 622.913 1250.613 588.115 1260.023 588.115 1260.023 C 588.115 1260.023 581.281 1262.894 576.71 1263.244 C 572.143 1263.594 567.792 1253.817 570.507 1252.279 Z " fill="rgb(255,125,120)"/><path d=" M 628.621 1190.53 C 628.928 1186.869 631.206 1183.636 632.417 1182.154 C 625.451 1191.115 636.544 1208.821 636.544 1208.821 C 634.605 1199.231 664.824 1184.717 666.036 1173.124 C 667.247 1161.535 657.342 1160.817 654.801 1157.234 C 652.256 1153.65 657.452 1134.77 649.093 1127.243 C 640.73 1119.717 633.047 1124.616 633.047 1124.616 C 634.935 1122.464 638.586 1121.392 638.586 1121.392 C 629.317 1121.392 627.764 1128.32 627.539 1131.519 C 619.813 1133.758 617.221 1150.16 617.221 1150.16 L 641.383 1161.257 C 641.76 1162.095 642 1162.663 642.051 1162.872 C 642.492 1164.683 638.33 1174.828 633.247 1177.6 C 627.504 1180.731 628.621 1190.53 628.621 1190.53 Z  M 632.972 1181.504 C 633.098 1181.363 633.173 1181.291 633.173 1181.291 C 633.102 1181.359 633.039 1181.432 632.972 1181.504 Z " fill="rgb(242,75,70)"/><path d=" M 661.366 1386.284 L 667.358 1385.328 C 667.358 1385.328 687.499 1367.947 690.5 1335.518 C 690.807 1332.216 690.87 1328.867 690.642 1325.492 C 690.614 1325.104 690.654 1324.715 690.85 1324.386 C 690.85 1324.382 690.85 1324.382 690.858 1324.378 C 691.503 1323.305 693.108 1320.614 695.28 1316.791 C 697.42 1313.024 701.086 1305.903 705.118 1297.911 C 712.38 1283.521 720.838 1266.311 723.737 1260.826 C 732.978 1243.356 728.525 1231.609 728.525 1231.609 C 728.525 1231.609 702.746 1228.841 695.681 1222.131 L 693.136 1226.389 C 693.136 1226.389 687.55 1253.24 687.814 1253.364 C 687.538 1254.278 687.259 1255.205 686.976 1256.153 C 682.566 1270.928 677.499 1289.39 674.734 1304.43 C 673.18 1312.891 672.358 1320.264 672.798 1325.287 C 672.952 1327.009 672.767 1329.657 672.342 1332.925 C 669.844 1352.198 661.366 1386.284 661.366 1386.284 Z " fill="rgb(249,121,90)"/><path d=" M 648.802 1394.516 L 673.793 1394.516 C 673.793 1394.516 674.391 1390.381 673.085 1387.241 C 671.834 1384.23 670.052 1384.136 672.857 1379.416 C 671.268 1381.193 666.162 1381.928 662.55 1381.398 C 662.106 1382.175 659.695 1387.408 658.215 1388.561 C 656.587 1389.83 649.301 1389.377 648.802 1394.516 Z " fill="rgb(34,41,86)"/><path d=" M 686.972 1256.153 C 689.155 1269.228 694.312 1290.987 705.115 1297.911 C 712.376 1283.521 720.834 1266.311 723.733 1260.826 C 732.974 1243.356 728.521 1231.609 728.521 1231.609 C 728.521 1231.609 702.742 1228.841 695.677 1222.131 L 693.132 1226.389 C 693.132 1226.389 687.546 1253.24 687.81 1253.364 C 687.534 1254.278 687.255 1255.209 686.972 1256.153 Z " fill="rgb(242,75,70)"/><path d=" M 704.501 1233.629 L 704.414 1228.555 C 713.726 1229.832 736.526 1216.471 736.526 1216.471 C 736.526 1216.471 746.27 1223.506 747.604 1243.603 C 748.257 1253.411 752.376 1294.891 752.828 1307.279 C 752.993 1311.768 753.048 1314.972 753.068 1316.253 C 753.068 1316.257 753.068 1316.262 753.068 1316.266 C 753.072 1316.655 753.241 1317.001 753.465 1317.308 C 755.393 1319.969 757.065 1322.784 758.512 1325.706 C 772.725 1354.415 765.294 1393.426 765.294 1393.426 L 761.994 1392.517 C 761.994 1392.517 749.976 1352.074 742.124 1334.582 C 740.79 1331.613 739.579 1329.307 738.568 1327.97 C 735.614 1324.074 732.502 1317.462 729.433 1309.504 C 723.631 1294.456 718.002 1274.602 713.985 1259.229 C 713.694 1259.28 704.501 1233.629 704.501 1233.629 Z " fill="rgb(249,121,90)"/><path d=" M 650.002 1199.752 C 665.225 1195.959 655.501 1172.726 654.616 1173.136 C 652.507 1172.671 647.873 1168.647 643.727 1160.792 L 643.168 1161.317 L 633.818 1170.219 C 633.818 1170.219 635.981 1173.683 637.799 1177.071 C 639.219 1179.723 640.427 1182.342 640.238 1183.239 C 639.482 1183.888 645.938 1200.769 650.002 1199.752 Z " fill="rgb(255,163,159)"/><path d=" M 640.045 1181.974 C 640.045 1181.974 636.623 1187.22 634.538 1191.905 C 632.453 1196.591 626.78 1211.653 626.78 1211.653 C 626.78 1211.653 632.834 1221.862 643.047 1222.972 C 643.047 1222.972 649.769 1214.583 648.991 1205.903 C 648.212 1197.223 640.045 1181.974 640.045 1181.974 Z " fill="rgb(27,34,81)"/><path d=" M 633.818 1170.228 C 633.818 1170.228 635.981 1173.688 637.799 1177.079 C 643.613 1173.188 643.617 1165.371 643.172 1161.326 L 633.818 1170.228 Z " fill="rgb(255,125,120)"/><path d=" M 633.562 1174.687 C 633.562 1174.687 647.677 1166.157 642.649 1156.695 C 637.622 1147.23 636.06 1139.759 626.835 1144.804 C 617.61 1149.848 617.791 1154.547 618.763 1158.148 C 619.731 1161.749 629.758 1176.66 633.562 1174.687 Z " fill="rgb(255,163,159)"/><path d=" M 616.375 1152.625 C 617.02 1148.422 618.987 1148.02 620.356 1148.302 C 625.569 1138.939 634.085 1142.595 634.085 1142.595 C 638.633 1148.793 645.21 1149.853 645.21 1149.853 C 645.21 1149.853 643.574 1153.163 636.823 1155.209 C 634.762 1155.837 632.421 1155.457 630.163 1154.632 C 634.844 1157.469 639.742 1158.554 639.742 1158.554 C 630.848 1159.438 622.386 1150.609 621.509 1149.665 C 621.1 1151.031 620.38 1153.898 620.809 1155.991 C 621.395 1158.835 623.72 1163.991 622.3 1164.658 C 622.307 1164.658 615.407 1158.929 616.375 1152.625 Z " fill="rgb(242,75,70)"/><path d=" M 745.413 1394.516 L 770.404 1394.516 C 770.404 1394.516 771.002 1390.381 769.696 1387.241 C 768.445 1384.23 766.486 1382.863 766.954 1379.219 C 765.365 1380.992 762.777 1382.983 759.165 1382.457 C 758.721 1383.235 756.309 1387.408 754.83 1388.561 C 753.198 1389.83 745.916 1389.377 745.413 1394.516 Z " fill="rgb(34,41,86)"/><path d=" M 648.208 1218.171 C 651.426 1219.388 655.938 1220.059 660.552 1220.601 C 667.126 1221.379 673.911 1221.913 677.464 1223.455 C 678.16 1223.754 680.178 1224.672 682.204 1226.265 L 682.204 1226.27 C 682.204 1226.27 682.255 1226.304 682.346 1226.385 C 683.018 1226.915 683.687 1227.53 684.305 1228.222 C 685.249 1229.273 686.071 1230.507 686.598 1231.917 C 687.9 1235.415 686.177 1245.107 685.068 1250.408 C 684.623 1252.539 685.548 1254.744 687.338 1255.752 C 689.836 1257.153 692.29 1258.451 694.706 1259.634 C 694.831 1259.698 694.957 1259.758 695.087 1259.818 C 695.064 1259.28 695.056 1258.746 695.056 1258.221 C 695.052 1254.564 695.477 1251.523 695.477 1251.523 C 696.071 1255.213 698.309 1259.199 700.398 1262.266 C 733.938 1276.878 757.372 1270.527 756.986 1263.248 C 755.664 1237.974 739.964 1216.475 739.964 1216.475 C 710.689 1179.51 651.469 1169.779 651.469 1169.779 C 651.469 1169.779 648.633 1169.407 645.21 1173.875 C 640.285 1180.308 640.041 1181.983 640.041 1181.983 C 640.041 1181.983 638.747 1214.587 648.208 1218.171 Z " fill="rgb(36,46,108)"/><path d=" M 660.556 1220.601 C 667.126 1221.379 673.911 1221.913 677.468 1223.451 C 678.919 1199.885 668.679 1182.158 668.679 1182.158 C 668.679 1182.158 661.996 1211.683 660.556 1220.601 Z " fill="rgb(27,34,81)"/><g><path d=" M 587.694 1264.846 L 587.694 1264.846 C 588.484 1263.53 588.138 1261.749 586.926 1260.89 L 571.215 1249.767 C 570.003 1248.909 568.363 1249.285 567.572 1250.6 L 567.572 1250.6 C 566.781 1251.916 567.128 1253.697 568.339 1254.556 L 584.051 1265.679 C 585.262 1266.537 586.903 1266.161 587.694 1264.846 Z " fill="rgb(36,46,108)"/><g><path d=" M 570.109 1253.116 L 570.715 1252.108 L 556.864 1242.864 C 555.2 1241.686 553.115 1241.498 551.294 1242.365 L 545.13 1245.295 L 545.48 1245.897 L 551.392 1242.612 C 553.139 1241.784 555.133 1241.963 556.726 1243.091 L 570.109 1253.116 Z " fill="rgb(36,46,108)"/></g></g><path d=" M 606.733 1280.953 C 612.036 1280.672 617.772 1285.588 617.772 1285.588 C 617.772 1285.588 636.406 1251.335 639.29 1248.131 C 643.818 1243.099 648.216 1181.628 653.794 1177.6 C 653.794 1177.6 670.265 1179.369 671.583 1190.987 C 672.904 1202.606 655.792 1249.938 653.341 1254.227 C 648.88 1262.031 622.61 1288.775 622.61 1288.775 C 622.61 1288.775 619.923 1294.434 616.572 1293.853 C 613.22 1293.268 598.464 1282.538 598.464 1282.538 C 598.464 1282.538 601.431 1281.231 606.733 1280.953 Z " fill="rgb(255,163,159)"/><path d=" M 685.068 1250.399 C 684.623 1252.531 685.548 1254.735 687.338 1255.743 C 689.836 1257.144 692.29 1258.443 694.706 1259.626 C 694.831 1259.182 694.95 1258.712 695.056 1258.216 C 695.433 1256.371 695.61 1254.163 695.477 1251.519 C 694.918 1240.331 687.9 1231.857 684.305 1228.218 C 685.249 1229.268 686.071 1230.503 686.598 1231.912 C 687.9 1235.406 686.173 1245.103 685.068 1250.399 Z " fill="rgb(27,34,81)"/><path d=" M 651.473 1169.771 C 651.473 1169.771 648.896 1166.229 647.153 1166.345 C 647.153 1166.345 640.104 1177.058 640.049 1181.974 C 640.045 1181.974 648.837 1169.275 651.473 1169.771 Z " fill="rgb(27,34,81)"/><path d=" M 645.214 1199.799 C 645.214 1199.799 643.523 1169.839 664.643 1177.083 C 685.764 1184.328 661.366 1235.863 661.366 1235.863 C 661.366 1235.863 648.971 1235.197 644.573 1223.455 L 645.214 1199.799 Z " fill="rgb(36,46,108)"/></g><path d=" M 452.704 1536.24 C 455.773 1559.447 461.123 1580.689 469.325 1598.194 C 514.434 1694.426 541.266 1606.946 561.274 1567.127 C 580.101 1529.649 599.845 1515.168 629.451 1537.53 C 651.233 1553.971 658.204 1668.11 693.278 1673.466 C 721.684 1677.802 827.39 1571.604 802.485 1345.658 C 802.005 1341.306 801.112 1336.487 799.586 1331.554 C 792.343 1308.154 770.837 1282.282 711.413 1292.217 C 657.047 1301.307 653.294 1312.251 619.506 1295.579 C 585.715 1278.912 539.162 1227.367 497.184 1264.568 C 471.264 1287.544 438.908 1431.819 452.704 1536.24 Z " fill="rgb(133,169,221)"/><path d=" M 452.704 1536.236 C 455.816 1550.989 460.068 1564.573 465.631 1576.439 C 510.744 1672.676 537.573 1585.191 557.58 1545.372 C 576.403 1507.894 596.147 1493.414 625.761 1515.775 C 647.539 1532.216 654.514 1646.351 689.584 1651.707 C 717.27 1655.932 818.373 1555.167 800.439 1340.895 C 800.183 1337.803 799.896 1334.685 799.589 1331.545 C 792.347 1308.146 770.841 1282.273 711.42 1292.209 C 657.051 1301.299 653.302 1312.238 619.51 1295.575 C 585.719 1278.903 539.166 1227.363 497.192 1264.564 C 479.588 1280.163 459.026 1351.66 451.953 1428.636 C 448.605 1465.059 448.275 1502.704 452.704 1536.236 Z " fill="rgb(192,211,248)"/><path d=" M 499.127 1296.617 C 488.451 1317.428 490.76 1360.626 504.123 1362.881 C 517.49 1365.136 529.036 1327.351 543.93 1312.537 C 565.456 1291.128 550.212 1275.747 536.845 1273.491 C 523.478 1271.236 508.954 1277.459 499.127 1296.617 Z " fill="rgb(236,235,252)"/><path d=" M 451.725 1527.974 C 452.016 1530.755 452.346 1533.51 452.704 1536.236 C 455.816 1550.994 460.068 1564.573 465.631 1576.439 C 499.611 1648.926 523.214 1617.176 541.345 1580.074 C 541.349 1580.074 541.349 1580.07 541.349 1580.07 C 547.289 1567.922 552.639 1555.192 557.576 1545.368 C 568.178 1524.267 579.075 1510.453 591.852 1506.408 L 591.856 1506.408 C 598.61 1504.268 605.895 1504.857 613.948 1508.539 C 617.713 1510.261 621.643 1512.661 625.761 1515.771 C 639.624 1526.24 647.488 1576.294 660.426 1612.674 C 667.806 1633.446 676.842 1649.759 689.584 1651.703 C 712.408 1655.193 785.129 1587.323 799.912 1443.33 L 799.916 1443.326 C 801.576 1427.167 802.508 1410.051 802.556 1391.966 C 802.595 1378.053 802.111 1363.56 801.029 1348.494 C 800.852 1345.979 800.652 1343.441 800.439 1340.895 C 795.896 1347.046 790.762 1353.582 785.038 1360.305 C 748.1 1403.695 686.409 1454.804 597.784 1459.541 C 583.657 1460.297 568.847 1459.874 553.339 1458.054 C 522.337 1454.415 488.565 1445.188 451.949 1428.628 C 450.761 1441.536 449.954 1454.594 449.604 1467.571 L 449.604 1467.575 C 449.05 1488.249 449.651 1508.697 451.725 1527.974 Z " fill="rgb(177,201,246)"/><path d=" M 591.86 1506.412 C 598.614 1504.272 605.899 1504.861 613.952 1508.543 C 617.717 1510.265 621.646 1512.665 625.765 1515.775 C 634.86 1522.643 641.372 1546.548 648.43 1572.451 C 652.13 1586.034 655.98 1600.165 660.43 1612.678 C 667.81 1633.451 676.846 1649.763 689.588 1651.707 C 712.412 1655.197 785.133 1587.327 799.916 1443.335 C 785.203 1474.307 747.934 1590.385 685.823 1567.396 C 644.62 1552.147 648.802 1502.521 591.86 1506.412 Z " fill="rgb(154,192,239)"/><path d=" M 451.725 1527.974 C 452.016 1530.755 452.346 1533.51 452.704 1536.236 C 455.816 1550.994 460.367 1564.415 465.631 1576.439 C 511.629 1681.556 543.442 1574.905 561.569 1537.803 C 561.113 1538.615 529.858 1595.618 496.366 1576.101 C 468.408 1559.81 450.108 1519.658 449.608 1467.584 C 449.05 1488.249 449.651 1508.697 451.725 1527.974 Z " fill="rgb(154,192,239)"/><g><path d=" M 780.837 1393.555 C 780.837 1391.38 779.212 1389.62 777.21 1389.62 C 775.208 1389.62 773.587 1391.38 773.587 1393.555 C 773.587 1395.729 775.211 1397.489 777.21 1397.489 C 779.216 1397.489 780.837 1395.724 780.837 1393.555 Z " fill="rgb(239,236,234)"/><path d=" M 771.116 1373.688 C 771.116 1372.603 770.306 1371.719 769.303 1371.719 C 768.3 1371.719 767.489 1372.599 767.489 1373.688 C 767.489 1374.777 768.3 1375.657 769.303 1375.657 C 770.306 1375.657 771.116 1374.773 771.116 1373.688 Z " fill="rgb(239,236,234)"/><path d=" M 757.316 1397.489 C 757.316 1396.404 756.506 1395.519 755.503 1395.519 C 754.5 1395.519 753.689 1396.399 753.689 1397.489 C 753.689 1398.578 754.5 1399.458 755.503 1399.458 C 756.506 1399.458 757.316 1398.578 757.316 1397.489 Z " fill="rgb(239,236,234)"/></g></g><g><g><path d=" M 160.594 1603.315 C 160.594 1603.315 170.979 1590.159 161.235 1581.804 C 161.235 1581.804 154.118 1577.127 148.316 1577.507 C 148.316 1577.507 156.538 1592.478 153.878 1593.969 C 151.219 1595.46 145.822 1576.567 145.822 1576.567 C 145.822 1576.567 129.626 1574.863 124.414 1577.579 C 124.414 1577.579 138.261 1589.881 135.342 1590.616 C 132.427 1591.346 117.471 1579.271 117.471 1579.271 C 117.471 1579.271 102.396 1582.056 103.199 1592.043 C 104.001 1602.029 109.198 1605.109 111.48 1604.844 C 113.761 1604.58 127.117 1599.044 127.408 1601.077 C 127.699 1603.11 119.662 1609.748 114.033 1610.056 C 114.033 1610.056 124.662 1622.78 131.723 1619.107 C 138.784 1615.433 139.39 1609.611 143.792 1607.429 C 148.194 1605.246 151.955 1605.25 150.137 1607.48 C 148.32 1609.705 140.35 1611.871 137.832 1616.706 C 135.315 1621.542 133.057 1624.805 140.362 1623.609 C 147.671 1622.417 159.547 1616.608 160.07 1609.962 C 160.594 1603.315 160.594 1603.315 160.594 1603.315 Z " fill="rgb(27,34,81)"/><g><path d=" M 110.606 1592.312 C 110.606 1592.312 151.55 1590.599 160.59 1603.311 C 160.59 1603.311 162.588 1609.812 168.74 1615.737 L 169.7 1618.573 C 169.7 1618.573 162.604 1610.449 160.066 1609.957 C 160.07 1609.962 164.04 1594.213 110.606 1592.312 Z " fill="rgb(27,34,81)"/><path d=" M 168.744 1615.737 C 168.744 1615.737 177.533 1622.793 178.142 1635.403 L 176.549 1635.556 C 176.549 1635.556 173.744 1622.52 168.67 1617.42 C 163.595 1612.324 168.744 1615.737 168.744 1615.737 Z " fill="rgb(27,34,81)"/></g></g><g><path d=" M 196.899 1586.772 C 196.899 1586.772 180.381 1576.729 188.091 1563.095 C 188.091 1563.095 194.259 1554.723 200.864 1552.574 C 200.864 1552.574 197.339 1572.902 200.864 1573.38 C 204.389 1573.859 203.287 1550.421 203.287 1550.421 C 203.287 1550.421 220.687 1541.336 227.516 1542.049 C 227.516 1542.049 216.725 1561.899 220.246 1561.42 C 223.771 1560.942 235.883 1540.853 235.883 1540.853 C 235.883 1540.853 253.723 1537.265 256.587 1548.747 C 259.451 1560.224 254.825 1565.965 252.181 1566.683 C 249.537 1567.4 232.579 1567.161 233.019 1569.553 C 233.46 1571.945 244.911 1575.773 251.3 1573.62 C 251.3 1573.62 244.25 1592.513 235.002 1591.556 C 225.754 1590.599 222.89 1584.38 217.162 1583.901 C 211.434 1583.423 207.253 1585.097 210.113 1586.772 C 212.976 1588.446 222.665 1587.318 227.292 1591.59 C 231.918 1595.857 235.663 1598.488 227.071 1600.402 C 218.484 1602.316 203.063 1601.12 199.983 1593.944 C 196.899 1586.772 196.899 1586.772 196.899 1586.772 Z " fill="rgb(36,46,108)"/><g><path d=" M 248.436 1552.335 C 248.436 1552.335 202.186 1568.596 196.899 1586.772 C 196.899 1586.772 197.119 1594.905 192.493 1604.229 L 192.493 1607.817 C 192.493 1607.817 197.339 1595.622 199.983 1593.948 C 199.983 1593.944 189.629 1578.16 248.436 1552.335 Z " fill="rgb(27,34,81)"/><path d=" M 192.493 1604.229 C 192.493 1604.229 185.361 1615.989 189.429 1630.307 L 191.262 1629.773 C 191.262 1629.773 189.48 1614.002 193.213 1606.075 C 196.946 1598.142 192.493 1604.229 192.493 1604.229 Z " fill="rgb(27,34,81)"/></g></g><g><path d=" M 170.621 1572.919 C 170.621 1572.919 192.395 1559.678 182.234 1541.712 C 182.234 1541.712 174.102 1530.678 165.393 1527.842 C 165.393 1527.842 170.039 1554.637 165.393 1555.269 C 160.747 1555.902 162.199 1525.006 162.199 1525.006 C 162.199 1525.006 139.264 1513.028 130.264 1513.972 C 130.264 1513.972 144.488 1540.14 139.843 1539.507 C 135.197 1538.875 119.229 1512.396 119.229 1512.396 C 119.229 1512.396 95.713 1507.668 91.94 1522.797 C 88.168 1537.931 94.261 1545.496 97.747 1546.44 C 101.232 1547.384 123.584 1547.072 123.006 1550.225 C 122.424 1553.377 107.329 1558.422 98.911 1555.585 C 98.911 1555.585 108.203 1580.488 120.394 1579.228 C 132.589 1577.968 136.361 1569.771 143.91 1569.139 C 151.459 1568.511 156.974 1570.715 153.202 1572.923 C 149.429 1575.132 136.652 1573.645 130.559 1579.275 C 124.461 1584.905 119.528 1588.369 130.85 1590.894 C 142.171 1593.414 162.494 1591.838 166.561 1582.381 C 170.621 1572.919 170.621 1572.919 170.621 1572.919 Z " fill="rgb(36,46,108)"/><g><path d=" M 102.684 1527.522 C 102.684 1527.522 163.65 1548.956 170.621 1572.915 C 170.621 1572.915 170.33 1583.632 176.427 1595.925 L 176.427 1600.654 C 176.427 1600.654 170.039 1584.576 166.557 1582.368 C 166.553 1582.376 180.2 1561.57 102.684 1527.522 Z " fill="rgb(27,34,81)"/><path d=" M 176.427 1595.93 C 176.427 1595.93 185.829 1611.431 180.467 1630.307 L 178.048 1629.602 C 178.048 1629.602 180.396 1608.817 175.475 1598.36 C 170.558 1587.908 176.427 1595.93 176.427 1595.93 Z " fill="rgb(27,34,81)"/></g></g><path d=" M 128.466 1626.339 L 127.475 1626.339 L 127.475 1624.916 L 215.152 1624.916 L 215.152 1626.339 L 213.728 1626.339 C 213.205 1645.172 202.328 1661.177 187.064 1667.875 L 209.338 1667.875 C 212.245 1667.875 214.601 1670.433 214.601 1673.59 L 128.12 1673.59 C 128.12 1670.433 130.476 1667.875 133.383 1667.875 L 155.137 1667.875 C 139.866 1661.177 128.985 1645.172 128.466 1626.339 Z " fill="rgb(249,121,90)"/><path d=" M 171.537 1667.87 L 182.135 1667.87 C 197.383 1661.177 208.248 1645.189 208.779 1626.377 L 198.185 1626.377 C 197.654 1645.193 186.785 1661.173 171.537 1667.87 Z " fill="rgb(239,236,234)"/></g><g><g><g><path d=" M 299.804 1489.27 C 294.092 1489.245 290.107 1479.634 286.256 1470.343 C 283.734 1464.261 281.398 1458.195 279.336 1456.516 C 277.306 1454.859 273.325 1455.103 271.13 1456.021 C 268.282 1457.213 265.942 1460.651 263.766 1466.854 C 263.29 1468.216 262.806 1469.775 262.295 1471.428 C 259.99 1478.899 257.374 1487.37 252.268 1488.16 C 248.778 1488.698 244.86 1485.473 240.277 1478.301 C 237.74 1474.324 235.631 1469.194 234.018 1463.048 C 227.122 1436.795 230.777 1399.061 236.812 1392.038 L 236.812 1392.038 C 244.368 1383.243 254.427 1388.134 262.511 1392.068 C 264.99 1393.273 267.326 1394.409 269.407 1395.088 C 275.634 1397.113 277.676 1396.293 283.136 1394.097 C 285.398 1393.187 288.211 1392.055 292.105 1390.804 C 307.345 1385.9 313.761 1391.923 316.46 1397.843 C 316.971 1398.967 317.384 1400.18 317.691 1401.444 C 322.042 1419.611 322.962 1436.65 320.421 1452.087 C 317.821 1467.896 312.302 1477.43 309.245 1481.706 C 305.854 1486.447 302.333 1489.275 299.82 1489.275 C 299.816 1489.27 299.808 1489.27 299.804 1489.27 Z  M 283.636 1395.541 C 278.014 1397.8 275.686 1398.736 269.002 1396.562 C 266.831 1395.857 264.451 1394.699 261.929 1393.473 C 253.861 1389.548 244.719 1385.101 237.854 1393.089 C 232.162 1399.71 228.739 1437.299 235.391 1462.62 C 236.965 1468.601 239.254 1472.607 241.705 1476.443 C 245.891 1482.996 248.707 1485.537 251.571 1485.093 C 255.808 1484.439 258.884 1477.635 260.953 1470.933 C 261.469 1469.263 261.953 1467.691 262.444 1466.298 C 264.773 1459.66 267.373 1455.931 270.627 1454.573 C 273.223 1453.488 277.224 1453.761 279.714 1455.863 C 282.141 1457.913 284.82 1463.09 287.562 1469.707 C 291.059 1478.143 295.02 1487.703 299.82 1487.724 C 299.824 1487.724 299.828 1487.724 299.828 1487.724 C 301.358 1487.724 304.446 1485.9 308.128 1480.753 C 323.096 1459.827 322.246 1396.096 302.916 1391.778 C 294.91 1389.992 285.878 1394.639 283.636 1395.541 Z " fill="rgb(127,34,186)"/></g><g><path d=" M 251.288 1406.749 L 251.575 1406.343 L 225.415 1384.653 L 172.198 1384.653 L 172.198 1385.165 L 225.254 1385.165 L 251.288 1406.749 Z " fill="rgb(127,34,186)"/></g><g><path d=" M 172.198 1476.353 L 225.415 1476.353 L 225.478 1476.302 L 251.575 1454.663 L 251.288 1454.253 L 225.254 1475.836 L 172.198 1475.836 L 172.198 1476.353 Z " fill="rgb(127,34,186)"/></g><g><rect x="170.617" y="1430.674" width="80.817" height="0.517" transform="matrix(1,0,0,1,0,0)" fill="rgb(127,34,186)"/></g></g><g><path d=" M 173.068 1420.73 L 196.922 1420.73 C 197.402 1420.73 197.792 1420.303 197.792 1419.786 L 197.792 1419.786 C 197.792 1419.265 197.402 1418.842 196.922 1418.842 L 173.068 1418.842 C 172.588 1418.842 172.198 1419.265 172.198 1419.786 L 172.198 1419.786 C 172.198 1420.307 172.588 1420.73 173.068 1420.73 Z " fill="rgb(127,34,186)"/><path d=" M 173.068 1424.51 L 196.922 1424.51 C 197.402 1424.51 197.792 1424.087 197.792 1423.566 L 197.792 1423.566 C 197.792 1423.045 197.402 1422.622 196.922 1422.622 L 173.068 1422.622 C 172.588 1422.622 172.198 1423.049 172.198 1423.566 L 172.198 1423.566 C 172.198 1424.083 172.588 1424.51 173.068 1424.51 Z " fill="rgb(127,34,186)"/></g><g><path d=" M 173.068 1377.626 L 196.922 1377.626 C 197.402 1377.626 197.792 1377.203 197.792 1376.682 L 197.792 1376.682 C 197.792 1376.161 197.402 1375.738 196.922 1375.738 L 173.068 1375.738 C 172.588 1375.738 172.198 1376.161 172.198 1376.682 L 172.198 1376.682 C 172.198 1377.203 172.588 1377.626 173.068 1377.626 Z " fill="rgb(127,34,186)"/><path d=" M 173.068 1381.406 L 196.922 1381.406 C 197.402 1381.406 197.792 1380.984 197.792 1380.462 L 197.792 1380.462 C 197.792 1379.941 197.402 1379.518 196.922 1379.518 L 173.068 1379.518 C 172.588 1379.518 172.198 1379.946 172.198 1380.462 L 172.198 1380.462 C 172.198 1380.979 172.588 1381.406 173.068 1381.406 Z " fill="rgb(127,34,186)"/></g><g><path d=" M 173.068 1468.297 L 196.922 1468.297 C 197.402 1468.297 197.792 1467.874 197.792 1467.353 L 197.792 1467.353 C 197.792 1466.832 197.402 1466.409 196.922 1466.409 L 173.068 1466.409 C 172.588 1466.409 172.198 1466.836 172.198 1467.353 L 172.198 1467.353 C 172.198 1467.874 172.588 1468.297 173.068 1468.297 Z " fill="rgb(127,34,186)"/><path d=" M 173.068 1472.078 L 196.922 1472.078 C 197.402 1472.078 197.792 1471.65 197.792 1471.134 L 197.792 1471.134 C 197.792 1470.612 197.402 1470.19 196.922 1470.19 L 173.068 1470.19 C 172.588 1470.19 172.198 1470.612 172.198 1471.134 L 172.198 1471.134 C 172.198 1471.65 172.588 1472.078 173.068 1472.078 Z " fill="rgb(127,34,186)"/></g></g><g><path d=" M 326.888 1649.153 C 326.888 1649.153 321.979 1654.018 322.935 1657.478 C 323.895 1660.933 328.324 1663.24 328.926 1667.469 C 329.524 1671.693 331.92 1674 334.076 1674 C 336.231 1674 344.355 1674 344.355 1674 C 344.355 1674 345.94 1671.027 342.108 1670.13 C 338.277 1669.233 336.829 1664.265 337.069 1659.656 C 337.309 1655.047 336.711 1648.901 336.711 1648.901 L 328.564 1646.85 L 326.888 1649.153 Z " fill="rgb(34,41,86)"/><path d=" M 326.888 1646.099 C 327.785 1648.982 337.671 1653.206 337.671 1653.206 C 337.671 1653.206 343.056 1643.988 360.31 1610.944 C 361.793 1608.095 363.347 1604.973 364.944 1601.649 C 381.883 1566.315 403.791 1507.595 403.791 1507.595 L 361.923 1494.917 C 361.923 1494.917 359.948 1513.165 359.59 1522.387 C 359.37 1528.021 356.42 1540.063 352.671 1550.579 C 350.287 1557.273 347.572 1563.347 345.039 1566.76 C 333.485 1582.312 326.888 1646.099 326.888 1646.099 Z " fill="rgb(249,121,90)"/><path d=" M 352.667 1550.579 C 355.299 1565.072 360.129 1589.339 364.94 1601.649 C 381.879 1566.315 403.787 1507.595 403.787 1507.595 L 361.919 1494.917 C 361.919 1494.917 359.944 1513.165 359.586 1522.387 C 359.37 1528.021 356.416 1540.063 352.667 1550.579 Z " fill="rgb(242,75,70)"/><g><path d=" M 419.9 1486.934 L 423.193 1486.746 C 423.193 1486.746 427.103 1479.668 433.515 1485.187 C 433.515 1485.187 436.048 1487.724 434.298 1489.356 C 432.547 1490.987 433.023 1490.001 430.596 1492.376 C 428.169 1494.751 425.065 1495.315 423.094 1493.585 L 420.545 1492.935 L 419.9 1486.934 Z " fill="rgb(255,163,159)"/><path d=" M 385.554 1408.889 C 385.554 1408.889 359.437 1435.847 370.652 1478.929 C 374.153 1492.38 423.535 1494.789 423.535 1494.789 C 423.535 1494.789 426.19 1491.722 422.182 1486.524 C 422.182 1486.524 392.339 1471.783 388.85 1469.75 C 385.75 1467.943 395.589 1435.539 394.039 1424.869 C 392.485 1414.194 385.554 1408.889 385.554 1408.889 Z " fill="rgb(177,201,246)"/></g><path d=" M 387.139 1661.741 C 387.139 1661.741 386.258 1672.817 388.414 1673.97 L 416.005 1673.91 C 416.005 1673.91 416.005 1670.45 411.572 1669.686 C 407.139 1668.917 399.354 1666.102 398.036 1659.823 C 396.722 1653.544 387.139 1661.741 387.139 1661.741 Z " fill="rgb(34,41,86)"/><path d=" M 410.435 1505.288 C 410.435 1505.288 408.98 1524.702 407.268 1548.038 C 404.943 1579.736 402.147 1618.676 401.871 1626.052 C 401.395 1638.863 399.475 1659.353 399.475 1659.353 C 399.475 1659.353 394.928 1664.223 385.821 1662.168 C 385.821 1662.168 377.706 1632.917 375.389 1601.97 C 375.353 1601.461 375.318 1600.953 375.282 1600.44 C 373.127 1568.934 369.775 1502.593 369.775 1502.593 L 410.435 1505.288 Z " fill="rgb(249,121,90)"/><path d=" M 372.281 1399.244 C 372.281 1399.244 388.657 1410.94 398.889 1407.488 C 398.889 1407.488 396.045 1402.811 393.335 1399.073 C 393.689 1396.844 393.964 1394.909 394.122 1393.268 C 394.554 1389.48 394.554 1387.335 394.554 1387.335 L 387.705 1381.488 L 381.211 1375.892 C 381.726 1391.628 372.281 1399.244 372.281 1399.244 Z " fill="rgb(255,163,159)"/><path d=" M 349.17 1542.028 C 369.98 1557.285 412.036 1552.929 412.351 1552.634 C 413.051 1542.925 413.448 1526.911 413.669 1512.089 C 413.94 1493.679 413.944 1477.114 413.92 1476.763 C 413.92 1476.763 413.909 1476.204 413.885 1475.264 C 413.814 1472.274 413.649 1465.414 413.468 1460.301 C 413.437 1459.344 413.401 1458.456 413.37 1457.657 C 413.366 1457.614 413.366 1457.572 413.362 1457.525 C 413.232 1455.231 411.938 1449.097 410.12 1441.946 C 407.453 1431.464 403.665 1418.82 400.754 1412.939 C 399.259 1409.919 394.243 1401.183 394.243 1401.183 C 390.699 1401.944 388.146 1400.808 384.405 1398.83 C 380.314 1396.686 375.904 1394.37 375.196 1394.96 C 369.842 1399.21 366.223 1408.761 364.291 1420.965 C 363.19 1427.996 348.143 1541.272 349.17 1542.028 Z " fill="rgb(36,46,108)"/><path d=" M 381.097 1381.906 C 381.097 1381.906 385.581 1390.782 394.122 1393.268 C 394.554 1389.48 394.554 1387.335 394.554 1387.335 L 387.705 1381.488 L 381.097 1381.906 Z " fill="rgb(255,125,120)"/><path d=" M 397.678 1387.079 C 397.678 1387.079 380.746 1390.086 379.157 1378.784 C 377.568 1367.481 374.311 1360.258 385.054 1357.858 C 395.797 1355.461 398.508 1359.434 399.896 1363.069 C 401.285 1366.704 402.04 1386.007 397.678 1387.079 Z " fill="rgb(255,163,159)"/><path d=" M 373.001 1356.508 C 372.847 1356.316 372.493 1356.162 371.703 1356.115 C 371.703 1356.115 372.332 1355.688 373.178 1355.662 C 373.343 1354.47 373.925 1352.36 375.813 1351.852 C 375.813 1351.852 374.799 1352.437 374.665 1353.706 C 376.852 1351.267 381.537 1349.49 394.515 1350.605 C 411.615 1352.07 405.982 1363.962 403.767 1365.375 C 401.553 1366.794 395.978 1362.907 391.856 1363.261 C 387.729 1363.616 386.946 1370.087 385.546 1370.975 C 384.145 1371.864 384.696 1370.292 382.804 1369.365 C 380.912 1368.434 380.731 1371.842 381.278 1374.055 C 381.824 1376.272 379.224 1379.194 379.224 1379.194 C 379.224 1379.194 379.224 1379.194 376.596 1376.118 C 373.968 1373.043 371.49 1360.023 372.686 1357.247 C 372.788 1357.003 372.895 1356.756 373.001 1356.508 Z " fill="rgb(38,45,90)"/><path d=" M 413.669 1512.089 C 413.94 1493.679 413.944 1477.114 413.92 1476.763 C 413.92 1476.763 413.909 1476.204 413.885 1475.264 C 397.568 1453.334 376.545 1430.563 376.545 1430.563 C 376.545 1430.563 371.994 1494.883 413.669 1512.089 Z " fill="rgb(27,34,81)"/><g><path d=" M 283.062 1557.939 L 603.248 1409.855 C 605.659 1408.74 606.792 1405.686 605.766 1403.067 L 604.688 1400.316 C 603.661 1397.698 600.848 1396.468 598.437 1397.583 L 278.25 1545.667 C 275.839 1546.782 274.706 1549.836 275.733 1552.454 L 276.811 1555.205 C 277.837 1557.824 280.65 1559.054 283.062 1557.939 Z " fill="rgb(198,67,219)"/><path d=" M 532.404 1400.304 L 541.64 1423.852 L 596.195 1398.621 L 586.958 1375.072 C 586.073 1372.812 583.642 1371.749 581.561 1372.714 L 534.575 1394.443 C 532.494 1395.408 531.518 1398.044 532.404 1400.304 Z " fill="rgb(36,46,108)"/><g><path d=" M 516.605 1386.062 C 519.328 1392.188 524.626 1398.364 534.579 1394.443 C 552.222 1387.498 582.56 1369.553 591.86 1370.783 C 591.86 1370.783 591.848 1370.758 591.832 1370.702 C 591.765 1370.51 591.576 1369.993 591.242 1369.271 C 588.76 1363.915 578.229 1347.102 549.567 1365.533 C 527.278 1379.864 513.926 1376.618 513.926 1376.618 C 513.926 1376.618 513.926 1376.622 513.93 1376.627 L 513.926 1376.631 C 513.926 1376.635 513.926 1376.635 513.93 1376.639 C 513.93 1376.648 513.934 1376.656 513.934 1376.665 C 513.938 1376.686 513.942 1376.716 513.946 1376.755 C 514.056 1377.562 514.709 1381.799 516.605 1386.062 Z " fill="rgb(102,21,178)"/><path d=" M 514.658 1379.604 C 514.221 1377.959 513.981 1376.887 513.934 1376.665 C 513.934 1376.665 513.93 1376.665 513.934 1376.669 C 513.938 1376.691 513.942 1376.721 513.946 1376.759 C 514.005 1377.122 514.202 1378.186 514.658 1379.604 Z " fill="rgb(196,214,248)"/><linearGradient id="_lgradient_88" x1="0.000012619888945408775" y1="0.5000065033003622" x2="1.0000232205956578" y2="0.5000065033003622" gradientTransform="matrix(77.929,0,0,27.913,513.926,1361.34)" gradientUnits="userSpaceOnUse"><stop offset="0%" stop-opacity="1" style="stop-color:rgb(249,121,90)"/><stop offset="100%" stop-opacity="1" style="stop-color:rgb(235,54,104)"/></linearGradient><path d=" M 591.856 1370.787 C 591.856 1370.787 582.654 1354.616 565.892 1364.589 C 549.13 1374.568 522.113 1385.311 513.926 1376.622 C 513.926 1376.622 520.673 1394.131 537.604 1387.92 C 554.539 1381.705 580.613 1360.48 591.856 1370.787 Z " fill="url(#_lgradient_88)"/><g><linearGradient id="_lgradient_89" x1="-0.00005249210070523702" y1="0.5000766368418468" x2="0.9999887880949938" y2="0.5000766368418468" gradientTransform="matrix(77.19,0,0,26.177,514.67,1369.496)" gradientUnits="userSpaceOnUse"><stop offset="0%" stop-opacity="1" style="stop-color:rgb(249,121,90)"/><stop offset="100%" stop-opacity="1" style="stop-color:rgb(235,54,104)"/></linearGradient><path d=" M 516.605 1386.062 C 519.328 1392.188 524.626 1398.364 534.579 1394.443 C 552.222 1387.498 582.56 1369.553 591.86 1370.783 C 591.86 1370.783 582.745 1364.829 561.774 1378.532 C 523.073 1403.81 517.073 1387.1 514.67 1379.629 C 515.107 1381.295 515.752 1383.538 516.605 1386.062 Z " fill="url(#_lgradient_89)"/><linearGradient id="_lgradient_90" x1="-0.000008079175923825233" y1="0.5001528415310155" x2="0.9999868713391251" y2="0.5001528415310155" gradientTransform="matrix(77.906,0,0,21.09,513.926,1357.12)" gradientUnits="userSpaceOnUse"><stop offset="0%" stop-opacity="1" style="stop-color:rgb(249,121,90)"/><stop offset="100%" stop-opacity="1" style="stop-color:rgb(235,54,104)"/></linearGradient><path d=" M 513.926 1376.622 C 529.201 1383.581 552.627 1365.739 569.574 1360.19 C 585.821 1354.876 591.399 1369.489 591.832 1370.702 C 591.765 1370.51 591.576 1369.993 591.242 1369.271 C 588.76 1363.915 578.229 1347.102 549.567 1365.533 C 527.274 1379.864 513.926 1376.622 513.926 1376.622 Z " fill="url(#_lgradient_90)"/></g></g><path d=" M 532.404 1400.304 L 536.479 1410.692 C 553.406 1390.125 579.59 1379.805 587.682 1376.926 L 586.954 1375.072 C 586.069 1372.812 583.638 1371.749 581.557 1372.714 L 534.571 1394.443 C 532.494 1395.408 531.518 1398.044 532.404 1400.304 Z " fill="rgb(27,34,81)"/></g><path d=" M 391.529 1426.821 C 391.753 1427.214 396.922 1460.344 410.183 1460.711 C 411.474 1460.75 412.563 1460.604 413.472 1460.305 C 413.441 1459.348 413.405 1458.46 413.374 1457.661 C 413.37 1457.619 413.37 1457.576 413.366 1457.529 C 413.236 1455.235 411.942 1449.101 410.124 1441.951 C 404.704 1440.742 398.354 1435.343 391.529 1426.821 Z " fill="rgb(27,34,81)"/><path d=" M 375.149 1394.964 C 375.149 1394.964 376.722 1390.001 378.005 1389.441 C 378.005 1389.441 395.825 1393.905 401.769 1415.288 C 401.769 1415.288 394.834 1402.166 375.149 1394.964 Z " fill="rgb(27,34,81)"/><path d=" M 453.322 1471.907 C 453.322 1471.907 453.542 1471.326 454.388 1470.706 C 455.009 1469.963 455.706 1469.045 455.879 1468.46 C 456.209 1467.345 457.484 1467.268 457.712 1468.349 C 457.787 1468.712 457.775 1469.088 457.684 1469.472 C 459.781 1469.13 462.846 1469.194 467.314 1470.232 C 467.314 1470.232 470.8 1470.877 467.79 1473.303 C 465.78 1474.927 464.51 1474.546 461.642 1476.785 C 458.774 1479.023 455.19 1479.634 452.983 1478.122 L 450.076 1477.613 L 449.533 1472.176 L 453.322 1471.907 Z " fill="rgb(255,163,159)"/><path d=" M 371.231 1411.499 C 371.231 1411.499 365.267 1445.462 401.021 1471.706 C 410.675 1478.792 453.562 1479.591 453.562 1479.591 C 453.562 1479.591 454.84 1473.825 451.98 1471.39 C 451.98 1471.39 415.325 1457.294 411.741 1457.99 C 408.563 1458.605 391.765 1424.561 385.196 1417.876 C 378.63 1411.192 371.231 1411.499 371.231 1411.499 Z " fill="rgb(36,46,108)"/></g><g><g><path d=" M 829.105 1455.286 C 829.105 1455.286 828.861 1454.714 827.992 1454.142 C 827.339 1453.428 825.686 1450.891 825.486 1450.314 C 825.112 1449.216 824.062 1450.178 823.881 1451.267 C 823.818 1451.63 824.546 1452.689 824.648 1453.065 C 822.539 1452.826 819.483 1453.035 815.057 1454.287 C 815.057 1454.287 811.603 1455.098 814.707 1457.379 C 816.78 1458.904 818.035 1458.464 820.989 1460.562 C 823.948 1462.659 827.551 1463.099 829.695 1461.484 L 832.579 1460.835 L 832.901 1455.376 L 829.105 1455.286 Z " fill="rgb(255,163,159)"/><path d=" M 907.026 1395.767 C 907.026 1395.767 918.128 1424.553 883.471 1452.48 C 874.116 1460.019 831.3 1462.868 831.3 1462.868 C 831.3 1462.868 829.789 1457.17 832.547 1454.599 C 832.547 1454.599 862.755 1443.048 868.455 1441.729 C 871.614 1440.998 877.157 1413.549 883.443 1406.557 C 889.737 1399.565 907.026 1395.767 907.026 1395.767 Z " fill="rgb(27,34,81)"/></g><path d=" M 932.045 1659.746 C 932.045 1659.746 931.271 1673.338 928.847 1673.534 C 928.525 1673.56 916.566 1673.56 916.566 1673.56 L 901.35 1673.56 C 901.35 1673.56 901.397 1669.468 905.862 1668.626 C 910.327 1667.785 917.797 1664.376 920.5 1657.969 C 923.34 1651.229 932.045 1659.746 932.045 1659.746 Z " fill="rgb(27,34,81)"/><path d=" M 932.927 1661.01 C 932.927 1661.01 928.285 1662.698 924.662 1662.698 C 920.618 1662.698 916.944 1661.502 916.944 1661.502 C 916.944 1661.502 916.07 1652.326 911.259 1632.105 C 908.738 1621.508 905.138 1607.881 900.016 1590.949 C 885.854 1544.155 881.547 1516.779 881.154 1514.19 C 881.134 1514.054 881.126 1513.985 881.126 1513.985 L 881.173 1513.964 L 924.717 1493.204 C 924.717 1493.204 919.335 1557.696 926.2 1582.453 C 927.16 1585.913 927.986 1589.945 928.694 1594.311 C 933.029 1621.196 932.927 1661.01 932.927 1661.01 Z " fill="rgb(102,21,178)"/><path d=" M 928.69 1594.311 L 911.259 1632.105 C 908.738 1621.508 905.138 1607.881 900.016 1590.949 C 885.854 1544.155 881.547 1516.779 881.154 1514.19 C 881.157 1514.113 881.161 1514.041 881.169 1513.964 L 924.713 1493.204 C 924.713 1493.204 919.331 1557.696 926.196 1582.453 C 927.16 1585.909 927.986 1589.941 928.69 1594.311 Z " fill="rgb(102,21,178)"/><path d=" M 898.99 1659.746 C 898.99 1659.746 898.215 1673.338 895.791 1673.534 C 895.469 1673.56 883.506 1673.56 883.506 1673.56 L 868.239 1673.462 C 868.239 1673.462 868.341 1669.468 872.802 1668.622 C 877.263 1667.776 884.737 1664.372 887.44 1657.965 C 890.284 1651.229 898.99 1659.746 898.99 1659.746 Z " fill="rgb(27,34,81)"/><path d=" M 873.353 1494.721 C 873.353 1494.721 872.786 1536.513 879.446 1587.827 C 886.106 1639.14 883.848 1660.921 883.848 1660.921 C 883.848 1660.921 888.423 1662.531 890.268 1662.693 C 894.973 1663.108 899.796 1661.497 899.796 1661.497 C 899.796 1661.497 909.328 1610.167 906.594 1584.482 C 903.86 1558.798 919.646 1496.353 919.646 1496.353 L 873.353 1494.721 Z " fill="rgb(127,34,186)"/><path d=" M 904.225 1396.925 L 895.728 1402.973 L 883.447 1400.487 C 883.616 1399.411 884.426 1394.947 885.166 1390.906 C 885.209 1390.667 885.256 1390.428 885.296 1390.197 C 885.929 1386.759 886.476 1383.803 886.476 1383.803 L 897.947 1378.305 L 902.223 1376.255 C 902.211 1376.328 901.893 1380.069 901.845 1380.616 C 901.043 1390.33 904.225 1396.925 904.225 1396.925 Z " fill="rgb(255,163,159)"/><path d=" M 870.811 1496.532 C 870.985 1518.59 872.342 1570.194 873.337 1571.245 C 883.919 1582.334 930.46 1568.203 932.927 1555.987 C 935.389 1543.77 923.548 1399.325 905.476 1393.555 C 901.727 1392.359 881.677 1399.398 881.677 1399.398 C 881.677 1399.398 878.534 1408.33 876.472 1419.713 C 875.709 1423.929 873.211 1454.013 871.756 1474.119 C 871.37 1479.48 871.055 1484.127 870.87 1487.387 C 870.796 1488.728 870.78 1492.013 870.811 1496.532 Z " fill="rgb(36,46,108)"/><path d=" M 900.984 1380.796 C 898.466 1385.43 889.08 1389.437 885.166 1390.906 C 885.209 1390.667 885.256 1390.428 885.296 1390.197 C 885.929 1386.759 886.476 1383.803 886.476 1383.803 L 897.947 1378.305 C 900.48 1378.271 902.026 1378.89 900.984 1380.796 Z " fill="rgb(255,147,143)"/><path d=" M 882.153 1383.047 C 882.153 1383.047 900.63 1389.304 904.041 1376.75 C 907.451 1364.197 912.136 1356.551 900.484 1352.023 C 888.832 1347.495 885.229 1351.549 883.152 1355.44 C 881.071 1359.331 877.432 1381.095 882.153 1383.047 Z " fill="rgb(255,163,159)"/><path d=" M 883.876 1354.231 C 883.876 1354.231 885.056 1368.84 887.837 1368.207 C 890.618 1367.575 893.144 1367.101 892.735 1371.505 C 892.326 1375.909 888.47 1380.992 897.042 1381.774 C 905.618 1382.551 917.943 1358.541 915.59 1353.996 C 908.793 1340.874 874.049 1338.23 883.876 1354.231 Z " fill="rgb(242,75,70)"/><path d=" M 886.594 1393.871 C 886.834 1393.76 900.347 1387.177 901.928 1387.745 C 903.509 1388.313 905.48 1393.555 905.48 1393.555 L 881.681 1399.398 C 881.681 1399.398 883.553 1395.259 886.594 1393.871 Z " fill="rgb(27,34,81)"/><path d=" M 807.917 1447.709 L 846.245 1552.762 C 846.996 1554.821 849.164 1555.837 851.06 1555.022 L 857.094 1552.425 C 858.99 1551.609 859.927 1549.255 859.175 1547.196 L 820.848 1442.143 C 820.097 1440.084 817.929 1439.067 816.033 1439.883 L 809.998 1442.48 C 808.102 1443.296 807.162 1445.65 807.917 1447.709 Z " fill="rgb(198,67,219)"/><g><path d=" M 807.917 1447.709 L 812.162 1459.34 C 820.195 1457.204 828.889 1464.188 828.889 1464.188 L 820.848 1442.147 C 820.097 1440.088 817.929 1439.072 816.033 1439.888 L 809.998 1442.485 C 808.102 1443.296 807.162 1445.65 807.917 1447.709 Z " fill="rgb(102,21,178)"/></g><path d=" M 829.424 1506.664 L 846.245 1552.762 C 846.996 1554.821 849.164 1555.837 851.06 1555.022 L 857.094 1552.425 C 858.99 1551.609 859.927 1549.255 859.175 1547.196 L 842.354 1501.098 L 829.424 1506.664 Z " fill="rgb(127,34,186)"/><path d=" M 737.541 1412.661 C 749.618 1445.769 784.133 1461.975 814.625 1448.862 C 824.609 1444.569 832.925 1437.662 839.164 1429.153 C 851.992 1411.679 856.083 1387.429 847.96 1365.162 C 835.883 1332.053 801.371 1315.852 770.88 1328.965 C 770.479 1329.14 770.078 1329.315 769.684 1329.499 C 740 1343.07 725.622 1379.988 737.541 1412.661 Z  M 773.921 1337.295 C 780.727 1334.369 787.76 1333.143 794.633 1333.416 C 797.524 1333.536 800.384 1333.924 803.185 1334.557 C 819.436 1338.243 833.715 1350.447 840.289 1368.459 C 845.899 1383.841 844.746 1400.312 838.365 1413.994 C 832.925 1425.676 823.68 1435.326 811.588 1440.524 C 794.999 1447.662 777.025 1444.714 763.418 1434.386 C 755.495 1428.367 749.048 1419.85 745.22 1409.355 C 734.819 1380.855 747.667 1348.593 773.921 1337.295 Z " fill="rgb(198,67,219)"/><path d=" M 769.684 1329.503 C 779.255 1329.17 787.513 1330.618 794.633 1333.42 C 797.524 1333.54 800.384 1333.929 803.185 1334.561 C 819.436 1338.247 833.715 1350.451 840.289 1368.464 C 845.899 1383.845 844.746 1400.316 838.365 1413.998 C 838.884 1419.888 839.089 1425.091 839.168 1429.153 C 851.996 1411.679 856.087 1387.429 847.964 1365.162 C 835.887 1332.053 801.375 1315.852 770.884 1328.965 C 770.479 1329.14 770.082 1329.315 769.684 1329.503 Z " fill="rgb(127,34,186)"/><g style="opacity:0.5;"><g style="opacity:0.5;"><g opacity="0.5"><path d=" M 745.216 1409.363 C 749.044 1419.858 755.491 1428.376 763.414 1434.399 C 777.021 1444.727 794.995 1447.674 811.584 1440.537 C 837.838 1429.243 850.69 1396.98 840.285 1368.468 C 833.715 1350.455 819.432 1338.251 803.181 1334.561 C 793.712 1332.408 783.579 1333.143 773.917 1337.299 C 747.667 1348.593 734.819 1380.855 745.216 1409.363 Z " fill="rgb(237,236,252)"/></g></g><g style="opacity:0.5;"><g opacity="0.5"><path d=" M 745.216 1409.363 C 749.044 1419.858 755.491 1428.376 763.414 1434.399 C 772.879 1436.547 783.012 1435.813 792.674 1431.656 C 818.928 1420.362 831.78 1388.096 821.379 1359.592 C 817.551 1349.101 811.108 1340.579 803.185 1334.565 C 793.716 1332.412 783.583 1333.147 773.921 1337.303 C 747.667 1348.593 734.819 1380.855 745.216 1409.363 Z " fill="rgb(192,211,248)"/></g></g><g style="opacity:0.5;"><g opacity="0.5"><path d=" M 784.393 1344.266 C 758.579 1355.372 745.834 1386.801 755.924 1414.464 C 757.45 1418.65 759.417 1422.511 761.738 1426.009 C 757.297 1421.234 753.674 1415.408 751.223 1408.693 C 741.739 1382.701 753.457 1353.279 777.395 1342.984 C 786.018 1339.272 795.054 1338.555 803.531 1340.37 C 797.174 1340.31 790.683 1341.558 784.393 1344.266 Z " fill="rgb(239,236,234)"/></g></g></g><path d=" M 870.811 1496.532 C 914.969 1464.06 911.373 1419.401 911.373 1419.401 C 894.143 1429.956 877.062 1454.94 871.756 1474.115 C 871.37 1479.476 871.055 1484.123 870.87 1487.382 C 870.796 1488.728 870.78 1492.013 870.811 1496.532 Z " fill="rgb(27,34,81)"/><g><path d=" M 832.346 1482.257 C 832.346 1482.257 831.988 1481.761 831.021 1481.415 C 830.238 1480.881 828.118 1479.13 827.799 1478.621 C 826.792 1477.015 826.044 1478.25 826.642 1479.83 C 826.772 1480.172 827.358 1480.851 827.539 1481.193 C 825.439 1481.479 822.5 1482.44 818.456 1484.751 C 818.456 1484.751 815.262 1486.396 818.763 1487.848 C 821.104 1488.822 822.229 1488.083 825.549 1489.394 C 828.869 1490.71 832.472 1490.244 834.219 1488.147 L 836.89 1486.801 L 836.06 1481.407 L 832.346 1482.257 Z " fill="rgb(255,163,159)"/><path d=" M 898.419 1399.398 C 898.419 1399.398 935.932 1407.155 887.381 1466.136 C 879.615 1475.572 836.076 1489.099 836.076 1489.099 C 836.076 1489.099 833.413 1483.922 835.556 1480.74 C 835.556 1480.74 867.346 1456.423 870.969 1456.042 C 874.183 1455.705 881.889 1417.996 886.551 1409.632 C 891.212 1401.269 898.419 1399.398 898.419 1399.398 Z " fill="rgb(36,46,108)"/></g></g><path d=" M 569.24 1356.469 L 564.744 1359.152 L 569.818 1357.96 C 570.393 1357.909 570.951 1358.191 571.282 1358.708 L 575.2 1367.669 L 572.733 1358.101 C 572.67 1357.499 572.95 1356.918 573.441 1356.627 L 579.008 1353.347 L 573.068 1354.786 C 572.383 1354.953 571.679 1354.624 571.317 1353.975 L 568.461 1348.136 L 569.873 1354.769 C 569.976 1355.423 569.732 1356.081 569.24 1356.469 Z " fill="rgb(255,255,255)"/><linearGradient id="_lgradient_91" x1="-0.000010018785225440752" y1="0.5000725002517372" x2="1.0000087664370625" y2="0.5000725002517372" gradientTransform="matrix(31.412,0,0,42.42,758.233,1278.339)" gradientUnits="userSpaceOnUse"><stop offset="0%" stop-opacity="1" style="stop-color:rgb(249,121,90)"/><stop offset="100%" stop-opacity="1" style="stop-color:rgb(255,239,233)"/></linearGradient><path d=" M 767.419 1298.125 L 758.233 1308.308 L 769.85 1301.307 C 771.223 1300.713 772.784 1300.965 773.941 1301.961 L 789.645 1320.76 L 777.08 1299.304 C 776.518 1297.881 776.805 1296.228 777.808 1295.131 L 789.204 1282.619 L 775.632 1290.923 C 774.071 1291.88 772.123 1291.645 770.79 1290.342 L 759.814 1278.339 L 767.796 1293.456 C 768.5 1294.968 768.351 1296.775 767.419 1298.125 Z " fill="url(#_lgradient_91)"/><path d=" M 481.398 1570.625 L 473.534 1579.348 L 483.479 1573.355 C 484.655 1572.847 485.992 1573.06 486.98 1573.914 L 500.425 1590.009 L 489.666 1571.642 C 489.186 1570.425 489.43 1569.011 490.292 1568.067 L 500.052 1557.354 L 488.431 1564.462 C 487.094 1565.277 485.426 1565.081 484.285 1563.966 L 474.887 1553.689 L 481.72 1566.632 C 482.322 1567.922 482.196 1569.472 481.398 1570.625 Z " fill="rgb(236,235,252)"/><path d=" M 794.491 1665.859 L 794.491 1665.859 C 799.554 1652.6 810.459 1627.201 818.755 1630.204 C 826.953 1633.173 808.519 1655.167 798.142 1666.649 C 800.203 1667.119 802.068 1667.584 803.787 1668.011 C 811.784 1660.105 824.994 1647.145 826.198 1652.476 C 827.252 1657.149 815.919 1664.21 807.249 1668.861 C 812.646 1670.139 816.729 1670.745 821.796 1669.494 C 830.144 1667.435 834.408 1673.586 834.408 1673.586 L 770.703 1673.586 C 770.707 1673.586 781.203 1663.138 794.491 1665.859 Z " fill="rgb(36,46,108)"/></g></g></g></g></g></svg>