<?xml version="1.0" encoding="UTF-8" standalone="no"?><!-- Generator: Gravit.io --><svg xmlns="http://www.w3.org/2000/svg" xmlns:xlink="http://www.w3.org/1999/xlink" style="isolation:isolate" viewBox="0 0 1024 768" width="1024pt" height="768pt"><defs><clipPath id="_clipPath_dHHYP43voyT3ybPDOJ6tSHhRgWPc5nUx"><rect width="1024" height="768"/></clipPath></defs><g clip-path="url(#_clipPath_dHHYP43voyT3ybPDOJ6tSHhRgWPc5nUx)"><clipPath id="_clipPath_D3zUw0ZOgQmPMJtfwOcXXcydR1kiy6mP"><rect x="0" y="0" width="1024" height="1000" transform="matrix(1,0,0,1,0,0)" fill="rgb(255,255,255)"/></clipPath><g clip-path="url(#_clipPath_D3zUw0ZOgQmPMJtfwOcXXcydR1kiy6mP)"><g><g><rect x="0" y="6.809" width="1024" height="539.191" transform="matrix(1,0,0,1,0,0)" fill="rgb(255,255,255)"/><g><linearGradient id="_lgradient_38" x1="0.5000000389593185" y1="-1.0152469143154264e-15" x2="0.4970588588745256" y2="0.9203104879204393" gradientTransform="matrix(730.106,0,0,193.669,293.894,0)" gradientUnits="userSpaceOnUse"><stop offset="0%" stop-opacity="1" style="stop-color:rgb(102,21,178)"/><stop offset="26.427574723753157%" stop-opacity="1" style="stop-color:rgb(141,40,195)"/><stop offset="52.80298068687691%" stop-opacity="1" style="stop-color:rgb(172,55,208)"/><stop offset="74.7610615213078%" stop-opacity="1" style="stop-color:rgb(191,64,216)"/><stop offset="100%" stop-opacity="1" style="stop-color:rgb(198,67,219)"/></linearGradient><path d=" M 1024 0 L 1024 140.479 C 1024 140.479 622.94 251.423 428.089 152.855 C 414.054 145.755 413.548 145.801 403.627 140.479 C 352.203 112.894 330.579 86.286 293.894 0 L 1024 0 Z " fill="url(#_lgradient_38)"/><linearGradient id="_lgradient_39" x1="0.5000001708744501" y1="0.9999994762172522" x2="0.5000629637820041" y2="0.06330473681052806" gradientTransform="matrix(850,0,0,159.832,0,0)" gradientUnits="userSpaceOnUse"><stop offset="0%" stop-opacity="1" style="stop-color:rgb(249,121,90)"/><stop offset="5.300625792435835e-14%" stop-opacity="1" style="stop-color:rgb(238,67,101)"/><stop offset="4.2365818356992575%" stop-opacity="1" style="stop-color:rgb(246,106,93)"/><stop offset="32.16701235176558%" stop-opacity="1" style="stop-color:rgb(244,95,95)"/><stop offset="58.76852829037057%" stop-opacity="1" style="stop-color:rgb(241,83,98)"/><stop offset="100%" stop-opacity="1" style="stop-color:rgb(235,54,104)"/></linearGradient><path d=" M 0 126.655 C 0 126.655 266.641 214.816 488.381 103.713 C 710.12 -7.389 850 0.107 850 0.107 L 0 0 L 0 126.655 Z " fill="url(#_lgradient_39)"/></g></g><g><g><path d=" M 776.113 630.453 C 777.771 630.492 779.405 630.323 780.97 630.071 C 779.123 628.74 775.233 625.985 772.066 624.046 C 767.748 621.411 765.301 616.969 771.391 616.213 C 776.58 615.568 780.659 626.645 781.756 629.938 C 782.466 629.811 783.162 629.671 783.834 629.528 C 783 627.186 781.172 622.222 779.439 618.76 C 777.101 614.087 768.829 606.194 777.101 605.294 C 784.459 604.491 786.412 624.457 786.752 628.899 C 788.229 628.595 789.52 628.384 790.543 628.46 C 792.898 628.629 795.148 631.137 793.817 632.241 L 768.976 632.241 C 769.781 631.581 771.859 630.354 776.113 630.453 Z " fill="rgb(36,46,108)"/><g><g><path d=" M 749.053 375.64 C 750.886 374.704 758.661 376.747 758.661 376.747 C 758.661 376.747 778.22 366.741 780.473 365.384 C 783.077 363.814 790.017 345.08 795.108 334.757 C 797.789 329.32 805.846 329.398 808.248 334.96 C 808.681 335.96 808.88 337.068 808.729 338.279 C 807.889 344.989 790.477 368.906 788.341 370.933 C 784.451 374.626 760.946 380.352 760.946 380.352 C 760.946 380.352 756.33 382.099 753.243 382.312 C 750.158 382.525 747.219 376.576 749.053 375.64 Z " fill="rgb(255,125,120)"/><path d=" M 788.306 338.068 C 788.513 335.841 790.052 333.873 790.87 332.971 C 786.164 338.424 793.657 349.197 793.657 349.197 C 792.348 343.362 812.759 334.531 813.578 327.477 C 814.396 320.426 807.706 319.989 805.989 317.809 C 804.27 315.628 807.78 304.14 802.134 299.561 C 796.485 294.981 791.295 297.962 791.295 297.962 C 792.571 296.652 795.037 296 795.037 296 C 788.776 296 787.727 300.216 787.575 302.162 C 782.357 303.524 780.606 313.505 780.606 313.505 L 796.926 320.257 C 797.181 320.766 797.343 321.112 797.377 321.239 C 797.675 322.341 794.864 328.514 791.431 330.201 C 787.551 332.106 788.306 338.068 788.306 338.068 Z  M 791.245 332.576 C 791.33 332.491 791.38 332.446 791.38 332.446 C 791.332 332.488 791.29 332.532 791.245 332.576 Z " fill="rgb(242,75,70)"/><path d=" M 810.424 457.177 L 814.471 456.595 C 814.471 456.595 828.075 446.02 830.102 426.288 C 830.31 424.279 830.352 422.241 830.198 420.188 C 830.179 419.951 830.206 419.715 830.339 419.514 C 830.339 419.512 830.339 419.512 830.344 419.509 C 830.78 418.857 831.864 417.22 833.331 414.893 C 834.776 412.601 837.253 408.268 839.976 403.406 C 844.881 394.649 850.594 384.178 852.552 380.841 C 858.794 370.211 855.786 363.063 855.786 363.063 C 855.786 363.063 838.374 361.379 833.602 357.296 L 831.883 359.887 C 831.883 359.887 828.11 376.225 828.288 376.3 C 828.102 376.856 827.913 377.42 827.722 377.997 C 824.743 386.987 821.321 398.22 819.453 407.372 C 818.403 412.52 817.848 417.006 818.145 420.063 C 818.249 421.11 818.124 422.722 817.837 424.71 C 816.15 436.437 810.424 457.177 810.424 457.177 Z " fill="rgb(249,121,90)"/><path d=" M 801.937 462.186 L 818.818 462.186 C 818.818 462.186 819.222 459.67 818.339 457.759 C 817.494 455.927 816.291 455.87 818.185 452.998 C 817.112 454.079 813.663 454.526 811.224 454.204 C 810.923 454.677 809.295 457.861 808.296 458.563 C 807.195 459.334 802.274 459.059 801.937 462.186 Z " fill="rgb(34,41,86)"/><path d=" M 827.719 377.997 C 829.194 385.953 832.677 399.193 839.974 403.406 C 844.879 394.649 850.591 384.178 852.55 380.841 C 858.791 370.211 855.783 363.063 855.783 363.063 C 855.783 363.063 838.371 361.379 833.599 357.296 L 831.88 359.887 C 831.88 359.887 828.107 376.225 828.285 376.3 C 828.099 376.856 827.91 377.423 827.719 377.997 Z " fill="rgb(242,75,70)"/><path d=" M 839.559 364.293 L 839.501 361.205 C 845.79 361.982 861.191 353.852 861.191 353.852 C 861.191 353.852 867.772 358.133 868.673 370.361 C 869.114 376.329 871.896 401.568 872.202 409.105 C 872.313 411.837 872.351 413.786 872.364 414.566 C 872.364 414.568 872.364 414.571 872.364 414.574 C 872.366 414.81 872.481 415.021 872.632 415.208 C 873.934 416.827 875.063 418.54 876.041 420.318 C 885.641 437.786 880.622 461.523 880.622 461.523 L 878.393 460.969 C 878.393 460.969 870.275 436.361 864.972 425.718 C 864.071 423.912 863.253 422.509 862.57 421.695 C 860.574 419.325 858.472 415.301 856.4 410.459 C 852.481 401.303 848.678 389.223 845.965 379.869 C 845.769 379.9 839.559 364.293 839.559 364.293 Z " fill="rgb(249,121,90)"/><path d=" M 802.747 343.679 C 813.03 341.372 806.462 327.235 805.864 327.485 C 804.44 327.202 801.31 324.753 798.509 319.974 L 798.132 320.293 L 791.816 325.71 C 791.816 325.71 793.278 327.818 794.505 329.879 C 795.464 331.493 796.28 333.086 796.152 333.632 C 795.642 334.027 800.003 344.298 802.747 343.679 Z " fill="rgb(255,163,159)"/><path d=" M 796.022 332.862 C 796.022 332.862 793.711 336.054 792.302 338.905 C 790.894 341.756 787.063 350.92 787.063 350.92 C 787.063 350.92 791.152 357.132 798.05 357.808 C 798.05 357.808 802.591 352.703 802.065 347.422 C 801.538 342.141 796.022 332.862 796.022 332.862 Z " fill="rgb(27,34,81)"/><path d=" M 791.816 325.715 C 791.816 325.715 793.278 327.82 794.505 329.884 C 798.432 327.516 798.435 322.76 798.135 320.298 L 791.816 325.715 Z " fill="rgb(255,125,120)"/><path d=" M 791.643 328.428 C 791.643 328.428 801.177 323.238 797.781 317.481 C 794.386 311.722 793.331 307.176 787.1 310.245 C 780.869 313.315 780.991 316.174 781.647 318.365 C 782.301 320.556 789.074 329.629 791.643 328.428 Z " fill="rgb(255,163,159)"/><path d=" M 780.034 315.004 C 780.47 312.447 781.799 312.202 782.723 312.374 C 786.244 306.677 791.997 308.902 791.997 308.902 C 795.068 312.673 799.511 313.317 799.511 313.317 C 799.511 313.317 798.406 315.332 793.846 316.577 C 792.454 316.959 790.873 316.727 789.348 316.226 C 792.51 317.952 795.818 318.612 795.818 318.612 C 789.81 319.15 784.095 313.777 783.502 313.203 C 783.226 314.035 782.739 315.779 783.029 317.052 C 783.425 318.783 784.995 321.92 784.036 322.326 C 784.041 322.326 779.381 318.84 780.034 315.004 Z " fill="rgb(242,75,70)"/><path d=" M 867.193 462.186 L 884.074 462.186 C 884.074 462.186 884.478 459.67 883.595 457.759 C 882.75 455.927 881.427 455.095 881.743 452.878 C 880.67 453.957 878.922 455.168 876.482 454.848 C 876.182 455.322 874.553 457.861 873.554 458.563 C 872.452 459.334 867.533 459.059 867.193 462.186 Z " fill="rgb(34,41,86)"/><path d=" M 801.536 354.887 C 803.709 355.627 806.757 356.035 809.874 356.365 C 814.314 356.838 818.897 357.163 821.297 358.102 C 821.767 358.284 823.13 358.842 824.499 359.812 L 824.499 359.814 C 824.499 359.814 824.533 359.835 824.594 359.885 C 825.049 360.207 825.5 360.581 825.917 361.002 C 826.555 361.642 827.111 362.393 827.467 363.25 C 828.346 365.379 827.182 371.276 826.433 374.502 C 826.133 375.799 826.757 377.14 827.966 377.753 C 829.653 378.605 831.311 379.396 832.943 380.116 C 833.028 380.155 833.113 380.191 833.201 380.227 C 833.185 379.9 833.179 379.575 833.179 379.255 C 833.177 377.03 833.464 375.18 833.464 375.18 C 833.865 377.426 835.377 379.85 836.788 381.717 C 859.442 390.608 875.271 386.743 875.01 382.314 C 874.118 366.936 863.513 353.855 863.513 353.855 C 843.739 331.363 803.739 325.442 803.739 325.442 C 803.739 325.442 801.823 325.216 799.511 327.934 C 796.184 331.849 796.02 332.867 796.02 332.867 C 796.02 332.867 795.145 352.706 801.536 354.887 Z " fill="rgb(36,46,108)"/><path d=" M 809.876 356.365 C 814.314 356.838 818.897 357.163 821.299 358.099 C 822.28 343.76 815.363 332.974 815.363 332.974 C 815.363 332.974 810.849 350.939 809.876 356.365 Z " fill="rgb(27,34,81)"/><g><path d=" M 760.661 383.286 L 760.661 383.286 C 761.196 382.486 760.962 381.402 760.143 380.88 L 749.531 374.112 C 748.712 373.589 747.604 373.818 747.07 374.619 L 747.07 374.619 C 746.536 375.419 746.77 376.503 747.588 377.025 L 758.201 383.793 C 759.019 384.316 760.127 384.087 760.661 383.286 Z " fill="rgb(36,46,108)"/><g><path d=" M 748.784 376.149 L 749.193 375.536 L 739.838 369.912 C 738.714 369.194 737.305 369.08 736.075 369.608 L 731.911 371.391 L 732.148 371.757 L 736.142 369.758 C 737.321 369.254 738.668 369.363 739.745 370.049 L 748.784 376.149 Z " fill="rgb(36,46,108)"/></g></g><path d=" M 773.522 393.087 C 777.104 392.916 780.978 395.907 780.978 395.907 C 780.978 395.907 793.564 375.066 795.512 373.116 C 798.57 370.055 801.541 332.652 805.309 330.201 C 805.309 330.201 816.434 331.277 817.324 338.346 C 818.217 345.416 806.659 374.216 805.003 376.825 C 801.99 381.574 784.246 397.846 784.246 397.846 C 784.246 397.846 782.431 401.29 780.167 400.936 C 777.903 400.58 767.937 394.052 767.937 394.052 C 767.937 394.052 769.94 393.256 773.522 393.087 Z " fill="rgb(255,163,159)"/><path d=" M 826.433 374.496 C 826.133 375.793 826.757 377.134 827.966 377.748 C 829.653 378.6 831.311 379.39 832.943 380.11 C 833.028 379.84 833.108 379.554 833.179 379.253 C 833.434 378.13 833.554 376.786 833.464 375.177 C 833.086 368.37 828.346 363.214 825.917 361 C 826.555 361.639 827.111 362.39 827.467 363.248 C 828.346 365.374 827.18 371.274 826.433 374.496 Z " fill="rgb(27,34,81)"/><path d=" M 803.741 325.437 C 803.741 325.437 802.001 323.282 800.824 323.352 C 800.824 323.352 796.062 329.871 796.025 332.862 C 796.022 332.862 801.961 325.135 803.741 325.437 Z " fill="rgb(27,34,81)"/><path d=" M 799.514 343.708 C 799.514 343.708 798.371 325.478 812.637 329.886 C 826.903 334.294 810.424 365.652 810.424 365.652 C 810.424 365.652 802.051 365.246 799.081 358.102 L 799.514 343.708 Z " fill="rgb(36,46,108)"/></g><path d=" M 669.483 548.419 C 671.555 562.54 675.169 575.465 680.709 586.116 C 711.178 644.67 729.302 591.441 742.816 567.213 C 755.533 544.409 768.869 535.598 788.867 549.204 C 803.579 559.208 808.288 628.657 831.978 631.916 C 851.165 634.554 922.565 569.937 905.743 432.458 C 905.418 429.809 904.815 426.878 903.784 423.876 C 898.892 409.638 884.366 393.896 844.228 399.941 C 807.506 405.472 804.971 412.131 782.15 401.986 C 759.325 391.845 727.881 360.482 699.527 383.117 C 682.019 397.098 660.164 484.883 669.483 548.419 Z " fill="rgb(133,169,221)"/><path d=" M 669.483 548.417 C 671.584 557.394 674.457 565.659 678.214 572.879 C 708.686 631.435 726.807 578.204 740.321 553.976 C 753.036 531.172 766.372 522.361 786.374 535.967 C 801.084 545.971 805.795 615.418 829.483 618.677 C 848.184 621.247 916.475 559.936 904.361 429.56 C 904.188 427.678 903.994 425.781 903.787 423.87 C 898.895 409.633 884.369 393.89 844.233 399.936 C 807.509 405.467 804.977 412.123 782.152 401.984 C 759.328 391.84 727.883 360.48 699.532 383.115 C 687.641 392.607 673.753 436.109 668.975 482.947 C 666.714 505.109 666.491 528.014 669.483 548.417 Z " fill="rgb(192,211,248)"/><path d=" M 700.839 402.618 C 693.628 415.281 695.187 441.565 704.214 442.937 C 713.243 444.309 721.041 421.318 731.101 412.305 C 745.641 399.278 735.344 389.919 726.316 388.547 C 717.287 387.175 707.477 390.961 700.839 402.618 Z " fill="rgb(236,235,252)"/><path d=" M 668.821 543.39 C 669.018 545.082 669.241 546.759 669.483 548.417 C 671.584 557.396 674.457 565.659 678.214 572.879 C 701.166 616.985 717.109 597.666 729.355 575.091 C 729.358 575.091 729.358 575.088 729.358 575.088 C 733.37 567.696 736.984 559.951 740.319 553.974 C 747.479 541.134 754.84 532.729 763.47 530.268 L 763.473 530.268 C 768.035 528.965 772.956 529.324 778.395 531.565 C 780.938 532.612 783.592 534.073 786.374 535.965 C 795.738 542.335 801.05 572.791 809.789 594.927 C 814.774 607.566 820.877 617.492 829.483 618.674 C 844.9 620.798 894.019 579.501 904.005 491.887 L 904.007 491.885 C 905.129 482.053 905.758 471.638 905.79 460.634 C 905.817 452.169 905.49 443.35 904.759 434.183 C 904.64 432.653 904.504 431.109 904.361 429.56 C 901.292 433.302 897.824 437.279 893.958 441.37 C 869.008 467.771 827.339 498.869 767.477 501.751 C 757.935 502.211 747.931 501.954 737.457 500.846 C 716.516 498.632 693.705 493.018 668.972 482.942 C 668.17 490.796 667.625 498.741 667.389 506.637 L 667.389 506.64 C 667.014 519.219 667.421 531.661 668.821 543.39 Z " fill="rgb(177,201,246)"/><path d=" M 763.475 530.27 C 768.038 528.968 772.959 529.327 778.398 531.567 C 780.941 532.615 783.595 534.075 786.377 535.967 C 792.52 540.146 796.919 554.691 801.686 570.453 C 804.185 578.717 806.785 587.315 809.791 594.929 C 814.776 607.568 820.88 617.494 829.486 618.677 C 844.903 620.8 894.022 579.504 904.007 491.89 C 894.07 510.736 868.896 581.365 826.943 567.377 C 799.113 558.098 801.937 527.902 763.475 530.27 Z " fill="rgb(154,192,239)"/><path d=" M 668.821 543.39 C 669.018 545.082 669.241 546.759 669.483 548.417 C 671.584 557.396 674.659 565.563 678.214 572.879 C 709.283 636.839 730.772 571.946 743.016 549.371 C 742.707 549.864 721.597 584.549 698.974 572.674 C 680.09 562.761 667.729 538.33 667.391 506.645 C 667.014 519.219 667.421 531.661 668.821 543.39 Z " fill="rgb(154,192,239)"/><g><path d=" M 891.12 461.601 C 891.12 460.278 890.023 459.207 888.671 459.207 C 887.318 459.207 886.223 460.278 886.223 461.601 C 886.223 462.924 887.321 463.995 888.671 463.995 C 890.026 463.995 891.12 462.921 891.12 461.601 Z " fill="rgb(239,236,234)"/><path d=" M 884.555 449.513 C 884.555 448.852 884.007 448.314 883.33 448.314 C 882.652 448.314 882.105 448.85 882.105 449.513 C 882.105 450.175 882.652 450.711 883.33 450.711 C 884.007 450.711 884.555 450.173 884.555 449.513 Z " fill="rgb(239,236,234)"/><path d=" M 875.234 463.995 C 875.234 463.334 874.686 462.796 874.009 462.796 C 873.331 462.796 872.784 463.332 872.784 463.995 C 872.784 464.657 873.331 465.193 874.009 465.193 C 874.686 465.193 875.234 464.657 875.234 463.995 Z " fill="rgb(239,236,234)"/></g></g><g><g><path d=" M 472.176 589.232 C 472.176 589.232 479.191 581.227 472.609 576.143 C 472.609 576.143 467.802 573.297 463.883 573.529 C 463.883 573.529 469.436 582.638 467.64 583.545 C 465.844 584.453 462.198 572.957 462.198 572.957 C 462.198 572.957 451.259 571.92 447.738 573.573 C 447.738 573.573 457.091 581.058 455.12 581.505 C 453.151 581.95 443.049 574.602 443.049 574.602 C 443.049 574.602 432.867 576.297 433.409 582.373 C 433.951 588.45 437.461 590.324 439.002 590.163 C 440.543 590.001 449.564 586.633 449.761 587.87 C 449.957 589.107 444.529 593.146 440.726 593.333 C 440.726 593.333 447.906 601.076 452.675 598.841 C 457.445 596.606 457.854 593.063 460.827 591.735 C 463.801 590.407 466.341 590.41 465.113 591.766 C 463.886 593.12 458.502 594.438 456.802 597.38 C 455.101 600.322 453.576 602.308 458.51 601.58 C 463.447 600.855 471.469 597.32 471.823 593.276 C 472.176 589.232 472.176 589.232 472.176 589.232 Z " fill="rgb(27,34,81)"/><g><path d=" M 438.412 582.537 C 438.412 582.537 466.067 581.495 472.173 589.23 C 472.173 589.23 473.523 593.185 477.679 596.79 L 478.327 598.516 C 478.327 598.516 473.534 593.573 471.82 593.274 C 471.823 593.276 474.504 583.694 438.412 582.537 Z " fill="rgb(27,34,81)"/><path d=" M 477.681 596.79 C 477.681 596.79 483.617 601.084 484.029 608.756 L 482.953 608.85 C 482.953 608.85 481.059 600.917 477.631 597.814 C 474.203 594.714 477.681 596.79 477.681 596.79 Z " fill="rgb(27,34,81)"/></g></g><g><path d=" M 496.698 579.166 C 496.698 579.166 485.541 573.056 490.749 564.76 C 490.749 564.76 494.916 559.665 499.377 558.358 C 499.377 558.358 496.996 570.727 499.377 571.018 C 501.758 571.309 501.014 557.048 501.014 557.048 C 501.014 557.048 512.766 551.52 517.379 551.954 C 517.379 551.954 510.09 564.032 512.468 563.741 C 514.849 563.45 523.03 551.226 523.03 551.226 C 523.03 551.226 535.08 549.043 537.015 556.029 C 538.949 563.013 535.824 566.506 534.039 566.943 C 532.253 567.379 520.798 567.234 521.096 568.689 C 521.394 570.145 529.129 572.474 533.444 571.164 C 533.444 571.164 528.682 582.659 522.435 582.077 C 516.188 581.495 514.254 577.711 510.385 577.419 C 506.516 577.128 503.692 578.147 505.624 579.166 C 507.558 580.185 514.103 579.499 517.227 582.098 C 520.352 584.694 522.882 586.295 517.078 587.46 C 511.278 588.624 500.862 587.896 498.782 583.53 C 496.698 579.166 496.698 579.166 496.698 579.166 Z " fill="rgb(36,46,108)"/><g><path d=" M 531.509 558.213 C 531.509 558.213 500.27 568.107 496.698 579.166 C 496.698 579.166 496.847 584.115 493.722 589.788 L 493.722 591.972 C 493.722 591.972 496.996 584.551 498.782 583.532 C 498.782 583.53 491.788 573.926 531.509 558.213 Z " fill="rgb(27,34,81)"/><path d=" M 493.722 589.788 C 493.722 589.788 488.905 596.944 491.653 605.656 L 492.891 605.331 C 492.891 605.331 491.687 595.735 494.209 590.911 C 496.73 586.085 493.722 589.788 493.722 589.788 Z " fill="rgb(27,34,81)"/></g></g><g><path d=" M 478.949 570.737 C 478.949 570.737 493.656 562.68 486.793 551.749 C 486.793 551.749 481.3 545.035 475.418 543.31 C 475.418 543.31 478.556 559.613 475.418 559.998 C 472.28 560.383 473.26 541.584 473.26 541.584 C 473.26 541.584 457.769 534.296 451.69 534.871 C 451.69 534.871 461.298 550.792 458.16 550.408 C 455.022 550.023 444.236 533.911 444.236 533.911 C 444.236 533.911 428.352 531.034 425.804 540.24 C 423.256 549.449 427.372 554.051 429.726 554.626 C 432.08 555.2 447.178 555.011 446.787 556.929 C 446.394 558.847 436.199 561.916 430.512 560.19 C 430.512 560.19 436.788 575.343 445.023 574.576 C 453.26 573.809 455.808 568.822 460.907 568.437 C 466.006 568.055 469.731 569.396 467.183 570.74 C 464.635 572.084 456.005 571.179 451.889 574.605 C 447.77 578.03 444.438 580.138 452.085 581.674 C 459.733 583.208 473.459 582.249 476.207 576.494 C 478.949 570.737 478.949 570.737 478.949 570.737 Z " fill="rgb(36,46,108)"/><g><path d=" M 433.061 543.115 C 433.061 543.115 474.241 556.157 478.949 570.735 C 478.949 570.735 478.752 577.256 482.871 584.736 L 482.871 587.613 C 482.871 587.613 478.556 577.83 476.204 576.486 C 476.201 576.492 485.419 563.832 433.061 543.115 Z " fill="rgb(27,34,81)"/><path d=" M 482.871 584.738 C 482.871 584.738 489.221 594.17 485.6 605.656 L 483.966 605.227 C 483.966 605.227 485.552 592.58 482.228 586.217 C 478.906 579.857 482.871 584.738 482.871 584.738 Z " fill="rgb(27,34,81)"/></g></g><path d=" M 450.475 603.241 L 449.806 603.241 L 449.806 602.376 L 509.027 602.376 L 509.027 603.241 L 508.066 603.241 C 507.712 614.7 500.365 624.439 490.056 628.514 L 505.1 628.514 C 507.064 628.514 508.655 630.071 508.655 631.992 L 450.241 631.992 C 450.241 630.071 451.833 628.514 453.797 628.514 L 468.491 628.514 C 458.176 624.439 450.826 614.7 450.475 603.241 Z " fill="rgb(249,121,90)"/><path d=" M 479.568 628.512 L 486.726 628.512 C 497.025 624.439 504.364 614.711 504.723 603.264 L 497.567 603.264 C 497.209 614.713 489.867 624.436 479.568 628.512 Z " fill="rgb(239,236,234)"/></g><g><g><g><path d=" M 566.206 519.84 C 562.348 519.825 559.656 513.977 557.055 508.324 C 555.352 504.623 553.773 500.932 552.381 499.911 C 551.01 498.902 548.321 499.05 546.838 499.609 C 544.914 500.334 543.333 502.427 541.864 506.2 C 541.543 507.03 541.216 507.978 540.87 508.984 C 539.313 513.53 537.546 518.684 534.097 519.164 C 531.74 519.492 529.094 517.53 525.998 513.166 C 524.285 510.746 522.86 507.625 521.771 503.885 C 517.113 487.911 519.581 464.951 523.658 460.678 L 523.658 460.678 C 528.762 455.327 535.556 458.303 541.016 460.696 C 542.69 461.429 544.269 462.121 545.674 462.534 C 549.881 463.766 551.26 463.267 554.948 461.931 C 556.476 461.377 558.375 460.689 561.006 459.927 C 571.3 456.943 575.633 460.608 577.456 464.21 C 577.802 464.894 578.081 465.632 578.288 466.401 C 581.227 477.455 581.848 487.823 580.132 497.216 C 578.375 506.835 574.648 512.636 572.583 515.237 C 570.293 518.122 567.914 519.843 566.217 519.843 C 566.214 519.84 566.209 519.84 566.206 519.84 Z  M 555.285 462.809 C 551.488 464.184 549.915 464.753 545.401 463.431 C 543.934 463.002 542.326 462.297 540.623 461.551 C 535.173 459.163 528.998 456.457 524.362 461.318 C 520.517 465.346 518.205 488.218 522.698 503.625 C 523.761 507.263 525.308 509.701 526.963 512.035 C 529.79 516.022 531.693 517.569 533.627 517.298 C 536.489 516.901 538.567 512.76 539.964 508.683 C 540.312 507.666 540.639 506.71 540.971 505.863 C 542.544 501.824 544.301 499.555 546.498 498.728 C 548.252 498.068 550.954 498.234 552.636 499.513 C 554.275 500.761 556.085 503.911 557.937 507.937 C 560.299 513.07 562.975 518.886 566.217 518.899 C 566.219 518.899 566.222 518.899 566.222 518.899 C 567.255 518.899 569.341 517.79 571.828 514.658 C 581.939 501.925 581.365 463.147 568.308 460.52 C 562.9 459.433 556.8 462.261 555.285 462.809 Z " fill="rgb(127,34,186)"/></g><g><path d=" M 533.436 469.629 L 533.63 469.382 L 515.96 456.184 L 480.014 456.184 L 480.014 456.496 L 515.851 456.496 L 533.436 469.629 Z " fill="rgb(127,34,186)"/></g><g><path d=" M 480.014 511.981 L 515.96 511.981 L 516.002 511.95 L 533.63 498.783 L 533.436 498.533 L 515.851 511.666 L 480.014 511.666 L 480.014 511.981 Z " fill="rgb(127,34,186)"/></g><g><rect x="478.946" y="484.187" width="54.588" height="0.314" transform="matrix(1,0,0,1,0,0)" fill="rgb(127,34,186)"/></g></g><g><path d=" M 480.602 478.136 L 496.714 478.136 C 497.039 478.136 497.302 477.876 497.302 477.562 L 497.302 477.562 C 497.302 477.244 497.039 476.987 496.714 476.987 L 480.602 476.987 C 480.277 476.987 480.014 477.244 480.014 477.562 L 480.014 477.562 C 480.014 477.879 480.277 478.136 480.602 478.136 Z " fill="rgb(127,34,186)"/><path d=" M 480.602 480.436 L 496.714 480.436 C 497.039 480.436 497.302 480.179 497.302 479.862 L 497.302 479.862 C 497.302 479.545 497.039 479.287 496.714 479.287 L 480.602 479.287 C 480.277 479.287 480.014 479.547 480.014 479.862 L 480.014 479.862 C 480.014 480.176 480.277 480.436 480.602 480.436 Z " fill="rgb(127,34,186)"/></g><g><path d=" M 480.602 451.909 L 496.714 451.909 C 497.039 451.909 497.302 451.652 497.302 451.335 L 497.302 451.335 C 497.302 451.017 497.039 450.76 496.714 450.76 L 480.602 450.76 C 480.277 450.76 480.014 451.017 480.014 451.335 L 480.014 451.335 C 480.014 451.652 480.277 451.909 480.602 451.909 Z " fill="rgb(127,34,186)"/><path d=" M 480.602 454.209 L 496.714 454.209 C 497.039 454.209 497.302 453.952 497.302 453.635 L 497.302 453.635 C 497.302 453.318 497.039 453.06 496.714 453.06 L 480.602 453.06 C 480.277 453.06 480.014 453.32 480.014 453.635 L 480.014 453.635 C 480.014 453.949 480.277 454.209 480.602 454.209 Z " fill="rgb(127,34,186)"/></g><g><path d=" M 480.602 507.079 L 496.714 507.079 C 497.039 507.079 497.302 506.822 497.302 506.505 L 497.302 506.505 C 497.302 506.187 497.039 505.93 496.714 505.93 L 480.602 505.93 C 480.277 505.93 480.014 506.19 480.014 506.505 L 480.014 506.505 C 480.014 506.822 480.277 507.079 480.602 507.079 Z " fill="rgb(127,34,186)"/><path d=" M 480.602 509.379 L 496.714 509.379 C 497.039 509.379 497.302 509.119 497.302 508.805 L 497.302 508.805 C 497.302 508.488 497.039 508.23 496.714 508.23 L 480.602 508.23 C 480.277 508.23 480.014 508.488 480.014 508.805 L 480.014 508.805 C 480.014 509.119 480.277 509.379 480.602 509.379 Z " fill="rgb(127,34,186)"/></g></g><g><path d=" M 584.5 617.123 C 584.5 617.123 581.184 620.083 581.83 622.188 C 582.478 624.291 585.47 625.694 585.876 628.267 C 586.28 630.838 587.899 632.241 589.355 632.241 C 590.811 632.241 596.298 632.241 596.298 632.241 C 596.298 632.241 597.369 630.432 594.78 629.886 C 592.192 629.341 591.215 626.318 591.377 623.514 C 591.539 620.709 591.135 616.969 591.135 616.969 L 585.632 615.722 L 584.5 617.123 Z " fill="rgb(34,41,86)"/><path d=" M 584.5 615.264 C 585.106 617.019 591.783 619.589 591.783 619.589 C 591.783 619.589 595.421 613.98 607.075 593.874 C 608.077 592.14 609.126 590.241 610.205 588.219 C 621.647 566.719 636.444 530.99 636.444 530.99 L 608.164 523.276 C 608.164 523.276 606.83 534.379 606.589 539.991 C 606.44 543.419 604.447 550.745 601.915 557.144 C 600.305 561.217 598.471 564.913 596.76 566.99 C 588.956 576.453 584.5 615.264 584.5 615.264 Z " fill="rgb(249,121,90)"/><path d=" M 601.912 557.144 C 603.69 565.963 606.953 580.728 610.202 588.219 C 621.644 566.719 636.441 530.99 636.441 530.99 L 608.162 523.276 C 608.162 523.276 606.828 534.379 606.586 539.991 C 606.44 543.419 604.444 550.745 601.912 557.144 Z " fill="rgb(242,75,70)"/><g><path d=" M 647.325 518.419 L 649.549 518.304 C 649.549 518.304 652.19 513.998 656.521 517.356 C 656.521 517.356 658.232 518.899 657.05 519.892 C 655.868 520.885 656.189 520.285 654.55 521.73 C 652.91 523.175 650.814 523.518 649.482 522.465 L 647.761 522.07 L 647.325 518.419 Z " fill="rgb(255,163,159)"/><path d=" M 624.126 470.931 C 624.126 470.931 606.485 487.334 614.06 513.548 C 616.425 521.732 649.78 523.198 649.78 523.198 C 649.78 523.198 651.574 521.332 648.866 518.169 C 648.866 518.169 628.709 509.2 626.352 507.963 C 624.258 506.863 630.904 487.147 629.857 480.654 C 628.807 474.159 624.126 470.931 624.126 470.931 Z " fill="rgb(177,201,246)"/></g><path d=" M 625.196 624.782 C 625.196 624.782 624.601 631.521 626.057 632.223 L 644.694 632.187 C 644.694 632.187 644.694 630.081 641.7 629.616 C 638.705 629.148 633.447 627.436 632.557 623.615 C 631.669 619.794 625.196 624.782 625.196 624.782 Z " fill="rgb(34,41,86)"/><path d=" M 640.932 529.587 C 640.932 529.587 639.949 541.399 638.793 555.598 C 637.223 574.885 635.333 598.578 635.147 603.067 C 634.826 610.861 633.529 623.329 633.529 623.329 C 633.529 623.329 630.458 626.292 624.306 625.042 C 624.306 625.042 618.825 607.244 617.26 588.413 C 617.236 588.104 617.212 587.795 617.188 587.483 C 615.732 568.312 613.468 527.947 613.468 527.947 L 640.932 529.587 Z " fill="rgb(249,121,90)"/><path d=" M 615.161 465.063 C 615.161 465.063 626.222 472.179 633.133 470.079 C 633.133 470.079 631.212 467.233 629.381 464.959 C 629.621 463.602 629.807 462.425 629.913 461.427 C 630.205 459.121 630.205 457.817 630.205 457.817 L 625.579 454.259 L 621.192 450.854 C 621.54 460.429 615.161 465.063 615.161 465.063 Z " fill="rgb(255,163,159)"/><path d=" M 599.55 551.941 C 613.606 561.225 642.013 558.574 642.226 558.394 C 642.699 552.487 642.967 542.743 643.116 533.724 C 643.299 522.522 643.302 512.443 643.286 512.23 C 643.286 512.23 643.278 511.89 643.262 511.318 C 643.214 509.499 643.103 505.325 642.981 502.214 C 642.959 501.631 642.935 501.091 642.914 500.605 C 642.911 500.579 642.911 500.553 642.909 500.524 C 642.821 499.128 641.947 495.396 640.719 491.045 C 638.918 484.667 636.359 476.974 634.393 473.395 C 633.383 471.558 629.995 466.243 629.995 466.243 C 627.601 466.705 625.877 466.014 623.35 464.811 C 620.586 463.506 617.608 462.097 617.129 462.456 C 613.513 465.042 611.069 470.853 609.764 478.279 C 609.02 482.557 598.856 551.481 599.55 551.941 Z " fill="rgb(36,46,108)"/><path d=" M 621.115 454.513 C 621.115 454.513 624.144 459.914 629.913 461.427 C 630.205 459.121 630.205 457.817 630.205 457.817 L 625.579 454.259 L 621.115 454.513 Z " fill="rgb(255,125,120)"/><path d=" M 632.315 457.661 C 632.315 457.661 620.879 459.49 619.805 452.613 C 618.732 445.736 616.532 441.341 623.788 439.881 C 631.045 438.423 632.876 440.84 633.813 443.051 C 634.751 445.263 635.262 457.008 632.315 457.661 Z " fill="rgb(255,163,159)"/><path d=" M 615.647 439.059 C 615.543 438.942 615.304 438.849 614.77 438.82 C 614.77 438.82 615.195 438.56 615.766 438.545 C 615.878 437.82 616.271 436.536 617.547 436.226 C 617.547 436.226 616.861 436.582 616.771 437.354 C 618.248 435.87 621.413 434.789 630.179 435.467 C 641.729 436.359 637.924 443.595 636.428 444.455 C 634.932 445.318 631.167 442.953 628.382 443.168 C 625.595 443.384 625.066 447.322 624.12 447.862 C 623.174 448.403 623.546 447.446 622.268 446.882 C 620.99 446.316 620.868 448.39 621.237 449.736 C 621.607 451.085 619.85 452.863 619.85 452.863 C 619.85 452.863 619.85 452.863 618.075 450.992 C 616.3 449.12 614.626 441.198 615.434 439.509 C 615.503 439.361 615.575 439.21 615.647 439.059 Z " fill="rgb(38,45,90)"/><path d=" M 643.116 533.724 C 643.299 522.522 643.302 512.443 643.286 512.23 C 643.286 512.23 643.278 511.89 643.262 511.318 C 632.24 497.974 618.041 484.119 618.041 484.119 C 618.041 484.119 614.967 523.255 643.116 533.724 Z " fill="rgb(27,34,81)"/><g><path d=" M 554.897 561.622 L 771.168 471.519 C 772.796 470.84 773.562 468.982 772.868 467.389 L 772.14 465.715 C 771.447 464.122 769.547 463.373 767.918 464.052 L 551.648 554.155 C 550.019 554.834 549.253 556.692 549.947 558.285 L 550.675 559.959 C 551.369 561.552 553.268 562.301 554.897 561.622 Z " fill="rgb(198,67,219)"/><path d=" M 723.316 465.707 L 729.555 480.036 L 766.403 464.683 L 760.165 450.355 C 759.567 448.98 757.925 448.333 756.519 448.92 L 724.782 462.141 C 723.377 462.729 722.718 464.332 723.316 465.707 Z " fill="rgb(36,46,108)"/><g><path d=" M 712.645 457.042 C 714.483 460.769 718.063 464.527 724.785 462.141 C 736.702 457.915 757.194 446.997 763.475 447.745 C 763.475 447.745 763.467 447.73 763.457 447.696 C 763.412 447.579 763.284 447.264 763.058 446.825 C 761.382 443.566 754.268 433.336 734.909 444.551 C 719.853 453.271 710.835 451.296 710.835 451.296 C 710.835 451.296 710.835 451.298 710.838 451.301 L 710.835 451.303 C 710.835 451.306 710.835 451.306 710.838 451.309 C 710.838 451.314 710.841 451.319 710.841 451.324 C 710.843 451.337 710.846 451.355 710.849 451.379 C 710.923 451.87 711.364 454.448 712.645 457.042 Z " fill="rgb(102,21,178)"/><path d=" M 711.329 453.112 C 711.035 452.112 710.872 451.459 710.841 451.324 C 710.841 451.324 710.838 451.324 710.841 451.327 C 710.843 451.34 710.846 451.358 710.849 451.381 C 710.888 451.602 711.021 452.249 711.329 453.112 Z " fill="rgb(196,214,248)"/><linearGradient id="_lgradient_40" x1="0.000012619888945408775" y1="0.5000065033003622" x2="1.0000232205956578" y2="0.5000065033003622" gradientTransform="matrix(52.637,0,0,16.984,710.835,442)" gradientUnits="userSpaceOnUse"><stop offset="0%" stop-opacity="1" style="stop-color:rgb(249,121,90)"/><stop offset="100%" stop-opacity="1" style="stop-color:rgb(235,54,104)"/></linearGradient><path d=" M 763.473 447.748 C 763.473 447.748 757.258 437.908 745.936 443.977 C 734.614 450.048 716.365 456.585 710.835 451.298 C 710.835 451.298 715.392 461.952 726.828 458.173 C 738.267 454.391 755.879 441.476 763.473 447.748 Z " fill="url(#_lgradient_40)"/><g><linearGradient id="_lgradient_41" x1="-0.00005249210070523702" y1="0.5000766368418468" x2="0.9999887880949938" y2="0.5000766368418468" gradientTransform="matrix(52.138,0,0,15.928,711.337,446.962)" gradientUnits="userSpaceOnUse"><stop offset="0%" stop-opacity="1" style="stop-color:rgb(249,121,90)"/><stop offset="100%" stop-opacity="1" style="stop-color:rgb(235,54,104)"/></linearGradient><path d=" M 712.645 457.042 C 714.483 460.769 718.063 464.527 724.785 462.141 C 736.702 457.915 757.194 446.997 763.475 447.745 C 763.475 447.745 757.319 444.122 743.154 452.46 C 717.013 467.841 712.961 457.674 711.337 453.128 C 711.632 454.142 712.068 455.506 712.645 457.042 Z " fill="url(#_lgradient_41)"/><linearGradient id="_lgradient_42" x1="-0.000008079175923825233" y1="0.5001528415310155" x2="0.9999868713391251" y2="0.5001528415310155" gradientTransform="matrix(52.621,0,0,12.832,710.835,439.432)" gradientUnits="userSpaceOnUse"><stop offset="0%" stop-opacity="1" style="stop-color:rgb(249,121,90)"/><stop offset="100%" stop-opacity="1" style="stop-color:rgb(235,54,104)"/></linearGradient><path d=" M 710.835 451.298 C 721.153 455.532 736.976 444.676 748.423 441.3 C 759.397 438.066 763.164 446.958 763.457 447.696 C 763.412 447.579 763.284 447.264 763.058 446.825 C 761.382 443.566 754.268 433.336 734.909 444.551 C 719.851 453.271 710.835 451.298 710.835 451.298 Z " fill="url(#_lgradient_42)"/></g></g><path d=" M 723.316 465.707 L 726.068 472.028 C 737.502 459.514 755.188 453.234 760.653 451.483 L 760.162 450.355 C 759.564 448.98 757.922 448.333 756.516 448.92 L 724.78 462.141 C 723.377 462.729 722.718 464.332 723.316 465.707 Z " fill="rgb(27,34,81)"/></g><path d=" M 628.162 481.842 C 628.313 482.081 631.805 502.239 640.762 502.463 C 641.633 502.486 642.369 502.398 642.983 502.216 C 642.962 501.634 642.938 501.093 642.917 500.607 C 642.914 500.581 642.914 500.555 642.911 500.527 C 642.824 499.131 641.95 495.399 640.722 491.048 C 637.06 490.312 632.772 487.027 628.162 481.842 Z " fill="rgb(27,34,81)"/><path d=" M 617.098 462.458 C 617.098 462.458 618.16 459.438 619.027 459.098 C 619.027 459.098 631.063 461.814 635.078 474.825 C 635.078 474.825 630.394 466.84 617.098 462.458 Z " fill="rgb(27,34,81)"/><path d=" M 669.9 509.275 C 669.9 509.275 670.049 508.922 670.62 508.545 C 671.04 508.093 671.51 507.534 671.627 507.178 C 671.85 506.499 672.711 506.453 672.865 507.11 C 672.916 507.331 672.908 507.56 672.846 507.794 C 674.263 507.586 676.333 507.625 679.351 508.256 C 679.351 508.256 681.705 508.649 679.673 510.125 C 678.315 511.113 677.457 510.881 675.52 512.243 C 673.582 513.605 671.162 513.977 669.671 513.057 L 667.708 512.747 L 667.341 509.439 L 669.9 509.275 Z " fill="rgb(255,163,159)"/><path d=" M 614.451 472.519 C 614.451 472.519 610.423 493.184 634.573 509.153 C 641.094 513.465 670.062 513.951 670.062 513.951 C 670.062 513.951 670.925 510.442 668.994 508.961 C 668.994 508.961 644.235 500.384 641.814 500.807 C 639.667 501.182 628.321 480.467 623.884 476.4 C 619.449 472.332 614.451 472.519 614.451 472.519 Z " fill="rgb(36,46,108)"/></g><g><g><path d=" M 923.723 499.162 C 923.723 499.162 923.558 498.814 922.971 498.466 C 922.53 498.032 921.414 496.488 921.279 496.137 C 921.026 495.469 920.317 496.054 920.195 496.717 C 920.152 496.937 920.644 497.582 920.713 497.811 C 919.288 497.665 917.224 497.793 914.235 498.554 C 914.235 498.554 911.902 499.048 913.998 500.436 C 915.398 501.364 916.246 501.096 918.242 502.372 C 920.24 503.648 922.674 503.916 924.122 502.933 L 926.069 502.538 L 926.287 499.217 L 923.723 499.162 Z " fill="rgb(255,163,159)"/><path d=" M 976.355 462.947 C 976.355 462.947 983.854 480.462 960.445 497.455 C 954.126 502.042 925.206 503.776 925.206 503.776 C 925.206 503.776 924.186 500.308 926.048 498.744 C 926.048 498.744 946.452 491.716 950.302 490.913 C 952.436 490.468 956.18 473.767 960.426 469.512 C 964.677 465.258 976.355 462.947 976.355 462.947 Z " fill="rgb(27,34,81)"/></g><path d=" M 993.255 623.568 C 993.255 623.568 992.731 631.838 991.094 631.958 C 990.876 631.973 982.799 631.973 982.799 631.973 L 972.521 631.973 C 972.521 631.973 972.553 629.484 975.569 628.972 C 978.585 628.46 983.63 626.386 985.456 622.487 C 987.374 618.386 993.255 623.568 993.255 623.568 Z " fill="rgb(27,34,81)"/><path d=" M 993.85 624.337 C 993.85 624.337 990.714 625.364 988.267 625.364 C 985.536 625.364 983.054 624.636 983.054 624.636 C 983.054 624.636 982.464 619.054 979.214 606.75 C 977.511 600.302 975.08 592.011 971.62 581.708 C 962.055 553.235 959.145 536.578 958.879 535.003 C 958.866 534.92 958.861 534.878 958.861 534.878 L 958.893 534.865 L 988.304 522.234 C 988.304 522.234 984.669 561.474 989.306 576.538 C 989.954 578.644 990.512 581.097 990.991 583.753 C 993.919 600.112 993.85 624.337 993.85 624.337 Z " fill="rgb(102,21,178)"/><path d=" M 990.988 583.753 L 979.214 606.75 C 977.511 600.302 975.08 592.011 971.62 581.708 C 962.055 553.235 959.145 536.578 958.879 535.003 C 958.882 534.956 958.885 534.912 958.89 534.865 L 988.302 522.234 C 988.302 522.234 984.667 561.474 989.303 576.538 C 989.954 578.641 990.512 581.095 990.988 583.753 Z " fill="rgb(102,21,178)"/><path d=" M 970.927 623.568 C 970.927 623.568 970.403 631.838 968.767 631.958 C 968.549 631.973 960.468 631.973 960.468 631.973 L 950.156 631.914 C 950.156 631.914 950.225 629.484 953.238 628.969 C 956.252 628.454 961.3 626.383 963.126 622.484 C 965.047 618.386 970.927 623.568 970.927 623.568 Z " fill="rgb(27,34,81)"/><path d=" M 953.61 523.157 C 953.61 523.157 953.228 548.586 957.726 579.808 C 962.225 611.03 960.7 624.283 960.7 624.283 C 960.7 624.283 963.79 625.263 965.036 625.362 C 968.214 625.614 971.472 624.634 971.472 624.634 C 971.472 624.634 977.91 593.401 976.063 577.773 C 974.216 562.145 984.879 524.149 984.879 524.149 L 953.61 523.157 Z " fill="rgb(127,34,186)"/><path d=" M 974.463 463.651 L 968.724 467.332 L 960.429 465.819 C 960.543 465.164 961.09 462.448 961.59 459.989 C 961.619 459.844 961.651 459.698 961.677 459.558 C 962.105 457.466 962.475 455.667 962.475 455.667 L 970.223 452.322 L 973.111 451.075 C 973.103 451.119 972.888 453.396 972.856 453.728 C 972.314 459.639 974.463 463.651 974.463 463.651 Z " fill="rgb(255,163,159)"/><path d=" M 951.894 524.259 C 952.011 537.68 952.928 569.079 953.6 569.719 C 960.747 576.466 992.184 567.868 993.85 560.435 C 995.513 553.001 987.515 465.112 975.308 461.601 C 972.776 460.873 959.233 465.156 959.233 465.156 C 959.233 465.156 957.11 470.591 955.717 477.517 C 955.202 480.083 953.515 498.388 952.532 510.621 C 952.271 513.883 952.059 516.711 951.934 518.694 C 951.883 519.51 951.873 521.509 951.894 524.259 Z " fill="rgb(36,46,108)"/><path d=" M 972.274 453.837 C 970.573 456.657 964.234 459.095 961.59 459.989 C 961.619 459.844 961.651 459.698 961.677 459.558 C 962.105 457.466 962.475 455.667 962.475 455.667 L 970.223 452.322 C 971.934 452.301 972.978 452.678 972.274 453.837 Z " fill="rgb(255,147,143)"/><path d=" M 959.554 455.207 C 959.554 455.207 972.035 459.015 974.339 451.376 C 976.642 443.738 979.807 439.085 971.937 436.33 C 964.066 433.575 961.632 436.042 960.229 438.41 C 958.824 440.777 956.366 454.019 959.554 455.207 Z " fill="rgb(255,163,159)"/><path d=" M 960.718 437.674 C 960.718 437.674 961.515 446.563 963.394 446.178 C 965.272 445.793 966.978 445.505 966.702 448.185 C 966.426 450.864 963.822 453.957 969.612 454.433 C 975.404 454.906 983.729 440.296 982.14 437.531 C 977.548 429.547 954.081 427.938 960.718 437.674 Z " fill="rgb(242,75,70)"/><path d=" M 962.554 461.793 C 962.716 461.726 971.844 457.72 972.912 458.066 C 973.98 458.412 975.311 461.601 975.311 461.601 L 959.236 465.156 C 959.236 465.156 960.5 462.638 962.554 461.793 Z " fill="rgb(27,34,81)"/><path d=" M 909.412 494.552 L 935.3 558.472 C 935.808 559.725 937.272 560.344 938.553 559.847 L 942.629 558.267 C 943.909 557.771 944.542 556.339 944.034 555.086 L 918.146 491.165 C 917.638 489.912 916.174 489.294 914.894 489.79 L 910.818 491.37 C 909.537 491.867 908.902 493.299 909.412 494.552 Z " fill="rgb(198,67,219)"/><g><path d=" M 909.412 494.552 L 912.279 501.629 C 917.705 500.329 923.577 504.579 923.577 504.579 L 918.146 491.168 C 917.638 489.915 916.174 489.296 914.894 489.793 L 910.818 491.373 C 909.537 491.867 908.902 493.299 909.412 494.552 Z " fill="rgb(102,21,178)"/></g><path d=" M 923.938 530.424 L 935.3 558.472 C 935.808 559.725 937.272 560.344 938.553 559.847 L 942.629 558.267 C 943.909 557.771 944.542 556.339 944.034 555.086 L 932.672 527.037 L 923.938 530.424 Z " fill="rgb(127,34,186)"/><path d=" M 861.876 473.226 C 870.034 493.372 893.347 503.232 913.942 495.253 C 920.686 492.641 926.303 488.439 930.517 483.261 C 939.182 472.629 941.946 457.874 936.459 444.325 C 928.301 424.18 904.991 414.322 884.395 422.301 C 884.124 422.407 883.853 422.514 883.587 422.626 C 863.537 430.883 853.825 453.346 861.876 473.226 Z  M 886.449 427.369 C 891.046 425.588 895.797 424.843 900.439 425.009 C 902.392 425.082 904.324 425.318 906.215 425.703 C 917.192 427.946 926.837 435.371 931.277 446.331 C 935.066 455.691 934.288 465.713 929.978 474.037 C 926.303 481.146 920.059 487.017 911.891 490.18 C 900.686 494.523 888.546 492.73 879.355 486.445 C 874.003 482.783 869.648 477.601 867.063 471.215 C 860.037 453.874 868.716 434.243 886.449 427.369 Z " fill="rgb(198,67,219)"/><path d=" M 883.587 422.628 C 890.052 422.425 895.63 423.306 900.439 425.011 C 902.392 425.084 904.324 425.321 906.215 425.705 C 917.192 427.948 926.837 435.374 931.277 446.334 C 935.066 455.693 934.288 465.715 929.978 474.04 C 930.329 477.624 930.467 480.79 930.52 483.261 C 939.185 472.629 941.948 457.874 936.461 444.325 C 928.304 424.18 904.993 414.322 884.398 422.301 C 884.124 422.407 883.856 422.514 883.587 422.628 Z " fill="rgb(127,34,186)"/><g style="opacity:0.5;"><g style="opacity:0.5;"><g opacity="0.5"><path d=" M 867.06 471.22 C 869.646 477.606 874.001 482.788 879.352 486.453 C 888.543 492.737 900.683 494.531 911.888 490.188 C 929.622 483.316 938.303 463.685 931.275 446.337 C 926.837 435.376 917.189 427.951 906.213 425.705 C 899.817 424.395 892.972 424.843 886.447 427.371 C 868.716 434.243 860.037 453.874 867.06 471.22 Z " fill="rgb(237,236,252)"/></g></g><g style="opacity:0.5;"><g opacity="0.5"><path d=" M 867.06 471.22 C 869.646 477.606 874.001 482.788 879.352 486.453 C 885.745 487.76 892.59 487.313 899.116 484.784 C 916.849 477.912 925.53 458.279 918.505 440.936 C 915.919 434.553 911.567 429.367 906.215 425.708 C 899.82 424.398 892.975 424.845 886.449 427.374 C 868.716 434.243 860.037 453.874 867.06 471.22 Z " fill="rgb(192,211,248)"/></g></g><g style="opacity:0.5;"><g opacity="0.5"><path d=" M 893.522 431.61 C 876.086 438.368 867.477 457.492 874.293 474.323 C 875.324 476.87 876.652 479.22 878.22 481.348 C 875.22 478.443 872.773 474.898 871.118 470.812 C 864.711 454.997 872.627 437.094 888.795 430.831 C 894.62 428.572 900.723 428.135 906.449 429.24 C 902.155 429.204 897.771 429.963 893.522 431.61 Z " fill="rgb(239,236,234)"/></g></g></g><path d=" M 951.894 524.259 C 981.72 504.501 979.291 477.328 979.291 477.328 C 967.653 483.75 956.116 498.952 952.532 510.619 C 952.271 513.881 952.059 516.708 951.934 518.691 C 951.883 519.51 951.873 521.509 951.894 524.259 Z " fill="rgb(27,34,81)"/><g><path d=" M 925.913 515.573 C 925.913 515.573 925.671 515.271 925.017 515.061 C 924.488 514.736 923.056 513.67 922.841 513.361 C 922.161 512.384 921.656 513.135 922.06 514.096 C 922.148 514.304 922.543 514.718 922.666 514.925 C 921.247 515.1 919.262 515.684 916.53 517.09 C 916.53 517.09 914.373 518.091 916.738 518.975 C 918.319 519.567 919.079 519.118 921.321 519.916 C 923.564 520.716 925.998 520.433 927.177 519.157 L 928.982 518.338 L 928.421 515.055 L 925.913 515.573 Z " fill="rgb(255,163,159)"/><path d=" M 970.542 465.156 C 970.542 465.156 995.88 469.876 963.086 505.764 C 957.841 511.505 928.432 519.736 928.432 519.736 C 928.432 519.736 926.633 516.586 928.081 514.65 C 928.081 514.65 949.553 499.854 952 499.622 C 954.171 499.417 959.376 476.473 962.525 471.384 C 965.674 466.295 970.542 465.156 970.542 465.156 Z " fill="rgb(36,46,108)"/></g></g><path d=" M 748.197 439.036 L 745.16 440.668 L 748.588 439.943 C 748.975 439.912 749.353 440.083 749.576 440.398 L 752.222 445.851 L 750.556 440.029 C 750.514 439.662 750.703 439.309 751.035 439.132 L 754.795 437.136 L 750.782 438.012 C 750.32 438.113 749.844 437.913 749.6 437.518 L 747.671 433.965 L 748.625 438.001 C 748.694 438.399 748.529 438.799 748.197 439.036 Z " fill="rgb(255,255,255)"/><linearGradient id="_lgradient_43" x1="-0.000010018785225440752" y1="0.5000725002517372" x2="1.0000087664370625" y2="0.5000725002517372" gradientTransform="matrix(21.217,0,0,25.811,875.853,391.497)" gradientUnits="userSpaceOnUse"><stop offset="0%" stop-opacity="1" style="stop-color:rgb(249,121,90)"/><stop offset="100%" stop-opacity="1" style="stop-color:rgb(255,239,233)"/></linearGradient><path d=" M 882.057 403.536 L 875.853 409.732 L 883.699 405.472 C 884.626 405.111 885.681 405.264 886.462 405.869 L 897.07 417.308 L 888.583 404.253 C 888.203 403.387 888.397 402.382 889.074 401.714 L 896.772 394.101 L 887.605 399.154 C 886.55 399.736 885.235 399.593 884.334 398.8 L 876.921 391.497 L 882.312 400.695 C 882.788 401.615 882.687 402.714 882.057 403.536 Z " fill="url(#_lgradient_43)"/><path d=" M 688.864 569.342 L 683.552 574.649 L 690.269 571.002 C 691.064 570.693 691.967 570.823 692.634 571.343 L 701.716 581.136 L 694.449 569.96 C 694.125 569.22 694.289 568.359 694.871 567.785 L 701.464 561.266 L 693.614 565.591 C 692.711 566.088 691.584 565.968 690.814 565.29 L 684.466 559.036 L 689.081 566.912 C 689.488 567.696 689.403 568.64 688.864 569.342 Z " fill="rgb(236,235,252)"/><path d=" M 900.343 627.287 L 900.343 627.287 C 903.763 619.22 911.128 603.766 916.732 605.593 C 922.27 607.399 909.819 620.782 902.809 627.768 C 904.201 628.054 905.461 628.337 906.622 628.597 C 912.024 623.786 920.947 615.901 921.76 619.145 C 922.472 621.988 914.817 626.284 908.96 629.115 C 912.606 629.892 915.364 630.261 918.786 629.499 C 924.425 628.246 927.305 631.989 927.305 631.989 L 884.276 631.989 C 884.278 631.989 891.368 625.632 900.343 627.287 Z " fill="rgb(36,46,108)"/></g></g></g></g></g></svg>