<?xml version="1.0" encoding="UTF-8" standalone="no"?><!-- Generator: Gravit.io --><svg xmlns="http://www.w3.org/2000/svg" xmlns:xlink="http://www.w3.org/1999/xlink" style="isolation:isolate" viewBox="0 0 3600 2000" width="3600pt" height="2000pt"><defs><clipPath id="_clipPath_t00NWMEZ1YYSkufEludiIlyD7SP91lGw"><rect width="3600" height="2000"/></clipPath></defs><g clip-path="url(#_clipPath_t00NWMEZ1YYSkufEludiIlyD7SP91lGw)"><g><rect x="0" y="0" width="3600" height="2000" transform="matrix(1,0,0,1,0,0)" fill="rgb(255,255,255)"/><g><linearGradient id="_lgradient_8" x1="0.49999745682380414" y1="1" x2="0.4999974568238042" y2="-0.0000029966475003639914" gradientTransform="matrix(432.53,0,0,533.93,3167.47,1466.07)" gradientUnits="userSpaceOnUse"><stop offset="0%" stop-opacity="1" style="stop-color:rgb(197,207,255)"/><stop offset="24.8%" stop-opacity="1" style="stop-color:rgb(211,220,255)"/><stop offset="54.71%" stop-opacity="1" style="stop-color:rgb(220,228,255)"/><stop offset="100%" stop-opacity="1" style="stop-color:rgb(223,230,255)"/></linearGradient><path d=" M 3600 1466.07 C 3600 1466.07 3167.47 1542.27 3167.47 2000 L 3599.52 2000 L 3600 1466.07 Z " fill="url(#_lgradient_8)"/><linearGradient id="_lgradient_9" x1="0.49999980959634416" y1="1" x2="0.4999998095963442" y2="0.0000083257829905925" gradientTransform="matrix(1050.4,0,0,408.37,0,1591.63)" gradientUnits="userSpaceOnUse"><stop offset="0%" stop-opacity="1" style="stop-color:rgb(197,207,255)"/><stop offset="24.8%" stop-opacity="1" style="stop-color:rgb(211,220,255)"/><stop offset="54.71%" stop-opacity="1" style="stop-color:rgb(220,228,255)"/><stop offset="100%" stop-opacity="1" style="stop-color:rgb(223,230,255)"/></linearGradient><path d=" M 0 1591.63 L 0 2000 L 1050.4 2000 C 1050.4 2000 917.82 1591.63 0 1591.63 Z " fill="url(#_lgradient_9)"/><linearGradient id="_lgradient_10" x1="0.5000000389593187" y1="-1.0149470828954283e-15" x2="0.5000000389593184" y2="0.9999949671932887" gradientTransform="matrix(2566.78,0,0,608,1033.22,0)" gradientUnits="userSpaceOnUse"><stop offset="0%" stop-opacity="1" style="stop-color:rgb(102,21,178)"/><stop offset="29.56%" stop-opacity="1" style="stop-color:rgb(141,40,195)"/><stop offset="58.489999999999995%" stop-opacity="1" style="stop-color:rgb(172,55,208)"/><stop offset="82.95%" stop-opacity="1" style="stop-color:rgb(191,64,216)"/><stop offset="100%" stop-opacity="1" style="stop-color:rgb(198,67,219)"/></linearGradient><path d=" M 3600 0 L 3600 522.638 C 3600 522.638 1609.44 920.019 1033.22 0 L 3600 0 Z " fill="url(#_lgradient_10)"/><linearGradient id="_lgradient_11" x1="0.5000001708744499" y1="0.9999993255079125" x2="0.50000017087445" y2="2.1094237467877974e-15" gradientTransform="matrix(2340.9,0,0,304,0,0)" gradientUnits="userSpaceOnUse"><stop offset="0%" stop-opacity="1" style="stop-color:rgb(249,121,90)"/><stop offset="100%" stop-opacity="1" style="stop-color:rgb(235,54,104)"/></linearGradient><path d=" M 0 240.896 C 0 240.896 734.33 408.579 1345 197.263 C 1955.67 -14.054 2340.9 0.203 2340.9 0.203 L 0 0 L 0 240.896 Z " fill="url(#_lgradient_11)"/></g></g><g><g><path d=" M 2579.76 1813.59 C 2586 1813.74 2592.15 1813.09 2598.04 1812.12 C 2591.09 1807 2576.45 1796.4 2564.53 1788.94 C 2548.28 1778.8 2539.07 1761.71 2561.99 1758.8 C 2581.52 1756.32 2596.87 1798.94 2601 1811.61 C 2603.67 1811.12 2606.29 1810.58 2608.82 1810.03 C 2605.68 1801.02 2598.8 1781.92 2592.28 1768.6 C 2583.48 1750.62 2552.35 1720.25 2583.48 1716.79 C 2611.17 1713.7 2618.52 1790.52 2619.8 1807.61 C 2625.36 1806.44 2630.22 1805.63 2634.07 1805.92 C 2642.93 1806.57 2651.4 1816.22 2646.39 1820.47 L 2552.9 1820.47 C 2555.93 1817.93 2563.75 1813.21 2579.76 1813.59 Z " fill="rgb(36,46,108)"/><g><g><path d=" M 2477.92 833.18 C 2484.82 829.58 2514.08 837.44 2514.08 837.44 C 2514.08 837.44 2587.69 798.94 2596.17 793.72 C 2605.97 787.68 2632.09 715.6 2651.25 675.88 C 2661.34 654.96 2691.66 655.26 2700.7 676.66 C 2702.33 680.51 2703.08 684.77 2702.51 689.43 C 2699.35 715.25 2633.82 807.27 2625.78 815.07 C 2611.14 829.28 2522.68 851.31 2522.68 851.31 C 2522.68 851.31 2505.31 858.03 2493.69 858.85 C 2482.08 859.67 2471.02 836.78 2477.92 833.18 Z " fill="rgb(255,125,120)"/><path d=" M 2625.65 688.62 C 2626.43 680.05 2632.22 672.48 2635.3 669.01 C 2617.59 689.99 2645.79 731.44 2645.79 731.44 C 2640.86 708.99 2717.68 675.01 2720.76 647.87 C 2723.84 620.74 2698.66 619.06 2692.2 610.67 C 2685.73 602.28 2698.94 558.08 2677.69 540.46 C 2656.43 522.84 2636.9 534.31 2636.9 534.31 C 2641.7 529.27 2650.98 526.76 2650.98 526.76 C 2627.42 526.76 2623.47 542.98 2622.9 550.47 C 2603.26 555.71 2596.67 594.11 2596.67 594.11 L 2658.09 620.09 C 2659.05 622.05 2659.66 623.38 2659.79 623.87 C 2660.91 628.11 2650.33 651.86 2637.41 658.35 C 2622.81 665.68 2625.65 688.62 2625.65 688.62 Z  M 2636.71 667.49 C 2637.03 667.16 2637.22 666.99 2637.22 666.99 C 2637.04 667.15 2636.88 667.32 2636.71 667.49 Z " fill="rgb(242,75,70)"/><path d=" M 2708.89 1146.9 L 2724.12 1144.66 C 2724.12 1144.66 2775.32 1103.97 2782.95 1028.05 C 2783.73 1020.32 2783.89 1012.48 2783.31 1004.58 C 2783.24 1003.67 2783.34 1002.76 2783.84 1001.99 C 2783.84 1001.98 2783.84 1001.98 2783.86 1001.97 C 2785.5 999.46 2789.58 993.16 2795.1 984.21 C 2800.54 975.39 2809.86 958.72 2820.11 940.01 C 2838.57 906.32 2860.07 866.03 2867.44 853.19 C 2890.93 812.29 2879.61 784.79 2879.61 784.79 C 2879.61 784.79 2814.08 778.31 2796.12 762.6 L 2789.65 772.57 C 2789.65 772.57 2775.45 835.43 2776.12 835.72 C 2775.42 837.86 2774.71 840.03 2773.99 842.25 C 2762.78 876.84 2749.9 920.06 2742.87 955.27 C 2738.92 975.08 2736.83 992.34 2737.95 1004.1 C 2738.34 1008.13 2737.87 1014.33 2736.79 1021.98 C 2730.44 1067.1 2708.89 1146.9 2708.89 1146.9 Z " fill="rgb(249,121,90)"/><path d=" M 2676.95 1166.17 L 2740.48 1166.17 C 2740.48 1166.17 2742 1156.49 2738.68 1149.14 C 2735.5 1142.09 2730.97 1141.87 2738.1 1130.82 C 2734.06 1134.98 2721.08 1136.7 2711.9 1135.46 C 2710.77 1137.28 2704.64 1149.53 2700.88 1152.23 C 2696.74 1155.2 2678.22 1154.14 2676.95 1166.17 Z " fill="rgb(34,41,86)"/><path d=" M 2773.98 842.25 C 2779.53 872.86 2792.64 923.8 2820.1 940.01 C 2838.56 906.32 2860.06 866.03 2867.43 853.19 C 2890.92 812.29 2879.6 784.79 2879.6 784.79 C 2879.6 784.79 2814.07 778.31 2796.11 762.6 L 2789.64 772.57 C 2789.64 772.57 2775.44 835.43 2776.11 835.72 C 2775.41 837.86 2774.7 840.04 2773.98 842.25 Z " fill="rgb(242,75,70)"/><path d=" M 2818.54 789.52 L 2818.32 777.64 C 2841.99 780.63 2899.95 749.35 2899.95 749.35 C 2899.95 749.35 2924.72 765.82 2928.11 812.87 C 2929.77 835.83 2940.24 932.94 2941.39 961.94 C 2941.81 972.45 2941.95 979.95 2942 982.95 C 2942 982.96 2942 982.97 2942 982.98 C 2942.01 983.89 2942.44 984.7 2943.01 985.42 C 2947.91 991.65 2952.16 998.24 2955.84 1005.08 C 2991.97 1072.29 2973.08 1163.62 2973.08 1163.62 L 2964.69 1161.49 C 2964.69 1161.49 2934.14 1066.81 2914.18 1025.86 C 2910.79 1018.91 2907.71 1013.51 2905.14 1010.38 C 2897.63 1001.26 2889.72 985.78 2881.92 967.15 C 2867.17 931.92 2852.86 885.44 2842.65 849.45 C 2841.91 849.57 2818.54 789.52 2818.54 789.52 Z " fill="rgb(249,121,90)"/><path d=" M 2680 710.21 C 2718.7 701.33 2693.98 646.94 2691.73 647.9 C 2686.37 646.81 2674.59 637.39 2664.05 619 L 2662.63 620.23 L 2638.86 641.07 C 2638.86 641.07 2644.36 649.18 2648.98 657.11 C 2652.59 663.32 2655.66 669.45 2655.18 671.55 C 2653.26 673.07 2669.67 712.59 2680 710.21 Z " fill="rgb(255,163,159)"/><path d=" M 2654.69 668.59 C 2654.69 668.59 2645.99 680.87 2640.69 691.84 C 2635.39 702.81 2620.97 738.07 2620.97 738.07 C 2620.97 738.07 2636.36 761.97 2662.32 764.57 C 2662.32 764.57 2679.41 744.93 2677.43 724.61 C 2675.45 704.29 2654.69 668.59 2654.69 668.59 Z " fill="rgb(27,34,81)"/><path d=" M 2638.86 641.09 C 2638.86 641.09 2644.36 649.19 2648.98 657.13 C 2663.76 648.02 2663.77 629.72 2662.64 620.25 L 2638.86 641.09 L 2638.86 641.09 Z " fill="rgb(255,125,120)"/><path d=" M 2638.21 651.53 C 2638.21 651.53 2674.09 631.56 2661.31 609.41 C 2648.53 587.25 2644.56 569.76 2621.11 581.57 C 2597.66 593.38 2598.12 604.38 2600.59 612.81 C 2603.05 621.24 2628.54 656.15 2638.21 651.53 Z " fill="rgb(255,163,159)"/><path d=" M 2594.52 599.88 C 2596.16 590.04 2601.16 589.1 2604.64 589.76 C 2617.89 567.84 2639.54 576.4 2639.54 576.4 C 2651.1 590.91 2667.82 593.39 2667.82 593.39 C 2667.82 593.39 2663.66 601.14 2646.5 605.93 C 2641.26 607.4 2635.31 606.51 2629.57 604.58 C 2641.47 611.22 2653.92 613.76 2653.92 613.76 C 2631.31 615.83 2609.8 595.16 2607.57 592.95 C 2606.53 596.15 2604.7 602.86 2605.79 607.76 C 2607.28 614.42 2613.19 626.49 2609.58 628.05 C 2609.6 628.05 2592.06 614.64 2594.52 599.88 Z " fill="rgb(242,75,70)"/><path d=" M 2922.54 1166.17 L 2986.07 1166.17 C 2986.07 1166.17 2987.59 1156.49 2984.27 1149.14 C 2981.09 1142.09 2976.11 1138.89 2977.3 1130.36 C 2973.26 1134.51 2966.68 1139.17 2957.5 1137.94 C 2956.37 1139.76 2950.24 1149.53 2946.48 1152.23 C 2942.33 1155.2 2923.82 1154.14 2922.54 1166.17 Z " fill="rgb(34,41,86)"/><path d=" M 2675.44 753.33 C 2683.62 756.18 2695.09 757.75 2706.82 759.02 C 2723.53 760.84 2740.78 762.09 2749.81 765.7 C 2751.58 766.4 2756.71 768.55 2761.86 772.28 L 2761.86 772.29 C 2761.86 772.29 2761.99 772.37 2762.22 772.56 C 2763.93 773.8 2765.63 775.24 2767.2 776.86 C 2769.6 779.32 2771.69 782.21 2773.03 785.51 C 2776.34 793.7 2771.96 816.39 2769.14 828.8 C 2768.01 833.79 2770.36 838.95 2774.91 841.31 C 2781.26 844.59 2787.5 847.63 2793.64 850.4 C 2793.96 850.55 2794.28 850.69 2794.61 850.83 C 2794.55 849.57 2794.53 848.32 2794.53 847.09 C 2794.52 838.53 2795.6 831.41 2795.6 831.41 C 2797.11 840.05 2802.8 849.38 2808.11 856.56 C 2893.37 890.77 2952.94 875.9 2951.96 858.86 C 2948.6 799.69 2908.69 749.36 2908.69 749.36 C 2834.27 662.82 2683.73 640.04 2683.73 640.04 C 2683.73 640.04 2676.52 639.17 2667.82 649.63 C 2655.3 664.69 2654.68 668.61 2654.68 668.61 C 2654.68 668.61 2651.39 744.94 2675.44 753.33 Z " fill="rgb(36,46,108)"/><path d=" M 2706.83 759.02 C 2723.53 760.84 2740.78 762.09 2749.82 765.69 C 2753.51 710.52 2727.48 669.02 2727.48 669.02 C 2727.48 669.02 2710.49 738.14 2706.83 759.02 Z " fill="rgb(27,34,81)"/><g><path d=" M 2521.61 862.6 L 2521.61 862.6 C 2523.62 859.52 2522.74 855.35 2519.66 853.34 L 2479.72 827.3 C 2476.64 825.29 2472.47 826.17 2470.46 829.25 L 2470.46 829.25 C 2468.45 832.33 2469.33 836.5 2472.41 838.51 L 2512.35 864.55 C 2515.43 866.56 2519.6 865.68 2521.61 862.6 Z " fill="rgb(36,46,108)"/><g><path d=" M 2476.91 835.14 L 2478.45 832.78 L 2443.24 811.14 C 2439.01 808.38 2433.71 807.94 2429.08 809.97 L 2413.41 816.83 L 2414.3 818.24 L 2429.33 810.55 C 2433.77 808.61 2438.84 809.03 2442.89 811.67 L 2476.91 835.14 L 2476.91 835.14 Z " fill="rgb(36,46,108)"/></g></g><path d=" M 2570.01 900.31 C 2583.49 899.65 2598.07 911.16 2598.07 911.16 C 2598.07 911.16 2645.44 830.97 2652.77 823.47 C 2664.28 811.69 2675.46 667.78 2689.64 658.35 C 2689.64 658.35 2731.51 662.49 2734.86 689.69 C 2738.22 716.89 2694.72 827.7 2688.49 837.74 C 2677.15 856.01 2610.37 918.62 2610.37 918.62 C 2610.37 918.62 2603.54 931.87 2595.02 930.51 C 2586.5 929.14 2548.99 904.02 2548.99 904.02 C 2548.99 904.02 2556.53 900.96 2570.01 900.31 Z " fill="rgb(255,163,159)"/><path d=" M 2769.14 828.78 C 2768.01 833.77 2770.36 838.93 2774.91 841.29 C 2781.26 844.57 2787.5 847.61 2793.64 850.38 C 2793.96 849.34 2794.26 848.24 2794.53 847.08 C 2795.49 842.76 2795.94 837.59 2795.6 831.4 C 2794.18 805.21 2776.34 785.37 2767.2 776.85 C 2769.6 779.31 2771.69 782.2 2773.03 785.5 C 2776.34 793.68 2771.95 816.38 2769.14 828.78 Z " fill="rgb(27,34,81)"/><path d=" M 2683.74 640.02 C 2683.74 640.02 2677.19 631.73 2672.76 632 C 2672.76 632 2654.84 657.08 2654.7 668.59 C 2654.69 668.59 2677.04 638.86 2683.74 640.02 Z " fill="rgb(27,34,81)"/><path d=" M 2667.83 710.32 C 2667.83 710.32 2663.53 640.18 2717.22 657.14 C 2770.91 674.1 2708.89 794.75 2708.89 794.75 C 2708.89 794.75 2677.38 793.19 2666.2 765.7 L 2667.83 710.32 L 2667.83 710.32 Z " fill="rgb(36,46,108)"/></g><path d=" M 2178.46 1497.96 C 2186.26 1552.29 2199.86 1602.02 2220.71 1643 C 2335.38 1868.29 2403.59 1663.49 2454.45 1570.27 C 2502.31 1482.53 2552.5 1448.63 2627.76 1500.98 C 2683.13 1539.47 2700.85 1806.68 2790.01 1819.22 C 2862.22 1829.37 3130.93 1580.75 3067.62 1051.79 C 3066.4 1041.6 3064.13 1030.32 3060.25 1018.77 C 3041.84 963.99 2987.17 903.42 2836.11 926.68 C 2697.91 947.96 2688.37 973.58 2602.48 934.55 C 2516.58 895.53 2398.24 774.86 2291.53 861.95 C 2225.64 915.74 2143.39 1253.5 2178.46 1497.96 Z " fill="rgb(133,169,221)"/><path d=" M 2178.46 1497.95 C 2186.37 1532.49 2197.18 1564.29 2211.32 1592.07 C 2326 1817.37 2394.2 1612.56 2445.06 1519.34 C 2492.91 1431.6 2543.1 1397.7 2618.38 1450.05 C 2673.74 1488.54 2691.47 1755.74 2780.62 1768.28 C 2851 1778.17 3108.01 1542.27 3062.42 1040.64 C 3061.77 1033.4 3061.04 1026.1 3060.26 1018.75 C 3041.85 963.97 2987.18 903.4 2836.13 926.66 C 2697.92 947.94 2688.39 973.55 2602.49 934.54 C 2516.59 895.51 2398.25 774.85 2291.55 861.94 C 2246.8 898.46 2194.53 1065.84 2176.55 1246.05 C 2168.04 1331.32 2167.2 1419.45 2178.46 1497.95 Z " fill="rgb(192,211,248)"/><path d=" M 2296.47 936.98 C 2269.33 985.7 2275.2 1086.83 2309.17 1092.11 C 2343.15 1097.39 2372.5 1008.93 2410.36 974.25 C 2465.08 924.13 2426.33 888.12 2392.35 882.84 C 2358.37 877.56 2321.45 892.13 2296.47 936.98 Z " fill="rgb(236,235,252)"/><path d=" M 2175.97 1478.61 C 2176.71 1485.12 2177.55 1491.57 2178.46 1497.95 C 2186.37 1532.5 2197.18 1564.29 2211.32 1592.07 C 2297.7 1761.77 2357.7 1687.44 2403.79 1600.58 C 2403.8 1600.58 2403.8 1600.57 2403.8 1600.57 C 2418.9 1572.13 2432.5 1542.33 2445.05 1519.33 C 2472 1469.93 2499.7 1437.59 2532.18 1428.12 L 2532.19 1428.12 C 2549.36 1423.11 2567.88 1424.49 2588.35 1433.11 C 2597.92 1437.14 2607.91 1442.76 2618.38 1450.04 C 2653.62 1474.55 2673.61 1591.73 2706.5 1676.9 C 2725.26 1725.53 2748.23 1763.72 2780.62 1768.27 C 2838.64 1776.44 3023.5 1617.55 3061.08 1280.45 L 3061.09 1280.44 C 3065.31 1242.61 3067.68 1202.54 3067.8 1160.2 C 3067.9 1127.63 3066.67 1093.7 3063.92 1058.43 C 3063.47 1052.54 3062.96 1046.6 3062.42 1040.64 C 3050.87 1055.04 3037.82 1070.34 3023.27 1086.08 C 2929.37 1187.66 2772.55 1307.31 2547.26 1318.4 C 2511.35 1320.17 2473.7 1319.18 2434.28 1314.92 C 2355.47 1306.4 2269.62 1284.8 2176.54 1246.03 C 2173.52 1276.25 2171.47 1306.82 2170.58 1337.2 L 2170.58 1337.21 C 2169.17 1385.61 2170.7 1433.48 2175.97 1478.61 Z " fill="rgb(177,201,246)"/><path d=" M 2532.2 1428.13 C 2549.37 1423.12 2567.89 1424.5 2588.36 1433.12 C 2597.93 1437.15 2607.92 1442.77 2618.39 1450.05 C 2653.63 1474.56 2673.62 1591.74 2706.51 1676.91 C 2725.27 1725.54 2748.24 1763.73 2780.63 1768.28 C 2838.65 1776.45 3023.51 1617.56 3061.09 1280.46 C 3023.69 1352.97 2928.95 1624.72 2771.06 1570.9 C 2666.32 1535.2 2676.95 1419.02 2532.2 1428.13 Z " fill="rgb(154,192,239)"/><path d=" M 2175.97 1478.61 C 2176.71 1485.12 2177.55 1491.57 2178.46 1497.95 C 2186.37 1532.5 2197.94 1563.92 2211.32 1592.07 C 2328.25 1838.16 2409.12 1588.48 2455.2 1501.62 C 2454.04 1503.52 2374.59 1636.97 2289.45 1591.28 C 2218.38 1553.14 2171.86 1459.14 2170.59 1337.23 C 2169.17 1385.61 2170.7 1433.48 2175.97 1478.61 Z " fill="rgb(154,192,239)"/><g><path d=" M 3012.59 1163.92 C 3012.59 1158.83 3008.46 1154.71 3003.37 1154.71 C 2998.28 1154.71 2994.16 1158.83 2994.16 1163.92 C 2994.16 1169.01 2998.29 1173.13 3003.37 1173.13 C 3008.47 1173.13 3012.59 1169 3012.59 1163.92 Z " fill="rgb(239,236,234)"/><path d=" M 2987.88 1117.41 C 2987.88 1114.87 2985.82 1112.8 2983.27 1112.8 C 2980.72 1112.8 2978.66 1114.86 2978.66 1117.41 C 2978.66 1119.96 2980.72 1122.02 2983.27 1122.02 C 2985.82 1122.02 2987.88 1119.95 2987.88 1117.41 Z " fill="rgb(239,236,234)"/><path d=" M 2952.8 1173.13 C 2952.8 1170.59 2950.74 1168.52 2948.19 1168.52 C 2945.64 1168.52 2943.58 1170.58 2943.58 1173.13 C 2943.58 1175.68 2945.64 1177.74 2948.19 1177.74 C 2950.74 1177.74 2952.8 1175.68 2952.8 1173.13 Z " fill="rgb(239,236,234)"/></g></g><g><g><path d=" M 1435.9 1654.99 C 1435.9 1654.99 1462.3 1624.19 1437.53 1604.63 C 1437.53 1604.63 1419.44 1593.68 1404.69 1594.57 C 1404.69 1594.57 1425.59 1629.62 1418.83 1633.11 C 1412.07 1636.6 1398.35 1592.37 1398.35 1592.37 C 1398.35 1592.37 1357.18 1588.38 1343.93 1594.74 C 1343.93 1594.74 1379.13 1623.54 1371.71 1625.26 C 1364.3 1626.97 1326.28 1598.7 1326.28 1598.7 C 1326.28 1598.7 1287.96 1605.22 1290 1628.6 C 1292.04 1651.98 1305.25 1659.19 1311.05 1658.57 C 1316.85 1657.95 1350.8 1644.99 1351.54 1649.75 C 1352.28 1654.51 1331.85 1670.05 1317.54 1670.77 C 1317.54 1670.77 1344.56 1700.56 1362.51 1691.96 C 1380.46 1683.36 1382 1669.73 1393.19 1664.62 C 1404.38 1659.51 1413.94 1659.52 1409.32 1664.74 C 1404.7 1669.95 1384.44 1675.02 1378.04 1686.34 C 1371.64 1697.66 1365.9 1705.3 1384.47 1702.5 C 1403.05 1699.71 1433.24 1686.11 1434.57 1670.55 C 1435.9 1654.99 1435.9 1654.99 1435.9 1654.99 Z " fill="rgb(27,34,81)"/><g><path d=" M 1308.83 1629.23 C 1308.83 1629.23 1412.91 1625.22 1435.89 1654.98 C 1435.89 1654.98 1440.97 1670.2 1456.61 1684.07 L 1459.05 1690.71 C 1459.05 1690.71 1441.01 1671.69 1434.56 1670.54 C 1434.57 1670.55 1444.66 1633.68 1308.83 1629.23 Z " fill="rgb(27,34,81)"/><path d=" M 1456.62 1684.07 C 1456.62 1684.07 1478.96 1700.59 1480.51 1730.11 L 1476.46 1730.47 C 1476.46 1730.47 1469.33 1699.95 1456.43 1688.01 C 1443.53 1676.08 1456.62 1684.07 1456.62 1684.07 Z " fill="rgb(27,34,81)"/></g></g><g><path d=" M 1528.19 1616.26 C 1528.19 1616.26 1486.2 1592.75 1505.8 1560.83 C 1505.8 1560.83 1521.48 1541.23 1538.27 1536.2 C 1538.27 1536.2 1529.31 1583.79 1538.27 1584.91 C 1547.23 1586.03 1544.43 1531.16 1544.43 1531.16 C 1544.43 1531.16 1588.66 1509.89 1606.02 1511.56 C 1606.02 1511.56 1578.59 1558.03 1587.54 1556.91 C 1596.5 1555.79 1627.29 1508.76 1627.29 1508.76 C 1627.29 1508.76 1672.64 1500.36 1679.92 1527.24 C 1687.2 1554.11 1675.44 1567.55 1668.72 1569.23 C 1662 1570.91 1618.89 1570.35 1620.01 1575.95 C 1621.13 1581.55 1650.24 1590.51 1666.48 1585.47 C 1666.48 1585.47 1648.56 1629.7 1625.05 1627.46 C 1601.54 1625.22 1594.26 1610.66 1579.7 1609.54 C 1565.14 1608.42 1554.51 1612.34 1561.78 1616.26 C 1569.06 1620.18 1593.69 1617.54 1605.45 1627.54 C 1617.21 1637.53 1626.73 1643.69 1604.89 1648.17 C 1583.06 1652.65 1543.86 1649.85 1536.03 1633.05 C 1528.19 1616.26 1528.19 1616.26 1528.19 1616.26 Z " fill="rgb(36,46,108)"/><g><path d=" M 1659.2 1535.64 C 1659.2 1535.64 1541.63 1573.71 1528.19 1616.26 C 1528.19 1616.26 1528.75 1635.3 1516.99 1657.13 L 1516.99 1665.53 C 1516.99 1665.53 1529.31 1636.98 1536.03 1633.06 C 1536.03 1633.05 1509.71 1596.1 1659.2 1535.64 Z " fill="rgb(27,34,81)"/><path d=" M 1516.99 1657.13 C 1516.99 1657.13 1498.86 1684.66 1509.2 1718.18 L 1513.86 1716.93 C 1513.86 1716.93 1509.33 1680.01 1518.82 1661.45 C 1528.31 1642.88 1516.99 1657.13 1516.99 1657.13 Z " fill="rgb(27,34,81)"/></g></g><g><path d=" M 1461.39 1583.83 C 1461.39 1583.83 1516.74 1552.83 1490.91 1510.77 C 1490.91 1510.77 1470.24 1484.94 1448.1 1478.3 C 1448.1 1478.3 1459.91 1541.03 1448.1 1542.51 C 1436.29 1543.99 1439.98 1471.66 1439.98 1471.66 C 1439.98 1471.66 1381.68 1443.62 1358.8 1445.83 C 1358.8 1445.83 1394.96 1507.09 1383.15 1505.61 C 1371.34 1504.13 1330.75 1442.14 1330.75 1442.14 C 1330.75 1442.14 1270.97 1431.07 1261.38 1466.49 C 1251.79 1501.92 1267.28 1519.63 1276.14 1521.84 C 1285 1524.05 1341.82 1523.32 1340.35 1530.7 C 1338.87 1538.08 1300.5 1549.89 1279.1 1543.25 C 1279.1 1543.25 1302.72 1601.55 1333.71 1598.6 C 1364.71 1595.65 1374.3 1576.46 1393.49 1574.98 C 1412.68 1573.51 1426.7 1578.67 1417.11 1583.84 C 1407.52 1589.01 1375.04 1585.53 1359.55 1598.71 C 1344.05 1611.89 1331.51 1620 1360.29 1625.91 C 1389.07 1631.81 1440.73 1628.12 1451.07 1605.98 C 1461.39 1583.83 1461.39 1583.83 1461.39 1583.83 Z " fill="rgb(36,46,108)"/><g><path d=" M 1288.69 1477.55 C 1288.69 1477.55 1443.67 1527.73 1461.39 1583.82 C 1461.39 1583.82 1460.65 1608.91 1476.15 1637.69 L 1476.15 1648.76 C 1476.15 1648.76 1459.91 1611.12 1451.06 1605.95 C 1451.05 1605.97 1485.74 1557.26 1288.69 1477.55 Z " fill="rgb(27,34,81)"/><path d=" M 1476.15 1637.7 C 1476.15 1637.7 1500.05 1673.99 1486.42 1718.18 L 1480.27 1716.53 C 1480.27 1716.53 1486.24 1667.87 1473.73 1643.39 C 1461.23 1618.92 1476.15 1637.7 1476.15 1637.7 Z " fill="rgb(27,34,81)"/></g></g><path d=" M 1354.23 1708.89 L 1351.71 1708.89 L 1351.71 1705.56 L 1574.59 1705.56 L 1574.59 1708.89 L 1570.97 1708.89 C 1569.64 1752.98 1541.99 1790.45 1503.19 1806.13 L 1559.81 1806.13 C 1567.2 1806.13 1573.19 1812.12 1573.19 1819.51 L 1353.35 1819.51 C 1353.35 1812.12 1359.34 1806.13 1366.73 1806.13 L 1422.03 1806.13 C 1383.21 1790.45 1355.55 1752.98 1354.23 1708.89 Z " fill="rgb(249,121,90)"/><path d=" M 1463.72 1806.12 L 1490.66 1806.12 C 1529.42 1790.45 1557.04 1753.02 1558.39 1708.98 L 1531.46 1708.98 C 1530.11 1753.03 1502.48 1790.44 1463.72 1806.12 Z " fill="rgb(239,236,234)"/></g><g><g><g><path d=" M 1789.78 1388 C 1775.26 1387.94 1765.13 1365.44 1755.34 1343.69 C 1748.93 1329.45 1742.99 1315.25 1737.75 1311.32 C 1732.59 1307.44 1722.47 1308.01 1716.89 1310.16 C 1709.65 1312.95 1703.7 1321 1698.17 1335.52 C 1696.96 1338.71 1695.73 1342.36 1694.43 1346.23 C 1688.57 1363.72 1681.92 1383.55 1668.94 1385.4 C 1660.07 1386.66 1650.11 1379.11 1638.46 1362.32 C 1632.01 1353.01 1626.65 1341 1622.55 1326.61 C 1605.02 1265.15 1614.31 1176.81 1629.65 1160.37 L 1629.65 1160.37 C 1648.86 1139.78 1674.43 1151.23 1694.98 1160.44 C 1701.28 1163.26 1707.22 1165.92 1712.51 1167.51 C 1728.34 1172.25 1733.53 1170.33 1747.41 1165.19 C 1753.16 1163.06 1760.31 1160.41 1770.21 1157.48 C 1808.95 1146 1825.26 1160.1 1832.12 1173.96 C 1833.42 1176.59 1834.47 1179.43 1835.25 1182.39 C 1846.31 1224.92 1848.65 1264.81 1842.19 1300.95 C 1835.58 1337.96 1821.55 1360.28 1813.78 1370.29 C 1805.16 1381.39 1796.21 1388.01 1789.82 1388.01 C 1789.81 1388 1789.79 1388 1789.78 1388 Z  M 1748.68 1168.57 C 1734.39 1173.86 1728.47 1176.05 1711.48 1170.96 C 1705.96 1169.31 1699.91 1166.6 1693.5 1163.73 C 1672.99 1154.54 1649.75 1144.13 1632.3 1162.83 C 1617.83 1178.33 1609.13 1266.33 1626.04 1325.61 C 1630.04 1339.61 1635.86 1348.99 1642.09 1357.97 C 1652.73 1373.31 1659.89 1379.26 1667.17 1378.22 C 1677.94 1376.69 1685.76 1360.76 1691.02 1345.07 C 1692.33 1341.16 1693.56 1337.48 1694.81 1334.22 C 1700.73 1318.68 1707.34 1309.95 1715.61 1306.77 C 1722.21 1304.23 1732.38 1304.87 1738.71 1309.79 C 1744.88 1314.59 1751.69 1326.71 1758.66 1342.2 C 1767.55 1361.95 1777.62 1384.33 1789.82 1384.38 C 1789.83 1384.38 1789.84 1384.38 1789.84 1384.38 C 1793.73 1384.38 1801.58 1380.11 1810.94 1368.06 C 1848.99 1319.07 1846.83 1169.87 1797.69 1159.76 C 1777.34 1155.58 1754.38 1166.46 1748.68 1168.57 Z " fill="rgb(127,34,186)"/></g><g><path d=" M 1666.45 1194.81 L 1667.18 1193.86 L 1600.68 1143.08 L 1465.4 1143.08 L 1465.4 1144.28 L 1600.27 1144.28 L 1666.45 1194.81 Z " fill="rgb(127,34,186)"/></g><g><path d=" M 1465.4 1357.76 L 1600.68 1357.76 L 1600.84 1357.64 L 1667.18 1306.98 L 1666.45 1306.02 L 1600.27 1356.55 L 1465.4 1356.55 L 1465.4 1357.76 Z " fill="rgb(127,34,186)"/></g><g><rect x="1461.38" y="1250.82" width="205.44" height="1.21" transform="matrix(1,0,0,1,0,0)" fill="rgb(127,34,186)"/></g></g><g><path d=" M 1467.61 1227.54 L 1528.25 1227.54 C 1529.47 1227.54 1530.46 1226.54 1530.46 1225.33 L 1530.46 1225.33 C 1530.46 1224.11 1529.47 1223.12 1528.25 1223.12 L 1467.61 1223.12 C 1466.39 1223.12 1465.4 1224.11 1465.4 1225.33 L 1465.4 1225.33 C 1465.4 1226.55 1466.39 1227.54 1467.61 1227.54 Z " fill="rgb(127,34,186)"/><path d=" M 1467.61 1236.39 L 1528.25 1236.39 C 1529.47 1236.39 1530.46 1235.4 1530.46 1234.18 L 1530.46 1234.18 C 1530.46 1232.96 1529.47 1231.97 1528.25 1231.97 L 1467.61 1231.97 C 1466.39 1231.97 1465.4 1232.97 1465.4 1234.18 L 1465.4 1234.18 C 1465.4 1235.39 1466.39 1236.39 1467.61 1236.39 Z " fill="rgb(127,34,186)"/></g><g><path d=" M 1467.61 1126.63 L 1528.25 1126.63 C 1529.47 1126.63 1530.46 1125.64 1530.46 1124.42 L 1530.46 1124.42 C 1530.46 1123.2 1529.47 1122.21 1528.25 1122.21 L 1467.61 1122.21 C 1466.39 1122.21 1465.4 1123.2 1465.4 1124.42 L 1465.4 1124.42 C 1465.4 1125.64 1466.39 1126.63 1467.61 1126.63 Z " fill="rgb(127,34,186)"/><path d=" M 1467.61 1135.48 L 1528.25 1135.48 C 1529.47 1135.48 1530.46 1134.49 1530.46 1133.27 L 1530.46 1133.27 C 1530.46 1132.05 1529.47 1131.06 1528.25 1131.06 L 1467.61 1131.06 C 1466.39 1131.06 1465.4 1132.06 1465.4 1133.27 L 1465.4 1133.27 C 1465.4 1134.48 1466.39 1135.48 1467.61 1135.48 Z " fill="rgb(127,34,186)"/></g><g><path d=" M 1467.61 1338.9 L 1528.25 1338.9 C 1529.47 1338.9 1530.46 1337.91 1530.46 1336.69 L 1530.46 1336.69 C 1530.46 1335.47 1529.47 1334.48 1528.25 1334.48 L 1467.61 1334.48 C 1466.39 1334.48 1465.4 1335.48 1465.4 1336.69 L 1465.4 1336.69 C 1465.4 1337.91 1466.39 1338.9 1467.61 1338.9 Z " fill="rgb(127,34,186)"/><path d=" M 1467.61 1347.75 L 1528.25 1347.75 C 1529.47 1347.75 1530.46 1346.75 1530.46 1345.54 L 1530.46 1345.54 C 1530.46 1344.32 1529.47 1343.33 1528.25 1343.33 L 1467.61 1343.33 C 1466.39 1343.33 1465.4 1344.32 1465.4 1345.54 L 1465.4 1345.54 C 1465.4 1346.75 1466.39 1347.75 1467.61 1347.75 Z " fill="rgb(127,34,186)"/></g></g><g><path d=" M 1858.63 1762.3 C 1858.63 1762.3 1846.15 1773.69 1848.58 1781.79 C 1851.02 1789.88 1862.28 1795.28 1863.81 1805.18 C 1865.33 1815.07 1871.42 1820.47 1876.9 1820.47 C 1882.38 1820.47 1903.03 1820.47 1903.03 1820.47 C 1903.03 1820.47 1907.06 1813.51 1897.32 1811.41 C 1887.58 1809.31 1883.9 1797.68 1884.51 1786.89 C 1885.12 1776.1 1883.6 1761.71 1883.6 1761.71 L 1862.89 1756.91 L 1858.63 1762.3 L 1858.63 1762.3 Z " fill="rgb(34,41,86)"/><path d=" M 1858.63 1755.15 C 1860.91 1761.9 1886.04 1771.79 1886.04 1771.79 C 1886.04 1771.79 1899.73 1750.21 1943.59 1672.85 C 1947.36 1666.18 1951.31 1658.87 1955.37 1651.09 C 1998.43 1568.37 2054.12 1430.9 2054.12 1430.9 L 1947.69 1401.22 C 1947.69 1401.22 1942.67 1443.94 1941.76 1465.53 C 1941.2 1478.72 1933.7 1506.91 1924.17 1531.53 C 1918.11 1547.2 1911.21 1561.42 1904.77 1569.41 C 1875.4 1605.82 1858.63 1755.15 1858.63 1755.15 Z " fill="rgb(249,121,90)"/><path d=" M 1924.16 1531.53 C 1930.85 1565.46 1943.13 1622.27 1955.36 1651.09 C 1998.42 1568.37 2054.11 1430.9 2054.11 1430.9 L 1947.68 1401.22 C 1947.68 1401.22 1942.66 1443.94 1941.75 1465.53 C 1941.2 1478.72 1933.69 1506.91 1924.16 1531.53 Z " fill="rgb(242,75,70)"/><g><path d=" M 2095.07 1382.53 L 2103.44 1382.09 C 2103.44 1382.09 2113.38 1365.52 2129.68 1378.44 C 2129.68 1378.44 2136.12 1384.38 2131.67 1388.2 C 2127.22 1392.02 2128.43 1389.71 2122.26 1395.27 C 2116.09 1400.83 2108.2 1402.15 2103.19 1398.1 L 2096.71 1396.58 L 2095.07 1382.53 L 2095.07 1382.53 Z " fill="rgb(255,163,159)"/><path d=" M 2007.76 1199.82 C 2007.76 1199.82 1941.37 1262.93 1969.88 1363.79 C 1978.78 1395.28 2104.31 1400.92 2104.31 1400.92 C 2104.31 1400.92 2111.06 1393.74 2100.87 1381.57 C 2100.87 1381.57 2025.01 1347.06 2016.14 1342.3 C 2008.26 1338.07 2033.27 1262.21 2029.33 1237.23 C 2025.38 1212.24 2007.76 1199.82 2007.76 1199.82 Z " fill="rgb(177,201,246)"/></g><path d=" M 2011.79 1791.77 C 2011.79 1791.77 2009.55 1817.7 2015.03 1820.4 L 2085.17 1820.26 C 2085.17 1820.26 2085.17 1812.16 2073.9 1810.37 C 2062.63 1808.57 2042.84 1801.98 2039.49 1787.28 C 2036.15 1772.58 2011.79 1791.77 2011.79 1791.77 Z " fill="rgb(34,41,86)"/><path d=" M 2071.01 1425.5 C 2071.01 1425.5 2067.31 1470.95 2062.96 1525.58 C 2057.05 1599.79 2049.94 1690.95 2049.24 1708.22 C 2048.03 1738.21 2043.15 1786.18 2043.15 1786.18 C 2043.15 1786.18 2031.59 1797.58 2008.44 1792.77 C 2008.44 1792.77 1987.81 1724.29 1981.92 1651.84 C 1981.83 1650.65 1981.74 1649.46 1981.65 1648.26 C 1976.17 1574.5 1967.65 1419.19 1967.65 1419.19 L 2071.01 1425.5 L 2071.01 1425.5 Z " fill="rgb(249,121,90)"/><path d=" M 1974.02 1177.24 C 1974.02 1177.24 2015.65 1204.62 2041.66 1196.54 C 2041.66 1196.54 2034.43 1185.59 2027.54 1176.84 C 2028.44 1171.62 2029.14 1167.09 2029.54 1163.25 C 2030.64 1154.38 2030.64 1149.36 2030.64 1149.36 L 2013.23 1135.67 L 1996.72 1122.57 C 1998.03 1159.41 1974.02 1177.24 1974.02 1177.24 Z " fill="rgb(255,163,159)"/><path d=" M 1915.27 1511.51 C 1968.17 1547.23 2075.08 1537.03 2075.88 1536.34 C 2077.66 1513.61 2078.67 1476.12 2079.23 1441.42 C 2079.92 1398.32 2079.93 1359.54 2079.87 1358.72 C 2079.87 1358.72 2079.84 1357.41 2079.78 1355.21 C 2079.6 1348.21 2079.18 1332.15 2078.72 1320.18 C 2078.64 1317.94 2078.55 1315.86 2078.47 1313.99 C 2078.46 1313.89 2078.46 1313.79 2078.45 1313.68 C 2078.12 1308.31 2074.83 1293.95 2070.21 1277.21 C 2063.43 1252.67 2053.8 1223.07 2046.4 1209.3 C 2042.6 1202.23 2029.85 1181.78 2029.85 1181.78 C 2020.84 1183.56 2014.35 1180.9 2004.84 1176.27 C 1994.44 1171.25 1983.23 1165.83 1981.43 1167.21 C 1967.82 1177.16 1958.62 1199.52 1953.71 1228.09 C 1950.91 1244.55 1912.66 1509.74 1915.27 1511.51 Z " fill="rgb(36,46,108)"/><path d=" M 1996.43 1136.65 C 1996.43 1136.65 2007.83 1157.43 2029.54 1163.25 C 2030.64 1154.38 2030.64 1149.36 2030.64 1149.36 L 2013.23 1135.67 L 1996.43 1136.65 L 1996.43 1136.65 Z " fill="rgb(255,125,120)"/><path d=" M 2038.58 1148.76 C 2038.58 1148.76 1995.54 1155.8 1991.5 1129.34 C 1987.46 1102.88 1979.18 1085.97 2006.49 1080.35 C 2033.8 1074.74 2040.69 1084.04 2044.22 1092.55 C 2047.75 1101.06 2049.67 1146.25 2038.58 1148.76 Z " fill="rgb(255,163,159)"/><path d=" M 1975.85 1077.19 C 1975.46 1076.74 1974.56 1076.38 1972.55 1076.27 C 1972.55 1076.27 1974.15 1075.27 1976.3 1075.21 C 1976.72 1072.42 1978.2 1067.48 1983 1066.29 C 1983 1066.29 1980.42 1067.66 1980.08 1070.63 C 1985.64 1064.92 1997.55 1060.76 2030.54 1063.37 C 2074.01 1066.8 2059.69 1094.64 2054.06 1097.95 C 2048.43 1101.27 2034.26 1092.17 2023.78 1093 C 2013.29 1093.83 2011.3 1108.98 2007.74 1111.06 C 2004.18 1113.14 2005.58 1109.46 2000.77 1107.29 C 1995.96 1105.11 1995.5 1113.09 1996.89 1118.27 C 1998.28 1123.46 1991.67 1130.3 1991.67 1130.3 C 1991.67 1130.3 1991.67 1130.3 1984.99 1123.1 C 1978.31 1115.9 1972.01 1085.42 1975.05 1078.92 C 1975.31 1078.35 1975.58 1077.77 1975.85 1077.19 Z " fill="rgb(38,45,90)"/><path d=" M 2079.23 1441.42 C 2079.92 1398.32 2079.93 1359.54 2079.87 1358.72 C 2079.87 1358.72 2079.84 1357.41 2079.78 1355.21 C 2038.3 1303.87 1984.86 1250.56 1984.86 1250.56 C 1984.86 1250.56 1973.29 1401.14 2079.23 1441.42 Z " fill="rgb(27,34,81)"/><g><path d=" M 1747.22 1548.76 L 2561.15 1202.08 C 2567.28 1199.47 2570.16 1192.32 2567.55 1186.19 L 2564.81 1179.75 C 2562.2 1173.62 2555.05 1170.74 2548.92 1173.35 L 1734.99 1520.03 C 1728.86 1522.64 1725.98 1529.79 1728.59 1535.92 L 1731.33 1542.36 C 1733.94 1548.49 1741.09 1551.37 1747.22 1548.76 Z " fill="rgb(198,67,219)"/><path d=" M 2381.06 1179.72 L 2404.54 1234.85 L 2543.22 1175.78 L 2519.74 1120.65 C 2517.49 1115.36 2511.31 1112.87 2506.02 1115.13 L 2386.58 1166 C 2381.29 1168.26 2378.81 1174.43 2381.06 1179.72 Z " fill="rgb(36,46,108)"/><g><path d=" M 2340.9 1146.38 C 2347.82 1160.72 2361.29 1175.18 2386.59 1166 C 2431.44 1149.74 2508.56 1107.73 2532.2 1110.61 C 2532.2 1110.61 2532.17 1110.55 2532.13 1110.42 C 2531.96 1109.97 2531.48 1108.76 2530.63 1107.07 C 2524.32 1094.53 2497.55 1055.17 2424.69 1098.32 C 2368.03 1131.87 2334.09 1124.27 2334.09 1124.27 C 2334.09 1124.27 2334.09 1124.28 2334.1 1124.29 L 2334.09 1124.3 C 2334.09 1124.31 2334.09 1124.31 2334.1 1124.32 C 2334.1 1124.34 2334.11 1124.36 2334.11 1124.38 C 2334.12 1124.43 2334.13 1124.5 2334.14 1124.59 C 2334.42 1126.48 2336.08 1136.4 2340.9 1146.38 Z " fill="rgb(102,21,178)"/><path d=" M 2335.95 1131.26 C 2334.84 1127.41 2334.23 1124.9 2334.11 1124.38 C 2334.11 1124.38 2334.1 1124.38 2334.11 1124.39 C 2334.12 1124.44 2334.13 1124.51 2334.14 1124.6 C 2334.29 1125.45 2334.79 1127.94 2335.95 1131.26 Z " fill="rgb(196,214,248)"/><linearGradient id="_lgradient_12" x1="0.000012619888945408775" y1="0.5000139636901721" x2="1.0000232205956578" y2="0.5000139636901721" gradientTransform="matrix(198.1,0,0,65.347,2334.09,1088.503)" gradientUnits="userSpaceOnUse"><stop offset="0%" stop-opacity="1" style="stop-color:rgb(249,121,90)"/><stop offset="100%" stop-opacity="1" style="stop-color:rgb(235,54,104)"/></linearGradient><path d=" M 2532.19 1110.62 C 2532.19 1110.62 2508.8 1072.76 2466.19 1096.11 C 2423.58 1119.47 2354.9 1144.62 2334.09 1124.28 C 2334.09 1124.28 2351.24 1165.27 2394.28 1150.73 C 2437.33 1136.18 2503.61 1086.49 2532.19 1110.62 Z " fill="url(#_lgradient_12)"/><g><linearGradient id="_lgradient_13" x1="-0.00005249210070523702" y1="0.5000815604152109" x2="0.999988788094992" y2="0.5000815604152109" gradientTransform="matrix(196.22,0,0,61.283,2335.98,1107.596)" gradientUnits="userSpaceOnUse"><stop offset="0%" stop-opacity="1" style="stop-color:rgb(249,121,90)"/><stop offset="100%" stop-opacity="1" style="stop-color:rgb(235,54,104)"/></linearGradient><path d=" M 2340.9 1146.38 C 2347.82 1160.72 2361.29 1175.18 2386.59 1166 C 2431.44 1149.74 2508.56 1107.73 2532.2 1110.61 C 2532.2 1110.61 2509.03 1096.67 2455.72 1128.75 C 2357.34 1187.93 2342.09 1148.81 2335.98 1131.32 C 2337.09 1135.22 2338.73 1140.47 2340.9 1146.38 Z " fill="url(#_lgradient_13)"/><linearGradient id="_lgradient_14" x1="-0.000008079175923825233" y1="0.500149335121062" x2="0.9999868713391233" y2="0.500149335121062" gradientTransform="matrix(198.04,0,0,49.373,2334.09,1078.623)" gradientUnits="userSpaceOnUse"><stop offset="0%" stop-opacity="1" style="stop-color:rgb(249,121,90)"/><stop offset="100%" stop-opacity="1" style="stop-color:rgb(235,54,104)"/></linearGradient><path d=" M 2334.09 1124.28 C 2372.92 1140.57 2432.47 1098.8 2475.55 1085.81 C 2516.85 1073.37 2531.03 1107.58 2532.13 1110.42 C 2531.96 1109.97 2531.48 1108.76 2530.63 1107.07 C 2524.32 1094.53 2497.55 1055.17 2424.69 1098.32 C 2368.02 1131.87 2334.09 1124.28 2334.09 1124.28 Z " fill="url(#_lgradient_14)"/></g></g><path d=" M 2381.06 1179.72 L 2391.42 1204.04 C 2434.45 1155.89 2501.01 1131.73 2521.58 1124.99 L 2519.73 1120.65 C 2517.48 1115.36 2511.3 1112.87 2506.01 1115.13 L 2386.57 1166 C 2381.29 1168.26 2378.81 1174.43 2381.06 1179.72 Z " fill="rgb(27,34,81)"/></g><path d=" M 2022.95 1241.8 C 2023.52 1242.72 2036.66 1320.28 2070.37 1321.14 C 2073.65 1321.23 2076.42 1320.89 2078.73 1320.19 C 2078.65 1317.95 2078.56 1315.87 2078.48 1314 C 2078.47 1313.9 2078.47 1313.8 2078.46 1313.69 C 2078.13 1308.32 2074.84 1293.96 2070.22 1277.22 C 2056.44 1274.39 2040.3 1261.75 2022.95 1241.8 Z " fill="rgb(27,34,81)"/><path d=" M 1981.31 1167.22 C 1981.31 1167.22 1985.31 1155.6 1988.57 1154.29 C 1988.57 1154.29 2033.87 1164.74 2048.98 1214.8 C 2048.98 1214.8 2031.35 1184.08 1981.31 1167.22 Z " fill="rgb(27,34,81)"/><path d=" M 2180.03 1347.35 C 2180.03 1347.35 2180.59 1345.99 2182.74 1344.54 C 2184.32 1342.8 2186.09 1340.65 2186.53 1339.28 C 2187.37 1336.67 2190.61 1336.49 2191.19 1339.02 C 2191.38 1339.87 2191.35 1340.75 2191.12 1341.65 C 2196.45 1340.85 2204.24 1341 2215.6 1343.43 C 2215.6 1343.43 2224.46 1344.94 2216.81 1350.62 C 2211.7 1354.42 2208.47 1353.53 2201.18 1358.77 C 2193.89 1364.01 2184.78 1365.44 2179.17 1361.9 L 2171.78 1360.71 L 2170.4 1347.98 L 2180.03 1347.35 L 2180.03 1347.35 Z " fill="rgb(255,163,159)"/><path d=" M 1971.35 1205.93 C 1971.35 1205.93 1956.19 1285.44 2047.08 1346.88 C 2071.62 1363.47 2180.64 1365.34 2180.64 1365.34 C 2180.64 1365.34 2183.89 1351.84 2176.62 1346.14 C 2176.62 1346.14 2083.44 1313.14 2074.33 1314.77 C 2066.25 1316.21 2023.55 1236.51 2006.85 1220.86 C 1990.16 1205.21 1971.35 1205.93 1971.35 1205.93 Z " fill="rgb(36,46,108)"/></g><g><g><path d=" M 3135.29 1308.44 C 3135.29 1308.44 3134.67 1307.1 3132.46 1305.76 C 3130.8 1304.09 3126.6 1298.15 3126.09 1296.8 C 3125.14 1294.23 3122.47 1296.48 3122.01 1299.03 C 3121.85 1299.88 3123.7 1302.36 3123.96 1303.24 C 3118.6 1302.68 3110.83 1303.17 3099.58 1306.1 C 3099.58 1306.1 3090.8 1308 3098.69 1313.34 C 3103.96 1316.91 3107.15 1315.88 3114.66 1320.79 C 3122.18 1325.7 3131.34 1326.73 3136.79 1322.95 L 3144.12 1321.43 L 3144.94 1308.65 L 3135.29 1308.44 L 3135.29 1308.44 Z " fill="rgb(255,163,159)"/><path d=" M 3333.37 1169.1 C 3333.37 1169.1 3361.59 1236.49 3273.49 1301.87 C 3249.71 1319.52 3140.87 1326.19 3140.87 1326.19 C 3140.87 1326.19 3137.03 1312.85 3144.04 1306.83 C 3144.04 1306.83 3220.83 1279.79 3235.32 1276.7 C 3243.35 1274.99 3257.44 1210.73 3273.42 1194.36 C 3289.42 1177.99 3333.37 1169.1 3333.37 1169.1 Z " fill="rgb(27,34,81)"/></g><path d=" M 3396.97 1787.1 C 3396.97 1787.1 3395 1818.92 3388.84 1819.38 C 3388.02 1819.44 3357.62 1819.44 3357.62 1819.44 L 3318.94 1819.44 C 3318.94 1819.44 3319.06 1809.86 3330.41 1807.89 C 3341.76 1805.92 3360.75 1797.94 3367.62 1782.94 C 3374.84 1767.16 3396.97 1787.1 3396.97 1787.1 Z " fill="rgb(27,34,81)"/><path d=" M 3399.21 1790.06 C 3399.21 1790.06 3387.41 1794.01 3378.2 1794.01 C 3367.92 1794.01 3358.58 1791.21 3358.58 1791.21 C 3358.58 1791.21 3356.36 1769.73 3344.13 1722.39 C 3337.72 1697.58 3328.57 1665.68 3315.55 1626.04 C 3279.55 1516.49 3268.6 1452.4 3267.6 1446.34 C 3267.55 1446.02 3267.53 1445.86 3267.53 1445.86 L 3267.65 1445.81 L 3378.34 1397.21 C 3378.34 1397.21 3364.66 1548.19 3382.11 1606.15 C 3384.55 1614.25 3386.65 1623.69 3388.45 1633.91 C 3399.47 1696.85 3399.21 1790.06 3399.21 1790.06 Z " fill="rgb(102,21,178)"/><path d=" M 3388.44 1633.91 L 3344.13 1722.39 C 3337.72 1697.58 3328.57 1665.68 3315.55 1626.04 C 3279.55 1516.49 3268.6 1452.4 3267.6 1446.34 C 3267.61 1446.16 3267.62 1445.99 3267.64 1445.81 L 3378.33 1397.21 C 3378.33 1397.21 3364.65 1548.19 3382.1 1606.15 C 3384.55 1614.24 3386.65 1623.68 3388.44 1633.91 Z " fill="rgb(102,21,178)"/><path d=" M 3312.94 1787.1 C 3312.94 1787.1 3310.97 1818.92 3304.81 1819.38 C 3303.99 1819.44 3273.58 1819.44 3273.58 1819.44 L 3234.77 1819.21 C 3234.77 1819.21 3235.03 1809.86 3246.37 1807.88 C 3257.71 1805.9 3276.71 1797.93 3283.58 1782.93 C 3290.81 1767.16 3312.94 1787.1 3312.94 1787.1 Z " fill="rgb(27,34,81)"/><path d=" M 3247.77 1400.76 C 3247.77 1400.76 3246.33 1498.6 3263.26 1618.73 C 3280.19 1738.86 3274.45 1789.85 3274.45 1789.85 C 3274.45 1789.85 3286.08 1793.62 3290.77 1794 C 3302.73 1794.97 3314.99 1791.2 3314.99 1791.2 C 3314.99 1791.2 3339.22 1671.03 3332.27 1610.9 C 3325.32 1550.77 3365.45 1404.58 3365.45 1404.58 L 3247.77 1400.76 L 3247.77 1400.76 Z " fill="rgb(127,34,186)"/><path d=" M 3326.25 1171.81 L 3304.65 1185.97 L 3273.43 1180.15 C 3273.86 1177.63 3275.92 1167.18 3277.8 1157.72 C 3277.91 1157.16 3278.03 1156.6 3278.13 1156.06 C 3279.74 1148.01 3281.13 1141.09 3281.13 1141.09 L 3310.29 1128.22 L 3321.16 1123.42 C 3321.13 1123.59 3320.32 1132.35 3320.2 1133.63 C 3318.16 1156.37 3326.25 1171.81 3326.25 1171.81 Z " fill="rgb(255,163,159)"/><path d=" M 3241.31 1405 C 3241.75 1456.64 3245.2 1577.45 3247.73 1579.91 C 3274.63 1605.87 3392.94 1572.79 3399.21 1544.19 C 3405.47 1515.59 3375.37 1177.43 3329.43 1163.92 C 3319.9 1161.12 3268.93 1177.6 3268.93 1177.6 C 3268.93 1177.6 3260.94 1198.51 3255.7 1225.16 C 3253.76 1235.03 3247.41 1305.46 3243.71 1352.53 C 3242.73 1365.08 3241.93 1375.96 3241.46 1383.59 C 3241.27 1386.73 3241.23 1394.42 3241.31 1405 Z " fill="rgb(36,46,108)"/><path d=" M 3318.01 1134.05 C 3311.61 1144.9 3287.75 1154.28 3277.8 1157.72 C 3277.91 1157.16 3278.03 1156.6 3278.13 1156.06 C 3279.74 1148.01 3281.13 1141.09 3281.13 1141.09 L 3310.29 1128.22 C 3316.73 1128.14 3320.66 1129.59 3318.01 1134.05 Z " fill="rgb(255,147,143)"/><path d=" M 3270.14 1139.32 C 3270.14 1139.32 3317.11 1153.97 3325.78 1124.58 C 3334.45 1095.19 3346.36 1077.29 3316.74 1066.69 C 3287.12 1056.09 3277.96 1065.58 3272.68 1074.69 C 3267.39 1083.8 3258.14 1134.75 3270.14 1139.32 Z " fill="rgb(255,163,159)"/><path d=" M 3274.52 1071.86 C 3274.52 1071.86 3277.52 1106.06 3284.59 1104.58 C 3291.66 1103.1 3298.08 1101.99 3297.04 1112.3 C 3296 1122.61 3286.2 1134.51 3307.99 1136.34 C 3329.79 1138.16 3361.12 1081.95 3355.14 1071.31 C 3337.86 1040.59 3249.54 1034.4 3274.52 1071.86 Z " fill="rgb(242,75,70)"/><path d=" M 3281.43 1164.66 C 3282.04 1164.4 3316.39 1148.99 3320.41 1150.32 C 3324.43 1151.65 3329.44 1163.92 3329.44 1163.92 L 3268.94 1177.6 C 3268.94 1177.6 3273.7 1167.91 3281.43 1164.66 Z " fill="rgb(27,34,81)"/><path d=" M 3081.43 1290.7 L 3178.86 1536.64 C 3180.77 1541.46 3186.28 1543.84 3191.1 1541.93 L 3206.44 1535.85 C 3211.26 1533.94 3213.64 1528.43 3211.73 1523.61 L 3114.3 1277.67 C 3112.39 1272.85 3106.88 1270.47 3102.06 1272.38 L 3086.72 1278.46 C 3081.9 1280.37 3079.51 1285.88 3081.43 1290.7 Z " fill="rgb(198,67,219)"/><g><path d=" M 3081.43 1290.7 L 3092.22 1317.93 C 3112.64 1312.93 3134.74 1329.28 3134.74 1329.28 L 3114.3 1277.68 C 3112.39 1272.86 3106.88 1270.48 3102.06 1272.39 L 3086.72 1278.47 C 3081.9 1280.37 3079.51 1285.88 3081.43 1290.7 Z " fill="rgb(102,21,178)"/></g><path d=" M 3136.1 1428.72 L 3178.86 1536.64 C 3180.77 1541.46 3186.28 1543.84 3191.1 1541.93 L 3206.44 1535.85 C 3211.26 1533.94 3213.64 1528.43 3211.73 1523.61 L 3168.97 1415.69 L 3136.1 1428.72 L 3136.1 1428.72 Z " fill="rgb(127,34,186)"/><path d=" M 2902.53 1208.65 C 2933.23 1286.16 3020.97 1324.1 3098.48 1293.4 C 3123.86 1283.35 3145 1267.18 3160.86 1247.26 C 3193.47 1206.35 3203.87 1149.58 3183.22 1097.45 C 3152.52 1019.94 3064.79 982.01 2987.28 1012.71 C 2986.26 1013.12 2985.24 1013.53 2984.24 1013.96 C 2908.78 1045.73 2872.23 1132.16 2902.53 1208.65 Z  M 2995.01 1032.21 C 3012.31 1025.36 3030.19 1022.49 3047.66 1023.13 C 3055.01 1023.41 3062.28 1024.32 3069.4 1025.8 C 3110.71 1034.43 3147.01 1063 3163.72 1105.17 C 3177.98 1141.18 3175.05 1179.74 3158.83 1211.77 C 3145 1239.12 3121.5 1261.71 3090.76 1273.88 C 3048.59 1290.59 3002.9 1283.69 2968.31 1259.51 C 2948.17 1245.42 2931.78 1225.48 2922.05 1200.91 C 2895.61 1134.19 2928.27 1058.66 2995.01 1032.21 Z " fill="rgb(198,67,219)"/><path d=" M 2984.24 1013.97 C 3008.57 1013.19 3029.56 1016.58 3047.66 1023.14 C 3055.01 1023.42 3062.28 1024.33 3069.4 1025.81 C 3110.71 1034.44 3147.01 1063.01 3163.72 1105.18 C 3177.98 1141.19 3175.05 1179.75 3158.83 1211.78 C 3160.15 1225.57 3160.67 1237.75 3160.87 1247.26 C 3193.48 1206.35 3203.88 1149.58 3183.23 1097.45 C 3152.53 1019.94 3064.8 982.01 2987.29 1012.71 C 2986.26 1013.12 2985.25 1013.53 2984.24 1013.97 Z " fill="rgb(127,34,186)"/><g style="opacity:0.5;"><g opacity="0.5"><path d=" M 2922.04 1200.93 C 2931.77 1225.5 2948.16 1245.44 2968.3 1259.54 C 3002.89 1283.72 3048.58 1290.62 3090.75 1273.91 C 3157.49 1247.47 3190.16 1171.94 3163.71 1105.19 C 3147.01 1063.02 3110.7 1034.45 3069.39 1025.81 C 3045.32 1020.77 3019.56 1022.49 2995 1032.22 C 2928.27 1058.66 2895.61 1134.19 2922.04 1200.93 Z " fill="rgb(237,236,252)"/></g><g opacity="0.5"><path d=" M 2922.04 1200.93 C 2931.77 1225.5 2948.16 1245.44 2968.3 1259.54 C 2992.36 1264.57 3018.12 1262.85 3042.68 1253.12 C 3109.42 1226.68 3142.09 1151.14 3115.65 1084.41 C 3105.92 1059.85 3089.54 1039.9 3069.4 1025.82 C 3045.33 1020.78 3019.57 1022.5 2995.01 1032.23 C 2928.27 1058.66 2895.61 1134.19 2922.04 1200.93 Z " fill="rgb(192,211,248)"/></g><g opacity="0.5"><path d=" M 3021.63 1048.53 C 2956.01 1074.53 2923.61 1148.11 2949.26 1212.87 C 2953.14 1222.67 2958.14 1231.71 2964.04 1239.9 C 2952.75 1228.72 2943.54 1215.08 2937.31 1199.36 C 2913.2 1138.51 2942.99 1069.63 3003.84 1045.53 C 3025.76 1036.84 3048.73 1035.16 3070.28 1039.41 C 3054.12 1039.27 3037.62 1042.19 3021.63 1048.53 Z " fill="rgb(239,236,234)"/></g></g><path d=" M 3241.31 1405 C 3353.56 1328.98 3344.42 1224.43 3344.42 1224.43 C 3300.62 1249.14 3257.2 1307.63 3243.71 1352.52 C 3242.73 1365.07 3241.93 1375.95 3241.46 1383.58 C 3241.27 1386.73 3241.23 1394.42 3241.31 1405 Z " fill="rgb(27,34,81)"/><g><path d=" M 3143.53 1371.58 C 3143.53 1371.58 3142.62 1370.42 3140.16 1369.61 C 3138.17 1368.36 3132.78 1364.26 3131.97 1363.07 C 3129.41 1359.31 3127.51 1362.2 3129.03 1365.9 C 3129.36 1366.7 3130.85 1368.29 3131.31 1369.09 C 3125.97 1369.76 3118.5 1372.01 3108.22 1377.42 C 3108.22 1377.42 3100.1 1381.27 3109 1384.67 C 3114.95 1386.95 3117.81 1385.22 3126.25 1388.29 C 3134.69 1391.37 3143.85 1390.28 3148.29 1385.37 L 3155.08 1382.22 L 3152.97 1369.59 L 3143.53 1371.58 L 3143.53 1371.58 Z " fill="rgb(255,163,159)"/><path d=" M 3311.49 1177.6 C 3311.49 1177.6 3406.85 1195.76 3283.43 1333.84 C 3263.69 1355.93 3153.01 1387.6 3153.01 1387.6 C 3153.01 1387.6 3146.24 1375.48 3151.69 1368.03 C 3151.69 1368.03 3232.5 1311.1 3241.71 1310.21 C 3249.88 1309.42 3269.47 1221.14 3281.32 1201.56 C 3293.17 1181.98 3311.49 1177.6 3311.49 1177.6 Z " fill="rgb(36,46,108)"/></g></g><path d=" M 2474.7 1077.1 L 2463.27 1083.38 L 2476.17 1080.59 C 2477.63 1080.47 2479.05 1081.13 2479.89 1082.34 L 2489.85 1103.32 L 2483.58 1080.92 C 2483.42 1079.51 2484.13 1078.15 2485.38 1077.47 L 2499.53 1069.79 L 2484.43 1073.16 C 2482.69 1073.55 2480.9 1072.78 2479.98 1071.26 L 2472.72 1057.59 L 2476.31 1073.12 C 2476.57 1074.65 2475.95 1076.19 2474.7 1077.1 Z " fill="rgb(255,255,255)"/><linearGradient id="_lgradient_15" x1="-0.000010018785225440752" y1="0.5000725002517363" x2="1.0000087664370625" y2="0.5000725002517363" gradientTransform="matrix(79.85,0,0,99.31,2955.13,894.19)" gradientUnits="userSpaceOnUse"><stop offset="0%" stop-opacity="1" style="stop-color:rgb(249,121,90)"/><stop offset="100%" stop-opacity="1" style="stop-color:rgb(255,239,233)"/></linearGradient><path d=" M 2978.48 940.51 L 2955.13 964.35 L 2984.66 947.96 C 2988.15 946.57 2992.12 947.16 2995.06 949.49 L 3034.98 993.5 L 3003.04 943.27 C 3001.61 939.94 3002.34 936.07 3004.89 933.5 L 3033.86 904.21 L 2999.36 923.65 C 2995.39 925.89 2990.44 925.34 2987.05 922.29 L 2959.15 894.19 L 2979.44 929.58 C 2981.23 933.12 2980.85 937.35 2978.48 940.51 Z " fill="url(#_lgradient_15)"/><path d=" M 2251.4 1578.46 L 2231.41 1598.88 L 2256.69 1584.85 C 2259.68 1583.66 2263.08 1584.16 2265.59 1586.16 L 2299.77 1623.84 L 2272.42 1580.84 C 2271.2 1577.99 2271.82 1574.68 2274.01 1572.47 L 2298.82 1547.39 L 2269.28 1564.03 C 2265.88 1565.94 2261.64 1565.48 2258.74 1562.87 L 2234.85 1538.81 L 2252.22 1569.11 C 2253.75 1572.13 2253.43 1575.76 2251.4 1578.46 Z " fill="rgb(236,235,252)"/><path d=" M 3047.3 1801.41 L 3047.3 1801.41 C 3060.17 1770.37 3087.89 1710.91 3108.98 1717.94 C 3129.82 1724.89 3082.96 1776.38 3056.58 1803.26 C 3061.82 1804.36 3066.56 1805.45 3070.93 1806.45 C 3091.26 1787.94 3124.84 1757.6 3127.9 1770.08 C 3130.58 1781.02 3101.77 1797.55 3079.73 1808.44 C 3093.45 1811.43 3103.83 1812.85 3116.71 1809.92 C 3137.93 1805.1 3148.77 1819.5 3148.77 1819.5 L 2986.83 1819.5 C 2986.84 1819.5 3013.52 1795.04 3047.3 1801.41 Z " fill="rgb(36,46,108)"/></g></g></g></svg>