<?xml version="1.0" encoding="UTF-8" standalone="no"?><!-- Generator: Gravit.io --><svg xmlns="http://www.w3.org/2000/svg" xmlns:xlink="http://www.w3.org/1999/xlink" style="isolation:isolate" viewBox="0 0 1024 768" width="1024pt" height="768pt"><defs><clipPath id="_clipPath_wkwmyn857DRcvvtaYebe0UFJz8EGzYHT"><rect width="1024" height="768"/></clipPath></defs><g clip-path="url(#_clipPath_wkwmyn857DRcvvtaYebe0UFJz8EGzYHT)"><clipPath id="_clipPath_2V9nLKknEMMPZ1beWQkvmMozawU46Civ"><rect x="0" y="0" width="1024" height="1000" transform="matrix(1,0,0,1,0,0)" fill="rgb(255,255,255)"/></clipPath><g clip-path="url(#_clipPath_2V9nLKknEMMPZ1beWQkvmMozawU46Civ)"><g><g><rect x="0" y="6.809" width="1024" height="539.191" transform="matrix(1,0,0,1,0,0)" fill="rgb(255,255,255)"/><g><linearGradient id="_lgradient_50" x1="0.5000000389593185" y1="-1.0152469143154264e-15" x2="0.4970588588745256" y2="0.9203104879204393" gradientTransform="matrix(730.106,0,0,193.669,293.894,0)" gradientUnits="userSpaceOnUse"><stop offset="0%" stop-opacity="1" style="stop-color:rgb(102,21,178)"/><stop offset="26.427574723753157%" stop-opacity="1" style="stop-color:rgb(141,40,195)"/><stop offset="52.80298068687691%" stop-opacity="1" style="stop-color:rgb(172,55,208)"/><stop offset="74.7610615213078%" stop-opacity="1" style="stop-color:rgb(191,64,216)"/><stop offset="100%" stop-opacity="1" style="stop-color:rgb(198,67,219)"/></linearGradient><path d=" M 1024 0 L 1024 140.479 C 1024 140.479 622.94 251.423 428.089 152.855 C 414.054 145.755 413.548 145.801 403.627 140.479 C 352.203 112.894 330.579 86.286 293.894 0 L 1024 0 Z " fill="url(#_lgradient_50)"/><linearGradient id="_lgradient_51" x1="0.5000001708744501" y1="0.9999994762172522" x2="0.5000629637820041" y2="0.06330473681052806" gradientTransform="matrix(850,0,0,159.832,0,0)" gradientUnits="userSpaceOnUse"><stop offset="0%" stop-opacity="1" style="stop-color:rgb(249,121,90)"/><stop offset="5.300625792435835e-14%" stop-opacity="1" style="stop-color:rgb(238,67,101)"/><stop offset="4.2365818356992575%" stop-opacity="1" style="stop-color:rgb(246,106,93)"/><stop offset="32.16701235176558%" stop-opacity="1" style="stop-color:rgb(244,95,95)"/><stop offset="58.76852829037057%" stop-opacity="1" style="stop-color:rgb(241,83,98)"/><stop offset="100%" stop-opacity="1" style="stop-color:rgb(235,54,104)"/></linearGradient><path d=" M 0 126.655 C 0 126.655 266.641 214.816 488.381 103.713 C 710.12 -7.389 850 0.107 850 0.107 L 0 0 L 0 126.655 Z " fill="url(#_lgradient_51)"/></g></g><g><g><path d=" M 712.619 756.937 C 714.775 756.987 716.9 756.77 718.936 756.445 C 716.534 754.73 711.475 751.181 707.356 748.682 C 701.741 745.287 698.558 739.563 706.478 738.589 C 713.227 737.758 718.531 752.031 719.958 756.274 C 720.881 756.11 721.786 755.929 722.661 755.745 C 721.576 752.728 719.198 746.331 716.945 741.871 C 713.904 735.85 703.147 725.679 713.904 724.521 C 723.473 723.486 726.013 749.211 726.455 754.935 C 728.376 754.543 730.056 754.272 731.386 754.369 C 734.448 754.586 737.374 757.818 735.643 759.241 L 703.337 759.241 C 704.384 758.391 707.086 756.81 712.619 756.937 Z " fill="rgb(36,46,108)"/><g><g><path d=" M 677.427 428.615 C 679.812 427.409 689.923 430.041 689.923 430.041 C 689.923 430.041 715.359 417.148 718.289 415.4 C 721.676 413.378 730.702 389.239 737.323 375.938 C 740.809 368.932 751.286 369.032 754.41 376.199 C 754.974 377.488 755.233 378.915 755.036 380.475 C 753.944 389.122 731.3 419.938 728.521 422.55 C 723.462 427.309 692.895 434.686 692.895 434.686 C 692.895 434.686 686.892 436.937 682.877 437.211 C 678.865 437.486 675.043 429.82 677.427 428.615 Z " fill="rgb(255,125,120)"/><path d=" M 728.476 380.204 C 728.746 377.334 730.747 374.799 731.811 373.637 C 725.691 380.663 735.436 394.544 735.436 394.544 C 733.732 387.026 760.278 375.646 761.342 366.558 C 762.406 357.472 753.705 356.91 751.473 354.1 C 749.237 351.29 753.802 336.489 746.459 330.588 C 739.113 324.687 732.364 328.528 732.364 328.528 C 734.022 326.841 737.229 326 737.229 326 C 729.088 326 727.723 331.432 727.526 333.94 C 720.739 335.695 718.462 348.554 718.462 348.554 L 739.686 357.255 C 740.018 357.911 740.229 358.356 740.274 358.52 C 740.661 359.94 737.005 367.894 732.54 370.067 C 727.495 372.522 728.476 380.204 728.476 380.204 Z  M 732.298 373.128 C 732.409 373.018 732.474 372.961 732.474 372.961 C 732.412 373.014 732.357 373.071 732.298 373.128 Z " fill="rgb(242,75,70)"/><path d=" M 757.24 533.674 L 762.503 532.924 C 762.503 532.924 780.196 519.298 782.832 493.873 C 783.102 491.285 783.157 488.659 782.957 486.014 C 782.932 485.709 782.967 485.404 783.14 485.146 C 783.14 485.143 783.14 485.143 783.147 485.14 C 783.713 484.299 785.123 482.189 787.031 479.192 C 788.911 476.238 792.131 470.656 795.673 464.39 C 802.052 453.108 809.481 439.616 812.028 435.316 C 820.145 421.619 816.234 412.41 816.234 412.41 C 816.234 412.41 793.589 410.24 787.383 404.979 L 785.147 408.318 C 785.147 408.318 780.241 429.368 780.472 429.465 C 780.23 430.182 779.985 430.909 779.736 431.652 C 775.862 443.236 771.412 457.709 768.982 469.501 C 767.617 476.135 766.895 481.915 767.282 485.853 C 767.417 487.203 767.255 489.279 766.881 491.841 C 764.687 506.951 757.24 533.674 757.24 533.674 Z " fill="rgb(249,121,90)"/><path d=" M 746.203 540.127 L 768.156 540.127 C 768.156 540.127 768.682 536.886 767.534 534.424 C 766.436 532.063 764.87 531.99 767.334 528.289 C 765.938 529.682 761.453 530.258 758.28 529.843 C 757.89 530.453 755.772 534.555 754.472 535.459 C 753.042 536.454 746.642 536.099 746.203 540.127 Z " fill="rgb(34,41,86)"/><path d=" M 779.733 431.652 C 781.65 441.903 786.181 458.962 795.67 464.39 C 802.049 453.108 809.478 439.616 812.025 435.316 C 820.142 421.619 816.23 412.41 816.23 412.41 C 816.23 412.41 793.586 410.24 787.38 404.979 L 785.144 408.318 C 785.144 408.318 780.237 429.368 780.469 429.465 C 780.227 430.182 779.981 430.912 779.733 431.652 Z " fill="rgb(242,75,70)"/><path d=" M 795.131 413.994 L 795.054 410.015 C 803.234 411.017 823.262 400.542 823.262 400.542 C 823.262 400.542 831.822 406.057 832.993 421.813 C 833.567 429.502 837.185 462.023 837.582 471.734 C 837.727 475.254 837.775 477.766 837.793 478.77 C 837.793 478.774 837.793 478.777 837.793 478.78 C 837.796 479.085 837.945 479.356 838.142 479.597 C 839.835 481.684 841.304 483.891 842.575 486.181 C 855.06 508.689 848.533 539.273 848.533 539.273 L 845.633 538.56 C 845.633 538.56 835.077 506.853 828.179 493.14 C 827.008 490.813 825.944 489.004 825.056 487.956 C 822.46 484.902 819.727 479.718 817.032 473.479 C 811.935 461.681 806.99 446.116 803.462 434.063 C 803.206 434.104 795.131 413.994 795.131 413.994 Z " fill="rgb(249,121,90)"/><path d=" M 747.257 387.434 C 760.63 384.46 752.088 366.246 751.311 366.568 C 749.458 366.203 745.388 363.048 741.746 356.89 L 741.255 357.301 L 733.041 364.28 C 733.041 364.28 734.942 366.996 736.538 369.652 C 737.786 371.732 738.846 373.784 738.681 374.488 C 738.017 374.997 743.688 388.231 747.257 387.434 Z " fill="rgb(255,163,159)"/><path d=" M 738.511 373.496 C 738.511 373.496 735.505 377.609 733.673 381.282 C 731.842 384.956 726.859 396.764 726.859 396.764 C 726.859 396.764 732.177 404.768 741.148 405.638 C 741.148 405.638 747.053 399.061 746.369 392.257 C 745.685 385.452 738.511 373.496 738.511 373.496 Z " fill="rgb(27,34,81)"/><path d=" M 733.041 364.287 C 733.041 364.287 734.942 367 736.538 369.659 C 741.645 366.608 741.649 360.48 741.258 357.308 L 733.041 364.287 Z " fill="rgb(255,125,120)"/><path d=" M 732.817 367.783 C 732.817 367.783 745.215 361.096 740.799 353.678 C 736.383 346.257 735.011 340.4 726.908 344.355 C 718.804 348.31 718.963 351.994 719.817 354.817 C 720.667 357.64 729.475 369.33 732.817 367.783 Z " fill="rgb(255,163,159)"/><path d=" M 717.719 350.487 C 718.286 347.191 720.014 346.877 721.216 347.098 C 725.795 339.757 733.276 342.624 733.276 342.624 C 737.271 347.483 743.048 348.313 743.048 348.313 C 743.048 348.313 741.611 350.909 735.681 352.513 C 733.87 353.005 731.814 352.707 729.831 352.061 C 733.943 354.284 738.245 355.135 738.245 355.135 C 730.432 355.828 722.999 348.906 722.229 348.166 C 721.869 349.238 721.237 351.485 721.614 353.126 C 722.128 355.356 724.171 359.398 722.923 359.92 C 722.93 359.92 716.869 355.429 717.719 350.487 Z " fill="rgb(242,75,70)"/><path d=" M 831.068 540.127 L 853.021 540.127 C 853.021 540.127 853.547 536.886 852.399 534.424 C 851.301 532.063 849.58 530.992 849.991 528.135 C 848.595 529.525 846.321 531.086 843.149 530.674 C 842.758 531.283 840.64 534.555 839.341 535.459 C 837.907 536.454 831.511 536.099 831.068 540.127 Z " fill="rgb(34,41,86)"/><path d=" M 745.682 401.874 C 748.508 402.829 752.472 403.355 756.525 403.78 C 762.299 404.389 768.26 404.808 771.38 406.017 C 771.992 406.251 773.765 406.971 775.544 408.22 L 775.544 408.224 C 775.544 408.224 775.589 408.251 775.669 408.314 C 776.26 408.729 776.847 409.212 777.39 409.754 C 778.219 410.578 778.941 411.546 779.404 412.651 C 780.548 415.394 779.035 422.992 778.06 427.148 C 777.67 428.819 778.482 430.547 780.054 431.337 C 782.248 432.436 784.404 433.454 786.526 434.381 C 786.637 434.432 786.747 434.479 786.861 434.525 C 786.841 434.104 786.834 433.685 786.834 433.273 C 786.83 430.406 787.203 428.022 787.203 428.022 C 787.725 430.915 789.691 434.04 791.526 436.444 C 820.988 447.901 841.573 442.921 841.234 437.215 C 840.073 417.4 826.282 400.545 826.282 400.545 C 800.566 371.564 748.546 363.936 748.546 363.936 C 748.546 363.936 746.055 363.644 743.048 367.147 C 738.722 372.19 738.508 373.503 738.508 373.503 C 738.508 373.503 737.371 399.065 745.682 401.874 Z " fill="rgb(36,46,108)"/><path d=" M 756.529 403.78 C 762.299 404.389 768.26 404.808 771.384 406.014 C 772.659 387.538 763.664 373.64 763.664 373.64 C 763.664 373.64 757.793 396.788 756.529 403.78 Z " fill="rgb(27,34,81)"/><g><path d=" M 692.525 438.467 L 692.525 438.467 C 693.219 437.436 692.915 436.039 691.851 435.366 L 678.049 426.646 C 676.985 425.973 675.544 426.267 674.85 427.299 L 674.85 427.299 C 674.155 428.33 674.459 429.727 675.523 430.4 L 689.325 439.12 C 690.389 439.793 691.83 439.498 692.525 438.467 Z " fill="rgb(36,46,108)"/><g><path d=" M 677.078 429.271 L 677.611 428.481 L 665.444 421.234 C 663.982 420.31 662.15 420.162 660.551 420.842 L 655.136 423.139 L 655.443 423.612 L 660.637 421.036 C 662.171 420.387 663.923 420.527 665.323 421.411 L 677.078 429.271 Z " fill="rgb(36,46,108)"/></g></g><path d=" M 709.25 451.095 C 713.908 450.874 718.946 454.729 718.946 454.729 C 718.946 454.729 735.315 427.875 737.848 425.363 C 741.825 421.418 745.688 373.225 750.588 370.067 C 750.588 370.067 765.057 371.454 766.214 380.562 C 767.375 389.671 752.344 426.78 750.191 430.142 C 746.272 436.26 723.196 457.227 723.196 457.227 C 723.196 457.227 720.836 461.664 717.892 461.209 C 714.948 460.75 701.986 452.338 701.986 452.338 C 701.986 452.338 704.592 451.313 709.25 451.095 Z " fill="rgb(255,163,159)"/><path d=" M 778.06 427.141 C 777.67 428.812 778.482 430.54 780.054 431.331 C 782.248 432.429 784.404 433.447 786.526 434.375 C 786.637 434.026 786.74 433.658 786.834 433.27 C 787.165 431.823 787.321 430.092 787.203 428.019 C 786.713 419.248 780.548 412.604 777.39 409.751 C 778.219 410.575 778.941 411.542 779.404 412.648 C 780.548 415.387 779.031 422.989 778.06 427.141 Z " fill="rgb(27,34,81)"/><path d=" M 748.55 363.929 C 748.55 363.929 746.286 361.153 744.755 361.243 C 744.755 361.243 738.563 369.642 738.515 373.496 C 738.511 373.496 746.234 363.54 748.55 363.929 Z " fill="rgb(27,34,81)"/><path d=" M 743.052 387.471 C 743.052 387.471 741.566 363.982 760.119 369.662 C 778.672 375.342 757.24 415.745 757.24 415.745 C 757.24 415.745 746.352 415.223 742.489 406.017 L 743.052 387.471 Z " fill="rgb(36,46,108)"/></g><path d=" M 573.947 651.238 C 576.643 669.432 581.342 686.086 588.547 699.81 C 628.172 775.255 651.742 706.671 669.317 675.454 C 685.856 646.071 703.199 634.718 729.205 652.249 C 748.339 665.139 754.462 754.623 785.272 758.823 C 810.224 762.222 903.079 678.963 881.201 501.823 C 880.78 498.411 879.995 494.634 878.655 490.766 C 872.293 472.421 853.401 452.137 801.202 459.926 C 753.446 467.053 750.15 475.632 720.47 462.562 C 690.787 449.495 649.894 409.084 613.019 438.249 C 590.251 456.263 561.829 569.373 573.947 651.238 Z " fill="rgb(133,169,221)"/><path d=" M 573.947 651.235 C 576.681 662.802 580.416 673.451 585.302 682.754 C 624.931 758.203 648.498 689.616 666.072 658.398 C 682.607 629.015 699.951 617.663 725.964 635.194 C 745.094 648.084 751.221 737.564 782.027 741.764 C 806.347 745.076 895.158 666.077 879.405 498.09 C 879.18 495.665 878.928 493.22 878.658 490.759 C 872.296 472.414 853.405 452.13 801.209 459.92 C 753.45 467.046 750.156 475.622 720.473 462.558 C 690.79 449.488 649.897 409.081 613.026 438.246 C 597.563 450.476 579.501 506.529 573.287 566.878 C 570.347 595.433 570.056 624.946 573.947 651.235 Z " fill="rgb(192,211,248)"/><path d=" M 614.726 463.376 C 605.348 479.691 607.376 513.558 619.115 515.326 C 630.857 517.094 640.999 487.47 654.082 475.857 C 672.991 459.072 659.6 447.013 647.858 445.245 C 636.116 443.477 623.358 448.356 614.726 463.376 Z " fill="rgb(236,235,252)"/><path d=" M 573.087 644.758 C 573.343 646.938 573.633 649.098 573.947 651.235 C 576.681 662.805 580.416 673.451 585.302 682.754 C 615.151 739.584 635.885 714.692 651.811 685.604 C 651.815 685.604 651.815 685.6 651.815 685.6 C 657.033 676.076 661.732 666.097 666.069 658.395 C 675.382 641.851 684.954 631.021 696.177 627.85 L 696.181 627.85 C 702.114 626.172 708.514 626.634 715.587 629.521 C 718.894 630.871 722.346 632.753 725.964 635.191 C 738.142 643.399 745.049 682.64 756.414 711.162 C 762.897 727.447 770.835 740.237 782.027 741.76 C 802.076 744.496 865.956 691.287 878.941 578.398 L 878.945 578.394 C 880.403 565.726 881.222 552.307 881.264 538.128 C 881.298 527.221 880.873 515.858 879.923 504.047 C 879.767 502.075 879.591 500.085 879.405 498.09 C 875.413 502.912 870.904 508.036 865.876 513.307 C 833.428 547.324 779.238 587.393 701.388 591.107 C 688.979 591.699 675.969 591.368 662.347 589.941 C 635.114 587.088 605.448 579.855 573.284 566.871 C 572.24 576.991 571.532 587.229 571.224 597.402 L 571.224 597.406 C 570.737 613.614 571.266 629.645 573.087 644.758 Z " fill="rgb(177,201,246)"/><path d=" M 696.184 627.853 C 702.117 626.176 708.517 626.638 715.591 629.524 C 718.898 630.874 722.35 632.756 725.968 635.194 C 733.956 640.578 739.677 659.32 745.876 679.628 C 749.127 690.276 752.509 701.355 756.418 711.165 C 762.901 727.451 770.838 740.24 782.03 741.764 C 802.08 744.5 865.959 691.29 878.945 578.401 C 866.021 602.683 833.283 693.688 778.724 675.664 C 742.53 663.709 746.203 624.802 696.184 627.853 Z " fill="rgb(154,192,239)"/><path d=" M 573.087 644.758 C 573.343 646.938 573.633 649.098 573.947 651.235 C 576.681 662.805 580.679 673.327 585.302 682.754 C 625.708 765.165 653.653 681.552 669.576 652.464 C 669.176 653.1 641.721 697.79 612.301 682.489 C 587.742 669.717 571.667 638.238 571.228 597.412 C 570.737 613.614 571.266 629.645 573.087 644.758 Z " fill="rgb(154,192,239)"/><g><path d=" M 862.186 539.374 C 862.186 537.669 860.758 536.29 858.999 536.29 C 857.241 536.29 855.817 537.669 855.817 539.374 C 855.817 541.078 857.244 542.458 858.999 542.458 C 860.762 542.458 862.186 541.075 862.186 539.374 Z " fill="rgb(239,236,234)"/><path d=" M 853.647 523.799 C 853.647 522.948 852.935 522.255 852.054 522.255 C 851.173 522.255 850.461 522.945 850.461 523.799 C 850.461 524.652 851.173 525.342 852.054 525.342 C 852.935 525.342 853.647 524.649 853.647 523.799 Z " fill="rgb(239,236,234)"/><path d=" M 841.525 542.458 C 841.525 541.608 840.813 540.914 839.932 540.914 C 839.051 540.914 838.339 541.604 838.339 542.458 C 838.339 543.312 839.051 544.002 839.932 544.002 C 840.813 544.002 841.525 543.312 841.525 542.458 Z " fill="rgb(239,236,234)"/></g></g><g><g><path d=" M 317.352 703.825 C 317.352 703.825 326.475 693.51 317.915 686.96 C 317.915 686.96 311.664 683.293 306.567 683.591 C 306.567 683.591 313.789 695.329 311.453 696.498 C 309.117 697.666 304.376 682.854 304.376 682.854 C 304.376 682.854 290.15 681.518 285.571 683.648 C 285.571 683.648 297.735 693.293 295.171 693.869 C 292.61 694.441 279.472 684.974 279.472 684.974 C 279.472 684.974 266.23 687.158 266.935 694.987 C 267.64 702.817 272.205 705.231 274.209 705.024 C 276.214 704.816 287.945 700.476 288.201 702.07 C 288.457 703.664 281.397 708.868 276.452 709.109 C 276.452 709.109 285.789 719.085 291.992 716.205 C 298.194 713.325 298.726 708.761 302.593 707.05 C 306.46 705.338 309.763 705.342 308.167 707.09 C 306.571 708.835 299.57 710.532 297.358 714.323 C 295.146 718.114 293.163 720.673 299.58 719.735 C 306 718.801 316.433 714.246 316.892 709.036 C 317.352 703.825 317.352 703.825 317.352 703.825 Z " fill="rgb(27,34,81)"/><g><path d=" M 273.442 695.198 C 273.442 695.198 309.408 693.855 317.348 703.821 C 317.348 703.821 319.104 708.918 324.508 713.563 L 325.351 715.787 C 325.351 715.787 319.118 709.417 316.889 709.032 C 316.892 709.036 320.379 696.688 273.442 695.198 Z " fill="rgb(27,34,81)"/><path d=" M 324.512 713.563 C 324.512 713.563 332.231 719.095 332.767 728.981 L 331.368 729.102 C 331.368 729.102 328.904 718.881 324.446 714.883 C 319.988 710.887 324.512 713.563 324.512 713.563 Z " fill="rgb(27,34,81)"/></g></g><g><path d=" M 349.243 690.855 C 349.243 690.855 334.733 682.982 341.506 672.292 C 341.506 672.292 346.925 665.729 352.726 664.044 C 352.726 664.044 349.63 679.981 352.726 680.356 C 355.823 680.731 354.855 662.356 354.855 662.356 C 354.855 662.356 370.139 655.233 376.138 655.793 C 376.138 655.793 366.659 671.355 369.752 670.979 C 372.848 670.604 383.488 654.855 383.488 654.855 C 383.488 654.855 399.159 652.042 401.674 661.044 C 404.19 670.042 400.126 674.543 397.804 675.105 C 395.482 675.668 380.585 675.48 380.972 677.356 C 381.359 679.231 391.418 682.232 397.03 680.544 C 397.03 680.544 390.838 695.356 382.714 694.605 C 374.59 693.855 372.074 688.979 367.043 688.604 C 362.011 688.229 358.338 689.542 360.85 690.855 C 363.366 692.168 371.877 691.283 375.941 694.632 C 380.005 697.978 383.294 700.041 375.747 701.541 C 368.204 703.041 354.658 702.103 351.952 696.477 C 349.243 690.855 349.243 690.855 349.243 690.855 Z " fill="rgb(36,46,108)"/><g><path d=" M 394.514 663.857 C 394.514 663.857 353.887 676.606 349.243 690.855 C 349.243 690.855 349.437 697.231 345.373 704.541 L 345.373 707.354 C 345.373 707.354 349.63 697.794 351.952 696.481 C 351.952 696.477 342.857 684.104 394.514 663.857 Z " fill="rgb(27,34,81)"/><path d=" M 345.373 704.541 C 345.373 704.541 339.108 713.761 342.681 724.986 L 344.291 724.567 C 344.291 724.567 342.726 712.204 346.005 705.988 C 349.285 699.769 345.373 704.541 345.373 704.541 Z " fill="rgb(27,34,81)"/></g></g><g><path d=" M 326.16 679.995 C 326.16 679.995 345.287 669.613 336.361 655.528 C 336.361 655.528 329.218 646.878 321.568 644.654 C 321.568 644.654 325.649 665.662 321.568 666.157 C 317.487 666.653 318.762 642.431 318.762 642.431 C 318.762 642.431 298.616 633.041 290.71 633.781 C 290.71 633.781 303.205 654.296 299.124 653.8 C 295.043 653.304 281.017 632.545 281.017 632.545 C 281.017 632.545 260.359 628.838 257.046 640.699 C 253.732 652.564 259.084 658.495 262.146 659.235 C 265.208 659.975 284.842 659.731 284.334 662.202 C 283.823 664.674 270.564 668.629 263.169 666.405 C 263.169 666.405 271.331 685.929 282.04 684.941 C 292.752 683.953 296.066 677.526 302.697 677.031 C 309.328 676.539 314.173 678.267 310.859 679.998 C 307.545 681.729 296.321 680.564 290.969 684.978 C 285.613 689.391 281.279 692.107 291.224 694.086 C 301.17 696.062 319.021 694.826 322.594 687.412 C 326.16 679.995 326.16 679.995 326.16 679.995 Z " fill="rgb(36,46,108)"/><g><path d=" M 266.483 644.403 C 266.483 644.403 320.037 661.208 326.16 679.991 C 326.16 679.991 325.904 688.393 331.26 698.031 L 331.26 701.738 C 331.26 701.738 325.649 689.133 322.591 687.402 C 322.587 687.409 334.574 671.097 266.483 644.403 Z " fill="rgb(27,34,81)"/><path d=" M 331.26 698.035 C 331.26 698.035 339.519 710.188 334.809 724.986 L 332.684 724.433 C 332.684 724.433 334.747 708.138 330.424 699.94 C 326.105 691.746 331.26 698.035 331.26 698.035 Z " fill="rgb(27,34,81)"/></g></g><path d=" M 289.13 721.875 L 288.26 721.875 L 288.26 720.76 L 365.277 720.76 L 365.277 721.875 L 364.026 721.875 C 363.566 736.64 354.012 749.188 340.604 754.439 L 360.17 754.439 C 362.723 754.439 364.793 756.445 364.793 758.92 L 288.826 758.92 C 288.826 756.445 290.896 754.439 293.45 754.439 L 312.559 754.439 C 299.145 749.188 289.587 736.64 289.13 721.875 Z " fill="rgb(249,121,90)"/><path d=" M 326.965 754.436 L 336.274 754.436 C 349.668 749.188 359.212 736.653 359.679 721.905 L 350.373 721.905 C 349.907 736.657 340.359 749.185 326.965 754.436 Z " fill="rgb(239,236,234)"/></g><g><g><g><path d=" M 439.637 614.414 C 434.62 614.394 431.119 606.859 427.736 599.576 C 425.521 594.807 423.468 590.052 421.658 588.736 C 419.875 587.436 416.378 587.627 414.449 588.347 C 411.948 589.281 409.892 591.977 407.981 596.84 C 407.563 597.908 407.138 599.13 406.688 600.426 C 404.663 606.283 402.365 612.924 397.88 613.544 C 394.815 613.966 391.373 611.437 387.348 605.815 C 385.119 602.697 383.267 598.675 381.85 593.856 C 375.792 573.274 379.002 543.691 384.303 538.185 L 384.303 538.185 C 390.941 531.29 399.777 535.124 406.878 538.209 C 409.055 539.153 411.108 540.044 412.936 540.576 C 418.406 542.163 420.2 541.52 424.996 539.799 C 426.983 539.086 429.453 538.198 432.874 537.217 C 446.261 533.373 451.897 538.095 454.268 542.736 C 454.717 543.617 455.08 544.568 455.349 545.559 C 459.171 559.802 459.98 573.16 457.748 585.263 C 455.463 597.657 450.615 605.131 447.93 608.484 C 444.952 612.201 441.859 614.418 439.651 614.418 C 439.647 614.414 439.64 614.414 439.637 614.414 Z  M 425.435 540.931 C 420.497 542.703 418.451 543.436 412.58 541.731 C 410.673 541.179 408.582 540.271 406.367 539.31 C 399.28 536.233 391.249 532.747 385.219 539.009 C 380.219 544.2 377.212 573.669 383.056 593.521 C 384.438 598.209 386.449 601.351 388.602 604.358 C 392.279 609.495 394.753 611.488 397.268 611.139 C 400.99 610.627 403.692 605.292 405.51 600.038 C 405.963 598.729 406.388 597.496 406.82 596.404 C 408.865 591.2 411.149 588.277 414.007 587.212 C 416.288 586.361 419.802 586.576 421.989 588.223 C 424.122 589.831 426.475 593.889 428.883 599.077 C 431.955 605.691 435.435 613.185 439.651 613.202 C 439.654 613.202 439.658 613.202 439.658 613.202 C 441.002 613.202 443.715 611.772 446.949 607.737 C 460.097 591.331 459.351 541.366 442.37 537.981 C 435.338 536.581 427.404 540.225 425.435 540.931 Z " fill="rgb(127,34,186)"/></g><g><path d=" M 397.02 549.718 L 397.272 549.4 L 374.292 532.395 L 327.546 532.395 L 327.546 532.797 L 374.151 532.797 L 397.02 549.718 Z " fill="rgb(127,34,186)"/></g><g><path d=" M 327.546 604.288 L 374.292 604.288 L 374.348 604.247 L 397.272 587.282 L 397.02 586.961 L 374.151 603.882 L 327.546 603.882 L 327.546 604.288 Z " fill="rgb(127,34,186)"/></g><g><rect x="326.157" y="568.475" width="70.991" height="0.405" transform="matrix(1,0,0,1,0,0)" fill="rgb(127,34,186)"/></g></g><g><path d=" M 328.309 560.679 L 349.264 560.679 C 349.685 560.679 350.028 560.344 350.028 559.939 L 350.028 559.939 C 350.028 559.53 349.685 559.199 349.264 559.199 L 328.309 559.199 C 327.888 559.199 327.546 559.53 327.546 559.939 L 327.546 559.939 C 327.546 560.348 327.888 560.679 328.309 560.679 Z " fill="rgb(127,34,186)"/><path d=" M 328.309 563.643 L 349.264 563.643 C 349.685 563.643 350.028 563.311 350.028 562.903 L 350.028 562.903 C 350.028 562.494 349.685 562.163 349.264 562.163 L 328.309 562.163 C 327.888 562.163 327.546 562.498 327.546 562.903 L 327.546 562.903 C 327.546 563.308 327.888 563.643 328.309 563.643 Z " fill="rgb(127,34,186)"/></g><g><path d=" M 328.309 526.886 L 349.264 526.886 C 349.685 526.886 350.028 526.555 350.028 526.146 L 350.028 526.146 C 350.028 525.737 349.685 525.406 349.264 525.406 L 328.309 525.406 C 327.888 525.406 327.546 525.737 327.546 526.146 L 327.546 526.146 C 327.546 526.555 327.888 526.886 328.309 526.886 Z " fill="rgb(127,34,186)"/><path d=" M 328.309 529.85 L 349.264 529.85 C 349.685 529.85 350.028 529.518 350.028 529.11 L 350.028 529.11 C 350.028 528.701 349.685 528.37 349.264 528.37 L 328.309 528.37 C 327.888 528.37 327.546 528.705 327.546 529.11 L 327.546 529.11 C 327.546 529.515 327.888 529.85 328.309 529.85 Z " fill="rgb(127,34,186)"/></g><g><path d=" M 328.309 597.972 L 349.264 597.972 C 349.685 597.972 350.028 597.64 350.028 597.232 L 350.028 597.232 C 350.028 596.823 349.685 596.492 349.264 596.492 L 328.309 596.492 C 327.888 596.492 327.546 596.826 327.546 597.232 L 327.546 597.232 C 327.546 597.64 327.888 597.972 328.309 597.972 Z " fill="rgb(127,34,186)"/><path d=" M 328.309 600.935 L 349.264 600.935 C 349.685 600.935 350.028 600.601 350.028 600.195 L 350.028 600.195 C 350.028 599.787 349.685 599.455 349.264 599.455 L 328.309 599.455 C 327.888 599.455 327.546 599.787 327.546 600.195 L 327.546 600.195 C 327.546 600.601 327.888 600.935 328.309 600.935 Z " fill="rgb(127,34,186)"/></g></g><g><path d=" M 463.428 739.761 C 463.428 739.761 459.116 743.575 459.956 746.288 C 460.799 748.997 464.69 750.805 465.218 754.121 C 465.744 757.433 467.848 759.241 469.742 759.241 C 471.635 759.241 478.771 759.241 478.771 759.241 C 478.771 759.241 480.164 756.91 476.798 756.207 C 473.432 755.504 472.161 751.609 472.371 747.996 C 472.582 744.382 472.057 739.563 472.057 739.563 L 464.901 737.956 L 463.428 739.761 Z " fill="rgb(34,41,86)"/><path d=" M 463.428 737.367 C 464.216 739.627 472.9 742.939 472.9 742.939 C 472.9 742.939 477.631 735.712 492.787 709.806 C 494.09 707.572 495.455 705.124 496.858 702.519 C 511.737 674.817 530.981 628.781 530.981 628.781 L 494.204 618.842 C 494.204 618.842 492.469 633.148 492.155 640.378 C 491.961 644.795 489.369 654.235 486.076 662.48 C 483.982 667.728 481.598 672.49 479.372 675.166 C 469.223 687.359 463.428 737.367 463.428 737.367 Z " fill="rgb(249,121,90)"/><path d=" M 486.073 662.48 C 488.384 673.843 492.628 692.867 496.854 702.519 C 511.734 674.817 530.978 628.781 530.978 628.781 L 494.2 618.842 C 494.2 618.842 492.466 633.148 492.151 640.378 C 491.961 644.795 489.366 654.235 486.073 662.48 Z " fill="rgb(242,75,70)"/><g><path d=" M 545.132 612.583 L 548.024 612.435 C 548.024 612.435 551.459 606.886 557.091 611.213 C 557.091 611.213 559.317 613.202 557.779 614.481 C 556.241 615.761 556.659 614.987 554.527 616.849 C 552.395 618.711 549.669 619.153 547.937 617.797 L 545.698 617.288 L 545.132 612.583 Z " fill="rgb(255,163,159)"/><path d=" M 514.961 551.396 C 514.961 551.396 492.02 572.531 501.872 606.307 C 504.947 616.852 548.325 618.741 548.325 618.741 C 548.325 618.741 550.657 616.337 547.136 612.261 C 547.136 612.261 520.922 600.704 517.857 599.11 C 515.134 597.694 523.776 572.29 522.415 563.924 C 521.05 555.555 514.961 551.396 514.961 551.396 Z " fill="rgb(177,201,246)"/></g><path d=" M 516.354 749.63 C 516.354 749.63 515.58 758.314 517.473 759.218 L 541.711 759.171 C 541.711 759.171 541.711 756.458 537.816 755.859 C 533.922 755.256 527.083 753.049 525.926 748.126 C 524.771 743.204 516.354 749.63 516.354 749.63 Z " fill="rgb(34,41,86)"/><path d=" M 536.818 626.973 C 536.818 626.973 535.539 642.193 534.036 660.488 C 531.994 685.339 529.537 715.867 529.295 721.651 C 528.877 731.694 527.19 747.758 527.19 747.758 C 527.19 747.758 523.196 751.576 515.196 749.965 C 515.196 749.965 508.067 727.032 506.032 702.77 C 506.001 702.371 505.97 701.973 505.939 701.571 C 504.045 676.87 501.101 624.859 501.101 624.859 L 536.818 626.973 Z " fill="rgb(249,121,90)"/><path d=" M 503.302 543.835 C 503.302 543.835 517.688 553.004 526.675 550.298 C 526.675 550.298 524.177 546.631 521.796 543.701 C 522.107 541.952 522.349 540.435 522.487 539.15 C 522.867 536.179 522.867 534.498 522.867 534.498 L 516.851 529.913 L 511.146 525.526 C 511.599 537.864 503.302 543.835 503.302 543.835 Z " fill="rgb(255,163,159)"/><path d=" M 483.001 655.776 C 501.281 667.738 538.224 664.322 538.5 664.091 C 539.115 656.479 539.464 643.924 539.658 632.304 C 539.896 617.87 539.9 604.884 539.879 604.609 C 539.879 604.609 539.869 604.17 539.848 603.434 C 539.786 601.089 539.641 595.711 539.482 591.703 C 539.454 590.953 539.423 590.256 539.395 589.63 C 539.392 589.596 539.392 589.563 539.388 589.526 C 539.274 587.728 538.138 582.919 536.541 577.313 C 534.198 569.095 530.871 559.182 528.313 554.571 C 527 552.203 522.594 545.355 522.594 545.355 C 519.481 545.951 517.238 545.06 513.952 543.51 C 510.358 541.829 506.485 540.014 505.863 540.476 C 501.16 543.808 497.981 551.296 496.284 560.863 C 495.316 566.375 482.099 655.183 483.001 655.776 Z " fill="rgb(36,46,108)"/><path d=" M 511.046 530.242 C 511.046 530.242 514.985 537.201 522.487 539.15 C 522.867 536.179 522.867 534.498 522.867 534.498 L 516.851 529.913 L 511.046 530.242 Z " fill="rgb(255,125,120)"/><path d=" M 525.611 534.297 C 525.611 534.297 510.738 536.655 509.342 527.794 C 507.946 518.933 505.085 513.27 514.522 511.388 C 523.959 509.509 526.34 512.623 527.56 515.473 C 528.78 518.323 529.443 533.457 525.611 534.297 Z " fill="rgb(255,163,159)"/><path d=" M 503.934 510.33 C 503.8 510.179 503.489 510.058 502.794 510.021 C 502.794 510.021 503.347 509.687 504.09 509.666 C 504.235 508.732 504.747 507.078 506.405 506.679 C 506.405 506.679 505.514 507.138 505.396 508.133 C 507.317 506.221 511.433 504.827 522.833 505.701 C 537.854 506.85 532.906 516.173 530.96 517.282 C 529.015 518.393 524.118 515.346 520.497 515.624 C 516.872 515.902 516.184 520.975 514.954 521.672 C 513.724 522.369 514.208 521.136 512.546 520.409 C 510.884 519.679 510.725 522.352 511.205 524.087 C 511.685 525.825 509.401 528.115 509.401 528.115 C 509.401 528.115 509.401 528.115 507.093 525.704 C 504.785 523.293 502.608 513.086 503.658 510.909 C 503.748 510.718 503.841 510.524 503.934 510.33 Z " fill="rgb(38,45,90)"/><path d=" M 539.658 632.304 C 539.896 617.87 539.9 604.884 539.879 604.609 C 539.879 604.609 539.869 604.17 539.848 603.434 C 525.514 586.241 507.048 568.388 507.048 568.388 C 507.048 568.388 503.05 618.815 539.658 632.304 Z " fill="rgb(27,34,81)"/><g><path d=" M 424.93 668.25 L 706.188 552.153 C 708.306 551.279 709.301 548.885 708.4 546.832 L 707.453 544.675 C 706.551 542.622 704.08 541.658 701.962 542.532 L 420.704 658.629 C 418.586 659.503 417.591 661.897 418.492 663.95 L 419.439 666.107 C 420.341 668.16 422.812 669.124 424.93 668.25 Z " fill="rgb(198,67,219)"/><path d=" M 643.957 544.665 L 652.071 563.127 L 699.992 543.346 L 691.879 524.884 C 691.101 523.112 688.966 522.278 687.138 523.035 L 645.864 540.07 C 644.036 540.827 643.179 542.894 643.957 544.665 Z " fill="rgb(36,46,108)"/><g><path d=" M 630.079 533.5 C 632.471 538.302 637.125 543.145 645.868 540.07 C 661.366 534.625 688.015 520.557 696.184 521.521 C 696.184 521.521 696.174 521.501 696.16 521.458 C 696.101 521.307 695.935 520.902 695.642 520.336 C 693.461 516.136 684.211 502.955 659.034 517.406 C 639.454 528.641 627.726 526.096 627.726 526.096 C 627.726 526.096 627.726 526.099 627.73 526.102 L 627.726 526.106 C 627.726 526.109 627.726 526.109 627.73 526.113 C 627.73 526.119 627.733 526.126 627.733 526.133 C 627.737 526.149 627.74 526.173 627.744 526.203 C 627.84 526.836 628.414 530.158 630.079 533.5 Z " fill="rgb(102,21,178)"/><path d=" M 628.369 528.437 C 627.985 527.147 627.775 526.307 627.733 526.133 C 627.733 526.133 627.73 526.133 627.733 526.136 C 627.737 526.153 627.74 526.176 627.744 526.206 C 627.795 526.491 627.968 527.325 628.369 528.437 Z " fill="rgb(196,214,248)"/><linearGradient id="_lgradient_52" x1="0.000012619888945408775" y1="0.5000065033003622" x2="1.0000232205956578" y2="0.5000065033003622" gradientTransform="matrix(68.455,0,0,21.884,627.726,514.118)" gradientUnits="userSpaceOnUse"><stop offset="0%" stop-opacity="1" style="stop-color:rgb(249,121,90)"/><stop offset="100%" stop-opacity="1" style="stop-color:rgb(235,54,104)"/></linearGradient><path d=" M 696.181 521.525 C 696.181 521.525 688.098 508.846 673.374 516.665 C 658.65 524.488 634.917 532.911 627.726 526.099 C 627.726 526.099 633.652 539.826 648.525 534.957 C 663.401 530.084 686.305 513.444 696.181 521.525 Z " fill="url(#_lgradient_52)"/><g><linearGradient id="_lgradient_53" x1="-0.00005249210070523702" y1="0.5000766368418468" x2="0.9999887880949938" y2="0.5000766368418468" gradientTransform="matrix(67.805,0,0,20.523,628.379,520.512)" gradientUnits="userSpaceOnUse"><stop offset="0%" stop-opacity="1" style="stop-color:rgb(249,121,90)"/><stop offset="100%" stop-opacity="1" style="stop-color:rgb(235,54,104)"/></linearGradient><path d=" M 630.079 533.5 C 632.471 538.302 637.125 543.145 645.868 540.07 C 661.366 534.625 688.015 520.557 696.184 521.521 C 696.184 521.521 688.178 516.853 669.756 527.596 C 635.76 547.414 630.491 534.314 628.379 528.457 C 628.763 529.763 629.33 531.521 630.079 533.5 Z " fill="url(#_lgradient_53)"/><linearGradient id="_lgradient_54" x1="-0.000008079175923825233" y1="0.5001528415310155" x2="0.9999868713391251" y2="0.5001528415310155" gradientTransform="matrix(68.434,0,0,16.534,627.726,510.809)" gradientUnits="userSpaceOnUse"><stop offset="0%" stop-opacity="1" style="stop-color:rgb(249,121,90)"/><stop offset="100%" stop-opacity="1" style="stop-color:rgb(235,54,104)"/></linearGradient><path d=" M 627.726 526.099 C 641.144 531.554 661.722 517.566 676.608 513.216 C 690.88 509.05 695.78 520.507 696.16 521.458 C 696.101 521.307 695.935 520.902 695.642 520.336 C 693.461 516.136 684.211 502.955 659.034 517.406 C 639.451 528.641 627.726 526.099 627.726 526.099 Z " fill="url(#_lgradient_54)"/></g></g><path d=" M 643.957 544.665 L 647.537 552.809 C 662.406 536.685 685.406 528.594 692.514 526.337 L 691.875 524.884 C 691.098 523.112 688.962 522.278 687.134 523.035 L 645.861 540.07 C 644.036 540.827 643.179 542.894 643.957 544.665 Z " fill="rgb(27,34,81)"/></g><path d=" M 520.21 565.455 C 520.407 565.763 524.948 591.736 536.596 592.024 C 537.73 592.054 538.687 591.94 539.485 591.706 C 539.458 590.956 539.426 590.259 539.399 589.633 C 539.395 589.6 539.395 589.566 539.392 589.529 C 539.278 587.731 538.141 582.922 536.545 577.316 C 531.783 576.368 526.206 572.135 520.21 565.455 Z " fill="rgb(27,34,81)"/><path d=" M 505.821 540.479 C 505.821 540.479 507.203 536.588 508.33 536.149 C 508.33 536.149 523.984 539.649 529.205 556.413 C 529.205 556.413 523.113 546.125 505.821 540.479 Z " fill="rgb(27,34,81)"/><path d=" M 574.49 600.801 C 574.49 600.801 574.683 600.346 575.426 599.86 C 575.972 599.278 576.584 598.558 576.736 598.099 C 577.026 597.225 578.146 597.165 578.346 598.012 C 578.412 598.297 578.402 598.591 578.322 598.893 C 580.164 598.625 582.856 598.675 586.781 599.489 C 586.781 599.489 589.843 599.994 587.199 601.897 C 585.434 603.169 584.318 602.871 581.798 604.626 C 579.279 606.381 576.131 606.859 574.193 605.674 L 571.639 605.275 L 571.162 601.012 L 574.49 600.801 Z " fill="rgb(255,163,159)"/><path d=" M 502.379 553.442 C 502.379 553.442 497.141 580.069 528.548 600.644 C 537.028 606.2 574.701 606.826 574.701 606.826 C 574.701 606.826 575.824 602.305 573.312 600.396 C 573.312 600.396 541.113 589.345 537.965 589.891 C 535.173 590.373 520.417 563.683 514.647 558.442 C 508.879 553.201 502.379 553.442 502.379 553.442 Z " fill="rgb(36,46,108)"/></g><g><g><path d=" M 904.585 587.771 C 904.585 587.771 904.371 587.322 903.607 586.874 C 903.034 586.314 901.582 584.325 901.406 583.873 C 901.078 583.012 900.155 583.766 899.996 584.62 C 899.941 584.905 900.58 585.735 900.67 586.03 C 898.818 585.842 896.133 586.006 892.245 586.988 C 892.245 586.988 889.211 587.624 891.938 589.412 C 893.759 590.608 894.861 590.263 897.456 591.907 C 900.055 593.551 903.22 593.896 905.103 592.63 L 907.636 592.121 L 907.92 587.841 L 904.585 587.771 Z " fill="rgb(255,163,159)"/><path d=" M 973.033 541.109 C 973.033 541.109 982.784 563.676 952.341 585.571 C 944.124 591.482 906.513 593.715 906.513 593.715 C 906.513 593.715 905.186 589.248 907.609 587.232 C 907.609 587.232 934.144 578.177 939.151 577.142 C 941.926 576.569 946.795 555.05 952.317 549.568 C 957.846 544.086 973.033 541.109 973.033 541.109 Z " fill="rgb(27,34,81)"/></g><path d=" M 995.01 748.066 C 995.01 748.066 994.329 758.722 992.201 758.876 C 991.917 758.896 981.412 758.896 981.412 758.896 L 968.046 758.896 C 968.046 758.896 968.088 755.688 972.01 755.028 C 975.932 754.369 982.494 751.696 984.868 746.673 C 987.363 741.389 995.01 748.066 995.01 748.066 Z " fill="rgb(27,34,81)"/><path d=" M 995.784 749.057 C 995.784 749.057 991.707 750.38 988.524 750.38 C 984.972 750.38 981.744 749.443 981.744 749.443 C 981.744 749.443 980.977 742.249 976.751 726.396 C 974.536 718.087 971.374 707.405 966.875 694.13 C 954.435 657.444 950.651 635.981 950.306 633.951 C 950.288 633.844 950.281 633.791 950.281 633.791 L 950.323 633.774 L 988.572 617.499 C 988.572 617.499 983.845 668.059 989.875 687.469 C 990.718 690.182 991.444 693.343 992.066 696.765 C 995.874 717.843 995.784 749.057 995.784 749.057 Z " fill="rgb(102,21,178)"/><path d=" M 992.062 696.765 L 976.751 726.396 C 974.536 718.087 971.374 707.405 966.875 694.13 C 954.435 657.444 950.651 635.981 950.306 633.951 C 950.309 633.891 950.312 633.834 950.319 633.774 L 988.569 617.499 C 988.569 617.499 983.842 668.059 989.872 687.469 C 990.718 690.178 991.444 693.34 992.062 696.765 Z " fill="rgb(102,21,178)"/><path d=" M 965.973 748.066 C 965.973 748.066 965.292 758.722 963.164 758.876 C 962.88 758.896 952.372 758.896 952.372 758.896 L 938.961 758.819 C 938.961 758.819 939.051 755.688 942.969 755.025 C 946.888 754.362 953.454 751.693 955.828 746.67 C 958.326 741.389 965.973 748.066 965.973 748.066 Z " fill="rgb(27,34,81)"/><path d=" M 943.453 618.688 C 943.453 618.688 942.956 651.452 948.806 691.682 C 954.656 731.911 952.673 748.987 952.673 748.987 C 952.673 748.987 956.691 750.25 958.312 750.377 C 962.445 750.702 966.681 749.439 966.681 749.439 C 966.681 749.439 975.054 709.196 972.653 689.06 C 970.251 668.923 984.118 619.967 984.118 619.967 L 943.453 618.688 Z " fill="rgb(127,34,186)"/><path d=" M 970.572 542.016 L 963.108 546.758 L 952.32 544.809 C 952.469 543.965 953.181 540.466 953.83 537.298 C 953.868 537.11 953.91 536.923 953.944 536.742 C 954.501 534.046 954.981 531.729 954.981 531.729 L 965.057 527.419 L 968.814 525.811 C 968.803 525.868 968.523 528.802 968.482 529.23 C 967.777 536.846 970.572 542.016 970.572 542.016 Z " fill="rgb(255,163,159)"/><path d=" M 941.221 620.107 C 941.373 637.401 942.565 677.858 943.439 678.682 C 952.735 687.375 993.617 676.297 995.784 666.72 C 997.947 657.142 987.546 543.898 971.671 539.374 C 968.378 538.436 950.765 543.955 950.765 543.955 C 950.765 543.955 948.004 550.957 946.193 559.882 C 945.523 563.187 943.329 586.773 942.05 602.536 C 941.712 606.739 941.435 610.382 941.273 612.938 C 941.207 613.989 941.193 616.564 941.221 620.107 Z " fill="rgb(36,46,108)"/><path d=" M 967.725 529.371 C 965.513 533.004 957.269 536.146 953.83 537.298 C 953.868 537.11 953.91 536.923 953.944 536.742 C 954.501 534.046 954.981 531.729 954.981 531.729 L 965.057 527.419 C 967.283 527.392 968.641 527.877 967.725 529.371 Z " fill="rgb(255,147,143)"/><path d=" M 951.183 531.136 C 951.183 531.136 967.414 536.042 970.41 526.2 C 973.406 516.357 977.522 510.363 967.286 506.813 C 957.051 503.263 953.886 506.442 952.061 509.492 C 950.233 512.543 947.037 529.605 951.183 531.136 Z " fill="rgb(255,163,159)"/><path d=" M 952.697 508.545 C 952.697 508.545 953.733 519.998 956.177 519.502 C 958.62 519.006 960.838 518.635 960.479 522.087 C 960.119 525.54 956.733 529.525 964.263 530.138 C 971.796 530.747 982.622 511.924 980.555 508.36 C 974.584 498.073 944.065 496 952.697 508.545 Z " fill="rgb(242,75,70)"/><path d=" M 955.085 539.622 C 955.295 539.535 967.165 534.374 968.554 534.819 C 969.943 535.265 971.675 539.374 971.675 539.374 L 950.769 543.955 C 950.769 543.955 952.413 540.71 955.085 539.622 Z " fill="rgb(27,34,81)"/><path d=" M 885.974 581.83 L 919.641 664.191 C 920.301 665.806 922.205 666.603 923.871 665.963 L 929.171 663.927 C 930.837 663.287 931.659 661.442 930.999 659.828 L 897.332 577.467 C 896.672 575.853 894.768 575.056 893.102 575.695 L 887.802 577.731 C 886.136 578.371 885.31 580.216 885.974 581.83 Z " fill="rgb(198,67,219)"/><g><path d=" M 885.974 581.83 L 889.702 590.949 C 896.758 589.275 904.395 594.75 904.395 594.75 L 897.332 577.47 C 896.672 575.856 894.768 575.059 893.102 575.699 L 887.802 577.735 C 886.136 578.371 885.31 580.216 885.974 581.83 Z " fill="rgb(102,21,178)"/></g><path d=" M 904.865 628.051 L 919.641 664.191 C 920.301 665.806 922.205 666.603 923.871 665.963 L 929.171 663.927 C 930.837 663.287 931.659 661.442 930.999 659.828 L 916.223 623.687 L 904.865 628.051 Z " fill="rgb(127,34,186)"/><path d=" M 824.154 554.353 C 834.762 580.31 865.081 593.015 891.865 582.735 C 900.635 579.369 907.94 573.954 913.421 567.283 C 924.69 553.583 928.283 534.572 921.148 517.114 C 910.539 491.157 880.223 478.455 853.44 488.736 C 853.087 488.874 852.735 489.011 852.389 489.155 C 826.313 499.794 813.683 528.738 824.154 554.353 Z  M 856.111 495.266 C 862.089 492.973 868.267 492.011 874.304 492.226 C 876.844 492.32 879.356 492.624 881.817 493.12 C 896.091 496.01 908.635 505.578 914.409 519.7 C 919.337 531.759 918.324 544.672 912.72 555.398 C 907.94 564.557 899.82 572.122 889.198 576.198 C 874.626 581.793 858.837 579.483 846.884 571.385 C 839.925 566.667 834.261 559.989 830.899 551.761 C 821.762 529.418 833.048 504.124 856.111 495.266 Z " fill="rgb(198,67,219)"/><path d=" M 852.389 489.158 C 860.796 488.897 868.05 490.032 874.304 492.229 C 876.844 492.323 879.356 492.628 881.817 493.123 C 896.091 496.013 908.635 505.581 914.409 519.703 C 919.337 531.762 918.324 544.675 912.72 555.401 C 913.176 560.019 913.355 564.098 913.424 567.283 C 924.693 553.583 928.287 534.572 921.151 517.114 C 910.543 491.157 880.227 478.455 853.443 488.736 C 853.087 488.874 852.738 489.011 852.389 489.158 Z " fill="rgb(127,34,186)"/><g style="opacity:0.5;"><g style="opacity:0.5;"><g opacity="0.5"><path d=" M 830.895 551.768 C 834.258 559.996 839.921 566.674 846.881 571.395 C 858.834 579.493 874.622 581.804 889.194 576.208 C 912.256 567.353 923.546 542.06 914.406 519.706 C 908.635 505.584 896.088 496.017 881.813 493.123 C 873.496 491.435 864.594 492.011 856.107 495.27 C 833.048 504.124 821.762 529.418 830.895 551.768 Z " fill="rgb(237,236,252)"/></g></g><g style="opacity:0.5;"><g opacity="0.5"><path d=" M 830.895 551.768 C 834.258 559.996 839.921 566.674 846.881 571.395 C 855.195 573.08 864.096 572.504 872.583 569.245 C 895.646 560.391 906.935 535.094 897.798 512.747 C 894.436 504.523 888.776 497.842 881.817 493.127 C 873.499 491.439 864.597 492.015 856.111 495.273 C 833.048 504.124 821.762 529.418 830.895 551.768 Z " fill="rgb(192,211,248)"/></g></g><g style="opacity:0.5;"><g opacity="0.5"><path d=" M 865.309 500.732 C 842.634 509.439 831.438 534.079 840.301 555.766 C 841.642 559.048 843.37 562.076 845.409 564.818 C 841.507 561.074 838.325 556.507 836.172 551.242 C 827.841 530.865 838.135 507.798 859.162 499.727 C 866.736 496.817 874.674 496.254 882.121 497.678 C 876.536 497.631 870.835 498.609 865.309 500.732 Z " fill="rgb(239,236,234)"/></g></g></g><path d=" M 941.221 620.107 C 980.01 594.65 976.851 559.638 976.851 559.638 C 961.716 567.913 946.712 587.5 942.05 602.533 C 941.712 606.736 941.435 610.379 941.273 612.934 C 941.207 613.989 941.193 616.564 941.221 620.107 Z " fill="rgb(27,34,81)"/><g><path d=" M 907.433 608.916 C 907.433 608.916 907.118 608.527 906.268 608.256 C 905.58 607.837 903.718 606.464 903.438 606.066 C 902.553 604.807 901.897 605.774 902.422 607.014 C 902.536 607.281 903.051 607.814 903.21 608.082 C 901.365 608.306 898.783 609.06 895.231 610.871 C 895.231 610.871 892.425 612.161 895.5 613.299 C 897.557 614.063 898.545 613.483 901.461 614.512 C 904.378 615.543 907.543 615.178 909.077 613.534 L 911.424 612.479 L 910.695 608.249 L 907.433 608.916 Z " fill="rgb(255,163,159)"/><path d=" M 965.472 543.955 C 965.472 543.955 998.424 550.037 955.776 596.277 C 948.954 603.675 910.708 614.28 910.708 614.28 C 910.708 614.28 908.369 610.222 910.252 607.727 C 910.252 607.727 938.177 588.662 941.359 588.364 C 944.182 588.099 950.952 558.536 955.047 551.979 C 959.141 545.422 965.472 543.955 965.472 543.955 Z " fill="rgb(36,46,108)"/></g></g><path d=" M 676.315 510.299 L 672.365 512.402 L 676.823 511.468 C 677.327 511.428 677.818 511.649 678.108 512.054 L 681.55 519.08 L 679.383 511.579 C 679.328 511.106 679.573 510.651 680.005 510.423 L 684.895 507.851 L 679.677 508.98 C 679.076 509.111 678.457 508.853 678.139 508.344 L 675.631 503.766 L 676.871 508.967 C 676.961 509.479 676.747 509.995 676.315 510.299 Z " fill="rgb(255,255,255)"/><linearGradient id="_lgradient_55" x1="-0.000010018785225440752" y1="0.5000725002517372" x2="1.0000087664370625" y2="0.5000725002517372" gradientTransform="matrix(27.593,0,0,33.257,842.33,449.046)" gradientUnits="userSpaceOnUse"><stop offset="0%" stop-opacity="1" style="stop-color:rgb(249,121,90)"/><stop offset="100%" stop-opacity="1" style="stop-color:rgb(255,239,233)"/></linearGradient><path d=" M 850.399 464.558 L 842.33 472.541 L 852.534 467.053 C 853.74 466.587 855.112 466.785 856.128 467.565 L 869.922 482.303 L 858.885 465.482 C 858.391 464.367 858.644 463.071 859.525 462.21 L 869.535 452.401 L 857.614 458.912 C 856.242 459.662 854.531 459.478 853.36 458.456 L 843.719 449.046 L 850.73 460.897 C 851.349 462.083 851.218 463.5 850.399 464.558 Z " fill="url(#_lgradient_55)"/><path d=" M 599.152 678.196 L 592.245 685.035 L 600.98 680.336 C 602.013 679.938 603.188 680.105 604.056 680.775 L 615.867 693.393 L 606.416 678.993 C 605.994 678.039 606.208 676.93 606.965 676.19 L 615.538 667.791 L 605.331 673.364 C 604.156 674.003 602.691 673.849 601.689 672.975 L 593.433 664.918 L 599.436 675.065 C 599.964 676.076 599.854 677.292 599.152 678.196 Z " fill="rgb(236,235,252)"/><path d=" M 874.18 752.858 L 874.18 752.858 C 878.627 742.464 888.206 722.551 895.494 724.906 C 902.695 727.233 886.502 744.476 877.386 753.478 C 879.197 753.846 880.835 754.211 882.345 754.546 C 889.37 748.347 900.974 738.187 902.031 742.366 C 902.958 746.03 893.002 751.566 885.386 755.213 C 890.127 756.214 893.714 756.689 898.165 755.708 C 905.497 754.094 909.243 758.916 909.243 758.916 L 853.284 758.916 C 853.287 758.916 862.507 750.725 874.18 752.858 Z " fill="rgb(36,46,108)"/></g></g></g></g></g></svg>