<?xml version="1.0" encoding="UTF-8" standalone="no"?><!-- Generator: Gravit.io --><svg xmlns="http://www.w3.org/2000/svg" xmlns:xlink="http://www.w3.org/1999/xlink" style="isolation:isolate" viewBox="0 0 1024 1200" width="1024pt" height="1200pt"><defs><clipPath id="_clipPath_PK7WbZWgnwqlyXAedODzQW4exLQzB0eR"><rect width="1024" height="1200"/></clipPath></defs><g clip-path="url(#_clipPath_PK7WbZWgnwqlyXAedODzQW4exLQzB0eR)"><clipPath id="_clipPath_avmJbTXzfiPxIKLyYJIV9NZnRCz238DN"><rect x="0" y="-17" width="1024" height="1200" transform="matrix(1,0,0,1,0,0)" fill="rgb(255,255,255)"/></clipPath><g clip-path="url(#_clipPath_avmJbTXzfiPxIKLyYJIV9NZnRCz238DN)"><g><g><rect x="0" y="7.943" width="1024" height="539.191" transform="matrix(1,0,0,1,0,0)" fill="rgb(255,255,255)"/><g><linearGradient id="_lgradient_62" x1="0.5000000389593185" y1="-1.0152469143154264e-15" x2="0.4970588588745256" y2="0.9203104879204393" gradientTransform="matrix(730.106,0,0,193.669,293.894,1.134)" gradientUnits="userSpaceOnUse"><stop offset="0%" stop-opacity="1" style="stop-color:rgb(102,21,178)"/><stop offset="26.427574723753157%" stop-opacity="1" style="stop-color:rgb(141,40,195)"/><stop offset="52.80298068687691%" stop-opacity="1" style="stop-color:rgb(172,55,208)"/><stop offset="74.7610615213078%" stop-opacity="1" style="stop-color:rgb(191,64,216)"/><stop offset="100%" stop-opacity="1" style="stop-color:rgb(198,67,219)"/></linearGradient><path d=" M 1024 1.134 L 1024 141.614 C 1024 141.614 622.94 252.557 428.089 153.989 C 414.054 146.889 413.548 146.935 403.627 141.614 C 352.203 114.028 330.579 87.42 293.894 1.134 L 1024 1.134 Z " fill="url(#_lgradient_62)"/><linearGradient id="_lgradient_63" x1="0.5000001708744501" y1="0.9999994762172522" x2="0.5000629637820041" y2="0.06330473681052806" gradientTransform="matrix(850,0,0,159.832,0,1.134)" gradientUnits="userSpaceOnUse"><stop offset="0%" stop-opacity="1" style="stop-color:rgb(249,121,90)"/><stop offset="5.300625792435835e-14%" stop-opacity="1" style="stop-color:rgb(238,67,101)"/><stop offset="4.2365818356992575%" stop-opacity="1" style="stop-color:rgb(246,106,93)"/><stop offset="32.16701235176558%" stop-opacity="1" style="stop-color:rgb(244,95,95)"/><stop offset="58.76852829037057%" stop-opacity="1" style="stop-color:rgb(241,83,98)"/><stop offset="100%" stop-opacity="1" style="stop-color:rgb(235,54,104)"/></linearGradient><path d=" M 0 127.789 C 0 127.789 266.641 215.95 488.381 104.847 C 710.12 -6.255 850 1.241 850 1.241 L 0 1.134 L 0 127.789 Z " fill="url(#_lgradient_63)"/></g></g><g><g><path d=" M 606.181 1096.19 C 608.527 1096.246 610.839 1096 613.052 1095.632 C 610.44 1093.688 604.937 1089.665 600.457 1086.833 C 594.349 1082.984 590.887 1076.497 599.502 1075.392 C 606.843 1074.451 612.613 1090.629 614.165 1095.438 C 615.169 1095.252 616.153 1095.047 617.104 1094.838 C 615.924 1091.418 613.338 1084.168 610.887 1079.112 C 607.58 1072.287 595.879 1060.759 607.58 1059.446 C 617.988 1058.273 620.75 1087.433 621.231 1093.92 C 623.321 1093.476 625.148 1093.168 626.595 1093.278 C 629.925 1093.525 633.109 1097.188 631.226 1098.801 L 596.086 1098.801 C 597.224 1097.837 600.164 1096.045 606.181 1096.19 Z " fill="rgb(36,46,108)"/><g><g><path d=" M 567.903 724.045 C 570.496 722.679 581.494 725.662 581.494 725.662 C 581.494 725.662 609.162 711.048 612.35 709.067 C 616.033 706.774 625.851 679.414 633.053 664.337 C 636.845 656.396 648.242 656.51 651.64 664.633 C 652.252 666.095 652.534 667.712 652.32 669.48 C 651.132 679.281 626.501 714.21 623.479 717.171 C 617.976 722.565 584.727 730.927 584.727 730.927 C 584.727 730.927 578.198 733.478 573.83 733.789 C 569.466 734.1 565.309 725.412 567.903 724.045 Z " fill="rgb(255,125,120)"/><path d=" M 623.43 669.173 C 623.723 665.92 625.9 663.046 627.057 661.729 C 620.401 669.693 631 685.427 631 685.427 C 629.147 676.905 658.022 664.007 659.18 653.705 C 660.337 643.407 650.873 642.769 648.445 639.585 C 646.013 636.4 650.978 619.622 642.991 612.934 C 635 606.246 627.659 610.6 627.659 610.6 C 629.463 608.687 632.951 607.734 632.951 607.734 C 624.096 607.734 622.611 613.891 622.397 616.734 C 615.015 618.723 612.538 633.299 612.538 633.299 L 635.624 643.16 C 635.984 643.904 636.214 644.409 636.263 644.595 C 636.684 646.205 632.707 655.22 627.851 657.683 C 622.363 660.465 623.43 669.173 623.43 669.173 Z  M 627.587 661.152 C 627.708 661.027 627.779 660.963 627.779 660.963 C 627.712 661.023 627.651 661.088 627.587 661.152 Z " fill="rgb(242,75,70)"/><path d=" M 654.718 843.127 L 660.443 842.277 C 660.443 842.277 679.687 826.832 682.555 798.014 C 682.848 795.08 682.909 792.104 682.691 789.105 C 682.664 788.76 682.702 788.414 682.89 788.122 C 682.89 788.118 682.89 788.118 682.897 788.114 C 683.514 787.162 685.047 784.77 687.122 781.373 C 689.167 778.025 692.67 771.698 696.523 764.596 C 703.461 751.808 711.543 736.514 714.313 731.64 C 723.142 716.116 718.887 705.677 718.887 705.677 C 718.887 705.677 694.256 703.217 687.505 697.254 L 685.074 701.039 C 685.074 701.039 679.736 724.899 679.988 725.009 C 679.725 725.822 679.458 726.645 679.187 727.488 C 674.974 740.618 670.133 757.023 667.49 770.388 C 666.006 777.908 665.22 784.459 665.641 788.923 C 665.788 790.453 665.611 792.806 665.205 795.71 C 662.818 812.837 654.718 843.127 654.718 843.127 Z " fill="rgb(249,121,90)"/><path d=" M 642.713 850.442 L 666.592 850.442 C 666.592 850.442 667.163 846.767 665.915 843.977 C 664.72 841.301 663.017 841.218 665.697 837.023 C 664.179 838.602 659.3 839.255 655.849 838.785 C 655.425 839.475 653.121 844.125 651.707 845.15 C 650.151 846.278 643.19 845.875 642.713 850.442 Z " fill="rgb(34,41,86)"/><path d=" M 679.184 727.488 C 681.27 739.107 686.197 758.443 696.519 764.596 C 703.458 751.808 711.539 736.514 714.309 731.64 C 723.138 716.116 718.883 705.677 718.883 705.677 C 718.883 705.677 694.252 703.217 687.502 697.254 L 685.07 701.039 C 685.07 701.039 679.732 724.899 679.984 725.009 C 679.721 725.822 679.454 726.649 679.184 727.488 Z " fill="rgb(242,75,70)"/><path d=" M 695.933 707.473 L 695.85 702.963 C 704.747 704.098 726.532 692.225 726.532 692.225 C 726.532 692.225 735.843 698.477 737.117 716.336 C 737.741 725.051 741.676 761.912 742.109 772.92 C 742.267 776.909 742.319 779.756 742.338 780.895 C 742.338 780.899 742.338 780.902 742.338 780.906 C 742.342 781.252 742.503 781.559 742.718 781.832 C 744.559 784.197 746.157 786.699 747.54 789.295 C 761.12 814.807 754.02 849.474 754.02 849.474 L 750.866 848.665 C 750.866 848.665 739.384 812.726 731.881 797.183 C 730.607 794.545 729.449 792.495 728.483 791.307 C 725.66 787.845 722.687 781.969 719.755 774.897 C 714.211 761.525 708.833 743.882 704.995 730.221 C 704.717 730.266 695.933 707.473 695.933 707.473 Z " fill="rgb(249,121,90)"/><path d=" M 643.859 677.368 C 658.405 673.997 649.114 653.352 648.268 653.716 C 646.253 653.303 641.826 649.727 637.864 642.747 L 637.33 643.213 L 628.396 651.124 C 628.396 651.124 630.463 654.202 632.199 657.212 C 633.556 659.57 634.71 661.896 634.53 662.693 C 633.808 663.27 639.976 678.271 643.859 677.368 Z " fill="rgb(255,163,159)"/><path d=" M 634.346 661.57 C 634.346 661.57 631.076 666.231 629.083 670.395 C 627.091 674.559 621.671 687.943 621.671 687.943 C 621.671 687.943 627.456 697.015 637.214 698.002 C 637.214 698.002 643.637 690.547 642.893 682.834 C 642.149 675.121 634.346 661.57 634.346 661.57 Z " fill="rgb(27,34,81)"/><path d=" M 628.396 651.131 C 628.396 651.131 630.463 654.206 632.199 657.22 C 637.755 653.762 637.759 646.816 637.334 643.221 L 628.396 651.131 Z " fill="rgb(255,125,120)"/><path d=" M 628.151 655.094 C 628.151 655.094 641.638 647.514 636.834 639.106 C 632.03 630.695 630.538 624.056 621.724 628.539 C 612.91 633.022 613.083 637.197 614.011 640.397 C 614.936 643.597 624.517 656.848 628.151 655.094 Z " fill="rgb(255,163,159)"/><path d=" M 611.729 635.489 C 612.346 631.754 614.225 631.397 615.533 631.648 C 620.514 623.327 628.651 626.576 628.651 626.576 C 632.996 632.084 639.281 633.025 639.281 633.025 C 639.281 633.025 637.717 635.967 631.267 637.785 C 629.298 638.343 627.061 638.006 624.904 637.273 C 629.377 639.793 634.056 640.758 634.056 640.758 C 625.558 641.543 617.473 633.697 616.635 632.858 C 616.244 634.073 615.556 636.62 615.965 638.48 C 616.526 641.008 618.747 645.59 617.39 646.182 C 617.398 646.182 610.805 641.092 611.729 635.489 Z " fill="rgb(242,75,70)"/><path d=" M 735.023 850.442 L 758.903 850.442 C 758.903 850.442 759.474 846.767 758.226 843.977 C 757.031 841.301 755.159 840.087 755.606 836.849 C 754.088 838.424 751.614 840.193 748.164 839.726 C 747.739 840.417 745.435 844.125 744.022 845.15 C 742.462 846.278 735.505 845.875 735.023 850.442 Z " fill="rgb(34,41,86)"/><path d=" M 642.145 693.736 C 645.22 694.817 649.531 695.413 653.94 695.895 C 660.221 696.586 666.705 697.061 670.099 698.431 C 670.764 698.697 672.692 699.513 674.628 700.929 L 674.628 700.932 C 674.628 700.932 674.677 700.963 674.763 701.035 C 675.406 701.506 676.045 702.052 676.635 702.667 C 677.537 703.601 678.323 704.698 678.827 705.95 C 680.071 709.059 678.424 717.672 677.364 722.383 C 676.94 724.277 677.823 726.235 679.533 727.131 C 681.92 728.376 684.265 729.53 686.573 730.581 C 686.694 730.638 686.814 730.692 686.938 730.745 C 686.915 730.266 686.908 729.792 686.908 729.325 C 686.904 726.076 687.31 723.373 687.31 723.373 C 687.878 726.653 690.016 730.194 692.012 732.92 C 724.059 745.905 746.45 740.261 746.082 733.793 C 744.819 711.333 729.818 692.229 729.818 692.229 C 701.845 659.38 645.261 650.733 645.261 650.733 C 645.261 650.733 642.551 650.403 639.281 654.373 C 634.575 660.09 634.342 661.578 634.342 661.578 C 634.342 661.578 633.105 690.551 642.145 693.736 Z " fill="rgb(36,46,108)"/><path d=" M 653.944 695.895 C 660.221 696.586 666.705 697.061 670.103 698.427 C 671.49 677.486 661.706 661.733 661.706 661.733 C 661.706 661.733 655.319 687.97 653.944 695.895 Z " fill="rgb(27,34,81)"/><g><path d=" M 584.324 735.212 L 584.324 735.212 C 585.08 734.043 584.749 732.46 583.591 731.697 L 568.579 721.813 C 567.421 721.05 565.854 721.384 565.099 722.553 L 565.099 722.553 C 564.343 723.722 564.674 725.305 565.831 726.068 L 580.844 735.953 C 582.002 736.715 583.569 736.381 584.324 735.212 Z " fill="rgb(36,46,108)"/><g><path d=" M 567.523 724.789 L 568.102 723.893 L 554.867 715.679 C 553.277 714.631 551.285 714.464 549.545 715.235 L 543.655 717.839 L 543.989 718.374 L 549.639 715.455 C 551.308 714.719 553.213 714.878 554.736 715.88 L 567.523 724.789 Z " fill="rgb(36,46,108)"/></g></g><path d=" M 602.517 749.526 C 607.583 749.276 613.064 753.645 613.064 753.645 C 613.064 753.645 630.869 723.206 633.624 720.359 C 637.95 715.888 642.153 661.262 647.482 657.683 C 647.482 657.683 663.22 659.254 664.479 669.579 C 665.742 679.904 649.392 721.965 647.05 725.776 C 642.788 732.711 617.687 756.476 617.687 756.476 C 617.687 756.476 615.12 761.506 611.917 760.99 C 608.715 760.47 594.616 750.935 594.616 750.935 C 594.616 750.935 597.45 749.773 602.517 749.526 Z " fill="rgb(255,163,159)"/><path d=" M 677.364 722.375 C 676.94 724.269 677.823 726.228 679.533 727.123 C 681.92 728.368 684.265 729.522 686.573 730.574 C 686.694 730.179 686.806 729.762 686.908 729.321 C 687.269 727.681 687.438 725.719 687.31 723.369 C 686.776 713.428 680.071 705.897 676.635 702.663 C 677.537 703.597 678.323 704.694 678.827 705.947 C 680.071 709.052 678.421 717.668 677.364 722.375 Z " fill="rgb(27,34,81)"/><path d=" M 645.265 650.725 C 645.265 650.725 642.803 647.579 641.138 647.681 C 641.138 647.681 634.402 657.201 634.349 661.57 C 634.346 661.57 642.746 650.285 645.265 650.725 Z " fill="rgb(27,34,81)"/><path d=" M 639.285 677.41 C 639.285 677.41 637.668 650.786 657.849 657.224 C 678.03 663.661 654.718 709.458 654.718 709.458 C 654.718 709.458 642.874 708.866 638.672 698.431 L 639.285 677.41 Z " fill="rgb(36,46,108)"/></g><path d=" M 455.343 976.383 C 458.275 997.005 463.387 1015.882 471.224 1031.437 C 514.326 1116.953 539.964 1039.215 559.081 1003.83 C 577.07 970.526 595.935 957.658 624.223 977.529 C 645.036 992.139 651.696 1093.567 685.209 1098.327 C 712.351 1102.179 813.352 1007.808 789.555 807.025 C 789.097 803.157 788.243 798.876 786.785 794.491 C 779.865 773.698 759.316 750.707 702.537 759.536 C 650.591 767.613 647.005 777.338 614.721 762.523 C 582.434 747.712 537.953 701.908 497.843 734.966 C 473.077 755.383 442.162 883.59 455.343 976.383 Z " fill="rgb(133,169,221)"/><path d=" M 455.343 976.379 C 458.317 989.489 462.38 1001.56 467.695 1012.105 C 510.8 1097.624 536.434 1019.882 555.551 984.498 C 573.537 951.194 592.402 938.326 620.698 958.197 C 641.506 972.807 648.17 1074.231 681.679 1078.991 C 708.133 1082.745 804.737 993.202 787.601 802.793 C 787.356 800.045 787.082 797.274 786.789 794.484 C 779.869 773.69 759.32 750.699 702.544 759.528 C 650.595 767.606 647.013 777.327 614.725 762.519 C 582.438 747.704 537.957 701.904 497.851 734.962 C 481.031 748.824 461.384 812.358 454.626 880.762 C 451.427 913.129 451.111 946.582 455.343 976.379 Z " fill="rgb(192,211,248)"/><path d=" M 499.7 763.446 C 489.499 781.939 491.705 820.326 504.474 822.33 C 517.246 824.334 528.278 790.756 542.509 777.592 C 563.076 758.568 548.511 744.899 535.739 742.895 C 522.967 740.891 509.09 746.421 499.7 763.446 Z " fill="rgb(236,235,252)"/><path d=" M 454.407 969.038 C 454.686 971.509 455.001 973.957 455.343 976.379 C 458.317 989.493 462.38 1001.56 467.695 1012.105 C 500.163 1076.52 522.715 1048.305 540.039 1015.335 C 540.043 1015.335 540.043 1015.331 540.043 1015.331 C 545.718 1004.536 550.83 993.225 555.548 984.494 C 565.677 965.743 576.089 953.467 588.297 949.873 L 588.301 949.873 C 594.755 947.971 601.716 948.495 609.41 951.767 C 613.007 953.296 616.762 955.43 620.698 958.193 C 633.944 967.497 641.457 1011.976 653.82 1044.305 C 660.871 1062.764 669.505 1077.26 681.679 1078.987 C 703.488 1082.088 772.972 1021.777 787.097 893.82 L 787.101 893.816 C 788.687 879.457 789.578 864.247 789.623 848.175 C 789.66 835.813 789.198 822.933 788.164 809.546 C 787.995 807.31 787.804 805.055 787.601 802.793 C 783.259 808.259 778.354 814.066 772.885 820.041 C 737.591 858.599 678.646 904.016 593.966 908.225 C 580.468 908.897 566.316 908.521 551.499 906.904 C 521.877 903.67 489.608 895.471 454.622 880.755 C 453.487 892.226 452.716 903.83 452.382 915.361 L 452.382 915.365 C 451.852 933.737 452.427 951.907 454.407 969.038 Z " fill="rgb(177,201,246)"/><path d=" M 588.305 949.876 C 594.759 947.975 601.72 948.499 609.414 951.771 C 613.011 953.3 616.766 955.434 620.701 958.197 C 629.391 964.3 635.614 985.543 642.357 1008.561 C 645.893 1020.631 649.571 1033.188 653.823 1044.308 C 660.875 1062.767 669.509 1077.264 681.683 1078.991 C 703.491 1082.092 772.975 1021.78 787.101 893.824 C 773.043 921.347 737.433 1024.498 678.086 1004.069 C 638.717 990.518 642.713 946.418 588.305 949.876 Z " fill="rgb(154,192,239)"/><path d=" M 454.407 969.038 C 454.686 971.509 455.001 973.957 455.343 976.379 C 458.317 989.493 462.665 1001.42 467.695 1012.105 C 511.646 1105.516 542.042 1010.742 559.363 977.772 C 558.927 978.493 529.064 1029.148 497.062 1011.805 C 470.348 997.328 452.863 961.647 452.385 915.373 C 451.852 933.737 452.427 951.907 454.407 969.038 Z " fill="rgb(154,192,239)"/><g><path d=" M 768.871 849.588 C 768.871 847.655 767.318 846.092 765.405 846.092 C 763.492 846.092 761.943 847.655 761.943 849.588 C 761.943 851.52 763.496 853.083 765.405 853.083 C 767.322 853.083 768.871 851.516 768.871 849.588 Z " fill="rgb(239,236,234)"/><path d=" M 759.583 831.933 C 759.583 830.969 758.809 830.183 757.85 830.183 C 756.892 830.183 756.117 830.965 756.117 831.933 C 756.117 832.901 756.892 833.683 757.85 833.683 C 758.809 833.683 759.583 832.897 759.583 831.933 Z " fill="rgb(239,236,234)"/><path d=" M 746.397 853.083 C 746.397 852.119 745.623 851.334 744.665 851.334 C 743.706 851.334 742.932 852.116 742.932 853.083 C 742.932 854.051 743.706 854.833 744.665 854.833 C 745.623 854.833 746.397 854.051 746.397 853.083 Z " fill="rgb(239,236,234)"/></g></g><g><g><path d=" M 176.235 1035.988 C 176.235 1035.988 186.158 1024.297 176.847 1016.872 C 176.847 1016.872 170.048 1012.716 164.504 1013.054 C 164.504 1013.054 172.36 1026.358 169.819 1027.683 C 167.278 1029.008 162.121 1012.219 162.121 1012.219 C 162.121 1012.219 146.646 1010.704 141.666 1013.118 C 141.666 1013.118 154.896 1024.05 152.107 1024.703 C 149.322 1025.352 135.031 1014.621 135.031 1014.621 C 135.031 1014.621 120.628 1017.096 121.395 1025.971 C 122.162 1034.846 127.127 1037.582 129.307 1037.347 C 131.487 1037.112 144.248 1032.192 144.526 1033.999 C 144.804 1035.806 137.125 1041.705 131.746 1041.978 C 131.746 1041.978 141.902 1053.286 148.649 1050.021 C 155.396 1046.757 155.975 1041.583 160.181 1039.643 C 164.387 1037.704 167.981 1037.708 166.244 1039.689 C 164.508 1041.667 156.892 1043.591 154.487 1047.888 C 152.081 1052.185 149.924 1055.085 156.904 1054.022 C 163.887 1052.963 175.235 1047.801 175.735 1041.894 C 176.235 1035.988 176.235 1035.988 176.235 1035.988 Z " fill="rgb(27,34,81)"/><g><path d=" M 128.473 1026.21 C 128.473 1026.21 167.593 1024.688 176.231 1035.984 C 176.231 1035.984 178.14 1041.761 184.019 1047.026 L 184.936 1049.547 C 184.936 1049.547 178.155 1042.327 175.731 1041.891 C 175.735 1041.894 179.527 1027.899 128.473 1026.21 Z " fill="rgb(27,34,81)"/><path d=" M 184.023 1047.026 C 184.023 1047.026 192.42 1053.297 193.002 1064.502 L 191.48 1064.639 C 191.48 1064.639 188.8 1053.054 183.951 1048.522 C 179.103 1043.993 184.023 1047.026 184.023 1047.026 Z " fill="rgb(27,34,81)"/></g></g><g><path d=" M 210.924 1021.287 C 210.924 1021.287 195.141 1012.363 202.508 1000.247 C 202.508 1000.247 208.402 992.807 214.713 990.898 C 214.713 990.898 211.345 1008.962 214.713 1009.387 C 218.081 1009.812 217.028 988.985 217.028 988.985 C 217.028 988.985 233.653 980.911 240.178 981.545 C 240.178 981.545 229.868 999.184 233.232 998.759 C 236.6 998.334 248.173 980.482 248.173 980.482 C 248.173 980.482 265.219 977.294 267.955 987.497 C 270.692 997.696 266.272 1002.798 263.746 1003.435 C 261.22 1004.073 245.016 1003.86 245.437 1005.986 C 245.858 1008.112 256.799 1011.513 262.904 1009.6 C 262.904 1009.6 256.168 1026.388 247.331 1025.538 C 238.494 1024.688 235.758 1019.161 230.285 1018.736 C 224.813 1018.311 220.817 1019.799 223.55 1021.287 C 226.286 1022.775 235.544 1021.773 239.964 1025.569 C 244.384 1029.361 247.963 1031.699 239.754 1033.399 C 231.548 1035.1 216.814 1034.037 213.871 1027.66 C 210.924 1021.287 210.924 1021.287 210.924 1021.287 Z " fill="rgb(36,46,108)"/><g><path d=" M 260.167 990.685 C 260.167 990.685 215.976 1005.136 210.924 1021.287 C 210.924 1021.287 211.135 1028.514 206.714 1036.8 L 206.714 1039.989 C 206.714 1039.989 211.345 1029.152 213.871 1027.664 C 213.871 1027.66 203.978 1013.635 260.167 990.685 Z " fill="rgb(27,34,81)"/><path d=" M 206.714 1036.8 C 206.714 1036.8 199.9 1047.25 203.786 1059.974 L 205.538 1059.499 C 205.538 1059.499 203.835 1045.485 207.402 1038.44 C 210.969 1031.391 206.714 1036.8 206.714 1036.8 Z " fill="rgb(27,34,81)"/></g></g><g><path d=" M 185.816 1008.977 C 185.816 1008.977 206.62 997.21 196.912 981.245 C 196.912 981.245 189.142 971.44 180.82 968.92 C 180.82 968.92 185.259 992.731 180.82 993.293 C 176.381 993.855 177.768 966.4 177.768 966.4 C 177.768 966.4 155.855 955.756 147.255 956.595 C 147.255 956.595 160.846 979.848 156.407 979.286 C 151.968 978.725 136.712 955.194 136.712 955.194 C 136.712 955.194 114.242 950.992 110.637 964.437 C 107.033 977.886 112.855 984.608 116.185 985.447 C 119.515 986.286 140.873 986.009 140.32 988.81 C 139.764 991.611 125.341 996.094 117.298 993.574 C 117.298 993.574 126.176 1015.703 137.824 1014.584 C 149.476 1013.464 153.081 1006.18 160.294 1005.618 C 167.507 1005.06 172.777 1007.018 169.172 1008.981 C 165.567 1010.943 153.359 1009.622 147.537 1014.625 C 141.711 1019.628 136.997 1022.707 147.815 1024.95 C 158.633 1027.189 178.05 1025.789 181.937 1017.385 C 185.816 1008.977 185.816 1008.977 185.816 1008.977 Z " fill="rgb(36,46,108)"/><g><path d=" M 120.902 968.635 C 120.902 968.635 179.155 987.683 185.816 1008.973 C 185.816 1008.973 185.538 1018.497 191.364 1029.421 L 191.364 1033.623 C 191.364 1033.623 185.259 1019.336 181.933 1017.373 C 181.929 1017.381 194.968 998.892 120.902 968.635 Z " fill="rgb(27,34,81)"/><path d=" M 191.364 1029.425 C 191.364 1029.425 200.347 1043.2 195.224 1059.974 L 192.912 1059.347 C 192.912 1059.347 195.156 1040.877 190.454 1031.585 C 185.756 1022.297 191.364 1029.425 191.364 1029.425 Z " fill="rgb(27,34,81)"/></g></g><path d=" M 145.537 1056.447 L 144.59 1056.447 L 144.59 1055.183 L 228.365 1055.183 L 228.365 1056.447 L 227.004 1056.447 C 226.504 1073.183 216.111 1087.406 201.527 1093.358 L 222.809 1093.358 C 225.587 1093.358 227.838 1095.632 227.838 1098.437 L 145.206 1098.437 C 145.206 1095.632 147.458 1093.358 150.236 1093.358 L 171.021 1093.358 C 156.43 1087.406 146.033 1073.183 145.537 1056.447 Z " fill="rgb(249,121,90)"/><path d=" M 186.692 1093.354 L 196.818 1093.354 C 211.386 1087.406 221.768 1073.198 222.276 1056.482 L 212.153 1056.482 C 211.646 1073.202 201.26 1087.402 186.692 1093.354 Z " fill="rgb(239,236,234)"/></g><g><g><g><path d=" M 309.249 934.644 C 303.791 934.621 299.984 926.081 296.304 917.825 C 293.894 912.419 291.662 907.029 289.692 905.538 C 287.753 904.065 283.949 904.281 281.851 905.097 C 279.13 906.156 276.894 909.212 274.815 914.724 C 274.36 915.934 273.898 917.32 273.409 918.789 C 271.207 925.428 268.707 932.955 263.828 933.657 C 260.494 934.135 256.751 931.269 252.372 924.896 C 249.947 921.362 247.933 916.804 246.392 911.341 C 239.802 888.012 243.294 854.48 249.06 848.24 L 249.06 848.24 C 256.281 840.424 265.892 844.771 273.616 848.267 C 275.984 849.337 278.217 850.347 280.205 850.95 C 286.155 852.749 288.106 852.021 293.323 850.07 C 295.484 849.261 298.172 848.255 301.893 847.143 C 316.454 842.785 322.585 848.138 325.163 853.398 C 325.652 854.397 326.047 855.475 326.34 856.598 C 330.497 872.742 331.377 887.883 328.948 901.601 C 326.464 915.65 321.19 924.122 318.27 927.922 C 315.03 932.135 311.666 934.648 309.264 934.648 C 309.26 934.644 309.253 934.644 309.249 934.644 Z  M 293.8 851.353 C 288.429 853.361 286.204 854.192 279.818 852.26 C 277.743 851.633 275.469 850.605 273.06 849.515 C 265.351 846.027 256.615 842.076 250.056 849.174 C 244.617 855.057 241.347 888.46 247.703 910.962 C 249.207 916.276 251.394 919.836 253.736 923.245 C 257.735 929.068 260.427 931.326 263.163 930.932 C 267.211 930.351 270.151 924.304 272.128 918.349 C 272.62 916.864 273.082 915.467 273.552 914.23 C 275.777 908.331 278.262 905.018 281.37 903.811 C 283.851 902.846 287.674 903.089 290.053 904.957 C 292.372 906.779 294.932 911.379 297.552 917.259 C 300.893 924.756 304.678 933.251 309.264 933.27 C 309.268 933.27 309.271 933.27 309.271 933.27 C 310.734 933.27 313.684 931.649 317.202 927.075 C 331.504 908.479 330.692 851.846 312.222 848.008 C 304.573 846.422 295.943 850.552 293.8 851.353 Z " fill="rgb(127,34,186)"/></g><g><path d=" M 262.892 861.313 L 263.167 860.952 L 238.171 841.677 L 187.323 841.677 L 187.323 842.133 L 238.017 842.133 L 262.892 861.313 Z " fill="rgb(127,34,186)"/></g><g><path d=" M 187.323 923.165 L 238.171 923.165 L 238.231 923.12 L 263.167 903.89 L 262.892 903.526 L 238.017 922.706 L 187.323 922.706 L 187.323 923.165 Z " fill="rgb(127,34,186)"/></g><g><rect x="185.812" y="882.573" width="77.219" height="0.459" transform="matrix(1,0,0,1,0,0)" fill="rgb(127,34,186)"/></g></g><g><path d=" M 188.154 873.736 L 210.947 873.736 C 211.405 873.736 211.777 873.357 211.777 872.898 L 211.777 872.898 C 211.777 872.434 211.405 872.059 210.947 872.059 L 188.154 872.059 C 187.695 872.059 187.323 872.434 187.323 872.898 L 187.323 872.898 C 187.323 873.361 187.695 873.736 188.154 873.736 Z " fill="rgb(127,34,186)"/><path d=" M 188.154 877.096 L 210.947 877.096 C 211.405 877.096 211.777 876.72 211.777 876.257 L 211.777 876.257 C 211.777 875.794 211.405 875.418 210.947 875.418 L 188.154 875.418 C 187.695 875.418 187.323 875.798 187.323 876.257 L 187.323 876.257 C 187.323 876.716 187.695 877.096 188.154 877.096 Z " fill="rgb(127,34,186)"/></g><g><path d=" M 188.154 835.433 L 210.947 835.433 C 211.405 835.433 211.777 835.057 211.777 834.594 L 211.777 834.594 C 211.777 834.131 211.405 833.755 210.947 833.755 L 188.154 833.755 C 187.695 833.755 187.323 834.131 187.323 834.594 L 187.323 834.594 C 187.323 835.057 187.695 835.433 188.154 835.433 Z " fill="rgb(127,34,186)"/><path d=" M 188.154 838.792 L 210.947 838.792 C 211.405 838.792 211.777 838.416 211.777 837.953 L 211.777 837.953 C 211.777 837.49 211.405 837.114 210.947 837.114 L 188.154 837.114 C 187.695 837.114 187.323 837.494 187.323 837.953 L 187.323 837.953 C 187.323 838.413 187.695 838.792 188.154 838.792 Z " fill="rgb(127,34,186)"/></g><g><path d=" M 188.154 916.006 L 210.947 916.006 C 211.405 916.006 211.777 915.631 211.777 915.168 L 211.777 915.168 C 211.777 914.705 211.405 914.329 210.947 914.329 L 188.154 914.329 C 187.695 914.329 187.323 914.708 187.323 915.168 L 187.323 915.168 C 187.323 915.631 187.695 916.006 188.154 916.006 Z " fill="rgb(127,34,186)"/><path d=" M 188.154 919.366 L 210.947 919.366 C 211.405 919.366 211.777 918.986 211.777 918.527 L 211.777 918.527 C 211.777 918.064 211.405 917.688 210.947 917.688 L 188.154 917.688 C 187.695 917.688 187.323 918.064 187.323 918.527 L 187.323 918.527 C 187.323 918.986 187.695 919.366 188.154 919.366 Z " fill="rgb(127,34,186)"/></g></g><g><path d=" M 335.128 1076.721 C 335.128 1076.721 330.437 1081.044 331.35 1084.119 C 332.267 1087.19 336.5 1089.239 337.075 1092.997 C 337.646 1096.751 339.935 1098.801 341.995 1098.801 C 344.055 1098.801 351.817 1098.801 351.817 1098.801 C 351.817 1098.801 353.331 1096.159 349.67 1095.362 C 346.009 1094.565 344.626 1090.15 344.855 1086.055 C 345.085 1081.959 344.513 1076.497 344.513 1076.497 L 336.729 1074.675 L 335.128 1076.721 Z " fill="rgb(34,41,86)"/><path d=" M 335.128 1074.007 C 335.985 1076.569 345.43 1080.323 345.43 1080.323 C 345.43 1080.323 350.576 1072.132 367.062 1042.767 C 368.479 1040.236 369.964 1037.461 371.49 1034.508 C 387.675 1003.109 408.607 950.928 408.607 950.928 L 368.603 939.662 C 368.603 939.662 366.716 955.878 366.374 964.073 C 366.164 969.079 363.345 979.78 359.763 989.125 C 357.485 995.073 354.891 1000.471 352.471 1003.504 C 341.431 1017.324 335.128 1074.007 335.128 1074.007 Z " fill="rgb(249,121,90)"/><path d=" M 359.759 989.125 C 362.273 1002.004 366.889 1023.568 371.486 1034.508 C 387.671 1003.109 408.604 950.928 408.604 950.928 L 368.599 939.662 C 368.599 939.662 366.712 955.878 366.37 964.073 C 366.164 969.079 363.341 979.78 359.759 989.125 Z " fill="rgb(242,75,70)"/><g><path d=" M 423.999 932.568 L 427.145 932.401 C 427.145 932.401 430.882 926.111 437.008 931.015 C 437.008 931.015 439.429 933.27 437.756 934.72 C 436.084 936.17 436.538 935.293 434.219 937.403 C 431.9 939.514 428.935 940.015 427.051 938.478 L 424.616 937.901 L 423.999 932.568 Z " fill="rgb(255,163,159)"/><path d=" M 391.182 863.214 C 391.182 863.214 366.228 887.17 376.944 925.454 C 380.289 937.407 427.472 939.548 427.472 939.548 C 427.472 939.548 430.01 936.823 426.179 932.203 C 426.179 932.203 397.666 919.104 394.332 917.297 C 391.37 915.691 400.77 886.896 399.289 877.415 C 397.805 867.929 391.182 863.214 391.182 863.214 Z " fill="rgb(177,201,246)"/></g><path d=" M 392.697 1087.907 C 392.697 1087.907 391.855 1097.75 393.914 1098.774 L 420.278 1098.721 C 420.278 1098.721 420.278 1095.647 416.042 1094.967 C 411.806 1094.284 404.367 1091.783 403.108 1086.203 C 401.853 1080.623 392.697 1087.907 392.697 1087.907 Z " fill="rgb(34,41,86)"/><path d=" M 414.956 948.878 C 414.956 948.878 413.565 966.13 411.93 986.867 C 409.709 1015.035 407.036 1049.638 406.773 1056.193 C 406.318 1067.577 404.484 1085.785 404.484 1085.785 C 404.484 1085.785 400.139 1090.112 391.437 1088.287 C 391.437 1088.287 383.683 1062.293 381.469 1034.792 C 381.435 1034.341 381.402 1033.889 381.368 1033.434 C 379.308 1005.436 376.106 946.483 376.106 946.483 L 414.956 948.878 Z " fill="rgb(249,121,90)"/><path d=" M 378.5 854.644 C 378.5 854.644 394.147 865.036 403.924 861.969 C 403.924 861.969 401.206 857.813 398.617 854.492 C 398.955 852.51 399.218 850.791 399.368 849.333 C 399.782 845.966 399.782 844.061 399.782 844.061 L 393.238 838.864 L 387.032 833.892 C 387.525 847.876 378.5 854.644 378.5 854.644 Z " fill="rgb(255,163,159)"/><path d=" M 356.417 981.526 C 376.301 995.084 416.486 991.213 416.786 990.951 C 417.455 982.323 417.835 968.093 418.045 954.921 C 418.305 938.561 418.309 923.841 418.286 923.53 C 418.286 923.53 418.275 923.033 418.252 922.197 C 418.185 919.54 418.027 913.444 417.854 908.901 C 417.824 908.05 417.79 907.261 417.76 906.551 C 417.756 906.513 417.756 906.475 417.752 906.433 C 417.628 904.395 416.392 898.944 414.655 892.59 C 412.107 883.275 408.487 872.04 405.706 866.813 C 404.277 864.129 399.485 856.367 399.485 856.367 C 396.098 857.042 393.659 856.033 390.084 854.275 C 386.175 852.37 381.962 850.313 381.285 850.836 C 376.169 854.613 372.711 863.101 370.866 873.945 C 369.813 880.193 355.436 980.854 356.417 981.526 Z " fill="rgb(36,46,108)"/><path d=" M 386.923 839.236 C 386.923 839.236 391.208 847.124 399.368 849.333 C 399.782 845.966 399.782 844.061 399.782 844.061 L 393.238 838.864 L 386.923 839.236 Z " fill="rgb(255,125,120)"/><path d=" M 402.766 843.833 C 402.766 843.833 386.589 846.505 385.07 836.462 C 383.552 826.418 380.439 819.999 390.704 817.866 C 400.97 815.737 403.559 819.267 404.886 822.497 C 406.213 825.727 406.935 842.88 402.766 843.833 Z " fill="rgb(255,163,159)"/><path d=" M 379.188 816.666 C 379.041 816.496 378.703 816.359 377.947 816.317 C 377.947 816.317 378.549 815.938 379.357 815.915 C 379.515 814.856 380.071 812.981 381.875 812.529 C 381.875 812.529 380.905 813.049 380.778 814.176 C 382.867 812.009 387.344 810.43 399.744 811.421 C 416.083 812.723 410.701 823.29 408.585 824.547 C 406.469 825.807 401.142 822.353 397.203 822.668 C 393.26 822.983 392.512 828.733 391.174 829.523 C 389.836 830.312 390.362 828.916 388.554 828.092 C 386.746 827.264 386.574 830.293 387.096 832.26 C 387.619 834.23 385.134 836.826 385.134 836.826 C 385.134 836.826 385.134 836.826 382.623 834.093 C 380.112 831.36 377.744 819.79 378.887 817.323 C 378.985 817.107 379.086 816.887 379.188 816.666 Z " fill="rgb(38,45,90)"/><path d=" M 418.045 954.921 C 418.305 938.561 418.309 923.841 418.286 923.53 C 418.286 923.53 418.275 923.033 418.252 922.197 C 402.661 902.71 382.574 882.474 382.574 882.474 C 382.574 882.474 378.225 939.632 418.045 954.921 Z " fill="rgb(27,34,81)"/><g><path d=" M 293.252 995.665 L 599.186 864.072 C 601.491 863.082 602.573 860.368 601.592 858.041 L 600.562 855.596 C 599.581 853.269 596.894 852.176 594.59 853.167 L 288.655 984.76 C 286.351 985.751 285.268 988.465 286.249 990.791 L 287.279 993.236 C 288.26 995.563 290.948 996.656 293.252 995.665 Z " fill="rgb(198,67,219)"/><path d=" M 531.495 855.585 L 540.321 876.511 L 592.447 854.089 L 583.622 833.163 C 582.776 831.155 580.453 830.21 578.465 831.068 L 533.57 850.377 C 531.582 851.235 530.65 853.577 531.495 855.585 Z " fill="rgb(36,46,108)"/><g><path d=" M 516.4 842.93 C 519.001 848.373 524.064 853.862 533.574 850.377 C 550.432 844.205 579.419 828.259 588.305 829.352 C 588.305 829.352 588.294 829.329 588.279 829.28 C 588.215 829.109 588.034 828.65 587.715 828.008 C 585.343 823.248 575.281 808.308 547.895 824.687 C 526.598 837.422 513.841 834.537 513.841 834.537 C 513.841 834.537 513.841 834.541 513.844 834.545 L 513.841 834.549 C 513.841 834.552 513.841 834.552 513.844 834.556 C 513.844 834.564 513.848 834.571 513.848 834.579 C 513.852 834.598 513.856 834.624 513.859 834.659 C 513.965 835.376 514.589 839.141 516.4 842.93 Z " fill="rgb(102,21,178)"/><path d=" M 514.54 837.19 C 514.123 835.729 513.893 834.776 513.848 834.579 C 513.848 834.579 513.844 834.579 513.848 834.583 C 513.852 834.602 513.856 834.628 513.859 834.662 C 513.916 834.985 514.104 835.93 514.54 837.19 Z " fill="rgb(196,214,248)"/><linearGradient id="_lgradient_64" x1="0.000012619888945408775" y1="0.5000065033003622" x2="1.0000232205956578" y2="0.5000065033003622" gradientTransform="matrix(74.461,0,0,24.804,513.841,820.961)" gradientUnits="userSpaceOnUse"><stop offset="0%" stop-opacity="1" style="stop-color:rgb(249,121,90)"/><stop offset="100%" stop-opacity="1" style="stop-color:rgb(235,54,104)"/></linearGradient><path d=" M 588.301 829.356 C 588.301 829.356 579.509 814.985 563.494 823.848 C 547.478 832.715 521.663 842.262 513.841 834.541 C 513.841 834.541 520.287 850.1 536.464 844.581 C 552.646 839.058 577.559 820.197 588.301 829.356 Z " fill="url(#_lgradient_64)"/><g><linearGradient id="_lgradient_65" x1="-0.00005249210070523702" y1="0.5000766368418468" x2="0.9999887880949938" y2="0.5000766368418468" gradientTransform="matrix(73.754,0,0,23.262,514.551,828.208)" gradientUnits="userSpaceOnUse"><stop offset="0%" stop-opacity="1" style="stop-color:rgb(249,121,90)"/><stop offset="100%" stop-opacity="1" style="stop-color:rgb(235,54,104)"/></linearGradient><path d=" M 516.4 842.93 C 519.001 848.373 524.064 853.862 533.574 850.377 C 550.432 844.205 579.419 828.259 588.305 829.352 C 588.305 829.352 579.596 824.061 559.558 836.238 C 522.58 858.701 516.848 843.852 514.551 837.213 C 514.968 838.694 515.585 840.686 516.4 842.93 Z " fill="url(#_lgradient_65)"/><linearGradient id="_lgradient_66" x1="-0.000008079175923825233" y1="0.5001528415310155" x2="0.9999868713391251" y2="0.5001528415310155" gradientTransform="matrix(74.438,0,0,18.741,513.841,817.21)" gradientUnits="userSpaceOnUse"><stop offset="0%" stop-opacity="1" style="stop-color:rgb(249,121,90)"/><stop offset="100%" stop-opacity="1" style="stop-color:rgb(235,54,104)"/></linearGradient><path d=" M 513.841 834.541 C 528.436 840.724 550.819 824.869 567.012 819.938 C 582.535 815.217 587.865 828.202 588.279 829.28 C 588.215 829.109 588.034 828.65 587.715 828.008 C 585.343 823.248 575.281 808.308 547.895 824.687 C 526.594 837.422 513.841 834.541 513.841 834.541 Z " fill="url(#_lgradient_66)"/></g></g><path d=" M 531.495 855.585 L 535.389 864.816 C 551.563 846.539 576.581 837.369 584.313 834.81 L 583.618 833.163 C 582.772 831.155 580.449 830.21 578.461 831.068 L 533.566 850.377 C 531.582 851.235 530.65 853.577 531.495 855.585 Z " fill="rgb(27,34,81)"/></g><path d=" M 396.891 879.149 C 397.106 879.498 402.045 908.939 414.715 909.265 C 415.948 909.299 416.989 909.17 417.858 908.905 C 417.827 908.054 417.794 907.265 417.764 906.555 C 417.76 906.517 417.76 906.479 417.756 906.437 C 417.632 904.399 416.395 898.948 414.659 892.594 C 409.479 891.52 403.413 886.722 396.891 879.149 Z " fill="rgb(27,34,81)"/><path d=" M 381.24 850.84 C 381.24 850.84 382.743 846.429 383.969 845.932 C 383.969 845.932 400.996 849.899 406.675 868.901 C 406.675 868.901 400.049 857.24 381.24 850.84 Z " fill="rgb(27,34,81)"/><path d=" M 455.934 919.214 C 455.934 919.214 456.144 918.698 456.952 918.147 C 457.546 917.487 458.211 916.671 458.377 916.151 C 458.692 915.16 459.91 915.092 460.128 916.052 C 460.2 916.375 460.188 916.709 460.102 917.05 C 462.105 916.747 465.033 916.804 469.303 917.726 C 469.303 917.726 472.634 918.299 469.758 920.455 C 467.837 921.898 466.623 921.56 463.883 923.549 C 461.143 925.538 457.719 926.081 455.61 924.737 L 452.833 924.285 L 452.314 919.453 L 455.934 919.214 Z " fill="rgb(255,163,159)"/><path d=" M 377.496 865.534 C 377.496 865.534 371.798 895.714 405.961 919.036 C 415.185 925.333 456.163 926.043 456.163 926.043 C 456.163 926.043 457.384 920.918 454.652 918.755 C 454.652 918.755 419.628 906.229 416.204 906.847 C 413.167 907.394 397.117 877.141 390.84 871.201 C 384.566 865.26 377.496 865.534 377.496 865.534 Z " fill="rgb(36,46,108)"/></g><g><g><path d=" M 814.991 904.444 C 814.991 904.444 814.757 903.936 813.927 903.427 C 813.303 902.793 811.724 900.539 811.532 900.026 C 811.175 899.051 810.172 899.905 809.999 900.873 C 809.939 901.195 810.634 902.137 810.732 902.471 C 808.717 902.258 805.797 902.444 801.568 903.556 C 801.568 903.556 798.268 904.277 801.234 906.304 C 803.214 907.66 804.413 907.269 807.236 909.132 C 810.063 910.996 813.506 911.387 815.554 909.952 L 818.309 909.375 L 818.618 904.524 L 814.991 904.444 Z " fill="rgb(255,163,159)"/><path d=" M 889.444 851.554 C 889.444 851.554 900.051 877.134 866.936 901.951 C 857.998 908.65 817.088 911.182 817.088 911.182 C 817.088 911.182 815.645 906.118 818.279 903.833 C 818.279 903.833 847.143 893.569 852.589 892.397 C 855.607 891.748 860.903 867.356 866.91 861.142 C 872.924 854.928 889.444 851.554 889.444 851.554 Z " fill="rgb(27,34,81)"/></g><path d=" M 913.349 1086.134 C 913.349 1086.134 912.609 1098.213 910.293 1098.387 C 909.985 1098.41 898.558 1098.41 898.558 1098.41 L 884.02 1098.41 C 884.02 1098.41 884.065 1094.774 888.331 1094.026 C 892.597 1093.278 899.735 1090.249 902.317 1084.555 C 905.031 1078.566 913.349 1086.134 913.349 1086.134 Z " fill="rgb(27,34,81)"/><path d=" M 914.191 1087.258 C 914.191 1087.258 909.756 1088.757 906.294 1088.757 C 902.43 1088.757 898.919 1087.695 898.919 1087.695 C 898.919 1087.695 898.085 1079.541 893.488 1061.572 C 891.079 1052.154 887.639 1040.046 882.745 1024.999 C 869.214 983.416 865.098 959.089 864.722 956.789 C 864.704 956.667 864.696 956.606 864.696 956.606 L 864.741 956.587 L 906.347 938.14 C 906.347 938.14 901.205 995.449 907.764 1017.449 C 908.681 1020.524 909.47 1024.107 910.147 1027.987 C 914.289 1051.877 914.191 1087.258 914.191 1087.258 Z " fill="rgb(102,21,178)"/><path d=" M 910.143 1027.987 L 893.488 1061.572 C 891.079 1052.154 887.639 1040.046 882.745 1024.999 C 869.214 983.416 865.098 959.089 864.722 956.789 C 864.726 956.72 864.73 956.656 864.737 956.587 L 906.343 938.14 C 906.343 938.14 901.201 995.449 907.76 1017.449 C 908.681 1020.52 909.47 1024.103 910.143 1027.987 Z " fill="rgb(102,21,178)"/><path d=" M 881.764 1086.134 C 881.764 1086.134 881.024 1098.213 878.709 1098.387 C 878.4 1098.41 866.97 1098.41 866.97 1098.41 L 852.382 1098.323 C 852.382 1098.323 852.48 1094.774 856.743 1094.022 C 861.005 1093.271 868.147 1090.245 870.729 1084.552 C 873.446 1078.566 881.764 1086.134 881.764 1086.134 Z " fill="rgb(27,34,81)"/><path d=" M 857.269 939.487 C 857.269 939.487 856.728 976.625 863.091 1022.224 C 869.455 1067.823 867.297 1087.178 867.297 1087.178 C 867.297 1087.178 871.668 1088.609 873.431 1088.754 C 877.927 1089.122 882.535 1087.691 882.535 1087.691 C 882.535 1087.691 891.642 1042.077 889.03 1019.252 C 886.418 996.428 901.502 940.937 901.502 940.937 L 857.269 939.487 Z " fill="rgb(127,34,186)"/><path d=" M 886.767 852.582 L 878.648 857.957 L 866.914 855.748 C 867.075 854.792 867.85 850.825 868.556 847.234 C 868.598 847.022 868.643 846.809 868.68 846.604 C 869.285 843.548 869.808 840.922 869.808 840.922 L 880.768 836.036 L 884.854 834.215 C 884.843 834.279 884.538 837.604 884.493 838.09 C 883.727 846.722 886.767 852.582 886.767 852.582 Z " fill="rgb(255,163,159)"/><path d=" M 854.841 941.097 C 855.006 960.698 856.303 1006.555 857.254 1007.489 C 867.365 1017.343 911.834 1004.787 914.191 993.931 C 916.544 983.075 905.23 854.716 887.963 849.588 C 884.381 848.525 865.222 854.78 865.222 854.78 C 865.222 854.78 862.219 862.717 860.249 872.833 C 859.52 876.579 857.133 903.313 855.743 921.18 C 855.374 925.944 855.074 930.074 854.897 932.97 C 854.826 934.162 854.811 937.081 854.841 941.097 Z " fill="rgb(36,46,108)"/><path d=" M 883.67 838.249 C 881.265 842.368 872.296 845.928 868.556 847.234 C 868.598 847.022 868.643 846.809 868.68 846.604 C 869.285 843.548 869.808 840.922 869.808 840.922 L 880.768 836.036 C 883.189 836.006 884.666 836.557 883.67 838.249 Z " fill="rgb(255,147,143)"/><path d=" M 865.677 840.25 C 865.677 840.25 883.332 845.811 886.591 834.655 C 889.849 823.499 894.326 816.704 883.193 812.681 C 872.059 808.657 868.616 812.26 866.632 815.718 C 864.643 819.176 861.167 838.515 865.677 840.25 Z " fill="rgb(255,163,159)"/><path d=" M 867.323 814.643 C 867.323 814.643 868.451 827.625 871.108 827.063 C 873.766 826.501 876.179 826.08 875.788 829.994 C 875.397 833.907 871.714 838.424 879.904 839.119 C 888.098 839.81 899.874 818.473 897.626 814.435 C 891.131 802.774 857.934 800.424 867.323 814.643 Z " fill="rgb(242,75,70)"/><path d=" M 869.921 849.868 C 870.15 849.77 883.061 843.92 884.572 844.425 C 886.083 844.93 887.966 849.588 887.966 849.588 L 865.226 854.78 C 865.226 854.78 867.015 851.102 869.921 849.868 Z " fill="rgb(27,34,81)"/><path d=" M 794.746 897.711 L 831.367 991.065 C 832.085 992.894 834.156 993.798 835.968 993.073 L 841.734 990.765 C 843.546 990.04 844.44 987.948 843.722 986.119 L 807.101 892.765 C 806.383 890.935 804.312 890.032 802.5 890.757 L 796.734 893.065 C 794.923 893.79 794.024 895.881 794.746 897.711 Z " fill="rgb(198,67,219)"/><g><path d=" M 794.746 897.711 L 798.802 908.047 C 806.477 906.149 814.784 912.355 814.784 912.355 L 807.101 892.769 C 806.383 890.939 804.312 890.036 802.5 890.761 L 796.734 893.068 C 794.923 893.79 794.024 895.881 794.746 897.711 Z " fill="rgb(102,21,178)"/></g><path d=" M 815.295 950.1 L 831.367 991.065 C 832.085 992.894 834.156 993.798 835.968 993.073 L 841.734 990.765 C 843.546 990.04 844.44 987.948 843.722 986.119 L 827.65 945.154 L 815.295 950.1 Z " fill="rgb(127,34,186)"/><path d=" M 727.502 866.566 C 739.042 895.987 772.021 910.389 801.155 898.736 C 810.694 894.921 818.64 888.783 824.602 881.222 C 836.859 865.693 840.768 844.144 833.006 824.357 C 821.467 794.936 788.491 780.538 759.357 792.191 C 758.974 792.347 758.591 792.502 758.215 792.666 C 729.851 804.725 716.113 837.532 727.502 866.566 Z  M 762.263 799.593 C 768.766 796.993 775.486 795.903 782.053 796.146 C 784.815 796.253 787.548 796.598 790.224 797.16 C 805.752 800.436 819.396 811.28 825.677 827.287 C 831.037 840.956 829.935 855.592 823.839 867.75 C 818.64 878.132 809.807 886.707 798.253 891.326 C 782.402 897.669 765.229 895.05 752.227 885.872 C 744.657 880.523 738.496 872.954 734.839 863.628 C 724.901 838.303 737.177 809.633 762.263 799.593 Z " fill="rgb(198,67,219)"/><path d=" M 758.215 792.669 C 767.36 792.373 775.249 793.66 782.053 796.15 C 784.815 796.256 787.548 796.602 790.224 797.164 C 805.752 800.439 819.396 811.284 825.677 827.291 C 831.037 840.96 829.935 855.596 823.839 867.754 C 824.335 872.989 824.53 877.612 824.605 881.222 C 836.863 865.693 840.772 844.144 833.01 824.357 C 821.471 794.936 788.495 780.538 759.361 792.191 C 758.974 792.347 758.594 792.502 758.215 792.669 Z " fill="rgb(127,34,186)"/><g style="opacity:0.5;"><g style="opacity:0.5;"><g opacity="0.5"><path d=" M 734.835 863.636 C 738.493 872.962 744.653 880.531 752.223 885.883 C 765.225 895.061 782.399 897.68 798.249 891.338 C 823.335 881.301 835.615 852.632 825.673 827.295 C 819.396 811.288 805.748 800.443 790.22 797.164 C 781.173 795.251 771.491 795.903 762.259 799.597 C 737.177 809.633 724.901 838.303 734.835 863.636 Z " fill="rgb(237,236,252)"/></g></g><g style="opacity:0.5;"><g opacity="0.5"><path d=" M 734.835 863.636 C 738.493 872.962 744.653 880.531 752.223 885.883 C 761.267 887.792 770.949 887.139 780.181 883.446 C 805.267 873.41 817.546 844.736 807.608 819.407 C 803.951 810.085 797.794 802.512 790.224 797.167 C 781.177 795.254 771.494 795.907 762.263 799.601 C 737.177 809.633 724.901 838.303 734.835 863.636 Z " fill="rgb(192,211,248)"/></g></g><g style="opacity:0.5;"><g opacity="0.5"><path d=" M 772.269 805.788 C 747.604 815.657 735.426 843.586 745.067 868.168 C 746.525 871.888 748.405 875.319 750.622 878.428 C 746.379 874.184 742.917 869.007 740.575 863.04 C 731.513 839.942 742.71 813.797 765.582 804.649 C 773.821 801.35 782.455 800.713 790.555 802.326 C 784.481 802.273 778.279 803.381 772.269 805.788 Z " fill="rgb(239,236,234)"/></g></g></g><path d=" M 854.841 941.097 C 897.032 912.241 893.597 872.556 893.597 872.556 C 877.134 881.935 860.813 904.137 855.743 921.176 C 855.374 925.94 855.074 930.07 854.897 932.966 C 854.826 934.162 854.811 937.081 854.841 941.097 Z " fill="rgb(27,34,81)"/><g><path d=" M 818.088 928.411 C 818.088 928.411 817.746 927.971 816.821 927.663 C 816.073 927.189 814.047 925.633 813.743 925.181 C 812.78 923.754 812.066 924.851 812.638 926.255 C 812.762 926.559 813.322 927.162 813.495 927.466 C 811.487 927.72 808.68 928.574 804.816 930.628 C 804.816 930.628 801.764 932.089 805.109 933.38 C 807.345 934.245 808.42 933.589 811.593 934.754 C 814.765 935.923 818.208 935.509 819.877 933.646 L 822.429 932.45 L 821.636 927.656 L 818.088 928.411 Z " fill="rgb(255,163,159)"/><path d=" M 881.219 854.78 C 881.219 854.78 917.063 861.673 870.672 914.086 C 863.253 922.471 821.651 934.492 821.651 934.492 C 821.651 934.492 819.106 929.892 821.155 927.064 C 821.155 927.064 851.529 905.454 854.991 905.116 C 858.062 904.816 865.425 871.307 869.879 863.875 C 874.333 856.443 881.219 854.78 881.219 854.78 Z " fill="rgb(36,46,108)"/></g></g><path d=" M 566.692 816.632 L 562.396 819.016 L 567.245 817.957 C 567.794 817.912 568.327 818.162 568.643 818.621 L 572.387 826.585 L 570.03 818.082 C 569.97 817.547 570.237 817.031 570.707 816.773 L 576.025 813.858 L 570.349 815.137 C 569.695 815.285 569.023 814.993 568.677 814.416 L 565.948 809.227 L 567.297 815.122 C 567.395 815.702 567.162 816.287 566.692 816.632 Z " fill="rgb(255,255,255)"/><linearGradient id="_lgradient_67" x1="-0.000010018785225440752" y1="0.5000725002517372" x2="1.0000087664370625" y2="0.5000725002517372" gradientTransform="matrix(30.014,0,0,37.696,747.273,747.203)" gradientUnits="userSpaceOnUse"><stop offset="0%" stop-opacity="1" style="stop-color:rgb(249,121,90)"/><stop offset="100%" stop-opacity="1" style="stop-color:rgb(255,239,233)"/></linearGradient><path d=" M 756.05 764.785 L 747.273 773.835 L 758.373 767.613 C 759.684 767.086 761.177 767.31 762.282 768.194 L 777.287 784.899 L 765.281 765.833 C 764.744 764.569 765.018 763.1 765.977 762.125 L 776.866 751.007 L 763.898 758.386 C 762.406 759.236 760.545 759.027 759.271 757.869 L 748.784 747.203 L 756.411 760.637 C 757.083 761.98 756.941 763.586 756.05 764.785 Z " fill="url(#_lgradient_67)"/><path d=" M 482.76 1006.939 L 475.246 1014.69 L 484.748 1009.364 C 485.872 1008.913 487.15 1009.102 488.093 1009.862 L 500.941 1024.164 L 490.661 1007.842 C 490.202 1006.76 490.435 1005.504 491.258 1004.665 L 500.584 995.145 L 489.48 1001.461 C 488.202 1002.186 486.609 1002.012 485.519 1001.021 L 476.539 991.888 L 483.068 1003.39 C 483.643 1004.536 483.523 1005.914 482.76 1006.939 Z " fill="rgb(236,235,252)"/><path d=" M 781.917 1091.566 L 781.917 1091.566 C 786.755 1079.784 797.174 1057.214 805.101 1059.883 C 812.934 1062.521 795.321 1082.065 785.406 1092.268 C 787.375 1092.686 789.157 1093.1 790.799 1093.479 C 798.441 1086.453 811.063 1074.937 812.213 1079.674 C 813.22 1083.827 802.391 1090.101 794.107 1094.235 C 799.264 1095.37 803.166 1095.909 808.007 1094.796 C 815.983 1092.967 820.057 1098.433 820.057 1098.433 L 759.188 1098.433 C 759.192 1098.433 769.22 1089.148 781.917 1091.566 Z " fill="rgb(36,46,108)"/></g></g></g></g></g></svg>