<?xml version="1.0" encoding="UTF-8" standalone="no"?><!-- Generator: Gravit.io --><svg xmlns="http://www.w3.org/2000/svg" xmlns:xlink="http://www.w3.org/1999/xlink" style="isolation:isolate" viewBox="0 0 3600 1700" width="3600pt" height="1700pt"><defs><clipPath id="_clipPath_NtYAIjKHuFEHEzC5W98I1gQphFg4qezA"><rect width="3600" height="1700"/></clipPath></defs><g clip-path="url(#_clipPath_NtYAIjKHuFEHEzC5W98I1gQphFg4qezA)"><clipPath id="_clipPath_IGvW15QbGh9w32NNEHRj38VbaicAtkD6"><rect x="0" y="0" width="3600" height="1700" transform="matrix(1,0,0,1,0,0)" fill="rgb(255,255,255)"/></clipPath><g clip-path="url(#_clipPath_IGvW15QbGh9w32NNEHRj38VbaicAtkD6)"><g><clipPath id="_clipPath_sMma0IVMym0fCXb660Smwcx5qmvVzjbI"><rect x="0" y="0" width="3600" height="1700" transform="matrix(1,0,0,1,0,0)" fill="rgb(255,255,255)"/></clipPath><g clip-path="url(#_clipPath_sMma0IVMym0fCXb660Smwcx5qmvVzjbI)"><g><g><mask id="_mask_CPCXveKiUzJQB96T4rz42GW6dEIcW77w" x="-200%" y="-200%" width="400%" height="400%"><rect x="-200%" y="-200%" width="400%" height="400%" style="fill:white;"/><rect x="0" y="0" width="3600" height="1700" transform="matrix(1,0,0,1,0,0)" fill="black" stroke="none"/></mask><g mask="url(#_mask_CPCXveKiUzJQB96T4rz42GW6dEIcW77w)"><g><linearGradient id="_lgradient_10" x1="0.6335718135015308" y1="0.008071307548271567" x2="0.6335718135015309" y2="0.9604855982443196" gradientTransform="matrix(2566.78,0,0,574.034,1033.22,0)" gradientUnits="userSpaceOnUse"><stop offset="0%" stop-opacity="1" style="stop-color:rgb(14,64,83)"/><stop offset="100%" stop-opacity="1" style="stop-color:rgb(0,73,125)"/></linearGradient><path d=" M 3600 0 L 3599.52 396.95 C 3599.52 396.95 2190.024 751.693 1505 457 C 1455.658 435.773 1453.878 435.911 1419 420 C 1238.215 337.527 1162.193 257.975 1033.22 0 L 3600 0 L 3600 0 L 3600 0 Z " fill="url(#_lgradient_10)"/><linearGradient id="_lgradient_11" x1="0.3344916839726527" y1="0.07128507945017254" x2="0.33647092470621875" y2="0.9640513250998435" gradientTransform="matrix(2340.9,0,0,368.47,-24.29,0)" gradientUnits="userSpaceOnUse"><stop offset="0%" stop-opacity="1" style="stop-color:rgb(130,195,211)"/><stop offset="97.91666666666666%" stop-opacity="1" style="stop-color:rgb(6,108,191)"/></linearGradient><path d=" M -24.29 291.984 C -24.29 291.984 710.04 495.227 1320.71 239.096 C 1931.38 -17.034 2316.61 0.246 2316.61 0.246 L -24.29 0 L -24.29 291.984 L -24.29 291.984 Z " fill="url(#_lgradient_11)"/></g></g></g></g></g></g></g></g></svg>